<?xml version="1.0" encoding="utf-8" standalone="no"?>
<!DOCTYPE svg PUBLIC "-//W3C//DTD SVG 1.1//EN"
  "http://www.w3.org/Graphics/SVG/1.1/DTD/svg11.dtd">
<svg xmlns:xlink="http://www.w3.org/1999/xlink" width="864pt" height="576pt" viewBox="0 0 864 576" xmlns="http://www.w3.org/2000/svg" version="1.1">
 <metadata>
  <rdf:RDF xmlns:dc="http://purl.org/dc/elements/1.1/" xmlns:cc="http://creativecommons.org/ns#" xmlns:rdf="http://www.w3.org/1999/02/22-rdf-syntax-ns#">
   <cc:Work>
    <dc:type rdf:resource="http://purl.org/dc/dcmitype/StillImage"/>
    <dc:date>2024-08-09T11:03:40.767391</dc:date>
    <dc:format>image/svg+xml</dc:format>
    <dc:creator>
     <cc:Agent>
      <dc:title>Matplotlib v3.8.3, https://matplotlib.org/</dc:title>
     </cc:Agent>
    </dc:creator>
   </cc:Work>
  </rdf:RDF>
 </metadata>
 <defs>
  <style type="text/css">*{stroke-linejoin: round; stroke-linecap: butt}</style>
 </defs>
 <g id="figure_1">
  <g id="patch_1">
   <path d="M 0 576 
L 864 576 
L 864 0 
L 0 0 
z
" style="fill: #ffffff"/>
  </g>
  <g id="axes_1">
   <g id="patch_2">
    <path d="M 69.12 489.6 
L 838.08 489.6 
L 838.08 28.8 
L 69.12 28.8 
z
" style="fill: #ffffff"/>
   </g>
   <g id="PathCollection_1">
    <defs>
     <path id="mce8da2d077" d="M 0 1.322876 
C 0.350831 1.322876 0.68734 1.183489 0.935414 0.935414 
C 1.183489 0.68734 1.322876 0.350831 1.322876 0 
C 1.322876 -0.350831 1.183489 -0.68734 0.935414 -0.935414 
C 0.68734 -1.183489 0.350831 -1.322876 0 -1.322876 
C -0.350831 -1.322876 -0.68734 -1.183489 -0.935414 -0.935414 
C -1.183489 -0.68734 -1.322876 -0.350831 -1.322876 0 
C -1.322876 0.350831 -1.183489 0.68734 -0.935414 0.935414 
C -0.68734 1.183489 -0.350831 1.322876 0 1.322876 
z
" style="stroke: #000000"/>
    </defs>
    <g clip-path="url(#padbf4216de)">
     <use xlink:href="#mce8da2d077" x="410.53824" y="412.093721" style="stroke: #000000"/>
     <use xlink:href="#mce8da2d077" x="413.61408" y="419.719708" style="stroke: #000000"/>
     <use xlink:href="#mce8da2d077" x="416.68992" y="381.589772" style="stroke: #000000"/>
     <use xlink:href="#mce8da2d077" x="419.76576" y="425.820498" style="stroke: #000000"/>
     <use xlink:href="#mce8da2d077" x="422.8416" y="419.719708" style="stroke: #000000"/>
     <use xlink:href="#mce8da2d077" x="425.91744" y="434.971682" style="stroke: #000000"/>
     <use xlink:href="#mce8da2d077" x="428.99328" y="419.719708" style="stroke: #000000"/>
     <use xlink:href="#mce8da2d077" x="432.06912" y="418.19451" style="stroke: #000000"/>
     <use xlink:href="#mce8da2d077" x="435.14496" y="407.518128" style="stroke: #000000"/>
     <use xlink:href="#mce8da2d077" x="438.2208" y="431.921287" style="stroke: #000000"/>
     <use xlink:href="#mce8da2d077" x="441.29664" y="396.841746" style="stroke: #000000"/>
     <use xlink:href="#mce8da2d077" x="444.37248" y="416.669313" style="stroke: #000000"/>
     <use xlink:href="#mce8da2d077" x="447.44832" y="419.719708" style="stroke: #000000"/>
     <use xlink:href="#mce8da2d077" x="450.52416" y="389.215759" style="stroke: #000000"/>
     <use xlink:href="#mce8da2d077" x="453.6" y="447.173262" style="stroke: #000000"/>
     <use xlink:href="#mce8da2d077" x="456.67584" y="383.114969" style="stroke: #000000"/>
     <use xlink:href="#mce8da2d077" x="459.75168" y="457.849644" style="stroke: #000000"/>
     <use xlink:href="#mce8da2d077" x="462.82752" y="459.374841" style="stroke: #000000"/>
     <use xlink:href="#mce8da2d077" x="465.90336" y="438.022077" style="stroke: #000000"/>
     <use xlink:href="#mce8da2d077" x="468.9792" y="436.49688" style="stroke: #000000"/>
     <use xlink:href="#mce8da2d077" x="472.05504" y="445.648064" style="stroke: #000000"/>
     <use xlink:href="#mce8da2d077" x="475.13088" y="419.719708" style="stroke: #000000"/>
     <use xlink:href="#mce8da2d077" x="478.20672" y="331.258256" style="stroke: #000000"/>
     <use xlink:href="#mce8da2d077" x="481.28256" y="369.388192" style="stroke: #000000"/>
     <use xlink:href="#mce8da2d077" x="484.3584" y="434.971682" style="stroke: #000000"/>
     <use xlink:href="#mce8da2d077" x="487.43424" y="399.892141" style="stroke: #000000"/>
     <use xlink:href="#mce8da2d077" x="490.51008" y="447.173262" style="stroke: #000000"/>
     <use xlink:href="#mce8da2d077" x="493.58592" y="390.740956" style="stroke: #000000"/>
     <use xlink:href="#mce8da2d077" x="496.66176" y="416.669313" style="stroke: #000000"/>
     <use xlink:href="#mce8da2d077" x="499.7376" y="392.266154" style="stroke: #000000"/>
     <use xlink:href="#mce8da2d077" x="502.81344" y="404.467733" style="stroke: #000000"/>
     <use xlink:href="#mce8da2d077" x="505.88928" y="363.287402" style="stroke: #000000"/>
     <use xlink:href="#mce8da2d077" x="508.96512" y="413.618918" style="stroke: #000000"/>
     <use xlink:href="#mce8da2d077" x="512.04096" y="363.287402" style="stroke: #000000"/>
     <use xlink:href="#mce8da2d077" x="515.1168" y="381.589772" style="stroke: #000000"/>
     <use xlink:href="#mce8da2d077" x="518.19264" y="444.122867" style="stroke: #000000"/>
     <use xlink:href="#mce8da2d077" x="521.26848" y="410.568523" style="stroke: #000000"/>
     <use xlink:href="#mce8da2d077" x="524.34432" y="370.91339" style="stroke: #000000"/>
     <use xlink:href="#mce8da2d077" x="527.42016" y="395.316549" style="stroke: #000000"/>
     <use xlink:href="#mce8da2d077" x="530.496" y="367.862995" style="stroke: #000000"/>
     <use xlink:href="#mce8da2d077" x="533.57184" y="404.467733" style="stroke: #000000"/>
     <use xlink:href="#mce8da2d077" x="536.64768" y="416.669313" style="stroke: #000000"/>
     <use xlink:href="#mce8da2d077" x="539.72352" y="352.61102" style="stroke: #000000"/>
     <use xlink:href="#mce8da2d077" x="542.79936" y="404.467733" style="stroke: #000000"/>
     <use xlink:href="#mce8da2d077" x="545.8752" y="369.388192" style="stroke: #000000"/>
     <use xlink:href="#mce8da2d077" x="548.95104" y="390.740956" style="stroke: #000000"/>
     <use xlink:href="#mce8da2d077" x="552.02688" y="352.61102" style="stroke: #000000"/>
     <use xlink:href="#mce8da2d077" x="555.10272" y="419.719708" style="stroke: #000000"/>
     <use xlink:href="#mce8da2d077" x="558.17856" y="393.791351" style="stroke: #000000"/>
     <use xlink:href="#mce8da2d077" x="561.2544" y="378.539377" style="stroke: #000000"/>
     <use xlink:href="#mce8da2d077" x="564.33024" y="392.266154" style="stroke: #000000"/>
     <use xlink:href="#mce8da2d077" x="567.40608" y="322.107071" style="stroke: #000000"/>
     <use xlink:href="#mce8da2d077" x="570.48192" y="348.035428" style="stroke: #000000"/>
     <use xlink:href="#mce8da2d077" x="573.55776" y="396.841746" style="stroke: #000000"/>
     <use xlink:href="#mce8da2d077" x="576.6336" y="340.409441" style="stroke: #000000"/>
     <use xlink:href="#mce8da2d077" x="579.70944" y="389.215759" style="stroke: #000000"/>
     <use xlink:href="#mce8da2d077" x="582.78528" y="370.91339" style="stroke: #000000"/>
     <use xlink:href="#mce8da2d077" x="585.86112" y="384.640167" style="stroke: #000000"/>
     <use xlink:href="#mce8da2d077" x="588.93696" y="338.884243" style="stroke: #000000"/>
     <use xlink:href="#mce8da2d077" x="592.0128" y="395.316549" style="stroke: #000000"/>
     <use xlink:href="#mce8da2d077" x="595.08864" y="418.19451" style="stroke: #000000"/>
     <use xlink:href="#mce8da2d077" x="598.16448" y="357.186613" style="stroke: #000000"/>
    </g>
   </g>
   <g id="PolyCollection_1">
    <defs>
     <path id="m468561dd6a" d="M 69.12 -355.666613 
L 69.12 -280.416612 
L 72.19584 -279.507087 
L 75.27168 -276.899582 
L 78.34752 -261.778883 
L 81.42336 -272.189113 
L 84.4992 -257.95423 
L 87.57504 -271.225142 
L 90.65088 -282.729065 
L 93.72672 -264.872268 
L 96.80256 -271.707474 
L 99.8784 -259.512835 
L 102.95424 -265.554908 
L 106.03008 -264.798756 
L 109.10592 -276.639539 
L 112.18176 -265.899838 
L 115.2576 -270.200871 
L 118.33344 -257.406141 
L 121.40928 -280.276016 
L 124.48512 -268.263241 
L 127.56096 -266.966971 
L 130.6368 -252.479271 
L 133.71264 -260.351582 
L 136.78848 -273.812702 
L 139.86432 -282.286896 
L 142.94016 -273.946514 
L 146.016 -251.676242 
L 149.09184 -280.071356 
L 152.16768 -273.180122 
L 155.24352 -254.587484 
L 158.31936 -271.485383 
L 161.3952 -278.111681 
L 164.47104 -248.678816 
L 167.54688 -278.429812 
L 170.62272 -261.540635 
L 173.69856 -245.863248 
L 176.7744 -258.403357 
L 179.85024 -270.346157 
L 182.92608 -269.353863 
L 186.00192 -279.079428 
L 189.07776 -268.694077 
L 192.1536 -251.625938 
L 195.22944 -274.820542 
L 198.30528 -265.706623 
L 201.38112 -270.972581 
L 204.45696 -260.968942 
L 207.5328 -247.819851 
L 210.60864 -283.507181 
L 213.68448 -250.472178 
L 216.76032 -269.352041 
L 219.83616 -264.217789 
L 222.912 -282.999174 
L 225.98784 -276.482146 
L 229.06368 -277.680246 
L 232.13952 -259.157572 
L 235.21536 -260.010178 
L 238.2912 -256.93274 
L 241.36704 -268.153755 
L 244.44288 -261.033518 
L 247.51872 -271.20582 
L 250.59456 -276.867815 
L 253.6704 -281.007656 
L 256.74624 -280.579346 
L 259.82208 -267.242165 
L 262.89792 -254.344296 
L 265.97376 -269.425438 
L 269.0496 -273.858962 
L 272.12544 -274.852257 
L 275.20128 -256.686114 
L 278.27712 -261.408714 
L 281.35296 -244.130528 
L 284.4288 -271.015048 
L 287.50464 -267.345815 
L 290.58048 -260.522584 
L 293.65632 -264.532447 
L 296.73216 -274.672598 
L 299.808 -276.366952 
L 302.88384 -234.988205 
L 305.95968 -267.958207 
L 309.03552 -270.128615 
L 312.11136 -267.878847 
L 315.1872 -262.103967 
L 318.26304 -238.746822 
L 321.33888 -282.840786 
L 324.41472 -244.071724 
L 327.49056 -269.357592 
L 330.5664 -279.543805 
L 333.64224 -260.67584 
L 336.71808 -260.874123 
L 339.79392 -266.951722 
L 342.86976 -269.815598 
L 345.9456 -273.339429 
L 349.02144 -268.627994 
L 352.09728 -271.448292 
L 355.17312 -272.606689 
L 358.24896 -277.90122 
L 361.3248 -272.914935 
L 364.40064 -250.242146 
L 367.47648 -266.335677 
L 370.55232 -269.568239 
L 373.62816 -279.023923 
L 376.704 -271.04596 
L 379.77984 -266.163116 
L 382.85568 -278.136367 
L 385.93152 -252.163892 
L 389.00736 -274.333195 
L 392.0832 -275.207235 
L 395.15904 -267.314025 
L 398.23488 -259.098239 
L 401.31072 -247.351797 
L 404.38656 -281.918862 
L 407.4624 -256.433012 
L 410.53824 -250.311393 
L 413.61408 -248.967164 
L 416.68992 -251.746572 
L 419.76576 -266.234581 
L 422.8416 -260.723113 
L 425.91744 -249.353537 
L 428.99328 -247.369856 
L 432.06912 -272.010176 
L 435.14496 -268.850632 
L 438.2208 -260.117093 
L 441.29664 -242.196261 
L 444.37248 -261.439713 
L 447.44832 -248.772011 
L 450.52416 -238.898082 
L 453.6 -256.916281 
L 456.67584 -253.31707 
L 459.75168 -260.722752 
L 462.82752 -250.511771 
L 465.90336 -270.412228 
L 468.9792 -278.70475 
L 472.05504 -268.958245 
L 475.13088 -254.586058 
L 478.20672 -255.57951 
L 481.28256 -266.20638 
L 484.3584 -265.429678 
L 487.43424 -261.081343 
L 490.51008 -262.960157 
L 493.58592 -273.449567 
L 496.66176 -275.055759 
L 499.7376 -277.651749 
L 502.81344 -274.683675 
L 505.88928 -267.428375 
L 508.96512 -268.989657 
L 512.04096 -273.585735 
L 515.1168 -269.332702 
L 518.19264 -261.103825 
L 521.26848 -272.622607 
L 524.34432 -279.071853 
L 527.42016 -273.693336 
L 530.496 -276.064181 
L 533.57184 -284.363632 
L 536.64768 -281.141788 
L 539.72352 -290.437787 
L 542.79936 -288.658114 
L 545.8752 -284.009905 
L 548.95104 -282.14317 
L 552.02688 -291.145788 
L 555.10272 -292.276199 
L 558.17856 -293.793443 
L 561.2544 -299.006427 
L 564.33024 -288.594231 
L 567.40608 -276.145408 
L 570.48192 -279.522499 
L 573.55776 -297.500372 
L 573.55776 -360.859629 
L 573.55776 -360.859629 
L 570.48192 -356.983718 
L 567.40608 -344.936971 
L 564.33024 -348.297731 
L 561.2544 -363.089023 
L 558.17856 -364.692463 
L 555.10272 -368.563801 
L 552.02688 -347.672388 
L 548.95104 -351.514665 
L 545.8752 -350.390636 
L 542.79936 -355.787753 
L 539.72352 -346.209806 
L 536.64768 -350.501018 
L 533.57184 -338.833726 
L 530.496 -358.344092 
L 527.42016 -340.063675 
L 524.34432 -337.386766 
L 521.26848 -344.832122 
L 518.19264 -335.427457 
L 515.1168 -333.206297 
L 512.04096 -328.605913 
L 508.96512 -336.413439 
L 505.88928 -325.429008 
L 502.81344 -344.535756 
L 499.7376 -339.087107 
L 496.66176 -336.28502 
L 493.58592 -331.949456 
L 490.51008 -343.407352 
L 487.43424 -333.087705 
L 484.3584 -339.002308 
L 481.28256 -320.548288 
L 478.20672 -348.466184 
L 475.13088 -324.655815 
L 472.05504 -332.298849 
L 468.9792 -333.571218 
L 465.90336 -335.147365 
L 462.82752 -335.404487 
L 459.75168 -311.657041 
L 456.67584 -323.390515 
L 453.6 -328.872979 
L 450.52416 -339.552997 
L 447.44832 -323.295929 
L 444.37248 -322.201241 
L 441.29664 -329.061039 
L 438.2208 -325.290565 
L 435.14496 -340.603578 
L 432.06912 -349.186013 
L 428.99328 -319.755359 
L 425.91744 -325.339531 
L 422.8416 -322.660864 
L 419.76576 -332.98644 
L 416.68992 -328.940888 
L 413.61408 -318.303104 
L 410.53824 -331.680035 
L 407.4624 -324.28959 
L 404.38656 -338.616575 
L 401.31072 -332.623095 
L 398.23488 -346.68675 
L 395.15904 -344.25887 
L 392.0832 -333.437639 
L 389.00736 -336.049815 
L 385.93152 -338.584656 
L 382.85568 -336.318033 
L 379.77984 -323.318957 
L 376.704 -331.011551 
L 373.62816 -342.803554 
L 370.55232 -354.095051 
L 367.47648 -338.142086 
L 364.40064 -327.941781 
L 361.3248 -354.868698 
L 358.24896 -333.712215 
L 355.17312 -326.686605 
L 352.09728 -340.464547 
L 349.02144 -340.511965 
L 345.9456 -345.260694 
L 342.86976 -353.760163 
L 339.79392 -346.35672 
L 336.71808 -356.063749 
L 333.64224 -352.845489 
L 330.5664 -339.73844 
L 327.49056 -345.297465 
L 324.41472 -329.8468 
L 321.33888 -332.118445 
L 318.26304 -338.885845 
L 315.1872 -334.570977 
L 312.11136 -334.050716 
L 309.03552 -336.141649 
L 305.95968 -355.385025 
L 302.88384 -330.68009 
L 299.808 -354.087824 
L 296.73216 -335.26285 
L 293.65632 -339.907009 
L 290.58048 -341.279329 
L 287.50464 -331.019964 
L 284.4288 -361.153575 
L 281.35296 -335.546695 
L 278.27712 -330.65115 
L 275.20128 -349.064949 
L 272.12544 -348.558803 
L 269.0496 -348.193853 
L 265.97376 -331.10083 
L 262.89792 -322.058899 
L 259.82208 -342.307602 
L 256.74624 -348.126147 
L 253.6704 -365.005777 
L 250.59456 -345.367644 
L 247.51872 -360.481856 
L 244.44288 -332.170599 
L 241.36704 -343.90928 
L 238.2912 -330.964575 
L 235.21536 -331.442811 
L 232.13952 -341.102904 
L 229.06368 -360.672261 
L 225.98784 -332.137564 
L 222.912 -353.026981 
L 219.83616 -329.774678 
L 216.76032 -359.020443 
L 213.68448 -339.171948 
L 210.60864 -369.811838 
L 207.5328 -339.784473 
L 204.45696 -331.379235 
L 201.38112 -334.638462 
L 198.30528 -350.381775 
L 195.22944 -345.584731 
L 192.1536 -346.847413 
L 189.07776 -323.75721 
L 186.00192 -315.434236 
L 182.92608 -345.305773 
L 179.85024 -328.720019 
L 176.7744 -327.886125 
L 173.69856 -318.093545 
L 170.62272 -352.239247 
L 167.54688 -347.336535 
L 164.47104 -355.524871 
L 161.3952 -343.472667 
L 158.31936 -339.903961 
L 155.24352 -350.082977 
L 152.16768 -343.631945 
L 149.09184 -331.948083 
L 146.016 -333.236278 
L 142.94016 -342.723846 
L 139.86432 -348.205414 
L 136.78848 -346.170877 
L 133.71264 -353.56814 
L 130.6368 -367.002787 
L 127.56096 -370.537399 
L 124.48512 -357.509715 
L 121.40928 -351.631063 
L 118.33344 -351.371573 
L 115.2576 -356.572001 
L 112.18176 -330.141147 
L 109.10592 -346.406559 
L 106.03008 -354.128947 
L 102.95424 -334.331158 
L 99.8784 -340.542499 
L 96.80256 -346.75708 
L 93.72672 -330.586074 
L 90.65088 -348.965551 
L 87.57504 -350.931231 
L 84.4992 -346.926005 
L 81.42336 -362.529338 
L 78.34752 -349.077766 
L 75.27168 -335.632205 
L 72.19584 -341.42864 
L 69.12 -355.666613 
z
" style="stroke: #777777; stroke-opacity: 0.03"/>
    </defs>
    <g clip-path="url(#padbf4216de)">
     <use xlink:href="#m468561dd6a" x="0" y="576" style="fill: #777777; fill-opacity: 0.03; stroke: #777777; stroke-opacity: 0.03"/>
    </g>
   </g>
   <g id="PolyCollection_2">
    <defs>
     <path id="me6fa453bd6" d="M 576.6336 -363.207062 
L 576.6336 -271.95872 
L 579.70944 -275.074755 
L 582.78528 -278.045045 
L 585.86112 -230.948151 
L 588.93696 -295.320229 
L 592.0128 -287.573573 
L 595.08864 -268.846757 
L 598.16448 -278.301045 
L 601.24032 -266.553934 
L 604.31616 -273.040317 
L 607.392 -287.708322 
L 610.46784 -255.760537 
L 613.54368 -273.644068 
L 616.61952 -276.962227 
L 619.69536 -255.904362 
L 622.7712 -305.592435 
L 625.84704 -287.316701 
L 628.92288 -271.04166 
L 631.99872 -262.601304 
L 635.07456 -294.187083 
L 638.1504 -258.517417 
L 641.22624 -273.621377 
L 644.30208 -213.873752 
L 647.37792 -314.8446 
L 650.45376 -256.497931 
L 653.5296 -298.450519 
L 656.60544 -296.758596 
L 659.68128 -294.889336 
L 662.75712 -314.633284 
L 665.83296 -267.588928 
L 668.9088 -230.788326 
L 671.98464 -321.30131 
L 675.06048 -258.267759 
L 678.13632 -272.062399 
L 681.21216 -280.419148 
L 684.288 -306.715981 
L 687.36384 -236.744267 
L 690.43968 -274.500444 
L 693.51552 -294.266676 
L 696.59136 -298.777558 
L 699.6672 -328.228186 
L 702.74304 -293.575186 
L 705.81888 -298.571421 
L 708.89472 -233.080218 
L 711.97056 -298.739915 
L 715.0464 -281.995813 
L 718.12224 -308.303235 
L 721.19808 -323.59134 
L 724.27392 -274.876239 
L 727.34976 -246.157129 
L 730.4256 -269.657693 
L 733.50144 -305.076131 
L 736.57728 -254.975608 
L 739.65312 -314.259932 
L 742.72896 -326.464758 
L 745.8048 -303.693676 
L 748.88064 -292.311539 
L 751.95648 -305.102603 
L 755.03232 -321.075972 
L 758.10816 -317.96977 
L 761.184 -323.49697 
L 764.25984 -324.210917 
L 767.33568 -238.165296 
L 770.41152 -331.9599 
L 773.48736 -271.759564 
L 776.5632 -330.863699 
L 779.63904 -283.333759 
L 782.71488 -299.736392 
L 785.79072 -298.719377 
L 788.86656 -299.719636 
L 791.9424 -269.971758 
L 795.01824 -332.989774 
L 798.09408 -333.642863 
L 801.16992 -306.860621 
L 804.24576 -335.472327 
L 807.3216 -317.01495 
L 810.39744 -333.081468 
L 813.47328 -253.88924 
L 816.54912 -309.720831 
L 819.62496 -331.650839 
L 822.7008 -335.485593 
L 825.77664 -297.120719 
L 828.85248 -249.096467 
L 831.92832 -303.845938 
L 835.00416 -256.283532 
L 838.08 -317.207811 
L 838.08 -436.299599 
L 838.08 -436.299599 
L 835.00416 -509.621106 
L 831.92832 -526.254545 
L 828.85248 -446.552646 
L 825.77664 -440.257739 
L 822.7008 -469.919101 
L 819.62496 -416.404245 
L 816.54912 -427.048988 
L 813.47328 -425.677006 
L 810.39744 -438.499838 
L 807.3216 -454.067623 
L 804.24576 -447.85289 
L 801.16992 -439.700242 
L 798.09408 -438.175184 
L 795.01824 -454.399025 
L 791.9424 -415.534022 
L 788.86656 -480.566346 
L 785.79072 -439.98958 
L 782.71488 -440.515658 
L 779.63904 -442.135378 
L 776.5632 -412.355209 
L 773.48736 -460.194152 
L 770.41152 -436.32524 
L 767.33568 -410.844464 
L 764.25984 -411.808185 
L 761.184 -426.239681 
L 758.10816 -427.70807 
L 755.03232 -423.018395 
L 751.95648 -440.249244 
L 748.88064 -419.578986 
L 745.8048 -427.466034 
L 742.72896 -434.514452 
L 739.65312 -416.630979 
L 736.57728 -416.431183 
L 733.50144 -443.630995 
L 730.4256 -449.762296 
L 727.34976 -405.761015 
L 724.27392 -431.357224 
L 721.19808 -491.128878 
L 718.12224 -461.362905 
L 715.0464 -405.237147 
L 711.97056 -404.157121 
L 708.89472 -408.143438 
L 705.81888 -399.008742 
L 702.74304 -517.135384 
L 699.6672 -406.163865 
L 696.59136 -394.845262 
L 693.51552 -387.703812 
L 690.43968 -376.963127 
L 687.36384 -382.275579 
L 684.288 -410.419505 
L 681.21216 -395.377275 
L 678.13632 -396.672341 
L 675.06048 -411.849145 
L 671.98464 -386.953094 
L 668.9088 -402.249286 
L 665.83296 -399.349454 
L 662.75712 -430.961472 
L 659.68128 -401.51195 
L 656.60544 -391.369664 
L 653.5296 -398.714401 
L 650.45376 -397.71868 
L 647.37792 -440.599265 
L 644.30208 -384.818117 
L 641.22624 -443.807228 
L 638.1504 -398.791084 
L 635.07456 -409.77939 
L 631.99872 -381.814373 
L 628.92288 -368.728327 
L 625.84704 -369.013999 
L 622.7712 -375.676323 
L 619.69536 -388.264683 
L 616.61952 -378.358847 
L 613.54368 -390.667527 
L 610.46784 -376.009762 
L 607.392 -372.877262 
L 604.31616 -401.031777 
L 601.24032 -383.843342 
L 598.16448 -366.297148 
L 595.08864 -395.328112 
L 592.0128 -438.563896 
L 588.93696 -480.672934 
L 585.86112 -380.494231 
L 582.78528 -368.763294 
L 579.70944 -380.262318 
L 576.6336 -363.207062 
z
" style="stroke: #3db5af; stroke-opacity: 0.07"/>
    </defs>
    <g clip-path="url(#padbf4216de)">
     <use xlink:href="#me6fa453bd6" x="0" y="576" style="fill: #3db5af; fill-opacity: 0.07; stroke: #3db5af; stroke-opacity: 0.07"/>
    </g>
   </g>
   <g id="matplotlib.axis_1">
    <g id="xtick_1">
     <g id="line2d_1">
      <defs>
       <path id="m2314dfba54" d="M 0 0 
L 0 3.5 
" style="stroke: #717174; stroke-width: 0.8"/>
      </defs>
      <g>
       <use xlink:href="#m2314dfba54" x="69.12" y="489.6" style="fill: #717174; stroke: #717174; stroke-width: 0.8"/>
      </g>
     </g>
     <g id="text_1">
      <!-- 1850 -->
      <g style="fill: #717174" transform="translate(53.85 505.718125) scale(0.12 -0.12)">
       <defs>
        <path id="DejaVuSans-31" d="M 794 531 
L 1825 531 
L 1825 4091 
L 703 3866 
L 703 4441 
L 1819 4666 
L 2450 4666 
L 2450 531 
L 3481 531 
L 3481 0 
L 794 0 
L 794 531 
z
" transform="scale(0.015625)"/>
        <path id="DejaVuSans-38" d="M 2034 2216 
Q 1584 2216 1326 1975 
Q 1069 1734 1069 1313 
Q 1069 891 1326 650 
Q 1584 409 2034 409 
Q 2484 409 2743 651 
Q 3003 894 3003 1313 
Q 3003 1734 2745 1975 
Q 2488 2216 2034 2216 
z
M 1403 2484 
Q 997 2584 770 2862 
Q 544 3141 544 3541 
Q 544 4100 942 4425 
Q 1341 4750 2034 4750 
Q 2731 4750 3128 4425 
Q 3525 4100 3525 3541 
Q 3525 3141 3298 2862 
Q 3072 2584 2669 2484 
Q 3125 2378 3379 2068 
Q 3634 1759 3634 1313 
Q 3634 634 3220 271 
Q 2806 -91 2034 -91 
Q 1263 -91 848 271 
Q 434 634 434 1313 
Q 434 1759 690 2068 
Q 947 2378 1403 2484 
z
M 1172 3481 
Q 1172 3119 1398 2916 
Q 1625 2713 2034 2713 
Q 2441 2713 2670 2916 
Q 2900 3119 2900 3481 
Q 2900 3844 2670 4047 
Q 2441 4250 2034 4250 
Q 1625 4250 1398 4047 
Q 1172 3844 1172 3481 
z
" transform="scale(0.015625)"/>
        <path id="DejaVuSans-35" d="M 691 4666 
L 3169 4666 
L 3169 4134 
L 1269 4134 
L 1269 2991 
Q 1406 3038 1543 3061 
Q 1681 3084 1819 3084 
Q 2600 3084 3056 2656 
Q 3513 2228 3513 1497 
Q 3513 744 3044 326 
Q 2575 -91 1722 -91 
Q 1428 -91 1123 -41 
Q 819 9 494 109 
L 494 744 
Q 775 591 1075 516 
Q 1375 441 1709 441 
Q 2250 441 2565 725 
Q 2881 1009 2881 1497 
Q 2881 1984 2565 2268 
Q 2250 2553 1709 2553 
Q 1456 2553 1204 2497 
Q 953 2441 691 2322 
L 691 4666 
z
" transform="scale(0.015625)"/>
        <path id="DejaVuSans-30" d="M 2034 4250 
Q 1547 4250 1301 3770 
Q 1056 3291 1056 2328 
Q 1056 1369 1301 889 
Q 1547 409 2034 409 
Q 2525 409 2770 889 
Q 3016 1369 3016 2328 
Q 3016 3291 2770 3770 
Q 2525 4250 2034 4250 
z
M 2034 4750 
Q 2819 4750 3233 4129 
Q 3647 3509 3647 2328 
Q 3647 1150 3233 529 
Q 2819 -91 2034 -91 
Q 1250 -91 836 529 
Q 422 1150 422 2328 
Q 422 3509 836 4129 
Q 1250 4750 2034 4750 
z
" transform="scale(0.015625)"/>
       </defs>
       <use xlink:href="#DejaVuSans-31"/>
       <use xlink:href="#DejaVuSans-38" x="63.623047"/>
       <use xlink:href="#DejaVuSans-35" x="127.246094"/>
       <use xlink:href="#DejaVuSans-30" x="190.869141"/>
      </g>
     </g>
    </g>
    <g id="xtick_2">
     <g id="line2d_2">
      <g>
       <use xlink:href="#m2314dfba54" x="222.912" y="489.6" style="fill: #717174; stroke: #717174; stroke-width: 0.8"/>
      </g>
     </g>
     <g id="text_2">
      <!-- 1900 -->
      <g style="fill: #717174" transform="translate(207.642 505.718125) scale(0.12 -0.12)">
       <defs>
        <path id="DejaVuSans-39" d="M 703 97 
L 703 672 
Q 941 559 1184 500 
Q 1428 441 1663 441 
Q 2288 441 2617 861 
Q 2947 1281 2994 2138 
Q 2813 1869 2534 1725 
Q 2256 1581 1919 1581 
Q 1219 1581 811 2004 
Q 403 2428 403 3163 
Q 403 3881 828 4315 
Q 1253 4750 1959 4750 
Q 2769 4750 3195 4129 
Q 3622 3509 3622 2328 
Q 3622 1225 3098 567 
Q 2575 -91 1691 -91 
Q 1453 -91 1209 -44 
Q 966 3 703 97 
z
M 1959 2075 
Q 2384 2075 2632 2365 
Q 2881 2656 2881 3163 
Q 2881 3666 2632 3958 
Q 2384 4250 1959 4250 
Q 1534 4250 1286 3958 
Q 1038 3666 1038 3163 
Q 1038 2656 1286 2365 
Q 1534 2075 1959 2075 
z
" transform="scale(0.015625)"/>
       </defs>
       <use xlink:href="#DejaVuSans-31"/>
       <use xlink:href="#DejaVuSans-39" x="63.623047"/>
       <use xlink:href="#DejaVuSans-30" x="127.246094"/>
       <use xlink:href="#DejaVuSans-30" x="190.869141"/>
      </g>
     </g>
    </g>
    <g id="xtick_3">
     <g id="line2d_3">
      <g>
       <use xlink:href="#m2314dfba54" x="376.704" y="489.6" style="fill: #717174; stroke: #717174; stroke-width: 0.8"/>
      </g>
     </g>
     <g id="text_3">
      <!-- 1950 -->
      <g style="fill: #717174" transform="translate(361.434 505.718125) scale(0.12 -0.12)">
       <use xlink:href="#DejaVuSans-31"/>
       <use xlink:href="#DejaVuSans-39" x="63.623047"/>
       <use xlink:href="#DejaVuSans-35" x="127.246094"/>
       <use xlink:href="#DejaVuSans-30" x="190.869141"/>
      </g>
     </g>
    </g>
    <g id="xtick_4">
     <g id="line2d_4">
      <g>
       <use xlink:href="#m2314dfba54" x="530.496" y="489.6" style="fill: #717174; stroke: #717174; stroke-width: 0.8"/>
      </g>
     </g>
     <g id="text_4">
      <!-- 2000 -->
      <g style="fill: #717174" transform="translate(515.226 505.718125) scale(0.12 -0.12)">
       <defs>
        <path id="DejaVuSans-32" d="M 1228 531 
L 3431 531 
L 3431 0 
L 469 0 
L 469 531 
Q 828 903 1448 1529 
Q 2069 2156 2228 2338 
Q 2531 2678 2651 2914 
Q 2772 3150 2772 3378 
Q 2772 3750 2511 3984 
Q 2250 4219 1831 4219 
Q 1534 4219 1204 4116 
Q 875 4013 500 3803 
L 500 4441 
Q 881 4594 1212 4672 
Q 1544 4750 1819 4750 
Q 2544 4750 2975 4387 
Q 3406 4025 3406 3419 
Q 3406 3131 3298 2873 
Q 3191 2616 2906 2266 
Q 2828 2175 2409 1742 
Q 1991 1309 1228 531 
z
" transform="scale(0.015625)"/>
       </defs>
       <use xlink:href="#DejaVuSans-32"/>
       <use xlink:href="#DejaVuSans-30" x="63.623047"/>
       <use xlink:href="#DejaVuSans-30" x="127.246094"/>
       <use xlink:href="#DejaVuSans-30" x="190.869141"/>
      </g>
     </g>
    </g>
    <g id="xtick_5">
     <g id="line2d_5">
      <g>
       <use xlink:href="#m2314dfba54" x="576.6336" y="489.6" style="fill: #717174; stroke: #717174; stroke-width: 0.8"/>
      </g>
     </g>
     <g id="text_5">
      <!-- 2015 -->
      <g style="fill: #717174" transform="translate(561.3636 505.718125) scale(0.12 -0.12)">
       <use xlink:href="#DejaVuSans-32"/>
       <use xlink:href="#DejaVuSans-30" x="63.623047"/>
       <use xlink:href="#DejaVuSans-31" x="127.246094"/>
       <use xlink:href="#DejaVuSans-35" x="190.869141"/>
      </g>
     </g>
    </g>
    <g id="xtick_6">
     <g id="line2d_6">
      <g>
       <use xlink:href="#m2314dfba54" x="684.288" y="489.6" style="fill: #717174; stroke: #717174; stroke-width: 0.8"/>
      </g>
     </g>
     <g id="text_6">
      <!-- 2050 -->
      <g style="fill: #717174" transform="translate(669.018 505.718125) scale(0.12 -0.12)">
       <use xlink:href="#DejaVuSans-32"/>
       <use xlink:href="#DejaVuSans-30" x="63.623047"/>
       <use xlink:href="#DejaVuSans-35" x="127.246094"/>
       <use xlink:href="#DejaVuSans-30" x="190.869141"/>
      </g>
     </g>
    </g>
    <g id="xtick_7">
     <g id="line2d_7">
      <g>
       <use xlink:href="#m2314dfba54" x="761.184" y="489.6" style="fill: #717174; stroke: #717174; stroke-width: 0.8"/>
      </g>
     </g>
     <g id="text_7">
      <!-- 2075 -->
      <g style="fill: #717174" transform="translate(745.914 505.718125) scale(0.12 -0.12)">
       <defs>
        <path id="DejaVuSans-37" d="M 525 4666 
L 3525 4666 
L 3525 4397 
L 1831 0 
L 1172 0 
L 2766 4134 
L 525 4134 
L 525 4666 
z
" transform="scale(0.015625)"/>
       </defs>
       <use xlink:href="#DejaVuSans-32"/>
       <use xlink:href="#DejaVuSans-30" x="63.623047"/>
       <use xlink:href="#DejaVuSans-37" x="127.246094"/>
       <use xlink:href="#DejaVuSans-35" x="190.869141"/>
      </g>
     </g>
    </g>
    <g id="xtick_8">
     <g id="line2d_8">
      <g>
       <use xlink:href="#m2314dfba54" x="838.08" y="489.6" style="fill: #717174; stroke: #717174; stroke-width: 0.8"/>
      </g>
     </g>
     <g id="text_8">
      <!-- 2100 -->
      <g style="fill: #717174" transform="translate(807.54 505.718125) scale(0.12 -0.12)">
       <use xlink:href="#DejaVuSans-32"/>
       <use xlink:href="#DejaVuSans-31" x="63.623047"/>
       <use xlink:href="#DejaVuSans-30" x="127.246094"/>
       <use xlink:href="#DejaVuSans-30" x="190.869141"/>
      </g>
     </g>
    </g>
    <g id="xtick_9">
     <g id="line2d_9">
      <defs>
       <path id="m0d848f6d89" d="M 0 0 
L 0 2 
" style="stroke: #ffffff; stroke-width: 0.6"/>
      </defs>
      <g>
       <use xlink:href="#m0d848f6d89" x="146.016" y="489.6" style="fill: #ffffff; stroke: #ffffff; stroke-width: 0.6"/>
      </g>
     </g>
     <g id="text_9">
      <!-- Pre-industrial -->
      <g style="fill: #b2b2b2" transform="translate(111.483885 548.363148) rotate(-25) scale(0.11 -0.11)">
       <defs>
        <path id="DejaVuSans-Oblique-50" d="M 1081 4666 
L 2541 4666 
Q 3178 4666 3512 4369 
Q 3847 4072 3847 3500 
Q 3847 2731 3353 2303 
Q 2859 1875 1966 1875 
L 1172 1875 
L 806 0 
L 172 0 
L 1081 4666 
z
M 1613 4147 
L 1275 2394 
L 2069 2394 
Q 2606 2394 2893 2669 
Q 3181 2944 3181 3456 
Q 3181 3784 2986 3965 
Q 2791 4147 2438 4147 
L 1613 4147 
z
" transform="scale(0.015625)"/>
        <path id="DejaVuSans-Oblique-72" d="M 2853 2969 
Q 2766 3016 2653 3041 
Q 2541 3066 2413 3066 
Q 1953 3066 1609 2717 
Q 1266 2369 1153 1784 
L 800 0 
L 225 0 
L 909 3500 
L 1484 3500 
L 1375 2956 
Q 1603 3259 1920 3421 
Q 2238 3584 2597 3584 
Q 2691 3584 2781 3573 
Q 2872 3563 2963 3538 
L 2853 2969 
z
" transform="scale(0.015625)"/>
        <path id="DejaVuSans-Oblique-65" d="M 3078 2063 
Q 3088 2113 3092 2166 
Q 3097 2219 3097 2272 
Q 3097 2653 2873 2875 
Q 2650 3097 2266 3097 
Q 1838 3097 1509 2826 
Q 1181 2556 1013 2059 
L 3078 2063 
z
M 3578 1613 
L 903 1613 
Q 884 1494 878 1425 
Q 872 1356 872 1306 
Q 872 872 1139 634 
Q 1406 397 1894 397 
Q 2269 397 2603 481 
Q 2938 566 3225 728 
L 3116 159 
Q 2806 34 2476 -28 
Q 2147 -91 1806 -91 
Q 1078 -91 686 257 
Q 294 606 294 1247 
Q 294 1794 489 2264 
Q 684 2734 1063 3103 
Q 1306 3334 1642 3459 
Q 1978 3584 2356 3584 
Q 2950 3584 3301 3228 
Q 3653 2872 3653 2272 
Q 3653 2128 3634 1964 
Q 3616 1800 3578 1613 
z
" transform="scale(0.015625)"/>
        <path id="DejaVuSans-Oblique-2d" d="M 391 2009 
L 2075 2009 
L 1978 1497 
L 288 1497 
L 391 2009 
z
" transform="scale(0.015625)"/>
        <path id="DejaVuSans-Oblique-69" d="M 1172 4863 
L 1747 4863 
L 1606 4134 
L 1031 4134 
L 1172 4863 
z
M 909 3500 
L 1484 3500 
L 800 0 
L 225 0 
L 909 3500 
z
" transform="scale(0.015625)"/>
        <path id="DejaVuSans-Oblique-6e" d="M 3566 2113 
L 3156 0 
L 2578 0 
L 2988 2091 
Q 3016 2238 3031 2350 
Q 3047 2463 3047 2528 
Q 3047 2791 2881 2937 
Q 2716 3084 2419 3084 
Q 1956 3084 1622 2776 
Q 1288 2469 1184 1941 
L 800 0 
L 225 0 
L 903 3500 
L 1478 3500 
L 1363 2950 
Q 1603 3253 1940 3418 
Q 2278 3584 2650 3584 
Q 3113 3584 3367 3334 
Q 3622 3084 3622 2631 
Q 3622 2519 3608 2391 
Q 3594 2263 3566 2113 
z
" transform="scale(0.015625)"/>
        <path id="DejaVuSans-Oblique-64" d="M 2675 525 
Q 2444 222 2128 65 
Q 1813 -91 1428 -91 
Q 903 -91 598 267 
Q 294 625 294 1247 
Q 294 1766 478 2236 
Q 663 2706 1013 3078 
Q 1244 3325 1534 3454 
Q 1825 3584 2144 3584 
Q 2481 3584 2739 3421 
Q 2997 3259 3138 2956 
L 3513 4863 
L 4091 4863 
L 3144 0 
L 2566 0 
L 2675 525 
z
M 891 1350 
Q 891 897 1095 644 
Q 1300 391 1663 391 
Q 1931 391 2161 520 
Q 2391 650 2566 903 
Q 2750 1166 2856 1509 
Q 2963 1853 2963 2188 
Q 2963 2622 2758 2865 
Q 2553 3109 2194 3109 
Q 1922 3109 1687 2981 
Q 1453 2853 1288 2613 
Q 1106 2353 998 2009 
Q 891 1666 891 1350 
z
" transform="scale(0.015625)"/>
        <path id="DejaVuSans-Oblique-75" d="M 428 1388 
L 838 3500 
L 1416 3500 
L 1006 1409 
Q 975 1256 961 1147 
Q 947 1038 947 966 
Q 947 700 1109 554 
Q 1272 409 1569 409 
Q 2031 409 2368 721 
Q 2706 1034 2809 1563 
L 3194 3500 
L 3769 3500 
L 3091 0 
L 2516 0 
L 2631 550 
Q 2388 244 2052 76 
Q 1716 -91 1338 -91 
Q 878 -91 622 161 
Q 366 413 366 863 
Q 366 956 381 1097 
Q 397 1238 428 1388 
z
" transform="scale(0.015625)"/>
        <path id="DejaVuSans-Oblique-73" d="M 3200 3397 
L 3091 2853 
Q 2863 2978 2609 3040 
Q 2356 3103 2088 3103 
Q 1634 3103 1373 2948 
Q 1113 2794 1113 2528 
Q 1113 2219 1719 2053 
Q 1766 2041 1788 2034 
L 1972 1978 
Q 2547 1819 2739 1644 
Q 2931 1469 2931 1166 
Q 2931 609 2489 259 
Q 2047 -91 1331 -91 
Q 1053 -91 747 -37 
Q 441 16 72 128 
L 184 722 
Q 500 559 806 475 
Q 1113 391 1394 391 
Q 1816 391 2080 572 
Q 2344 753 2344 1031 
Q 2344 1331 1650 1516 
L 1591 1531 
L 1394 1581 
Q 956 1697 753 1886 
Q 550 2075 550 2369 
Q 550 2928 970 3256 
Q 1391 3584 2113 3584 
Q 2397 3584 2667 3537 
Q 2938 3491 3200 3397 
z
" transform="scale(0.015625)"/>
        <path id="DejaVuSans-Oblique-74" d="M 2706 3500 
L 2619 3053 
L 1472 3053 
L 1100 1153 
Q 1081 1047 1072 975 
Q 1063 903 1063 863 
Q 1063 663 1183 572 
Q 1303 481 1569 481 
L 2150 481 
L 2053 0 
L 1503 0 
Q 991 0 739 200 
Q 488 400 488 806 
Q 488 878 497 964 
Q 506 1050 525 1153 
L 897 3053 
L 409 3053 
L 500 3500 
L 978 3500 
L 1172 4494 
L 1747 4494 
L 1556 3500 
L 2706 3500 
z
" transform="scale(0.015625)"/>
        <path id="DejaVuSans-Oblique-61" d="M 3438 1997 
L 3047 0 
L 2472 0 
L 2578 531 
Q 2325 219 2001 64 
Q 1678 -91 1281 -91 
Q 834 -91 548 182 
Q 263 456 263 884 
Q 263 1497 752 1853 
Q 1241 2209 2100 2209 
L 2900 2209 
L 2931 2363 
Q 2938 2388 2941 2417 
Q 2944 2447 2944 2509 
Q 2944 2788 2717 2942 
Q 2491 3097 2081 3097 
Q 1800 3097 1504 3025 
Q 1209 2953 897 2809 
L 997 3341 
Q 1322 3463 1633 3523 
Q 1944 3584 2234 3584 
Q 2853 3584 3176 3315 
Q 3500 3047 3500 2534 
Q 3500 2431 3484 2292 
Q 3469 2153 3438 1997 
z
M 2816 1759 
L 2241 1759 
Q 1534 1759 1195 1570 
Q 856 1381 856 984 
Q 856 709 1029 553 
Q 1203 397 1509 397 
Q 1978 397 2328 733 
Q 2678 1069 2791 1631 
L 2816 1759 
z
" transform="scale(0.015625)"/>
        <path id="DejaVuSans-Oblique-6c" d="M 1172 4863 
L 1747 4863 
L 800 0 
L 225 0 
L 1172 4863 
z
" transform="scale(0.015625)"/>
       </defs>
       <use xlink:href="#DejaVuSans-Oblique-50"/>
       <use xlink:href="#DejaVuSans-Oblique-72" x="60.302734"/>
       <use xlink:href="#DejaVuSans-Oblique-65" x="101.416016"/>
       <use xlink:href="#DejaVuSans-Oblique-2d" x="162.939453"/>
       <use xlink:href="#DejaVuSans-Oblique-69" x="199.023438"/>
       <use xlink:href="#DejaVuSans-Oblique-6e" x="226.806641"/>
       <use xlink:href="#DejaVuSans-Oblique-64" x="290.185547"/>
       <use xlink:href="#DejaVuSans-Oblique-75" x="353.662109"/>
       <use xlink:href="#DejaVuSans-Oblique-73" x="417.041016"/>
       <use xlink:href="#DejaVuSans-Oblique-74" x="469.140625"/>
       <use xlink:href="#DejaVuSans-Oblique-72" x="508.349609"/>
       <use xlink:href="#DejaVuSans-Oblique-69" x="549.462891"/>
       <use xlink:href="#DejaVuSans-Oblique-61" x="577.246094"/>
       <use xlink:href="#DejaVuSans-Oblique-6c" x="638.525391"/>
      </g>
      <!-- Era -->
      <g style="fill: #b2b2b2" transform="translate(141.648038 547.888334) rotate(-25) scale(0.11 -0.11)">
       <defs>
        <path id="DejaVuSans-Oblique-45" d="M 1081 4666 
L 4031 4666 
L 3928 4134 
L 1606 4134 
L 1338 2753 
L 3566 2753 
L 3463 2222 
L 1234 2222 
L 909 531 
L 3284 531 
L 3181 0 
L 172 0 
L 1081 4666 
z
" transform="scale(0.015625)"/>
       </defs>
       <use xlink:href="#DejaVuSans-Oblique-45"/>
       <use xlink:href="#DejaVuSans-Oblique-72" x="63.183594"/>
       <use xlink:href="#DejaVuSans-Oblique-61" x="104.296875"/>
      </g>
     </g>
    </g>
    <g id="xtick_10">
     <g id="line2d_10">
      <g>
       <use xlink:href="#m0d848f6d89" x="361.3248" y="489.6" style="fill: #ffffff; stroke: #ffffff; stroke-width: 0.6"/>
      </g>
     </g>
     <g id="text_10">
      <!-- Baby -->
      <g style="fill: #b2b2b2" transform="translate(347.415294 543.933713) rotate(-25) scale(0.11 -0.11)">
       <defs>
        <path id="DejaVuSans-Oblique-42" d="M 1081 4666 
L 2694 4666 
Q 3350 4666 3675 4422 
Q 4000 4178 4000 3688 
Q 4000 3238 3720 2911 
Q 3441 2584 2988 2516 
Q 3375 2428 3569 2181 
Q 3763 1934 3763 1522 
Q 3763 819 3242 409 
Q 2722 0 1819 0 
L 172 0 
L 1081 4666 
z
M 1234 2228 
L 903 519 
L 1919 519 
Q 2491 519 2800 781 
Q 3109 1044 3109 1522 
Q 3109 1891 2904 2059 
Q 2700 2228 2247 2228 
L 1234 2228 
z
M 1606 4147 
L 1331 2741 
L 2272 2741 
Q 2775 2741 3058 2959 
Q 3341 3178 3341 3566 
Q 3341 3869 3150 4008 
Q 2959 4147 2541 4147 
L 1606 4147 
z
" transform="scale(0.015625)"/>
        <path id="DejaVuSans-Oblique-62" d="M 3169 2138 
Q 3169 2591 2961 2847 
Q 2753 3103 2388 3103 
Q 2122 3103 1889 2973 
Q 1656 2844 1484 2597 
Q 1303 2338 1198 1995 
Q 1094 1653 1094 1313 
Q 1094 881 1298 636 
Q 1503 391 1863 391 
Q 2134 391 2365 517 
Q 2597 644 2772 891 
Q 2950 1147 3059 1487 
Q 3169 1828 3169 2138 
z
M 1381 2969 
Q 1594 3256 1914 3420 
Q 2234 3584 2584 3584 
Q 3122 3584 3439 3221 
Q 3756 2859 3756 2241 
Q 3756 1734 3570 1259 
Q 3384 784 3041 416 
Q 2816 172 2522 40 
Q 2228 -91 1906 -91 
Q 1566 -91 1316 65 
Q 1066 222 909 531 
L 806 0 
L 231 0 
L 1178 4863 
L 1753 4863 
L 1381 2969 
z
" transform="scale(0.015625)"/>
        <path id="DejaVuSans-Oblique-79" d="M 1588 -325 
Q 1188 -997 936 -1164 
Q 684 -1331 294 -1331 
L -159 -1331 
L -63 -850 
L 269 -850 
Q 509 -850 678 -719 
Q 847 -588 1056 -206 
L 1234 128 
L 459 3500 
L 1069 3500 
L 1650 819 
L 3256 3500 
L 3859 3500 
L 1588 -325 
z
" transform="scale(0.015625)"/>
       </defs>
       <use xlink:href="#DejaVuSans-Oblique-42"/>
       <use xlink:href="#DejaVuSans-Oblique-61" x="68.603516"/>
       <use xlink:href="#DejaVuSans-Oblique-62" x="129.882812"/>
       <use xlink:href="#DejaVuSans-Oblique-79" x="193.359375"/>
      </g>
      <!-- Boomers -->
      <g style="fill: #b2b2b2" transform="translate(343.121978 559.526679) rotate(-25) scale(0.11 -0.11)">
       <defs>
        <path id="DejaVuSans-Oblique-6f" d="M 1625 -91 
Q 1009 -91 651 289 
Q 294 669 294 1325 
Q 294 1706 417 2101 
Q 541 2497 738 2766 
Q 1047 3184 1428 3384 
Q 1809 3584 2291 3584 
Q 2888 3584 3255 3212 
Q 3622 2841 3622 2241 
Q 3622 1825 3500 1412 
Q 3378 1000 3181 728 
Q 2875 309 2494 109 
Q 2113 -91 1625 -91 
z
M 891 1344 
Q 891 869 1089 633 
Q 1288 397 1691 397 
Q 2269 397 2648 901 
Q 3028 1406 3028 2181 
Q 3028 2634 2825 2865 
Q 2622 3097 2228 3097 
Q 1903 3097 1650 2945 
Q 1397 2794 1197 2484 
Q 1050 2253 970 1956 
Q 891 1659 891 1344 
z
" transform="scale(0.015625)"/>
        <path id="DejaVuSans-Oblique-6d" d="M 5747 2113 
L 5338 0 
L 4763 0 
L 5166 2094 
Q 5191 2228 5203 2325 
Q 5216 2422 5216 2491 
Q 5216 2772 5059 2928 
Q 4903 3084 4622 3084 
Q 4203 3084 3875 2770 
Q 3547 2456 3450 1953 
L 3066 0 
L 2491 0 
L 2900 2094 
Q 2925 2209 2937 2307 
Q 2950 2406 2950 2484 
Q 2950 2769 2794 2926 
Q 2638 3084 2363 3084 
Q 1938 3084 1609 2770 
Q 1281 2456 1184 1953 
L 800 0 
L 225 0 
L 909 3500 
L 1484 3500 
L 1375 2956 
Q 1609 3263 1923 3423 
Q 2238 3584 2597 3584 
Q 2978 3584 3223 3384 
Q 3469 3184 3519 2828 
Q 3781 3197 4126 3390 
Q 4472 3584 4856 3584 
Q 5306 3584 5551 3325 
Q 5797 3066 5797 2591 
Q 5797 2488 5784 2364 
Q 5772 2241 5747 2113 
z
" transform="scale(0.015625)"/>
       </defs>
       <use xlink:href="#DejaVuSans-Oblique-42"/>
       <use xlink:href="#DejaVuSans-Oblique-6f" x="68.603516"/>
       <use xlink:href="#DejaVuSans-Oblique-6f" x="129.785156"/>
       <use xlink:href="#DejaVuSans-Oblique-6d" x="190.966797"/>
       <use xlink:href="#DejaVuSans-Oblique-65" x="288.378906"/>
       <use xlink:href="#DejaVuSans-Oblique-72" x="349.902344"/>
       <use xlink:href="#DejaVuSans-Oblique-73" x="391.015625"/>
      </g>
     </g>
    </g>
    <g id="xtick_11">
     <g id="line2d_11">
      <g>
       <use xlink:href="#m0d848f6d89" x="438.2208" y="489.6" style="fill: #ffffff; stroke: #ffffff; stroke-width: 0.6"/>
      </g>
     </g>
     <g id="text_11">
      <!-- +1 gen -->
      <g style="fill: #b2b2b2" transform="translate(421.180159 559.526679) rotate(-25) scale(0.11 -0.11)">
       <defs>
        <path id="DejaVuSans-Oblique-2b" d="M 2944 4013 
L 2944 2272 
L 4684 2272 
L 4684 1741 
L 2944 1741 
L 2944 0 
L 2419 0 
L 2419 1741 
L 678 1741 
L 678 2272 
L 2419 2272 
L 2419 4013 
L 2944 4013 
z
" transform="scale(0.015625)"/>
        <path id="DejaVuSans-Oblique-31" d="M 416 531 
L 1447 531 
L 2144 4122 
L 978 3897 
L 1088 4441 
L 2247 4666 
L 2881 4666 
L 2075 531 
L 3103 531 
L 3003 0 
L 313 0 
L 416 531 
z
" transform="scale(0.015625)"/>
        <path id="DejaVuSans-Oblique-20" transform="scale(0.015625)"/>
        <path id="DejaVuSans-Oblique-67" d="M 3816 3500 
L 3219 434 
Q 3047 -456 2561 -893 
Q 2075 -1331 1253 -1331 
Q 950 -1331 690 -1286 
Q 431 -1241 206 -1147 
L 313 -588 
Q 525 -725 762 -790 
Q 1000 -856 1269 -856 
Q 1816 -856 2167 -557 
Q 2519 -259 2631 300 
L 2681 563 
Q 2441 288 2122 144 
Q 1803 0 1434 0 
Q 903 0 598 351 
Q 294 703 294 1319 
Q 294 1803 478 2267 
Q 663 2731 997 3091 
Q 1219 3328 1514 3456 
Q 1809 3584 2131 3584 
Q 2484 3584 2746 3420 
Q 3009 3256 3138 2956 
L 3238 3500 
L 3816 3500 
z
M 2950 2216 
Q 2950 2641 2750 2872 
Q 2550 3103 2181 3103 
Q 1953 3103 1747 3012 
Q 1541 2922 1394 2759 
Q 1156 2491 1023 2127 
Q 891 1763 891 1375 
Q 891 944 1092 712 
Q 1294 481 1672 481 
Q 2219 481 2584 976 
Q 2950 1472 2950 2216 
z
" transform="scale(0.015625)"/>
       </defs>
       <use xlink:href="#DejaVuSans-Oblique-2b"/>
       <use xlink:href="#DejaVuSans-Oblique-31" x="83.789062"/>
       <use xlink:href="#DejaVuSans-Oblique-20" x="147.412109"/>
       <use xlink:href="#DejaVuSans-Oblique-67" x="179.199219"/>
       <use xlink:href="#DejaVuSans-Oblique-65" x="242.675781"/>
       <use xlink:href="#DejaVuSans-Oblique-6e" x="304.199219"/>
      </g>
     </g>
    </g>
    <g id="xtick_12">
     <g id="line2d_12">
      <g>
       <use xlink:href="#m0d848f6d89" x="515.1168" y="489.6" style="fill: #ffffff; stroke: #ffffff; stroke-width: 0.6"/>
      </g>
     </g>
     <g id="text_12">
      <!-- +2 gen -->
      <g style="fill: #b2b2b2" transform="translate(498.076159 559.526679) rotate(-25) scale(0.11 -0.11)">
       <defs>
        <path id="DejaVuSans-Oblique-32" d="M 2950 2253 
L 934 525 
L 3163 525 
L 3053 0 
L 25 0 
L 128 531 
L 2234 2338 
Q 2656 2703 2832 2979 
Q 3009 3256 3009 3547 
Q 3009 3850 2796 4040 
Q 2584 4231 2241 4231 
Q 1944 4231 1581 4125 
Q 1219 4019 806 3816 
L 922 4441 
Q 1309 4594 1662 4672 
Q 2016 4750 2316 4750 
Q 2928 4750 3301 4425 
Q 3675 4100 3675 3572 
Q 3675 3216 3497 2892 
Q 3319 2569 2950 2253 
z
" transform="scale(0.015625)"/>
       </defs>
       <use xlink:href="#DejaVuSans-Oblique-2b"/>
       <use xlink:href="#DejaVuSans-Oblique-32" x="83.789062"/>
       <use xlink:href="#DejaVuSans-Oblique-20" x="147.412109"/>
       <use xlink:href="#DejaVuSans-Oblique-67" x="179.199219"/>
       <use xlink:href="#DejaVuSans-Oblique-65" x="242.675781"/>
       <use xlink:href="#DejaVuSans-Oblique-6e" x="304.199219"/>
      </g>
     </g>
    </g>
    <g id="xtick_13">
     <g id="line2d_13">
      <g>
       <use xlink:href="#m0d848f6d89" x="592.0128" y="489.6" style="fill: #ffffff; stroke: #ffffff; stroke-width: 0.6"/>
      </g>
     </g>
     <g id="text_13">
      <!-- +3 gen -->
      <g style="fill: #b2b2b2" transform="translate(574.972159 559.526679) rotate(-25) scale(0.11 -0.11)">
       <defs>
        <path id="DejaVuSans-Oblique-33" d="M 1013 4550 
Q 1356 4650 1679 4700 
Q 2003 4750 2316 4750 
Q 2934 4750 3296 4475 
Q 3659 4200 3659 3738 
Q 3659 3284 3373 2959 
Q 3088 2634 2584 2516 
Q 2978 2403 3162 2165 
Q 3347 1928 3347 1538 
Q 3347 1163 3167 834 
Q 2988 506 2650 269 
Q 2394 88 2037 -1 
Q 1681 -91 1216 -91 
Q 922 -91 622 -33 
Q 322 25 13 141 
L 128 738 
Q 422 575 720 495 
Q 1019 416 1331 416 
Q 1947 416 2330 733 
Q 2713 1050 2713 1556 
Q 2713 1881 2469 2057 
Q 2225 2234 1772 2234 
L 1228 2234 
L 1325 2747 
L 1900 2747 
Q 2419 2747 2717 2984 
Q 3016 3222 3016 3628 
Q 3016 3922 2797 4083 
Q 2578 4244 2181 4244 
Q 1881 4244 1567 4180 
Q 1253 4116 916 3988 
L 1013 4550 
z
" transform="scale(0.015625)"/>
       </defs>
       <use xlink:href="#DejaVuSans-Oblique-2b"/>
       <use xlink:href="#DejaVuSans-Oblique-33" x="83.789062"/>
       <use xlink:href="#DejaVuSans-Oblique-20" x="147.412109"/>
       <use xlink:href="#DejaVuSans-Oblique-67" x="179.199219"/>
       <use xlink:href="#DejaVuSans-Oblique-65" x="242.675781"/>
       <use xlink:href="#DejaVuSans-Oblique-6e" x="304.199219"/>
      </g>
     </g>
    </g>
    <g id="xtick_14">
     <g id="line2d_14">
      <g>
       <use xlink:href="#m0d848f6d89" x="668.9088" y="489.6" style="fill: #ffffff; stroke: #ffffff; stroke-width: 0.6"/>
      </g>
     </g>
     <g id="text_14">
      <!-- +4 gen -->
      <g style="fill: #b2b2b2" transform="translate(651.868159 559.526679) rotate(-25) scale(0.11 -0.11)">
       <defs>
        <path id="DejaVuSans-Oblique-34" d="M 2753 4666 
L 3547 4666 
L 2950 1625 
L 3616 1625 
L 3513 1100 
L 2847 1100 
L 2638 0 
L 2009 0 
L 2222 1100 
L 116 1100 
L 238 1709 
L 2753 4666 
z
M 2809 4116 
L 728 1625 
L 2322 1625 
L 2809 4116 
z
" transform="scale(0.015625)"/>
       </defs>
       <use xlink:href="#DejaVuSans-Oblique-2b"/>
       <use xlink:href="#DejaVuSans-Oblique-34" x="83.789062"/>
       <use xlink:href="#DejaVuSans-Oblique-20" x="147.412109"/>
       <use xlink:href="#DejaVuSans-Oblique-67" x="179.199219"/>
       <use xlink:href="#DejaVuSans-Oblique-65" x="242.675781"/>
       <use xlink:href="#DejaVuSans-Oblique-6e" x="304.199219"/>
      </g>
     </g>
    </g>
    <g id="xtick_15">
     <g id="line2d_15">
      <g>
       <use xlink:href="#m0d848f6d89" x="745.8048" y="489.6" style="fill: #ffffff; stroke: #ffffff; stroke-width: 0.6"/>
      </g>
     </g>
     <g id="text_15">
      <!-- +5 gen -->
      <g style="fill: #b2b2b2" transform="translate(728.764159 559.526679) rotate(-25) scale(0.11 -0.11)">
       <defs>
        <path id="DejaVuSans-Oblique-35" d="M 3719 4666 
L 3622 4141 
L 1691 4141 
L 1466 2988 
Q 1609 3034 1757 3056 
Q 1906 3078 2059 3078 
Q 2706 3078 3081 2731 
Q 3456 2384 3456 1791 
Q 3456 1375 3264 994 
Q 3072 613 2719 325 
Q 2469 125 2108 17 
Q 1747 -91 1319 -91 
Q 1038 -91 744 -41 
Q 450 9 128 109 
L 244 697 
Q 531 556 820 486 
Q 1109 416 1403 416 
Q 2013 416 2411 781 
Q 2809 1147 2809 1697 
Q 2809 2103 2548 2328 
Q 2288 2553 1819 2553 
Q 1572 2553 1305 2495 
Q 1038 2438 756 2322 
L 1209 4666 
L 3719 4666 
z
" transform="scale(0.015625)"/>
       </defs>
       <use xlink:href="#DejaVuSans-Oblique-2b"/>
       <use xlink:href="#DejaVuSans-Oblique-35" x="83.789062"/>
       <use xlink:href="#DejaVuSans-Oblique-20" x="147.412109"/>
       <use xlink:href="#DejaVuSans-Oblique-67" x="179.199219"/>
       <use xlink:href="#DejaVuSans-Oblique-65" x="242.675781"/>
       <use xlink:href="#DejaVuSans-Oblique-6e" x="304.199219"/>
      </g>
     </g>
    </g>
    <g id="xtick_16">
     <g id="line2d_16">
      <g>
       <use xlink:href="#m0d848f6d89" x="822.7008" y="489.6" style="fill: #ffffff; stroke: #ffffff; stroke-width: 0.6"/>
      </g>
     </g>
     <g id="text_16">
      <!-- +6 gen -->
      <g style="fill: #b2b2b2" transform="translate(805.660159 559.526679) rotate(-25) scale(0.11 -0.11)">
       <defs>
        <path id="DejaVuSans-Oblique-36" d="M 2938 1728 
Q 2938 2125 2734 2354 
Q 2531 2584 2181 2584 
Q 1697 2584 1367 2211 
Q 1038 1838 1038 1288 
Q 1038 875 1239 642 
Q 1441 409 1797 409 
Q 2284 409 2611 792 
Q 2938 1175 2938 1728 
z
M 3788 4556 
L 3681 3981 
Q 3500 4100 3265 4162 
Q 3031 4225 2766 4225 
Q 2119 4225 1726 3819 
Q 1334 3413 1141 2547 
Q 1369 2813 1670 2948 
Q 1972 3084 2322 3084 
Q 2894 3084 3233 2754 
Q 3572 2425 3572 1869 
Q 3572 1413 3405 1020 
Q 3238 628 2919 331 
Q 2700 128 2409 18 
Q 2119 -91 1791 -91 
Q 1147 -91 775 318 
Q 403 728 403 1441 
Q 403 2103 573 2717 
Q 744 3331 1050 3781 
Q 1372 4256 1830 4503 
Q 2288 4750 2841 4750 
Q 3084 4750 3321 4701 
Q 3559 4653 3788 4556 
z
" transform="scale(0.015625)"/>
       </defs>
       <use xlink:href="#DejaVuSans-Oblique-2b"/>
       <use xlink:href="#DejaVuSans-Oblique-36" x="83.789062"/>
       <use xlink:href="#DejaVuSans-Oblique-20" x="147.412109"/>
       <use xlink:href="#DejaVuSans-Oblique-67" x="179.199219"/>
       <use xlink:href="#DejaVuSans-Oblique-65" x="242.675781"/>
       <use xlink:href="#DejaVuSans-Oblique-6e" x="304.199219"/>
      </g>
     </g>
    </g>
   </g>
   <g id="matplotlib.axis_2">
    <g id="ytick_1">
     <g id="line2d_17">
      <path d="M 69.12 468.526026 
L 838.08 468.526026 
" clip-path="url(#padbf4216de)" style="fill: none; stroke-dasharray: 2.4,7.2; stroke-dashoffset: 0; stroke: #717174; stroke-opacity: 0.5; stroke-width: 0.8"/>
     </g>
     <g id="line2d_18">
      <defs>
       <path id="m841cf927ca" d="M 0 0 
L -3.5 0 
" style="stroke: #717174; stroke-width: 0.8"/>
      </defs>
      <g>
       <use xlink:href="#m841cf927ca" x="69.12" y="468.526026" style="fill: #717174; stroke: #717174; stroke-width: 0.8"/>
      </g>
     </g>
     <g id="text_17">
      <!-- 30 °C -->
      <g style="fill: #717174" transform="translate(34.234063 472.325245) scale(0.1 -0.1)">
       <defs>
        <path id="DejaVuSans-33" d="M 2597 2516 
Q 3050 2419 3304 2112 
Q 3559 1806 3559 1356 
Q 3559 666 3084 287 
Q 2609 -91 1734 -91 
Q 1441 -91 1130 -33 
Q 819 25 488 141 
L 488 750 
Q 750 597 1062 519 
Q 1375 441 1716 441 
Q 2309 441 2620 675 
Q 2931 909 2931 1356 
Q 2931 1769 2642 2001 
Q 2353 2234 1838 2234 
L 1294 2234 
L 1294 2753 
L 1863 2753 
Q 2328 2753 2575 2939 
Q 2822 3125 2822 3475 
Q 2822 3834 2567 4026 
Q 2313 4219 1838 4219 
Q 1578 4219 1281 4162 
Q 984 4106 628 3988 
L 628 4550 
Q 988 4650 1302 4700 
Q 1616 4750 1894 4750 
Q 2613 4750 3031 4423 
Q 3450 4097 3450 3541 
Q 3450 3153 3228 2886 
Q 3006 2619 2597 2516 
z
" transform="scale(0.015625)"/>
        <path id="DejaVuSans-20" transform="scale(0.015625)"/>
        <path id="DejaVuSans-b0" d="M 1600 4347 
Q 1350 4347 1178 4173 
Q 1006 4000 1006 3750 
Q 1006 3503 1178 3333 
Q 1350 3163 1600 3163 
Q 1850 3163 2022 3333 
Q 2194 3503 2194 3750 
Q 2194 3997 2020 4172 
Q 1847 4347 1600 4347 
z
M 1600 4750 
Q 1800 4750 1984 4673 
Q 2169 4597 2303 4453 
Q 2447 4313 2519 4134 
Q 2591 3956 2591 3750 
Q 2591 3338 2302 3052 
Q 2013 2766 1594 2766 
Q 1172 2766 890 3047 
Q 609 3328 609 3750 
Q 609 4169 896 4459 
Q 1184 4750 1600 4750 
z
" transform="scale(0.015625)"/>
        <path id="DejaVuSans-43" d="M 4122 4306 
L 4122 3641 
Q 3803 3938 3442 4084 
Q 3081 4231 2675 4231 
Q 1875 4231 1450 3742 
Q 1025 3253 1025 2328 
Q 1025 1406 1450 917 
Q 1875 428 2675 428 
Q 3081 428 3442 575 
Q 3803 722 4122 1019 
L 4122 359 
Q 3791 134 3420 21 
Q 3050 -91 2638 -91 
Q 1578 -91 968 557 
Q 359 1206 359 2328 
Q 359 3453 968 4101 
Q 1578 4750 2638 4750 
Q 3056 4750 3426 4639 
Q 3797 4528 4122 4306 
z
" transform="scale(0.015625)"/>
       </defs>
       <use xlink:href="#DejaVuSans-33"/>
       <use xlink:href="#DejaVuSans-30" x="63.623047"/>
       <use xlink:href="#DejaVuSans-20" x="127.246094"/>
       <use xlink:href="#DejaVuSans-b0" x="159.033203"/>
       <use xlink:href="#DejaVuSans-43" x="209.033203"/>
      </g>
     </g>
    </g>
    <g id="ytick_2">
     <g id="line2d_19">
      <path d="M 69.12 392.266154 
L 838.08 392.266154 
" clip-path="url(#padbf4216de)" style="fill: none; stroke-dasharray: 2.4,7.2; stroke-dashoffset: 0; stroke: #717174; stroke-opacity: 0.5; stroke-width: 0.8"/>
     </g>
     <g id="line2d_20">
      <g>
       <use xlink:href="#m841cf927ca" x="69.12" y="392.266154" style="fill: #717174; stroke: #717174; stroke-width: 0.8"/>
      </g>
     </g>
     <g id="text_18">
      <!-- 35 °C -->
      <g style="fill: #717174" transform="translate(34.234063 396.065373) scale(0.1 -0.1)">
       <use xlink:href="#DejaVuSans-33"/>
       <use xlink:href="#DejaVuSans-35" x="63.623047"/>
       <use xlink:href="#DejaVuSans-20" x="127.246094"/>
       <use xlink:href="#DejaVuSans-b0" x="159.033203"/>
       <use xlink:href="#DejaVuSans-43" x="209.033203"/>
      </g>
     </g>
    </g>
    <g id="ytick_3">
     <g id="line2d_21">
      <path d="M 69.12 316.006282 
L 838.08 316.006282 
" clip-path="url(#padbf4216de)" style="fill: none; stroke-dasharray: 2.4,7.2; stroke-dashoffset: 0; stroke: #717174; stroke-opacity: 0.5; stroke-width: 0.8"/>
     </g>
     <g id="line2d_22">
      <g>
       <use xlink:href="#m841cf927ca" x="69.12" y="316.006282" style="fill: #717174; stroke: #717174; stroke-width: 0.8"/>
      </g>
     </g>
     <g id="text_19">
      <!-- 40 °C -->
      <g style="fill: #717174" transform="translate(34.234063 319.8055) scale(0.1 -0.1)">
       <defs>
        <path id="DejaVuSans-34" d="M 2419 4116 
L 825 1625 
L 2419 1625 
L 2419 4116 
z
M 2253 4666 
L 3047 4666 
L 3047 1625 
L 3713 1625 
L 3713 1100 
L 3047 1100 
L 3047 0 
L 2419 0 
L 2419 1100 
L 313 1100 
L 313 1709 
L 2253 4666 
z
" transform="scale(0.015625)"/>
       </defs>
       <use xlink:href="#DejaVuSans-34"/>
       <use xlink:href="#DejaVuSans-30" x="63.623047"/>
       <use xlink:href="#DejaVuSans-20" x="127.246094"/>
       <use xlink:href="#DejaVuSans-b0" x="159.033203"/>
       <use xlink:href="#DejaVuSans-43" x="209.033203"/>
      </g>
     </g>
    </g>
    <g id="ytick_4">
     <g id="line2d_23">
      <path d="M 69.12 239.746409 
L 838.08 239.746409 
" clip-path="url(#padbf4216de)" style="fill: none; stroke-dasharray: 2.4,7.2; stroke-dashoffset: 0; stroke: #717174; stroke-opacity: 0.5; stroke-width: 0.8"/>
     </g>
     <g id="line2d_24">
      <g>
       <use xlink:href="#m841cf927ca" x="69.12" y="239.746409" style="fill: #717174; stroke: #717174; stroke-width: 0.8"/>
      </g>
     </g>
     <g id="text_20">
      <!-- 45 °C -->
      <g style="fill: #717174" transform="translate(34.234063 243.545628) scale(0.1 -0.1)">
       <use xlink:href="#DejaVuSans-34"/>
       <use xlink:href="#DejaVuSans-35" x="63.623047"/>
       <use xlink:href="#DejaVuSans-20" x="127.246094"/>
       <use xlink:href="#DejaVuSans-b0" x="159.033203"/>
       <use xlink:href="#DejaVuSans-43" x="209.033203"/>
      </g>
     </g>
    </g>
    <g id="text_21">
     <!-- Max Temperature -->
     <g transform="translate(27.3225 320.234531) rotate(-90) scale(0.14 -0.14)">
      <defs>
       <path id="DejaVuSans-4d" d="M 628 4666 
L 1569 4666 
L 2759 1491 
L 3956 4666 
L 4897 4666 
L 4897 0 
L 4281 0 
L 4281 4097 
L 3078 897 
L 2444 897 
L 1241 4097 
L 1241 0 
L 628 0 
L 628 4666 
z
" transform="scale(0.015625)"/>
       <path id="DejaVuSans-61" d="M 2194 1759 
Q 1497 1759 1228 1600 
Q 959 1441 959 1056 
Q 959 750 1161 570 
Q 1363 391 1709 391 
Q 2188 391 2477 730 
Q 2766 1069 2766 1631 
L 2766 1759 
L 2194 1759 
z
M 3341 1997 
L 3341 0 
L 2766 0 
L 2766 531 
Q 2569 213 2275 61 
Q 1981 -91 1556 -91 
Q 1019 -91 701 211 
Q 384 513 384 1019 
Q 384 1609 779 1909 
Q 1175 2209 1959 2209 
L 2766 2209 
L 2766 2266 
Q 2766 2663 2505 2880 
Q 2244 3097 1772 3097 
Q 1472 3097 1187 3025 
Q 903 2953 641 2809 
L 641 3341 
Q 956 3463 1253 3523 
Q 1550 3584 1831 3584 
Q 2591 3584 2966 3190 
Q 3341 2797 3341 1997 
z
" transform="scale(0.015625)"/>
       <path id="DejaVuSans-78" d="M 3513 3500 
L 2247 1797 
L 3578 0 
L 2900 0 
L 1881 1375 
L 863 0 
L 184 0 
L 1544 1831 
L 300 3500 
L 978 3500 
L 1906 2253 
L 2834 3500 
L 3513 3500 
z
" transform="scale(0.015625)"/>
       <path id="DejaVuSans-54" d="M -19 4666 
L 3928 4666 
L 3928 4134 
L 2272 4134 
L 2272 0 
L 1638 0 
L 1638 4134 
L -19 4134 
L -19 4666 
z
" transform="scale(0.015625)"/>
       <path id="DejaVuSans-65" d="M 3597 1894 
L 3597 1613 
L 953 1613 
Q 991 1019 1311 708 
Q 1631 397 2203 397 
Q 2534 397 2845 478 
Q 3156 559 3463 722 
L 3463 178 
Q 3153 47 2828 -22 
Q 2503 -91 2169 -91 
Q 1331 -91 842 396 
Q 353 884 353 1716 
Q 353 2575 817 3079 
Q 1281 3584 2069 3584 
Q 2775 3584 3186 3129 
Q 3597 2675 3597 1894 
z
M 3022 2063 
Q 3016 2534 2758 2815 
Q 2500 3097 2075 3097 
Q 1594 3097 1305 2825 
Q 1016 2553 972 2059 
L 3022 2063 
z
" transform="scale(0.015625)"/>
       <path id="DejaVuSans-6d" d="M 3328 2828 
Q 3544 3216 3844 3400 
Q 4144 3584 4550 3584 
Q 5097 3584 5394 3201 
Q 5691 2819 5691 2113 
L 5691 0 
L 5113 0 
L 5113 2094 
Q 5113 2597 4934 2840 
Q 4756 3084 4391 3084 
Q 3944 3084 3684 2787 
Q 3425 2491 3425 1978 
L 3425 0 
L 2847 0 
L 2847 2094 
Q 2847 2600 2669 2842 
Q 2491 3084 2119 3084 
Q 1678 3084 1418 2786 
Q 1159 2488 1159 1978 
L 1159 0 
L 581 0 
L 581 3500 
L 1159 3500 
L 1159 2956 
Q 1356 3278 1631 3431 
Q 1906 3584 2284 3584 
Q 2666 3584 2933 3390 
Q 3200 3197 3328 2828 
z
" transform="scale(0.015625)"/>
       <path id="DejaVuSans-70" d="M 1159 525 
L 1159 -1331 
L 581 -1331 
L 581 3500 
L 1159 3500 
L 1159 2969 
Q 1341 3281 1617 3432 
Q 1894 3584 2278 3584 
Q 2916 3584 3314 3078 
Q 3713 2572 3713 1747 
Q 3713 922 3314 415 
Q 2916 -91 2278 -91 
Q 1894 -91 1617 61 
Q 1341 213 1159 525 
z
M 3116 1747 
Q 3116 2381 2855 2742 
Q 2594 3103 2138 3103 
Q 1681 3103 1420 2742 
Q 1159 2381 1159 1747 
Q 1159 1113 1420 752 
Q 1681 391 2138 391 
Q 2594 391 2855 752 
Q 3116 1113 3116 1747 
z
" transform="scale(0.015625)"/>
       <path id="DejaVuSans-72" d="M 2631 2963 
Q 2534 3019 2420 3045 
Q 2306 3072 2169 3072 
Q 1681 3072 1420 2755 
Q 1159 2438 1159 1844 
L 1159 0 
L 581 0 
L 581 3500 
L 1159 3500 
L 1159 2956 
Q 1341 3275 1631 3429 
Q 1922 3584 2338 3584 
Q 2397 3584 2469 3576 
Q 2541 3569 2628 3553 
L 2631 2963 
z
" transform="scale(0.015625)"/>
       <path id="DejaVuSans-74" d="M 1172 4494 
L 1172 3500 
L 2356 3500 
L 2356 3053 
L 1172 3053 
L 1172 1153 
Q 1172 725 1289 603 
Q 1406 481 1766 481 
L 2356 481 
L 2356 0 
L 1766 0 
Q 1100 0 847 248 
Q 594 497 594 1153 
L 594 3053 
L 172 3053 
L 172 3500 
L 594 3500 
L 594 4494 
L 1172 4494 
z
" transform="scale(0.015625)"/>
       <path id="DejaVuSans-75" d="M 544 1381 
L 544 3500 
L 1119 3500 
L 1119 1403 
Q 1119 906 1312 657 
Q 1506 409 1894 409 
Q 2359 409 2629 706 
Q 2900 1003 2900 1516 
L 2900 3500 
L 3475 3500 
L 3475 0 
L 2900 0 
L 2900 538 
Q 2691 219 2414 64 
Q 2138 -91 1772 -91 
Q 1169 -91 856 284 
Q 544 659 544 1381 
z
M 1991 3584 
L 1991 3584 
z
" transform="scale(0.015625)"/>
      </defs>
      <use xlink:href="#DejaVuSans-4d"/>
      <use xlink:href="#DejaVuSans-61" x="86.279297"/>
      <use xlink:href="#DejaVuSans-78" x="147.558594"/>
      <use xlink:href="#DejaVuSans-20" x="206.738281"/>
      <use xlink:href="#DejaVuSans-54" x="238.525391"/>
      <use xlink:href="#DejaVuSans-65" x="282.609375"/>
      <use xlink:href="#DejaVuSans-6d" x="344.132812"/>
      <use xlink:href="#DejaVuSans-70" x="441.544922"/>
      <use xlink:href="#DejaVuSans-65" x="505.021484"/>
      <use xlink:href="#DejaVuSans-72" x="566.544922"/>
      <use xlink:href="#DejaVuSans-61" x="607.658203"/>
      <use xlink:href="#DejaVuSans-74" x="668.9375"/>
      <use xlink:href="#DejaVuSans-75" x="708.146484"/>
      <use xlink:href="#DejaVuSans-72" x="771.525391"/>
      <use xlink:href="#DejaVuSans-65" x="810.388672"/>
     </g>
    </g>
   </g>
   <g id="line2d_25">
    <path d="M 69.12 273.780758 
L 838.08 273.780758 
" clip-path="url(#padbf4216de)" style="fill: none; stroke: #717174; stroke-width: 1.5; stroke-linecap: square"/>
   </g>
   <g id="line2d_26">
    <path d="M 69.12 316.006282 
L 838.08 316.006282 
" clip-path="url(#padbf4216de)" style="fill: none; stroke: #e34d21; stroke-width: 0.5; stroke-linecap: square"/>
   </g>
   <g id="LineCollection_1">
    <path d="M 69.12 467.129348 
L 222.912 467.129348 
" clip-path="url(#padbf4216de)" style="fill: none; stroke: #b2b2b2; stroke-width: 1.5"/>
   </g>
   <g id="LineCollection_2">
    <path d="M 222.912 468.654545 
L 222.912 467.129348 
" clip-path="url(#padbf4216de)" style="fill: none; stroke: #b2b2b2; stroke-width: 1.5"/>
   </g>
   <g id="LineCollection_3">
    <path d="M 69.12 468.654545 
L 69.12 467.129348 
" clip-path="url(#padbf4216de)" style="fill: none; stroke: #b2b2b2; stroke-width: 1.5"/>
   </g>
   <g id="line2d_27">
    <path d="M 69.12 267.401319 
L 72.19584 272.533087 
L 75.27168 272.616461 
L 78.34752 272.477116 
L 81.42336 268.399978 
L 84.4992 272.77713 
L 87.57504 270.854022 
L 90.65088 270.867433 
L 93.72672 281.796015 
L 96.80256 272.32884 
L 99.8784 274.225504 
L 102.95424 270.14118 
L 106.03008 278.38849 
L 109.10592 274.57058 
L 112.18176 271.851052 
L 115.2576 270.124715 
L 118.33344 274.274551 
L 121.40928 265.790472 
L 124.48512 275.236149 
L 127.56096 274.194202 
L 130.6368 280.268921 
L 133.71264 266.721117 
L 136.78848 271.468828 
L 139.86432 264.268061 
L 142.94016 271.797001 
L 146.016 270.705223 
L 149.09184 271.146821 
L 152.16768 275.244818 
L 155.24352 271.215854 
L 158.31936 267.96283 
L 161.3952 265.982617 
L 164.47104 277.119518 
L 167.54688 269.51916 
L 170.62272 276.650778 
L 173.69856 293.469352 
L 176.7744 287.468902 
L 179.85024 276.24147 
L 182.92608 282.242385 
L 186.00192 277.9674 
L 189.07776 275.711464 
L 192.1536 277.064595 
L 195.22944 274.756586 
L 198.30528 280.344615 
L 201.38112 275.269691 
L 204.45696 275.891885 
L 207.5328 270.50851 
L 210.60864 268.826391 
L 213.68448 278.202337 
L 216.76032 273.725782 
L 219.83616 277.343401 
L 222.912 266.86404 
L 225.98784 269.479946 
L 229.06368 273.232809 
L 232.13952 284.573695 
L 235.21536 281.189704 
L 238.2912 274.048661 
L 241.36704 275.108266 
L 244.44288 275.351436 
L 247.51872 273.701811 
L 250.59456 272.282789 
L 253.6704 271.79418 
L 256.74624 270.993833 
L 262.89792 286.173138 
L 265.97376 273.884094 
L 269.0496 275.280949 
L 272.12544 276.129412 
L 275.20128 271.081018 
L 278.27712 275.088193 
L 281.35296 271.799154 
L 284.4288 275.680395 
L 287.50464 275.553733 
L 290.58048 272.050121 
L 293.65632 274.775117 
L 296.73216 267.153494 
L 299.808 270.108104 
L 302.88384 279.914013 
L 305.95968 268.923467 
L 309.03552 275.468905 
L 312.11136 272.456083 
L 315.1872 270.156802 
L 318.26304 270.122766 
L 321.33888 267.539791 
L 324.41472 281.038286 
L 327.49056 277.884665 
L 330.5664 270.895418 
L 333.64224 268.923816 
L 336.71808 265.477484 
L 339.79392 275.791987 
L 342.86976 265.160568 
L 345.9456 270.021355 
L 349.02144 275.915914 
L 352.09728 273.448721 
L 355.17312 271.925059 
L 358.24896 273.164911 
L 361.3248 269.569516 
L 364.40064 274.367729 
L 367.47648 268.161637 
L 370.55232 268.994623 
L 373.62816 266.708579 
L 376.704 275.082666 
L 379.77984 276.133223 
L 382.85568 265.885366 
L 385.93152 270.374867 
L 389.00736 267.500955 
L 392.0832 268.907496 
L 395.15904 267.08993 
L 398.23488 282.172392 
L 401.31072 273.996268 
L 404.38656 266.200303 
L 407.4624 275.64505 
L 410.53824 273.221987 
L 413.61408 278.107094 
L 416.68992 283.506294 
L 419.76576 278.929695 
L 422.8416 282.494195 
L 425.91744 285.339424 
L 428.99328 282.519388 
L 432.06912 271.480551 
L 435.14496 278.676489 
L 438.2208 268.900311 
L 441.29664 279.748224 
L 444.37248 280.005765 
L 447.44832 273.398917 
L 450.52416 275.909311 
L 453.6 271.362588 
L 456.67584 282.181963 
L 459.75168 282.445992 
L 462.82752 268.468778 
L 465.90336 276.945352 
L 468.9792 272.419371 
L 472.05504 275.378403 
L 475.13088 276.366008 
L 478.20672 277.65447 
L 481.28256 276.932057 
L 484.3584 270.265747 
L 487.43424 276.840508 
L 490.51008 276.860959 
L 493.58592 274.321708 
L 496.66176 267.284519 
L 499.7376 267.563413 
L 502.81344 264.615784 
L 505.88928 279.025957 
L 508.96512 277.129206 
L 512.04096 269.08434 
L 515.1168 267.962859 
L 518.19264 268.432763 
L 521.26848 260.957437 
L 524.34432 262.988036 
L 527.42016 266.237598 
L 530.496 261.176753 
L 533.57184 266.871604 
L 536.64768 256.980662 
L 539.72352 261.668243 
L 542.79936 256.124868 
L 545.8752 258.621065 
L 548.95104 256.033785 
L 552.02688 260.711736 
L 555.10272 264.121298 
L 558.17856 255.609291 
L 561.2544 248.787666 
L 564.33024 251.304459 
L 567.40608 260.730849 
L 570.48192 253.994459 
L 573.55776 243.959606 
L 573.55776 243.959606 
" clip-path="url(#padbf4216de)" style="fill: none; stroke: #777777; stroke-width: 1.8; stroke-linecap: square"/>
   </g>
   <g id="line2d_28">
    <path d="M 576.6336 254.128452 
L 579.70944 257.986594 
L 582.78528 244.646295 
L 585.86112 255.891123 
L 588.93696 248.729717 
L 592.0128 230.894884 
L 595.08864 247.177139 
L 598.16448 242.893805 
L 601.24032 251.833709 
L 604.31616 239.415821 
L 607.392 252.024195 
L 610.46784 239.558308 
L 613.54368 243.997336 
L 616.61952 243.453221 
L 619.69536 239.614744 
L 622.7712 237.759971 
L 625.84704 238.499925 
L 628.92288 245.391427 
L 631.99872 241.223816 
L 635.07456 230.630739 
L 638.1504 250.314585 
L 641.22624 235.407686 
L 644.30208 238.657598 
L 647.37792 231.04668 
L 650.45376 224.217723 
L 653.5296 231.385413 
L 656.60544 230.820935 
L 659.68128 237.45027 
L 662.75712 229.232343 
L 665.83296 225.648061 
L 668.9088 225.096266 
L 675.06048 223.759717 
L 678.13632 220.732699 
L 681.21216 219.869109 
L 684.288 216.075839 
L 687.36384 228.369799 
L 690.43968 236.306011 
L 693.51552 232.768391 
L 696.59136 227.050588 
L 699.6672 215.889599 
L 702.74304 232.969467 
L 705.81888 215.733556 
L 708.89472 221.823838 
L 711.97056 215.562618 
L 715.0464 224.193054 
L 718.12224 211.797392 
L 721.19808 214.355523 
L 724.27392 209.393849 
L 727.34976 218.056983 
L 730.4256 221.63469 
L 733.50144 216.73847 
L 739.65312 210.447112 
L 742.72896 205.767386 
L 745.8048 213.484951 
L 748.88064 212.628692 
L 751.95648 219.099424 
L 755.03232 226.680437 
L 758.10816 218.464022 
L 761.184 204.249077 
L 764.25984 214.81865 
L 767.33568 215.883723 
L 770.41152 213.963088 
L 773.48736 226.523113 
L 776.5632 202.640063 
L 779.63904 214.983885 
L 782.71488 194.223736 
L 785.79072 206.676184 
L 788.86656 209.323682 
L 791.9424 214.194884 
L 795.01824 213.280326 
L 798.09408 203.023422 
L 801.16992 202.929575 
L 804.24576 204.011289 
L 807.3216 201.31486 
L 810.39744 198.270213 
L 813.47328 206.552199 
L 816.54912 207.068677 
L 819.62496 200.867617 
L 822.7008 195.11508 
L 825.77664 211.492229 
L 828.85248 205.13565 
L 831.92832 197.69276 
L 835.00416 202.36306 
L 838.08 204.333993 
L 838.08 204.333993 
" clip-path="url(#padbf4216de)" style="fill: none; stroke: #3db5af; stroke-width: 1.8; stroke-linecap: square"/>
   </g>
   <g id="text_22">
    <!-- Maximal temperature (in Czechia) projections (31 CMIP6 models) -->
    <g transform="translate(160.001719 22.8) scale(0.18 -0.18)">
     <defs>
      <path id="DejaVuSans-69" d="M 603 3500 
L 1178 3500 
L 1178 0 
L 603 0 
L 603 3500 
z
M 603 4863 
L 1178 4863 
L 1178 4134 
L 603 4134 
L 603 4863 
z
" transform="scale(0.015625)"/>
      <path id="DejaVuSans-6c" d="M 603 4863 
L 1178 4863 
L 1178 0 
L 603 0 
L 603 4863 
z
" transform="scale(0.015625)"/>
      <path id="DejaVuSans-28" d="M 1984 4856 
Q 1566 4138 1362 3434 
Q 1159 2731 1159 2009 
Q 1159 1288 1364 580 
Q 1569 -128 1984 -844 
L 1484 -844 
Q 1016 -109 783 600 
Q 550 1309 550 2009 
Q 550 2706 781 3412 
Q 1013 4119 1484 4856 
L 1984 4856 
z
" transform="scale(0.015625)"/>
      <path id="DejaVuSans-6e" d="M 3513 2113 
L 3513 0 
L 2938 0 
L 2938 2094 
Q 2938 2591 2744 2837 
Q 2550 3084 2163 3084 
Q 1697 3084 1428 2787 
Q 1159 2491 1159 1978 
L 1159 0 
L 581 0 
L 581 3500 
L 1159 3500 
L 1159 2956 
Q 1366 3272 1645 3428 
Q 1925 3584 2291 3584 
Q 2894 3584 3203 3211 
Q 3513 2838 3513 2113 
z
" transform="scale(0.015625)"/>
      <path id="DejaVuSans-7a" d="M 353 3500 
L 3084 3500 
L 3084 2975 
L 922 459 
L 3084 459 
L 3084 0 
L 275 0 
L 275 525 
L 2438 3041 
L 353 3041 
L 353 3500 
z
" transform="scale(0.015625)"/>
      <path id="DejaVuSans-63" d="M 3122 3366 
L 3122 2828 
Q 2878 2963 2633 3030 
Q 2388 3097 2138 3097 
Q 1578 3097 1268 2742 
Q 959 2388 959 1747 
Q 959 1106 1268 751 
Q 1578 397 2138 397 
Q 2388 397 2633 464 
Q 2878 531 3122 666 
L 3122 134 
Q 2881 22 2623 -34 
Q 2366 -91 2075 -91 
Q 1284 -91 818 406 
Q 353 903 353 1747 
Q 353 2603 823 3093 
Q 1294 3584 2113 3584 
Q 2378 3584 2631 3529 
Q 2884 3475 3122 3366 
z
" transform="scale(0.015625)"/>
      <path id="DejaVuSans-68" d="M 3513 2113 
L 3513 0 
L 2938 0 
L 2938 2094 
Q 2938 2591 2744 2837 
Q 2550 3084 2163 3084 
Q 1697 3084 1428 2787 
Q 1159 2491 1159 1978 
L 1159 0 
L 581 0 
L 581 4863 
L 1159 4863 
L 1159 2956 
Q 1366 3272 1645 3428 
Q 1925 3584 2291 3584 
Q 2894 3584 3203 3211 
Q 3513 2838 3513 2113 
z
" transform="scale(0.015625)"/>
      <path id="DejaVuSans-29" d="M 513 4856 
L 1013 4856 
Q 1481 4119 1714 3412 
Q 1947 2706 1947 2009 
Q 1947 1309 1714 600 
Q 1481 -109 1013 -844 
L 513 -844 
Q 928 -128 1133 580 
Q 1338 1288 1338 2009 
Q 1338 2731 1133 3434 
Q 928 4138 513 4856 
z
" transform="scale(0.015625)"/>
      <path id="DejaVuSans-6f" d="M 1959 3097 
Q 1497 3097 1228 2736 
Q 959 2375 959 1747 
Q 959 1119 1226 758 
Q 1494 397 1959 397 
Q 2419 397 2687 759 
Q 2956 1122 2956 1747 
Q 2956 2369 2687 2733 
Q 2419 3097 1959 3097 
z
M 1959 3584 
Q 2709 3584 3137 3096 
Q 3566 2609 3566 1747 
Q 3566 888 3137 398 
Q 2709 -91 1959 -91 
Q 1206 -91 779 398 
Q 353 888 353 1747 
Q 353 2609 779 3096 
Q 1206 3584 1959 3584 
z
" transform="scale(0.015625)"/>
      <path id="DejaVuSans-6a" d="M 603 3500 
L 1178 3500 
L 1178 -63 
Q 1178 -731 923 -1031 
Q 669 -1331 103 -1331 
L -116 -1331 
L -116 -844 
L 38 -844 
Q 366 -844 484 -692 
Q 603 -541 603 -63 
L 603 3500 
z
M 603 4863 
L 1178 4863 
L 1178 4134 
L 603 4134 
L 603 4863 
z
" transform="scale(0.015625)"/>
      <path id="DejaVuSans-73" d="M 2834 3397 
L 2834 2853 
Q 2591 2978 2328 3040 
Q 2066 3103 1784 3103 
Q 1356 3103 1142 2972 
Q 928 2841 928 2578 
Q 928 2378 1081 2264 
Q 1234 2150 1697 2047 
L 1894 2003 
Q 2506 1872 2764 1633 
Q 3022 1394 3022 966 
Q 3022 478 2636 193 
Q 2250 -91 1575 -91 
Q 1294 -91 989 -36 
Q 684 19 347 128 
L 347 722 
Q 666 556 975 473 
Q 1284 391 1588 391 
Q 1994 391 2212 530 
Q 2431 669 2431 922 
Q 2431 1156 2273 1281 
Q 2116 1406 1581 1522 
L 1381 1569 
Q 847 1681 609 1914 
Q 372 2147 372 2553 
Q 372 3047 722 3315 
Q 1072 3584 1716 3584 
Q 2034 3584 2315 3537 
Q 2597 3491 2834 3397 
z
" transform="scale(0.015625)"/>
      <path id="DejaVuSans-49" d="M 628 4666 
L 1259 4666 
L 1259 0 
L 628 0 
L 628 4666 
z
" transform="scale(0.015625)"/>
      <path id="DejaVuSans-50" d="M 1259 4147 
L 1259 2394 
L 2053 2394 
Q 2494 2394 2734 2622 
Q 2975 2850 2975 3272 
Q 2975 3691 2734 3919 
Q 2494 4147 2053 4147 
L 1259 4147 
z
M 628 4666 
L 2053 4666 
Q 2838 4666 3239 4311 
Q 3641 3956 3641 3272 
Q 3641 2581 3239 2228 
Q 2838 1875 2053 1875 
L 1259 1875 
L 1259 0 
L 628 0 
L 628 4666 
z
" transform="scale(0.015625)"/>
      <path id="DejaVuSans-36" d="M 2113 2584 
Q 1688 2584 1439 2293 
Q 1191 2003 1191 1497 
Q 1191 994 1439 701 
Q 1688 409 2113 409 
Q 2538 409 2786 701 
Q 3034 994 3034 1497 
Q 3034 2003 2786 2293 
Q 2538 2584 2113 2584 
z
M 3366 4563 
L 3366 3988 
Q 3128 4100 2886 4159 
Q 2644 4219 2406 4219 
Q 1781 4219 1451 3797 
Q 1122 3375 1075 2522 
Q 1259 2794 1537 2939 
Q 1816 3084 2150 3084 
Q 2853 3084 3261 2657 
Q 3669 2231 3669 1497 
Q 3669 778 3244 343 
Q 2819 -91 2113 -91 
Q 1303 -91 875 529 
Q 447 1150 447 2328 
Q 447 3434 972 4092 
Q 1497 4750 2381 4750 
Q 2619 4750 2861 4703 
Q 3103 4656 3366 4563 
z
" transform="scale(0.015625)"/>
      <path id="DejaVuSans-64" d="M 2906 2969 
L 2906 4863 
L 3481 4863 
L 3481 0 
L 2906 0 
L 2906 525 
Q 2725 213 2448 61 
Q 2172 -91 1784 -91 
Q 1150 -91 751 415 
Q 353 922 353 1747 
Q 353 2572 751 3078 
Q 1150 3584 1784 3584 
Q 2172 3584 2448 3432 
Q 2725 3281 2906 2969 
z
M 947 1747 
Q 947 1113 1208 752 
Q 1469 391 1925 391 
Q 2381 391 2643 752 
Q 2906 1113 2906 1747 
Q 2906 2381 2643 2742 
Q 2381 3103 1925 3103 
Q 1469 3103 1208 2742 
Q 947 2381 947 1747 
z
" transform="scale(0.015625)"/>
     </defs>
     <use xlink:href="#DejaVuSans-4d"/>
     <use xlink:href="#DejaVuSans-61" x="86.279297"/>
     <use xlink:href="#DejaVuSans-78" x="147.558594"/>
     <use xlink:href="#DejaVuSans-69" x="206.738281"/>
     <use xlink:href="#DejaVuSans-6d" x="234.521484"/>
     <use xlink:href="#DejaVuSans-61" x="331.933594"/>
     <use xlink:href="#DejaVuSans-6c" x="393.212891"/>
     <use xlink:href="#DejaVuSans-20" x="420.996094"/>
     <use xlink:href="#DejaVuSans-74" x="452.783203"/>
     <use xlink:href="#DejaVuSans-65" x="491.992188"/>
     <use xlink:href="#DejaVuSans-6d" x="553.515625"/>
     <use xlink:href="#DejaVuSans-70" x="650.927734"/>
     <use xlink:href="#DejaVuSans-65" x="714.404297"/>
     <use xlink:href="#DejaVuSans-72" x="775.927734"/>
     <use xlink:href="#DejaVuSans-61" x="817.041016"/>
     <use xlink:href="#DejaVuSans-74" x="878.320312"/>
     <use xlink:href="#DejaVuSans-75" x="917.529297"/>
     <use xlink:href="#DejaVuSans-72" x="980.908203"/>
     <use xlink:href="#DejaVuSans-65" x="1019.771484"/>
     <use xlink:href="#DejaVuSans-20" x="1081.294922"/>
     <use xlink:href="#DejaVuSans-28" x="1113.082031"/>
     <use xlink:href="#DejaVuSans-69" x="1152.095703"/>
     <use xlink:href="#DejaVuSans-6e" x="1179.878906"/>
     <use xlink:href="#DejaVuSans-20" x="1243.257812"/>
     <use xlink:href="#DejaVuSans-43" x="1275.044922"/>
     <use xlink:href="#DejaVuSans-7a" x="1344.869141"/>
     <use xlink:href="#DejaVuSans-65" x="1397.359375"/>
     <use xlink:href="#DejaVuSans-63" x="1458.882812"/>
     <use xlink:href="#DejaVuSans-68" x="1513.863281"/>
     <use xlink:href="#DejaVuSans-69" x="1577.242188"/>
     <use xlink:href="#DejaVuSans-61" x="1605.025391"/>
     <use xlink:href="#DejaVuSans-29" x="1666.304688"/>
     <use xlink:href="#DejaVuSans-20" x="1705.318359"/>
     <use xlink:href="#DejaVuSans-70" x="1737.105469"/>
     <use xlink:href="#DejaVuSans-72" x="1800.582031"/>
     <use xlink:href="#DejaVuSans-6f" x="1839.445312"/>
     <use xlink:href="#DejaVuSans-6a" x="1900.626953"/>
     <use xlink:href="#DejaVuSans-65" x="1928.410156"/>
     <use xlink:href="#DejaVuSans-63" x="1989.933594"/>
     <use xlink:href="#DejaVuSans-74" x="2044.914062"/>
     <use xlink:href="#DejaVuSans-69" x="2084.123047"/>
     <use xlink:href="#DejaVuSans-6f" x="2111.90625"/>
     <use xlink:href="#DejaVuSans-6e" x="2173.087891"/>
     <use xlink:href="#DejaVuSans-73" x="2236.466797"/>
     <use xlink:href="#DejaVuSans-20" x="2288.566406"/>
     <use xlink:href="#DejaVuSans-28" x="2320.353516"/>
     <use xlink:href="#DejaVuSans-33" x="2359.367188"/>
     <use xlink:href="#DejaVuSans-31" x="2422.990234"/>
     <use xlink:href="#DejaVuSans-20" x="2486.613281"/>
     <use xlink:href="#DejaVuSans-43" x="2518.400391"/>
     <use xlink:href="#DejaVuSans-4d" x="2588.224609"/>
     <use xlink:href="#DejaVuSans-49" x="2674.503906"/>
     <use xlink:href="#DejaVuSans-50" x="2703.996094"/>
     <use xlink:href="#DejaVuSans-36" x="2764.298828"/>
     <use xlink:href="#DejaVuSans-20" x="2827.921875"/>
     <use xlink:href="#DejaVuSans-6d" x="2859.708984"/>
     <use xlink:href="#DejaVuSans-6f" x="2957.121094"/>
     <use xlink:href="#DejaVuSans-64" x="3018.302734"/>
     <use xlink:href="#DejaVuSans-65" x="3081.779297"/>
     <use xlink:href="#DejaVuSans-6c" x="3143.302734"/>
     <use xlink:href="#DejaVuSans-73" x="3171.085938"/>
     <use xlink:href="#DejaVuSans-29" x="3223.185547"/>
    </g>
   </g>
   <g id="legend_1">
    <g id="PathCollection_2">
     <g>
      <use xlink:href="#mce8da2d077" x="95.72" y="48.362813" style="stroke: #000000"/>
     </g>
    </g>
    <g id="text_23">
     <!-- measurements -->
     <g transform="translate(120.92 52.037813) scale(0.14 -0.14)">
      <use xlink:href="#DejaVuSans-6d"/>
      <use xlink:href="#DejaVuSans-65" x="97.412109"/>
      <use xlink:href="#DejaVuSans-61" x="158.935547"/>
      <use xlink:href="#DejaVuSans-73" x="220.214844"/>
      <use xlink:href="#DejaVuSans-75" x="272.314453"/>
      <use xlink:href="#DejaVuSans-72" x="335.693359"/>
      <use xlink:href="#DejaVuSans-65" x="374.556641"/>
      <use xlink:href="#DejaVuSans-6d" x="436.080078"/>
      <use xlink:href="#DejaVuSans-65" x="533.492188"/>
      <use xlink:href="#DejaVuSans-6e" x="595.015625"/>
      <use xlink:href="#DejaVuSans-74" x="658.394531"/>
      <use xlink:href="#DejaVuSans-73" x="697.603516"/>
     </g>
    </g>
    <g id="line2d_29">
     <path d="M 81.72 67.687188 
L 95.72 67.687188 
L 109.72 67.687188 
" style="fill: none; stroke: #777777; stroke-width: 1.8; stroke-linecap: square"/>
    </g>
    <g id="text_24">
     <!-- hindcast -->
     <g transform="translate(120.92 72.587188) scale(0.14 -0.14)">
      <use xlink:href="#DejaVuSans-68"/>
      <use xlink:href="#DejaVuSans-69" x="63.378906"/>
      <use xlink:href="#DejaVuSans-6e" x="91.162109"/>
      <use xlink:href="#DejaVuSans-64" x="154.541016"/>
      <use xlink:href="#DejaVuSans-63" x="218.017578"/>
      <use xlink:href="#DejaVuSans-61" x="272.998047"/>
      <use xlink:href="#DejaVuSans-73" x="334.277344"/>
      <use xlink:href="#DejaVuSans-74" x="386.376953"/>
     </g>
    </g>
    <g id="line2d_30">
     <path d="M 81.72 88.236563 
L 95.72 88.236563 
L 109.72 88.236563 
" style="fill: none; stroke: #3db5af; stroke-width: 1.8; stroke-linecap: square"/>
    </g>
    <g id="text_25">
     <!-- 3° = no decline till 2050 -->
     <g transform="translate(120.92 93.136563) scale(0.14 -0.14)">
      <defs>
       <path id="DejaVuSans-3d" d="M 678 2906 
L 4684 2906 
L 4684 2381 
L 678 2381 
L 678 2906 
z
M 678 1631 
L 4684 1631 
L 4684 1100 
L 678 1100 
L 678 1631 
z
" transform="scale(0.015625)"/>
      </defs>
      <use xlink:href="#DejaVuSans-33"/>
      <use xlink:href="#DejaVuSans-b0" x="63.623047"/>
      <use xlink:href="#DejaVuSans-20" x="113.623047"/>
      <use xlink:href="#DejaVuSans-3d" x="145.410156"/>
      <use xlink:href="#DejaVuSans-20" x="229.199219"/>
      <use xlink:href="#DejaVuSans-6e" x="260.986328"/>
      <use xlink:href="#DejaVuSans-6f" x="324.365234"/>
      <use xlink:href="#DejaVuSans-20" x="385.546875"/>
      <use xlink:href="#DejaVuSans-64" x="417.333984"/>
      <use xlink:href="#DejaVuSans-65" x="480.810547"/>
      <use xlink:href="#DejaVuSans-63" x="542.333984"/>
      <use xlink:href="#DejaVuSans-6c" x="597.314453"/>
      <use xlink:href="#DejaVuSans-69" x="625.097656"/>
      <use xlink:href="#DejaVuSans-6e" x="652.880859"/>
      <use xlink:href="#DejaVuSans-65" x="716.259766"/>
      <use xlink:href="#DejaVuSans-20" x="777.783203"/>
      <use xlink:href="#DejaVuSans-74" x="809.570312"/>
      <use xlink:href="#DejaVuSans-69" x="848.779297"/>
      <use xlink:href="#DejaVuSans-6c" x="876.5625"/>
      <use xlink:href="#DejaVuSans-6c" x="904.345703"/>
      <use xlink:href="#DejaVuSans-20" x="932.128906"/>
      <use xlink:href="#DejaVuSans-32" x="963.916016"/>
      <use xlink:href="#DejaVuSans-30" x="1027.539062"/>
      <use xlink:href="#DejaVuSans-35" x="1091.162109"/>
      <use xlink:href="#DejaVuSans-30" x="1154.785156"/>
     </g>
    </g>
   </g>
  </g>
 </g>
 <defs>
  <clipPath id="padbf4216de">
   <rect x="69.12" y="28.8" width="768.96" height="460.8"/>
  </clipPath>
 </defs>
</svg>
