<?xml version="1.0" encoding="utf-8" standalone="no"?>
<!DOCTYPE svg PUBLIC "-//W3C//DTD SVG 1.1//EN"
  "http://www.w3.org/Graphics/SVG/1.1/DTD/svg11.dtd">
<svg xmlns:xlink="http://www.w3.org/1999/xlink" width="864pt" height="576pt" viewBox="0 0 864 576" xmlns="http://www.w3.org/2000/svg" version="1.1">
 <metadata>
  <rdf:RDF xmlns:dc="http://purl.org/dc/elements/1.1/" xmlns:cc="http://creativecommons.org/ns#" xmlns:rdf="http://www.w3.org/1999/02/22-rdf-syntax-ns#">
   <cc:Work>
    <dc:type rdf:resource="http://purl.org/dc/dcmitype/StillImage"/>
    <dc:date>2024-08-09T14:52:18.359312</dc:date>
    <dc:format>image/svg+xml</dc:format>
    <dc:creator>
     <cc:Agent>
      <dc:title>Matplotlib v3.8.3, https://matplotlib.org/</dc:title>
     </cc:Agent>
    </dc:creator>
   </cc:Work>
  </rdf:RDF>
 </metadata>
 <defs>
  <style type="text/css">*{stroke-linejoin: round; stroke-linecap: butt}</style>
 </defs>
 <g id="figure_1">
  <g id="patch_1">
   <path d="M 0 576 
L 864 576 
L 864 0 
L 0 0 
z
" style="fill: #ffffff"/>
  </g>
  <g id="axes_1">
   <g id="patch_2">
    <path d="M 69.12 489.6 
L 838.08 489.6 
L 838.08 28.8 
L 69.12 28.8 
z
" style="fill: #ffffff"/>
   </g>
   <g id="matplotlib.axis_1">
    <g id="xtick_1">
     <g id="line2d_1">
      <defs>
       <path id="ma3899c9076" d="M 0 0 
L 0 3.5 
" style="stroke: #717174; stroke-width: 0.8"/>
      </defs>
      <g>
       <use xlink:href="#ma3899c9076" x="69.12" y="489.6" style="fill: #717174; stroke: #717174; stroke-width: 0.8"/>
      </g>
     </g>
     <g id="text_1">
      <!-- 1850 -->
      <g style="fill: #717174" transform="translate(53.85 505.718125) scale(0.12 -0.12)">
       <defs>
        <path id="DejaVuSans-31" d="M 794 531 
L 1825 531 
L 1825 4091 
L 703 3866 
L 703 4441 
L 1819 4666 
L 2450 4666 
L 2450 531 
L 3481 531 
L 3481 0 
L 794 0 
L 794 531 
z
" transform="scale(0.015625)"/>
        <path id="DejaVuSans-38" d="M 2034 2216 
Q 1584 2216 1326 1975 
Q 1069 1734 1069 1313 
Q 1069 891 1326 650 
Q 1584 409 2034 409 
Q 2484 409 2743 651 
Q 3003 894 3003 1313 
Q 3003 1734 2745 1975 
Q 2488 2216 2034 2216 
z
M 1403 2484 
Q 997 2584 770 2862 
Q 544 3141 544 3541 
Q 544 4100 942 4425 
Q 1341 4750 2034 4750 
Q 2731 4750 3128 4425 
Q 3525 4100 3525 3541 
Q 3525 3141 3298 2862 
Q 3072 2584 2669 2484 
Q 3125 2378 3379 2068 
Q 3634 1759 3634 1313 
Q 3634 634 3220 271 
Q 2806 -91 2034 -91 
Q 1263 -91 848 271 
Q 434 634 434 1313 
Q 434 1759 690 2068 
Q 947 2378 1403 2484 
z
M 1172 3481 
Q 1172 3119 1398 2916 
Q 1625 2713 2034 2713 
Q 2441 2713 2670 2916 
Q 2900 3119 2900 3481 
Q 2900 3844 2670 4047 
Q 2441 4250 2034 4250 
Q 1625 4250 1398 4047 
Q 1172 3844 1172 3481 
z
" transform="scale(0.015625)"/>
        <path id="DejaVuSans-35" d="M 691 4666 
L 3169 4666 
L 3169 4134 
L 1269 4134 
L 1269 2991 
Q 1406 3038 1543 3061 
Q 1681 3084 1819 3084 
Q 2600 3084 3056 2656 
Q 3513 2228 3513 1497 
Q 3513 744 3044 326 
Q 2575 -91 1722 -91 
Q 1428 -91 1123 -41 
Q 819 9 494 109 
L 494 744 
Q 775 591 1075 516 
Q 1375 441 1709 441 
Q 2250 441 2565 725 
Q 2881 1009 2881 1497 
Q 2881 1984 2565 2268 
Q 2250 2553 1709 2553 
Q 1456 2553 1204 2497 
Q 953 2441 691 2322 
L 691 4666 
z
" transform="scale(0.015625)"/>
        <path id="DejaVuSans-30" d="M 2034 4250 
Q 1547 4250 1301 3770 
Q 1056 3291 1056 2328 
Q 1056 1369 1301 889 
Q 1547 409 2034 409 
Q 2525 409 2770 889 
Q 3016 1369 3016 2328 
Q 3016 3291 2770 3770 
Q 2525 4250 2034 4250 
z
M 2034 4750 
Q 2819 4750 3233 4129 
Q 3647 3509 3647 2328 
Q 3647 1150 3233 529 
Q 2819 -91 2034 -91 
Q 1250 -91 836 529 
Q 422 1150 422 2328 
Q 422 3509 836 4129 
Q 1250 4750 2034 4750 
z
" transform="scale(0.015625)"/>
       </defs>
       <use xlink:href="#DejaVuSans-31"/>
       <use xlink:href="#DejaVuSans-38" x="63.623047"/>
       <use xlink:href="#DejaVuSans-35" x="127.246094"/>
       <use xlink:href="#DejaVuSans-30" x="190.869141"/>
      </g>
     </g>
    </g>
    <g id="xtick_2">
     <g id="line2d_2">
      <g>
       <use xlink:href="#ma3899c9076" x="222.912" y="489.6" style="fill: #717174; stroke: #717174; stroke-width: 0.8"/>
      </g>
     </g>
     <g id="text_2">
      <!-- 1900 -->
      <g style="fill: #717174" transform="translate(207.642 505.718125) scale(0.12 -0.12)">
       <defs>
        <path id="DejaVuSans-39" d="M 703 97 
L 703 672 
Q 941 559 1184 500 
Q 1428 441 1663 441 
Q 2288 441 2617 861 
Q 2947 1281 2994 2138 
Q 2813 1869 2534 1725 
Q 2256 1581 1919 1581 
Q 1219 1581 811 2004 
Q 403 2428 403 3163 
Q 403 3881 828 4315 
Q 1253 4750 1959 4750 
Q 2769 4750 3195 4129 
Q 3622 3509 3622 2328 
Q 3622 1225 3098 567 
Q 2575 -91 1691 -91 
Q 1453 -91 1209 -44 
Q 966 3 703 97 
z
M 1959 2075 
Q 2384 2075 2632 2365 
Q 2881 2656 2881 3163 
Q 2881 3666 2632 3958 
Q 2384 4250 1959 4250 
Q 1534 4250 1286 3958 
Q 1038 3666 1038 3163 
Q 1038 2656 1286 2365 
Q 1534 2075 1959 2075 
z
" transform="scale(0.015625)"/>
       </defs>
       <use xlink:href="#DejaVuSans-31"/>
       <use xlink:href="#DejaVuSans-39" x="63.623047"/>
       <use xlink:href="#DejaVuSans-30" x="127.246094"/>
       <use xlink:href="#DejaVuSans-30" x="190.869141"/>
      </g>
     </g>
    </g>
    <g id="xtick_3">
     <g id="line2d_3">
      <g>
       <use xlink:href="#ma3899c9076" x="376.704" y="489.6" style="fill: #717174; stroke: #717174; stroke-width: 0.8"/>
      </g>
     </g>
     <g id="text_3">
      <!-- 1950 -->
      <g style="fill: #717174" transform="translate(361.434 505.718125) scale(0.12 -0.12)">
       <use xlink:href="#DejaVuSans-31"/>
       <use xlink:href="#DejaVuSans-39" x="63.623047"/>
       <use xlink:href="#DejaVuSans-35" x="127.246094"/>
       <use xlink:href="#DejaVuSans-30" x="190.869141"/>
      </g>
     </g>
    </g>
    <g id="xtick_4">
     <g id="line2d_4">
      <g>
       <use xlink:href="#ma3899c9076" x="530.496" y="489.6" style="fill: #717174; stroke: #717174; stroke-width: 0.8"/>
      </g>
     </g>
     <g id="text_4">
      <!-- 2000 -->
      <g style="fill: #717174" transform="translate(515.226 505.718125) scale(0.12 -0.12)">
       <defs>
        <path id="DejaVuSans-32" d="M 1228 531 
L 3431 531 
L 3431 0 
L 469 0 
L 469 531 
Q 828 903 1448 1529 
Q 2069 2156 2228 2338 
Q 2531 2678 2651 2914 
Q 2772 3150 2772 3378 
Q 2772 3750 2511 3984 
Q 2250 4219 1831 4219 
Q 1534 4219 1204 4116 
Q 875 4013 500 3803 
L 500 4441 
Q 881 4594 1212 4672 
Q 1544 4750 1819 4750 
Q 2544 4750 2975 4387 
Q 3406 4025 3406 3419 
Q 3406 3131 3298 2873 
Q 3191 2616 2906 2266 
Q 2828 2175 2409 1742 
Q 1991 1309 1228 531 
z
" transform="scale(0.015625)"/>
       </defs>
       <use xlink:href="#DejaVuSans-32"/>
       <use xlink:href="#DejaVuSans-30" x="63.623047"/>
       <use xlink:href="#DejaVuSans-30" x="127.246094"/>
       <use xlink:href="#DejaVuSans-30" x="190.869141"/>
      </g>
     </g>
    </g>
    <g id="xtick_5">
     <g id="line2d_5">
      <g>
       <use xlink:href="#ma3899c9076" x="576.6336" y="489.6" style="fill: #717174; stroke: #717174; stroke-width: 0.8"/>
      </g>
     </g>
     <g id="text_5">
      <!-- 2015 -->
      <g style="fill: #717174" transform="translate(561.3636 505.718125) scale(0.12 -0.12)">
       <use xlink:href="#DejaVuSans-32"/>
       <use xlink:href="#DejaVuSans-30" x="63.623047"/>
       <use xlink:href="#DejaVuSans-31" x="127.246094"/>
       <use xlink:href="#DejaVuSans-35" x="190.869141"/>
      </g>
     </g>
    </g>
    <g id="xtick_6">
     <g id="line2d_6">
      <g>
       <use xlink:href="#ma3899c9076" x="684.288" y="489.6" style="fill: #717174; stroke: #717174; stroke-width: 0.8"/>
      </g>
     </g>
     <g id="text_6">
      <!-- 2050 -->
      <g style="fill: #717174" transform="translate(669.018 505.718125) scale(0.12 -0.12)">
       <use xlink:href="#DejaVuSans-32"/>
       <use xlink:href="#DejaVuSans-30" x="63.623047"/>
       <use xlink:href="#DejaVuSans-35" x="127.246094"/>
       <use xlink:href="#DejaVuSans-30" x="190.869141"/>
      </g>
     </g>
    </g>
    <g id="xtick_7">
     <g id="line2d_7">
      <g>
       <use xlink:href="#ma3899c9076" x="761.184" y="489.6" style="fill: #717174; stroke: #717174; stroke-width: 0.8"/>
      </g>
     </g>
     <g id="text_7">
      <!-- 2075 -->
      <g style="fill: #717174" transform="translate(745.914 505.718125) scale(0.12 -0.12)">
       <defs>
        <path id="DejaVuSans-37" d="M 525 4666 
L 3525 4666 
L 3525 4397 
L 1831 0 
L 1172 0 
L 2766 4134 
L 525 4134 
L 525 4666 
z
" transform="scale(0.015625)"/>
       </defs>
       <use xlink:href="#DejaVuSans-32"/>
       <use xlink:href="#DejaVuSans-30" x="63.623047"/>
       <use xlink:href="#DejaVuSans-37" x="127.246094"/>
       <use xlink:href="#DejaVuSans-35" x="190.869141"/>
      </g>
     </g>
    </g>
    <g id="xtick_8">
     <g id="line2d_8">
      <g>
       <use xlink:href="#ma3899c9076" x="838.08" y="489.6" style="fill: #717174; stroke: #717174; stroke-width: 0.8"/>
      </g>
     </g>
     <g id="text_8">
      <!-- 2100 -->
      <g style="fill: #717174" transform="translate(807.54 505.718125) scale(0.12 -0.12)">
       <use xlink:href="#DejaVuSans-32"/>
       <use xlink:href="#DejaVuSans-31" x="63.623047"/>
       <use xlink:href="#DejaVuSans-30" x="127.246094"/>
       <use xlink:href="#DejaVuSans-30" x="190.869141"/>
      </g>
     </g>
    </g>
    <g id="xtick_9">
     <g id="line2d_9">
      <defs>
       <path id="mcf4f95f479" d="M 0 0 
L 0 2 
" style="stroke: #ffffff; stroke-width: 0.6"/>
      </defs>
      <g>
       <use xlink:href="#mcf4f95f479" x="146.016" y="489.6" style="fill: #ffffff; stroke: #ffffff; stroke-width: 0.6"/>
      </g>
     </g>
     <g id="text_9">
      <!-- Pre-industrial -->
      <g style="fill: #b2b2b2" transform="translate(111.483885 548.363148) rotate(-25) scale(0.11 -0.11)">
       <defs>
        <path id="DejaVuSans-Oblique-50" d="M 1081 4666 
L 2541 4666 
Q 3178 4666 3512 4369 
Q 3847 4072 3847 3500 
Q 3847 2731 3353 2303 
Q 2859 1875 1966 1875 
L 1172 1875 
L 806 0 
L 172 0 
L 1081 4666 
z
M 1613 4147 
L 1275 2394 
L 2069 2394 
Q 2606 2394 2893 2669 
Q 3181 2944 3181 3456 
Q 3181 3784 2986 3965 
Q 2791 4147 2438 4147 
L 1613 4147 
z
" transform="scale(0.015625)"/>
        <path id="DejaVuSans-Oblique-72" d="M 2853 2969 
Q 2766 3016 2653 3041 
Q 2541 3066 2413 3066 
Q 1953 3066 1609 2717 
Q 1266 2369 1153 1784 
L 800 0 
L 225 0 
L 909 3500 
L 1484 3500 
L 1375 2956 
Q 1603 3259 1920 3421 
Q 2238 3584 2597 3584 
Q 2691 3584 2781 3573 
Q 2872 3563 2963 3538 
L 2853 2969 
z
" transform="scale(0.015625)"/>
        <path id="DejaVuSans-Oblique-65" d="M 3078 2063 
Q 3088 2113 3092 2166 
Q 3097 2219 3097 2272 
Q 3097 2653 2873 2875 
Q 2650 3097 2266 3097 
Q 1838 3097 1509 2826 
Q 1181 2556 1013 2059 
L 3078 2063 
z
M 3578 1613 
L 903 1613 
Q 884 1494 878 1425 
Q 872 1356 872 1306 
Q 872 872 1139 634 
Q 1406 397 1894 397 
Q 2269 397 2603 481 
Q 2938 566 3225 728 
L 3116 159 
Q 2806 34 2476 -28 
Q 2147 -91 1806 -91 
Q 1078 -91 686 257 
Q 294 606 294 1247 
Q 294 1794 489 2264 
Q 684 2734 1063 3103 
Q 1306 3334 1642 3459 
Q 1978 3584 2356 3584 
Q 2950 3584 3301 3228 
Q 3653 2872 3653 2272 
Q 3653 2128 3634 1964 
Q 3616 1800 3578 1613 
z
" transform="scale(0.015625)"/>
        <path id="DejaVuSans-Oblique-2d" d="M 391 2009 
L 2075 2009 
L 1978 1497 
L 288 1497 
L 391 2009 
z
" transform="scale(0.015625)"/>
        <path id="DejaVuSans-Oblique-69" d="M 1172 4863 
L 1747 4863 
L 1606 4134 
L 1031 4134 
L 1172 4863 
z
M 909 3500 
L 1484 3500 
L 800 0 
L 225 0 
L 909 3500 
z
" transform="scale(0.015625)"/>
        <path id="DejaVuSans-Oblique-6e" d="M 3566 2113 
L 3156 0 
L 2578 0 
L 2988 2091 
Q 3016 2238 3031 2350 
Q 3047 2463 3047 2528 
Q 3047 2791 2881 2937 
Q 2716 3084 2419 3084 
Q 1956 3084 1622 2776 
Q 1288 2469 1184 1941 
L 800 0 
L 225 0 
L 903 3500 
L 1478 3500 
L 1363 2950 
Q 1603 3253 1940 3418 
Q 2278 3584 2650 3584 
Q 3113 3584 3367 3334 
Q 3622 3084 3622 2631 
Q 3622 2519 3608 2391 
Q 3594 2263 3566 2113 
z
" transform="scale(0.015625)"/>
        <path id="DejaVuSans-Oblique-64" d="M 2675 525 
Q 2444 222 2128 65 
Q 1813 -91 1428 -91 
Q 903 -91 598 267 
Q 294 625 294 1247 
Q 294 1766 478 2236 
Q 663 2706 1013 3078 
Q 1244 3325 1534 3454 
Q 1825 3584 2144 3584 
Q 2481 3584 2739 3421 
Q 2997 3259 3138 2956 
L 3513 4863 
L 4091 4863 
L 3144 0 
L 2566 0 
L 2675 525 
z
M 891 1350 
Q 891 897 1095 644 
Q 1300 391 1663 391 
Q 1931 391 2161 520 
Q 2391 650 2566 903 
Q 2750 1166 2856 1509 
Q 2963 1853 2963 2188 
Q 2963 2622 2758 2865 
Q 2553 3109 2194 3109 
Q 1922 3109 1687 2981 
Q 1453 2853 1288 2613 
Q 1106 2353 998 2009 
Q 891 1666 891 1350 
z
" transform="scale(0.015625)"/>
        <path id="DejaVuSans-Oblique-75" d="M 428 1388 
L 838 3500 
L 1416 3500 
L 1006 1409 
Q 975 1256 961 1147 
Q 947 1038 947 966 
Q 947 700 1109 554 
Q 1272 409 1569 409 
Q 2031 409 2368 721 
Q 2706 1034 2809 1563 
L 3194 3500 
L 3769 3500 
L 3091 0 
L 2516 0 
L 2631 550 
Q 2388 244 2052 76 
Q 1716 -91 1338 -91 
Q 878 -91 622 161 
Q 366 413 366 863 
Q 366 956 381 1097 
Q 397 1238 428 1388 
z
" transform="scale(0.015625)"/>
        <path id="DejaVuSans-Oblique-73" d="M 3200 3397 
L 3091 2853 
Q 2863 2978 2609 3040 
Q 2356 3103 2088 3103 
Q 1634 3103 1373 2948 
Q 1113 2794 1113 2528 
Q 1113 2219 1719 2053 
Q 1766 2041 1788 2034 
L 1972 1978 
Q 2547 1819 2739 1644 
Q 2931 1469 2931 1166 
Q 2931 609 2489 259 
Q 2047 -91 1331 -91 
Q 1053 -91 747 -37 
Q 441 16 72 128 
L 184 722 
Q 500 559 806 475 
Q 1113 391 1394 391 
Q 1816 391 2080 572 
Q 2344 753 2344 1031 
Q 2344 1331 1650 1516 
L 1591 1531 
L 1394 1581 
Q 956 1697 753 1886 
Q 550 2075 550 2369 
Q 550 2928 970 3256 
Q 1391 3584 2113 3584 
Q 2397 3584 2667 3537 
Q 2938 3491 3200 3397 
z
" transform="scale(0.015625)"/>
        <path id="DejaVuSans-Oblique-74" d="M 2706 3500 
L 2619 3053 
L 1472 3053 
L 1100 1153 
Q 1081 1047 1072 975 
Q 1063 903 1063 863 
Q 1063 663 1183 572 
Q 1303 481 1569 481 
L 2150 481 
L 2053 0 
L 1503 0 
Q 991 0 739 200 
Q 488 400 488 806 
Q 488 878 497 964 
Q 506 1050 525 1153 
L 897 3053 
L 409 3053 
L 500 3500 
L 978 3500 
L 1172 4494 
L 1747 4494 
L 1556 3500 
L 2706 3500 
z
" transform="scale(0.015625)"/>
        <path id="DejaVuSans-Oblique-61" d="M 3438 1997 
L 3047 0 
L 2472 0 
L 2578 531 
Q 2325 219 2001 64 
Q 1678 -91 1281 -91 
Q 834 -91 548 182 
Q 263 456 263 884 
Q 263 1497 752 1853 
Q 1241 2209 2100 2209 
L 2900 2209 
L 2931 2363 
Q 2938 2388 2941 2417 
Q 2944 2447 2944 2509 
Q 2944 2788 2717 2942 
Q 2491 3097 2081 3097 
Q 1800 3097 1504 3025 
Q 1209 2953 897 2809 
L 997 3341 
Q 1322 3463 1633 3523 
Q 1944 3584 2234 3584 
Q 2853 3584 3176 3315 
Q 3500 3047 3500 2534 
Q 3500 2431 3484 2292 
Q 3469 2153 3438 1997 
z
M 2816 1759 
L 2241 1759 
Q 1534 1759 1195 1570 
Q 856 1381 856 984 
Q 856 709 1029 553 
Q 1203 397 1509 397 
Q 1978 397 2328 733 
Q 2678 1069 2791 1631 
L 2816 1759 
z
" transform="scale(0.015625)"/>
        <path id="DejaVuSans-Oblique-6c" d="M 1172 4863 
L 1747 4863 
L 800 0 
L 225 0 
L 1172 4863 
z
" transform="scale(0.015625)"/>
       </defs>
       <use xlink:href="#DejaVuSans-Oblique-50"/>
       <use xlink:href="#DejaVuSans-Oblique-72" x="60.302734"/>
       <use xlink:href="#DejaVuSans-Oblique-65" x="101.416016"/>
       <use xlink:href="#DejaVuSans-Oblique-2d" x="162.939453"/>
       <use xlink:href="#DejaVuSans-Oblique-69" x="199.023438"/>
       <use xlink:href="#DejaVuSans-Oblique-6e" x="226.806641"/>
       <use xlink:href="#DejaVuSans-Oblique-64" x="290.185547"/>
       <use xlink:href="#DejaVuSans-Oblique-75" x="353.662109"/>
       <use xlink:href="#DejaVuSans-Oblique-73" x="417.041016"/>
       <use xlink:href="#DejaVuSans-Oblique-74" x="469.140625"/>
       <use xlink:href="#DejaVuSans-Oblique-72" x="508.349609"/>
       <use xlink:href="#DejaVuSans-Oblique-69" x="549.462891"/>
       <use xlink:href="#DejaVuSans-Oblique-61" x="577.246094"/>
       <use xlink:href="#DejaVuSans-Oblique-6c" x="638.525391"/>
      </g>
      <!-- Era -->
      <g style="fill: #b2b2b2" transform="translate(141.648038 547.888334) rotate(-25) scale(0.11 -0.11)">
       <defs>
        <path id="DejaVuSans-Oblique-45" d="M 1081 4666 
L 4031 4666 
L 3928 4134 
L 1606 4134 
L 1338 2753 
L 3566 2753 
L 3463 2222 
L 1234 2222 
L 909 531 
L 3284 531 
L 3181 0 
L 172 0 
L 1081 4666 
z
" transform="scale(0.015625)"/>
       </defs>
       <use xlink:href="#DejaVuSans-Oblique-45"/>
       <use xlink:href="#DejaVuSans-Oblique-72" x="63.183594"/>
       <use xlink:href="#DejaVuSans-Oblique-61" x="104.296875"/>
      </g>
     </g>
    </g>
    <g id="xtick_10">
     <g id="line2d_10">
      <g>
       <use xlink:href="#mcf4f95f479" x="361.3248" y="489.6" style="fill: #ffffff; stroke: #ffffff; stroke-width: 0.6"/>
      </g>
     </g>
     <g id="text_10">
      <!-- Baby -->
      <g style="fill: #b2b2b2" transform="translate(347.415294 543.933713) rotate(-25) scale(0.11 -0.11)">
       <defs>
        <path id="DejaVuSans-Oblique-42" d="M 1081 4666 
L 2694 4666 
Q 3350 4666 3675 4422 
Q 4000 4178 4000 3688 
Q 4000 3238 3720 2911 
Q 3441 2584 2988 2516 
Q 3375 2428 3569 2181 
Q 3763 1934 3763 1522 
Q 3763 819 3242 409 
Q 2722 0 1819 0 
L 172 0 
L 1081 4666 
z
M 1234 2228 
L 903 519 
L 1919 519 
Q 2491 519 2800 781 
Q 3109 1044 3109 1522 
Q 3109 1891 2904 2059 
Q 2700 2228 2247 2228 
L 1234 2228 
z
M 1606 4147 
L 1331 2741 
L 2272 2741 
Q 2775 2741 3058 2959 
Q 3341 3178 3341 3566 
Q 3341 3869 3150 4008 
Q 2959 4147 2541 4147 
L 1606 4147 
z
" transform="scale(0.015625)"/>
        <path id="DejaVuSans-Oblique-62" d="M 3169 2138 
Q 3169 2591 2961 2847 
Q 2753 3103 2388 3103 
Q 2122 3103 1889 2973 
Q 1656 2844 1484 2597 
Q 1303 2338 1198 1995 
Q 1094 1653 1094 1313 
Q 1094 881 1298 636 
Q 1503 391 1863 391 
Q 2134 391 2365 517 
Q 2597 644 2772 891 
Q 2950 1147 3059 1487 
Q 3169 1828 3169 2138 
z
M 1381 2969 
Q 1594 3256 1914 3420 
Q 2234 3584 2584 3584 
Q 3122 3584 3439 3221 
Q 3756 2859 3756 2241 
Q 3756 1734 3570 1259 
Q 3384 784 3041 416 
Q 2816 172 2522 40 
Q 2228 -91 1906 -91 
Q 1566 -91 1316 65 
Q 1066 222 909 531 
L 806 0 
L 231 0 
L 1178 4863 
L 1753 4863 
L 1381 2969 
z
" transform="scale(0.015625)"/>
        <path id="DejaVuSans-Oblique-79" d="M 1588 -325 
Q 1188 -997 936 -1164 
Q 684 -1331 294 -1331 
L -159 -1331 
L -63 -850 
L 269 -850 
Q 509 -850 678 -719 
Q 847 -588 1056 -206 
L 1234 128 
L 459 3500 
L 1069 3500 
L 1650 819 
L 3256 3500 
L 3859 3500 
L 1588 -325 
z
" transform="scale(0.015625)"/>
       </defs>
       <use xlink:href="#DejaVuSans-Oblique-42"/>
       <use xlink:href="#DejaVuSans-Oblique-61" x="68.603516"/>
       <use xlink:href="#DejaVuSans-Oblique-62" x="129.882812"/>
       <use xlink:href="#DejaVuSans-Oblique-79" x="193.359375"/>
      </g>
      <!-- Boomers -->
      <g style="fill: #b2b2b2" transform="translate(343.121978 559.526679) rotate(-25) scale(0.11 -0.11)">
       <defs>
        <path id="DejaVuSans-Oblique-6f" d="M 1625 -91 
Q 1009 -91 651 289 
Q 294 669 294 1325 
Q 294 1706 417 2101 
Q 541 2497 738 2766 
Q 1047 3184 1428 3384 
Q 1809 3584 2291 3584 
Q 2888 3584 3255 3212 
Q 3622 2841 3622 2241 
Q 3622 1825 3500 1412 
Q 3378 1000 3181 728 
Q 2875 309 2494 109 
Q 2113 -91 1625 -91 
z
M 891 1344 
Q 891 869 1089 633 
Q 1288 397 1691 397 
Q 2269 397 2648 901 
Q 3028 1406 3028 2181 
Q 3028 2634 2825 2865 
Q 2622 3097 2228 3097 
Q 1903 3097 1650 2945 
Q 1397 2794 1197 2484 
Q 1050 2253 970 1956 
Q 891 1659 891 1344 
z
" transform="scale(0.015625)"/>
        <path id="DejaVuSans-Oblique-6d" d="M 5747 2113 
L 5338 0 
L 4763 0 
L 5166 2094 
Q 5191 2228 5203 2325 
Q 5216 2422 5216 2491 
Q 5216 2772 5059 2928 
Q 4903 3084 4622 3084 
Q 4203 3084 3875 2770 
Q 3547 2456 3450 1953 
L 3066 0 
L 2491 0 
L 2900 2094 
Q 2925 2209 2937 2307 
Q 2950 2406 2950 2484 
Q 2950 2769 2794 2926 
Q 2638 3084 2363 3084 
Q 1938 3084 1609 2770 
Q 1281 2456 1184 1953 
L 800 0 
L 225 0 
L 909 3500 
L 1484 3500 
L 1375 2956 
Q 1609 3263 1923 3423 
Q 2238 3584 2597 3584 
Q 2978 3584 3223 3384 
Q 3469 3184 3519 2828 
Q 3781 3197 4126 3390 
Q 4472 3584 4856 3584 
Q 5306 3584 5551 3325 
Q 5797 3066 5797 2591 
Q 5797 2488 5784 2364 
Q 5772 2241 5747 2113 
z
" transform="scale(0.015625)"/>
       </defs>
       <use xlink:href="#DejaVuSans-Oblique-42"/>
       <use xlink:href="#DejaVuSans-Oblique-6f" x="68.603516"/>
       <use xlink:href="#DejaVuSans-Oblique-6f" x="129.785156"/>
       <use xlink:href="#DejaVuSans-Oblique-6d" x="190.966797"/>
       <use xlink:href="#DejaVuSans-Oblique-65" x="288.378906"/>
       <use xlink:href="#DejaVuSans-Oblique-72" x="349.902344"/>
       <use xlink:href="#DejaVuSans-Oblique-73" x="391.015625"/>
      </g>
     </g>
    </g>
    <g id="xtick_11">
     <g id="line2d_11">
      <g>
       <use xlink:href="#mcf4f95f479" x="438.2208" y="489.6" style="fill: #ffffff; stroke: #ffffff; stroke-width: 0.6"/>
      </g>
     </g>
     <g id="text_11">
      <!-- +1 gen -->
      <g style="fill: #b2b2b2" transform="translate(421.180159 559.526679) rotate(-25) scale(0.11 -0.11)">
       <defs>
        <path id="DejaVuSans-Oblique-2b" d="M 2944 4013 
L 2944 2272 
L 4684 2272 
L 4684 1741 
L 2944 1741 
L 2944 0 
L 2419 0 
L 2419 1741 
L 678 1741 
L 678 2272 
L 2419 2272 
L 2419 4013 
L 2944 4013 
z
" transform="scale(0.015625)"/>
        <path id="DejaVuSans-Oblique-31" d="M 416 531 
L 1447 531 
L 2144 4122 
L 978 3897 
L 1088 4441 
L 2247 4666 
L 2881 4666 
L 2075 531 
L 3103 531 
L 3003 0 
L 313 0 
L 416 531 
z
" transform="scale(0.015625)"/>
        <path id="DejaVuSans-Oblique-20" transform="scale(0.015625)"/>
        <path id="DejaVuSans-Oblique-67" d="M 3816 3500 
L 3219 434 
Q 3047 -456 2561 -893 
Q 2075 -1331 1253 -1331 
Q 950 -1331 690 -1286 
Q 431 -1241 206 -1147 
L 313 -588 
Q 525 -725 762 -790 
Q 1000 -856 1269 -856 
Q 1816 -856 2167 -557 
Q 2519 -259 2631 300 
L 2681 563 
Q 2441 288 2122 144 
Q 1803 0 1434 0 
Q 903 0 598 351 
Q 294 703 294 1319 
Q 294 1803 478 2267 
Q 663 2731 997 3091 
Q 1219 3328 1514 3456 
Q 1809 3584 2131 3584 
Q 2484 3584 2746 3420 
Q 3009 3256 3138 2956 
L 3238 3500 
L 3816 3500 
z
M 2950 2216 
Q 2950 2641 2750 2872 
Q 2550 3103 2181 3103 
Q 1953 3103 1747 3012 
Q 1541 2922 1394 2759 
Q 1156 2491 1023 2127 
Q 891 1763 891 1375 
Q 891 944 1092 712 
Q 1294 481 1672 481 
Q 2219 481 2584 976 
Q 2950 1472 2950 2216 
z
" transform="scale(0.015625)"/>
       </defs>
       <use xlink:href="#DejaVuSans-Oblique-2b"/>
       <use xlink:href="#DejaVuSans-Oblique-31" x="83.789062"/>
       <use xlink:href="#DejaVuSans-Oblique-20" x="147.412109"/>
       <use xlink:href="#DejaVuSans-Oblique-67" x="179.199219"/>
       <use xlink:href="#DejaVuSans-Oblique-65" x="242.675781"/>
       <use xlink:href="#DejaVuSans-Oblique-6e" x="304.199219"/>
      </g>
     </g>
    </g>
    <g id="xtick_12">
     <g id="line2d_12">
      <g>
       <use xlink:href="#mcf4f95f479" x="515.1168" y="489.6" style="fill: #ffffff; stroke: #ffffff; stroke-width: 0.6"/>
      </g>
     </g>
     <g id="text_12">
      <!-- +2 gen -->
      <g style="fill: #b2b2b2" transform="translate(498.076159 559.526679) rotate(-25) scale(0.11 -0.11)">
       <defs>
        <path id="DejaVuSans-Oblique-32" d="M 2950 2253 
L 934 525 
L 3163 525 
L 3053 0 
L 25 0 
L 128 531 
L 2234 2338 
Q 2656 2703 2832 2979 
Q 3009 3256 3009 3547 
Q 3009 3850 2796 4040 
Q 2584 4231 2241 4231 
Q 1944 4231 1581 4125 
Q 1219 4019 806 3816 
L 922 4441 
Q 1309 4594 1662 4672 
Q 2016 4750 2316 4750 
Q 2928 4750 3301 4425 
Q 3675 4100 3675 3572 
Q 3675 3216 3497 2892 
Q 3319 2569 2950 2253 
z
" transform="scale(0.015625)"/>
       </defs>
       <use xlink:href="#DejaVuSans-Oblique-2b"/>
       <use xlink:href="#DejaVuSans-Oblique-32" x="83.789062"/>
       <use xlink:href="#DejaVuSans-Oblique-20" x="147.412109"/>
       <use xlink:href="#DejaVuSans-Oblique-67" x="179.199219"/>
       <use xlink:href="#DejaVuSans-Oblique-65" x="242.675781"/>
       <use xlink:href="#DejaVuSans-Oblique-6e" x="304.199219"/>
      </g>
     </g>
    </g>
    <g id="xtick_13">
     <g id="line2d_13">
      <g>
       <use xlink:href="#mcf4f95f479" x="592.0128" y="489.6" style="fill: #ffffff; stroke: #ffffff; stroke-width: 0.6"/>
      </g>
     </g>
     <g id="text_13">
      <!-- +3 gen -->
      <g style="fill: #b2b2b2" transform="translate(574.972159 559.526679) rotate(-25) scale(0.11 -0.11)">
       <defs>
        <path id="DejaVuSans-Oblique-33" d="M 1013 4550 
Q 1356 4650 1679 4700 
Q 2003 4750 2316 4750 
Q 2934 4750 3296 4475 
Q 3659 4200 3659 3738 
Q 3659 3284 3373 2959 
Q 3088 2634 2584 2516 
Q 2978 2403 3162 2165 
Q 3347 1928 3347 1538 
Q 3347 1163 3167 834 
Q 2988 506 2650 269 
Q 2394 88 2037 -1 
Q 1681 -91 1216 -91 
Q 922 -91 622 -33 
Q 322 25 13 141 
L 128 738 
Q 422 575 720 495 
Q 1019 416 1331 416 
Q 1947 416 2330 733 
Q 2713 1050 2713 1556 
Q 2713 1881 2469 2057 
Q 2225 2234 1772 2234 
L 1228 2234 
L 1325 2747 
L 1900 2747 
Q 2419 2747 2717 2984 
Q 3016 3222 3016 3628 
Q 3016 3922 2797 4083 
Q 2578 4244 2181 4244 
Q 1881 4244 1567 4180 
Q 1253 4116 916 3988 
L 1013 4550 
z
" transform="scale(0.015625)"/>
       </defs>
       <use xlink:href="#DejaVuSans-Oblique-2b"/>
       <use xlink:href="#DejaVuSans-Oblique-33" x="83.789062"/>
       <use xlink:href="#DejaVuSans-Oblique-20" x="147.412109"/>
       <use xlink:href="#DejaVuSans-Oblique-67" x="179.199219"/>
       <use xlink:href="#DejaVuSans-Oblique-65" x="242.675781"/>
       <use xlink:href="#DejaVuSans-Oblique-6e" x="304.199219"/>
      </g>
     </g>
    </g>
    <g id="xtick_14">
     <g id="line2d_14">
      <g>
       <use xlink:href="#mcf4f95f479" x="668.9088" y="489.6" style="fill: #ffffff; stroke: #ffffff; stroke-width: 0.6"/>
      </g>
     </g>
     <g id="text_14">
      <!-- +4 gen -->
      <g style="fill: #b2b2b2" transform="translate(651.868159 559.526679) rotate(-25) scale(0.11 -0.11)">
       <defs>
        <path id="DejaVuSans-Oblique-34" d="M 2753 4666 
L 3547 4666 
L 2950 1625 
L 3616 1625 
L 3513 1100 
L 2847 1100 
L 2638 0 
L 2009 0 
L 2222 1100 
L 116 1100 
L 238 1709 
L 2753 4666 
z
M 2809 4116 
L 728 1625 
L 2322 1625 
L 2809 4116 
z
" transform="scale(0.015625)"/>
       </defs>
       <use xlink:href="#DejaVuSans-Oblique-2b"/>
       <use xlink:href="#DejaVuSans-Oblique-34" x="83.789062"/>
       <use xlink:href="#DejaVuSans-Oblique-20" x="147.412109"/>
       <use xlink:href="#DejaVuSans-Oblique-67" x="179.199219"/>
       <use xlink:href="#DejaVuSans-Oblique-65" x="242.675781"/>
       <use xlink:href="#DejaVuSans-Oblique-6e" x="304.199219"/>
      </g>
     </g>
    </g>
    <g id="xtick_15">
     <g id="line2d_15">
      <g>
       <use xlink:href="#mcf4f95f479" x="745.8048" y="489.6" style="fill: #ffffff; stroke: #ffffff; stroke-width: 0.6"/>
      </g>
     </g>
     <g id="text_15">
      <!-- +5 gen -->
      <g style="fill: #b2b2b2" transform="translate(728.764159 559.526679) rotate(-25) scale(0.11 -0.11)">
       <defs>
        <path id="DejaVuSans-Oblique-35" d="M 3719 4666 
L 3622 4141 
L 1691 4141 
L 1466 2988 
Q 1609 3034 1757 3056 
Q 1906 3078 2059 3078 
Q 2706 3078 3081 2731 
Q 3456 2384 3456 1791 
Q 3456 1375 3264 994 
Q 3072 613 2719 325 
Q 2469 125 2108 17 
Q 1747 -91 1319 -91 
Q 1038 -91 744 -41 
Q 450 9 128 109 
L 244 697 
Q 531 556 820 486 
Q 1109 416 1403 416 
Q 2013 416 2411 781 
Q 2809 1147 2809 1697 
Q 2809 2103 2548 2328 
Q 2288 2553 1819 2553 
Q 1572 2553 1305 2495 
Q 1038 2438 756 2322 
L 1209 4666 
L 3719 4666 
z
" transform="scale(0.015625)"/>
       </defs>
       <use xlink:href="#DejaVuSans-Oblique-2b"/>
       <use xlink:href="#DejaVuSans-Oblique-35" x="83.789062"/>
       <use xlink:href="#DejaVuSans-Oblique-20" x="147.412109"/>
       <use xlink:href="#DejaVuSans-Oblique-67" x="179.199219"/>
       <use xlink:href="#DejaVuSans-Oblique-65" x="242.675781"/>
       <use xlink:href="#DejaVuSans-Oblique-6e" x="304.199219"/>
      </g>
     </g>
    </g>
    <g id="xtick_16">
     <g id="line2d_16">
      <g>
       <use xlink:href="#mcf4f95f479" x="822.7008" y="489.6" style="fill: #ffffff; stroke: #ffffff; stroke-width: 0.6"/>
      </g>
     </g>
     <g id="text_16">
      <!-- +6 gen -->
      <g style="fill: #b2b2b2" transform="translate(805.660159 559.526679) rotate(-25) scale(0.11 -0.11)">
       <defs>
        <path id="DejaVuSans-Oblique-36" d="M 2938 1728 
Q 2938 2125 2734 2354 
Q 2531 2584 2181 2584 
Q 1697 2584 1367 2211 
Q 1038 1838 1038 1288 
Q 1038 875 1239 642 
Q 1441 409 1797 409 
Q 2284 409 2611 792 
Q 2938 1175 2938 1728 
z
M 3788 4556 
L 3681 3981 
Q 3500 4100 3265 4162 
Q 3031 4225 2766 4225 
Q 2119 4225 1726 3819 
Q 1334 3413 1141 2547 
Q 1369 2813 1670 2948 
Q 1972 3084 2322 3084 
Q 2894 3084 3233 2754 
Q 3572 2425 3572 1869 
Q 3572 1413 3405 1020 
Q 3238 628 2919 331 
Q 2700 128 2409 18 
Q 2119 -91 1791 -91 
Q 1147 -91 775 318 
Q 403 728 403 1441 
Q 403 2103 573 2717 
Q 744 3331 1050 3781 
Q 1372 4256 1830 4503 
Q 2288 4750 2841 4750 
Q 3084 4750 3321 4701 
Q 3559 4653 3788 4556 
z
" transform="scale(0.015625)"/>
       </defs>
       <use xlink:href="#DejaVuSans-Oblique-2b"/>
       <use xlink:href="#DejaVuSans-Oblique-36" x="83.789062"/>
       <use xlink:href="#DejaVuSans-Oblique-20" x="147.412109"/>
       <use xlink:href="#DejaVuSans-Oblique-67" x="179.199219"/>
       <use xlink:href="#DejaVuSans-Oblique-65" x="242.675781"/>
       <use xlink:href="#DejaVuSans-Oblique-6e" x="304.199219"/>
      </g>
     </g>
    </g>
   </g>
   <g id="matplotlib.axis_2">
    <g id="ytick_1">
     <g id="line2d_17">
      <defs>
       <path id="m8534bfb240" d="M 0 0 
L -3.5 0 
" style="stroke: #717174; stroke-width: 0.8"/>
      </defs>
      <g>
       <use xlink:href="#m8534bfb240" x="69.12" y="462.423142" style="fill: #717174; stroke: #717174; stroke-width: 0.8"/>
      </g>
     </g>
     <g id="text_17">
      <!-- 25 -->
      <g style="fill: #717174" transform="translate(49.395 466.222361) scale(0.1 -0.1)">
       <use xlink:href="#DejaVuSans-32"/>
       <use xlink:href="#DejaVuSans-35" x="63.623047"/>
      </g>
     </g>
    </g>
    <g id="ytick_2">
     <g id="line2d_18">
      <g>
       <use xlink:href="#m8534bfb240" x="69.12" y="402.253818" style="fill: #717174; stroke: #717174; stroke-width: 0.8"/>
      </g>
     </g>
     <g id="text_18">
      <!-- 30 -->
      <g style="fill: #717174" transform="translate(49.395 406.053036) scale(0.1 -0.1)">
       <defs>
        <path id="DejaVuSans-33" d="M 2597 2516 
Q 3050 2419 3304 2112 
Q 3559 1806 3559 1356 
Q 3559 666 3084 287 
Q 2609 -91 1734 -91 
Q 1441 -91 1130 -33 
Q 819 25 488 141 
L 488 750 
Q 750 597 1062 519 
Q 1375 441 1716 441 
Q 2309 441 2620 675 
Q 2931 909 2931 1356 
Q 2931 1769 2642 2001 
Q 2353 2234 1838 2234 
L 1294 2234 
L 1294 2753 
L 1863 2753 
Q 2328 2753 2575 2939 
Q 2822 3125 2822 3475 
Q 2822 3834 2567 4026 
Q 2313 4219 1838 4219 
Q 1578 4219 1281 4162 
Q 984 4106 628 3988 
L 628 4550 
Q 988 4650 1302 4700 
Q 1616 4750 1894 4750 
Q 2613 4750 3031 4423 
Q 3450 4097 3450 3541 
Q 3450 3153 3228 2886 
Q 3006 2619 2597 2516 
z
" transform="scale(0.015625)"/>
       </defs>
       <use xlink:href="#DejaVuSans-33"/>
       <use xlink:href="#DejaVuSans-30" x="63.623047"/>
      </g>
     </g>
    </g>
    <g id="ytick_3">
     <g id="line2d_19">
      <g>
       <use xlink:href="#m8534bfb240" x="69.12" y="342.084493" style="fill: #717174; stroke: #717174; stroke-width: 0.8"/>
      </g>
     </g>
     <g id="text_19">
      <!-- 35 -->
      <g style="fill: #717174" transform="translate(49.395 345.883712) scale(0.1 -0.1)">
       <use xlink:href="#DejaVuSans-33"/>
       <use xlink:href="#DejaVuSans-35" x="63.623047"/>
      </g>
     </g>
    </g>
    <g id="ytick_4">
     <g id="line2d_20">
      <g>
       <use xlink:href="#m8534bfb240" x="69.12" y="281.915169" style="fill: #717174; stroke: #717174; stroke-width: 0.8"/>
      </g>
     </g>
     <g id="text_20">
      <!-- 40 -->
      <g style="fill: #717174" transform="translate(49.395 285.714387) scale(0.1 -0.1)">
       <defs>
        <path id="DejaVuSans-34" d="M 2419 4116 
L 825 1625 
L 2419 1625 
L 2419 4116 
z
M 2253 4666 
L 3047 4666 
L 3047 1625 
L 3713 1625 
L 3713 1100 
L 3047 1100 
L 3047 0 
L 2419 0 
L 2419 1100 
L 313 1100 
L 313 1709 
L 2253 4666 
z
" transform="scale(0.015625)"/>
       </defs>
       <use xlink:href="#DejaVuSans-34"/>
       <use xlink:href="#DejaVuSans-30" x="63.623047"/>
      </g>
     </g>
    </g>
    <g id="ytick_5">
     <g id="line2d_21">
      <g>
       <use xlink:href="#m8534bfb240" x="69.12" y="221.745844" style="fill: #717174; stroke: #717174; stroke-width: 0.8"/>
      </g>
     </g>
     <g id="text_21">
      <!-- 45 -->
      <g style="fill: #717174" transform="translate(49.395 225.545063) scale(0.1 -0.1)">
       <use xlink:href="#DejaVuSans-34"/>
       <use xlink:href="#DejaVuSans-35" x="63.623047"/>
      </g>
     </g>
    </g>
    <g id="ytick_6">
     <g id="line2d_22">
      <g>
       <use xlink:href="#m8534bfb240" x="69.12" y="161.57652" style="fill: #717174; stroke: #717174; stroke-width: 0.8"/>
      </g>
     </g>
     <g id="text_22">
      <!-- 50 -->
      <g style="fill: #717174" transform="translate(49.395 165.375738) scale(0.1 -0.1)">
       <use xlink:href="#DejaVuSans-35"/>
       <use xlink:href="#DejaVuSans-30" x="63.623047"/>
      </g>
     </g>
    </g>
    <g id="ytick_7">
     <g id="line2d_23">
      <g>
       <use xlink:href="#m8534bfb240" x="69.12" y="101.407195" style="fill: #717174; stroke: #717174; stroke-width: 0.8"/>
      </g>
     </g>
     <g id="text_23">
      <!-- 55 -->
      <g style="fill: #717174" transform="translate(49.395 105.206414) scale(0.1 -0.1)">
       <use xlink:href="#DejaVuSans-35"/>
       <use xlink:href="#DejaVuSans-35" x="63.623047"/>
      </g>
     </g>
    </g>
    <g id="ytick_8">
     <g id="line2d_24">
      <g>
       <use xlink:href="#m8534bfb240" x="69.12" y="41.23787" style="fill: #717174; stroke: #717174; stroke-width: 0.8"/>
      </g>
     </g>
     <g id="text_24">
      <!-- 60 -->
      <g style="fill: #717174" transform="translate(49.395 45.037089) scale(0.1 -0.1)">
       <defs>
        <path id="DejaVuSans-36" d="M 2113 2584 
Q 1688 2584 1439 2293 
Q 1191 2003 1191 1497 
Q 1191 994 1439 701 
Q 1688 409 2113 409 
Q 2538 409 2786 701 
Q 3034 994 3034 1497 
Q 3034 2003 2786 2293 
Q 2538 2584 2113 2584 
z
M 3366 4563 
L 3366 3988 
Q 3128 4100 2886 4159 
Q 2644 4219 2406 4219 
Q 1781 4219 1451 3797 
Q 1122 3375 1075 2522 
Q 1259 2794 1537 2939 
Q 1816 3084 2150 3084 
Q 2853 3084 3261 2657 
Q 3669 2231 3669 1497 
Q 3669 778 3244 343 
Q 2819 -91 2113 -91 
Q 1303 -91 875 529 
Q 447 1150 447 2328 
Q 447 3434 972 4092 
Q 1497 4750 2381 4750 
Q 2619 4750 2861 4703 
Q 3103 4656 3366 4563 
z
" transform="scale(0.015625)"/>
       </defs>
       <use xlink:href="#DejaVuSans-36"/>
       <use xlink:href="#DejaVuSans-30" x="63.623047"/>
      </g>
     </g>
    </g>
   </g>
   <g id="line2d_25">
    <path d="M 69.12 318.20773 
L 72.19584 265.637795 
L 75.27168 286.984978 
L 78.34752 291.926986 
L 81.42336 327.460821 
L 84.4992 269.038111 
L 87.57504 320.791295 
L 90.65088 250.451504 
L 93.72672 265.36383 
L 96.80256 326.705399 
L 99.8784 298.274805 
L 102.95424 298.028017 
L 106.03008 320.999155 
L 109.10592 297.604952 
L 112.18176 300.814301 
L 115.2576 258.993241 
L 118.33344 349.207933 
L 121.40928 293.74154 
L 124.48512 319.513284 
L 127.56096 334.263656 
L 130.6368 346.869321 
L 133.71264 354.806941 
L 136.78848 326.583841 
L 139.86432 331.389234 
L 142.94016 302.362236 
L 146.016 292.595738 
L 149.09184 295.896898 
L 152.16768 322.306545 
L 155.24352 322.543418 
L 158.31936 311.320062 
L 161.3952 292.590596 
L 164.47104 353.687213 
L 167.54688 337.583546 
L 170.62272 345.201297 
L 173.69856 356.195125 
L 176.7744 342.024632 
L 179.85024 317.231228 
L 182.92608 293.957113 
L 186.00192 355.288032 
L 189.07776 304.645762 
L 192.1536 251.025139 
L 195.22944 387.963236 
L 198.30528 324.722279 
L 201.38112 331.509323 
L 204.45696 361.949111 
L 207.5328 307.250259 
L 210.60864 319.155221 
L 213.68448 259.701656 
L 216.76032 328.458624 
L 222.912 310.726595 
L 225.98784 306.614926 
L 229.06368 305.138236 
L 232.13952 306.885585 
L 235.21536 313.609463 
L 238.2912 346.825251 
L 241.36704 372.948081 
L 244.44288 235.073878 
L 247.51872 250.302035 
L 250.59456 324.553714 
L 253.6704 328.590832 
L 256.74624 340.97872 
L 259.82208 310.103748 
L 262.89792 372.558435 
L 265.97376 311.470264 
L 269.0496 365.242559 
L 272.12544 321.917266 
L 275.20128 353.983579 
L 278.27712 348.422397 
L 281.35296 373.601041 
L 284.4288 320.901101 
L 287.50464 305.282196 
L 290.58048 353.435651 
L 293.65632 264.700954 
L 296.73216 313.398298 
L 299.808 291.584347 
L 302.88384 311.989915 
L 305.95968 318.53568 
L 309.03552 310.630744 
L 312.11136 295.43821 
L 315.1872 308.379168 
L 318.26304 378.620538 
L 321.33888 419.61897 
L 324.41472 309.51175 
L 327.49056 298.633236 
L 330.5664 307.622278 
L 333.64224 342.708441 
L 336.71808 295.629911 
L 339.79392 313.079162 
L 342.86976 272.618009 
L 345.9456 367.177569 
L 349.02144 308.04571 
L 352.09728 350.575918 
L 355.17312 362.509158 
L 358.24896 267.56289 
L 361.3248 316.913928 
L 364.40064 377.243004 
L 367.47648 342.59129 
L 370.55232 313.501493 
L 373.62816 278.351796 
L 376.704 313.673731 
L 379.77984 316.811834 
L 382.85568 342.473772 
L 385.93152 325.081077 
L 389.00736 345.178895 
L 392.0832 302.393452 
L 395.15904 333.046975 
L 398.23488 338.500188 
L 401.31072 350.522668 
L 407.4624 308.28295 
L 410.53824 297.681339 
L 413.61408 361.974818 
L 416.68992 314.52684 
L 419.76576 318.580484 
L 422.8416 333.386309 
L 425.91744 290.641263 
L 428.99328 333.247491 
L 432.06912 254.077308 
L 435.14496 296.310415 
L 438.2208 301.826426 
L 441.29664 327.817048 
L 444.37248 345.887676 
L 447.44832 376.801209 
L 450.52416 360.954613 
L 453.6 298.549504 
L 456.67584 354.59651 
L 459.75168 329.309162 
L 462.82752 340.348896 
L 465.90336 309.624127 
L 468.9792 324.284157 
L 472.05504 362.010808 
L 475.13088 338.98238 
L 478.20672 351.189584 
L 481.28256 383.708342 
L 484.3584 286.299332 
L 487.43424 346.814968 
L 490.51008 330.129953 
L 493.58592 308.172042 
L 496.66176 365.368156 
L 499.7376 312.977068 
L 502.81344 310.974485 
L 505.88928 331.899337 
L 508.96512 375.860329 
L 512.04096 304.905771 
L 515.1168 333.131074 
L 518.19264 279.871086 
L 521.26848 294.325092 
L 524.34432 295.464284 
L 527.42016 301.497742 
L 530.496 243.688698 
L 533.57184 314.404915 
L 536.64768 278.603359 
L 539.72352 266.646615 
L 542.79936 272.369017 
L 545.8752 333.008048 
L 548.95104 313.742038 
L 552.02688 303.726182 
L 555.10272 274.898597 
L 558.17856 327.601843 
L 561.2544 257.121764 
L 564.33024 301.673285 
L 567.40608 327.099452 
L 570.48192 279.300756 
L 573.55776 300.465418 
L 573.55776 300.465418 
" clip-path="url(#p4582df4371)" style="fill: none; stroke: #777777; stroke-opacity: 0.4; stroke-width: 0.5; stroke-linecap: square"/>
   </g>
   <g id="line2d_26">
    <path d="M 576.6336 263.48207 
L 579.70944 261.415953 
L 582.78528 283.373863 
L 585.86112 280.61696 
L 588.93696 279.631643 
L 592.0128 242.937316 
L 595.08864 320.034771 
L 598.16448 241.88516 
L 601.24032 249.23115 
L 604.31616 329.383345 
L 607.392 276.020529 
L 610.46784 249.20728 
L 613.54368 318.143095 
L 616.61952 280.760552 
L 619.69536 305.844447 
L 622.7712 274.493526 
L 625.84704 301.530427 
L 628.92288 330.960293 
L 631.99872 306.775779 
L 635.07456 289.871152 
L 638.1504 298.491112 
L 641.22624 250.692783 
L 644.30208 376.065986 
L 647.37792 220.634195 
L 650.45376 261.716726 
L 653.5296 278.109048 
L 656.60544 302.032083 
L 659.68128 227.899024 
L 662.75712 265.681129 
L 665.83296 258.571278 
L 668.9088 288.598282 
L 671.98464 291.305241 
L 675.06048 341.038948 
L 678.13632 326.334482 
L 681.21216 307.517613 
L 684.288 241.692357 
L 687.36384 358.021064 
L 690.43968 328.231299 
L 693.51552 258.822473 
L 696.59136 268.831352 
L 699.6672 255.008272 
L 702.74304 313.181256 
L 705.81888 229.993786 
L 708.89472 360.912012 
L 711.97056 286.690448 
L 715.0464 283.390389 
L 718.12224 294.956752 
L 721.19808 272.873978 
L 724.27392 283.244226 
L 727.34976 350.594281 
L 730.4256 275.550456 
L 733.50144 274.788791 
L 736.57728 303.67844 
L 739.65312 296.860914 
L 742.72896 278.59785 
L 745.8048 305.19773 
L 748.88064 265.537904 
L 751.95648 304.086081 
L 755.03232 278.902663 
L 758.10816 266.175808 
L 761.184 273.985995 
L 764.25984 259.524277 
L 767.33568 250.83711 
L 770.41152 282.61734 
L 773.48736 251.960511 
L 776.5632 260.101585 
L 779.63904 257.467341 
L 782.71488 308.320042 
L 785.79072 197.659752 
L 788.86656 250.083892 
L 791.9424 228.140671 
L 795.01824 241.125332 
L 798.09408 265.731075 
L 801.16992 302.698999 
L 804.24576 231.56596 
L 807.3216 294.687195 
L 810.39744 225.96585 
L 813.47328 270.491297 
L 816.54912 266.068205 
L 819.62496 249.31378 
L 822.7008 236.2531 
L 825.77664 229.711743 
L 828.85248 265.783223 
L 831.92832 284.25525 
L 835.00416 280.735212 
L 838.08 236.982448 
L 838.08 236.982448 
" clip-path="url(#p4582df4371)" style="fill: none; stroke: #3db5af; stroke-opacity: 0.4; stroke-width: 0.5; stroke-linecap: square"/>
   </g>
   <g id="LineCollection_1">
    <path d="M 69.12 429.513544 
L 222.912 429.513544 
" clip-path="url(#p4582df4371)" style="fill: none; stroke: #b2b2b2; stroke-width: 1.5"/>
   </g>
   <g id="LineCollection_2">
    <path d="M 222.912 430.716931 
L 222.912 429.513544 
" clip-path="url(#p4582df4371)" style="fill: none; stroke: #b2b2b2; stroke-width: 1.5"/>
   </g>
   <g id="LineCollection_3">
    <path d="M 69.12 430.716931 
L 69.12 429.513544 
" clip-path="url(#p4582df4371)" style="fill: none; stroke: #b2b2b2; stroke-width: 1.5"/>
   </g>
   <g id="line2d_27">
    <path d="M 69.12 129.001573 
L 72.19584 106.971315 
L 75.27168 132.718454 
L 78.34752 121.394472 
L 81.42336 120.847278 
L 84.4992 133.047872 
L 87.57504 133.52125 
L 90.65088 135.837828 
L 93.72672 114.630565 
L 96.80256 120.935417 
L 99.8784 133.378392 
L 102.95424 124.560486 
L 106.03008 136.100775 
L 109.10592 119.605257 
L 112.18176 121.394472 
L 115.2576 131.96193 
L 118.33344 133.66117 
L 121.40928 133.313022 
L 124.48512 129.205026 
L 127.56096 129.818692 
L 130.6368 130.832286 
L 133.71264 121.991244 
L 136.78848 136.410729 
L 139.86432 129.179319 
L 142.94016 129.489274 
L 146.016 125.458032 
L 149.09184 115.430423 
L 152.16768 106.900437 
L 155.24352 126.957491 
L 158.31936 121.643831 
L 161.3952 112.139546 
L 164.47104 120.547974 
L 167.54688 111.964737 
L 170.62272 114.836589 
L 173.69856 125.160931 
L 176.7744 128.813544 
L 179.85024 139.289191 
L 182.92608 99.929036 
L 186.00192 131.220096 
L 189.07776 119.720205 
L 192.1536 127.452169 
L 195.22944 109.936447 
L 198.30528 120.942027 
L 201.38112 123.263012 
L 204.45696 119.470111 
L 207.5328 101.348803 
L 210.60864 119.582121 
L 213.68448 135.034297 
L 216.76032 132.340192 
L 219.83616 125.875221 
L 222.912 125.993841 
L 225.98784 122.597565 
L 229.06368 132.344966 
L 232.13952 118.495812 
L 235.21536 126.100342 
L 238.2912 132.758851 
L 241.36704 128.878913 
L 244.44288 127.464655 
L 247.51872 127.915998 
L 250.59456 134.064404 
L 253.6704 126.009633 
L 256.74624 129.223756 
L 259.82208 142.434639 
L 262.89792 127.350075 
L 265.97376 139.895144 
L 272.12544 132.6417 
L 275.20128 119.336802 
L 278.27712 125.708125 
L 281.35296 123.140719 
L 284.4288 136.351235 
L 287.50464 133.310819 
L 290.58048 118.135545 
L 293.65632 142.345766 
L 296.73216 113.035622 
L 299.808 128.431242 
L 302.88384 124.962986 
L 305.95968 114.983854 
L 309.03552 131.077606 
L 312.11136 133.993526 
L 315.1872 128.761395 
L 318.26304 129.225592 
L 321.33888 134.857285 
L 324.41472 121.316249 
L 327.49056 108.82186 
L 330.5664 118.717628 
L 333.64224 111.767894 
L 336.71808 121.911185 
L 339.79392 133.931462 
L 342.86976 105.490953 
L 345.9456 131.533723 
L 349.02144 114.375697 
L 352.09728 125.390091 
L 355.17312 123.215637 
L 358.24896 122.84215 
L 361.3248 129.866434 
L 364.40064 118.881786 
L 367.47648 121.351872 
L 370.55232 128.17968 
L 373.62816 122.366568 
L 376.704 137.018518 
L 379.77984 131.494061 
L 382.85568 49.979022 
L 385.93152 126.877064 
L 389.00736 108.874376 
L 392.0832 136.340218 
L 395.15904 123.828568 
L 398.23488 141.775068 
L 401.31072 133.580376 
L 404.38656 115.218156 
L 407.4624 125.997146 
L 410.53824 133.771343 
L 413.61408 129.158386 
L 416.68992 129.228163 
L 419.76576 130.710728 
L 422.8416 116.626905 
L 425.91744 125.286528 
L 428.99328 123.823427 
L 432.06912 130.560525 
L 435.14496 128.070241 
L 438.2208 119.265189 
L 441.29664 117.445126 
L 444.37248 136.160268 
L 447.44832 118.805766 
L 450.52416 137.426894 
L 453.6 127.106225 
L 456.67584 138.700865 
L 459.75168 139.904325 
L 462.82752 138.230792 
L 468.9792 124.054423 
L 472.05504 118.117183 
L 475.13088 131.388662 
L 478.20672 130.299047 
L 481.28256 140.115123 
L 484.3584 122.437446 
L 487.43424 102.622774 
L 490.51008 108.789175 
L 493.58592 127.549121 
L 496.66176 113.414251 
L 499.7376 117.514535 
L 502.81344 124.804704 
L 505.88928 129.133046 
L 508.96512 134.505098 
L 512.04096 133.515741 
L 515.1168 120.672837 
L 518.19264 125.328027 
L 521.26848 113.718329 
L 524.34432 127.6839 
L 527.42016 123.854275 
L 530.496 101.509289 
L 533.57184 103.020132 
L 536.64768 111.723458 
L 539.72352 115.83733 
L 542.79936 124.705548 
L 545.8752 113.268455 
L 548.95104 125.774596 
L 552.02688 123.399994 
L 555.10272 115.963662 
L 558.17856 122.950487 
L 561.2544 115.906739 
L 564.33024 99.247431 
L 567.40608 104.252605 
L 570.48192 108.584987 
L 573.55776 119.399233 
L 573.55776 119.399233 
" clip-path="url(#p4582df4371)" style="fill: none; stroke: #777777; stroke-opacity: 0.4; stroke-width: 0.5; stroke-linecap: square"/>
   </g>
   <g id="line2d_28">
    <path d="M 576.6336 112.539842 
L 579.70944 125.793326 
L 582.78528 111.122279 
L 585.86112 102.274626 
L 588.93696 107.50382 
L 592.0128 105.161535 
L 595.08864 113.261477 
L 598.16448 110.034134 
L 601.24032 124.574074 
L 604.31616 123.008879 
L 607.392 71.519743 
L 610.46784 110.595283 
L 613.54368 92.800455 
L 616.61952 100.519565 
L 619.69536 115.653708 
L 622.7712 101.411969 
L 625.84704 93.23564 
L 628.92288 108.945988 
L 631.99872 114.929134 
L 635.07456 105.56991 
L 638.1504 108.754287 
L 641.22624 90.474329 
L 644.30208 94.119964 
L 647.37792 74.242493 
L 650.45376 91.423656 
L 653.5296 106.460111 
L 656.60544 108.70985 
L 659.68128 80.445986 
L 662.75712 92.120318 
L 665.83296 109.971335 
L 668.9088 82.142288 
L 671.98464 73.397831 
L 675.06048 94.703148 
L 678.13632 85.414068 
L 681.21216 94.031458 
L 684.288 80.741985 
L 687.36384 93.588194 
L 690.43968 78.688354 
L 693.51552 79.384282 
L 696.59136 54.186908 
L 699.6672 83.12687 
L 702.74304 96.138707 
L 705.81888 97.005036 
L 708.89472 75.4544 
L 711.97056 89.271603 
L 715.0464 74.113958 
L 718.12224 78.364077 
L 721.19808 80.293212 
L 724.27392 72.349348 
L 727.34976 85.280758 
L 730.4256 60.842112 
L 733.50144 80.04826 
L 736.57728 74.936952 
L 739.65312 73.887735 
L 742.72896 89.646927 
L 745.8048 76.301265 
L 748.88064 78.364444 
L 751.95648 93.024841 
L 755.03232 83.118791 
L 758.10816 89.989933 
L 761.184 49.745455 
L 764.25984 75.770964 
L 767.33568 88.40307 
L 770.41152 80.105917 
L 773.48736 62.561917 
L 776.5632 70.283966 
L 779.63904 63.854618 
L 782.71488 64.498397 
L 785.79072 59.092927 
L 788.86656 66.099583 
L 791.9424 68.167169 
L 795.01824 76.157305 
L 798.09408 72.993495 
L 801.16992 72.441526 
L 804.24576 79.053762 
L 807.3216 65.415039 
L 810.39744 66.943143 
L 813.47328 74.863136 
L 816.54912 66.953059 
L 819.62496 65.10435 
L 822.7008 63.984622 
L 825.77664 58.942356 
L 828.85248 63.473418 
L 831.92832 67.23547 
L 835.00416 63.679075 
L 838.08 52.781831 
L 838.08 52.781831 
" clip-path="url(#p4582df4371)" style="fill: none; stroke: #3db5af; stroke-opacity: 0.4; stroke-width: 0.5; stroke-linecap: square"/>
   </g>
   <g id="line2d_29">
    <path d="M 69.12 419.163219 
L 72.19584 409.128266 
L 75.27168 359.739401 
L 78.34752 421.012662 
L 81.42336 416.939922 
L 84.4992 390.075626 
L 87.57504 401.481135 
L 90.65088 409.694924 
L 93.72672 415.179719 
L 96.80256 409.780492 
L 99.8784 364.314899 
L 102.95424 399.044469 
L 106.03008 451.300043 
L 109.10592 413.568251 
L 112.18176 417.813963 
L 115.2576 435.527998 
L 118.33344 396.399575 
L 121.40928 417.460307 
L 124.48512 427.44201 
L 127.56096 397.143979 
L 130.6368 365.683986 
L 133.71264 410.691625 
L 136.78848 423.243672 
L 139.86432 383.142418 
L 142.94016 434.049839 
L 146.016 399.705876 
L 149.09184 426.021509 
L 152.16768 427.32082 
L 155.24352 427.478367 
L 158.31936 446.606293 
L 161.3952 436.036998 
L 164.47104 379.057926 
L 167.54688 414.730212 
L 170.62272 404.368411 
L 173.69856 424.804094 
L 176.7744 432.515125 
L 179.85024 400.998209 
L 182.92608 416.61895 
L 186.00192 415.066608 
L 189.07776 420.778728 
L 192.1536 413.754811 
L 195.22944 435.120356 
L 198.30528 373.881983 
L 201.38112 396.616983 
L 204.45696 421.06628 
L 207.5328 438.594856 
L 210.60864 428.086524 
L 213.68448 433.597394 
L 216.76032 388.651085 
L 219.83616 397.357348 
L 222.912 409.603847 
L 225.98784 409.986883 
L 229.06368 406.143671 
L 232.13952 452.46127 
L 235.21536 396.318781 
L 238.2912 414.946519 
L 241.36704 396.221094 
L 244.44288 395.722376 
L 247.51872 444.65953 
L 250.59456 400.260782 
L 253.6704 425.952834 
L 256.74624 403.778249 
L 259.82208 412.422081 
L 262.89792 448.052501 
L 265.97376 446.990798 
L 269.0496 400.642716 
L 272.12544 396.328329 
L 275.20128 390.290464 
L 278.27712 426.349458 
L 281.35296 393.058752 
L 284.4288 405.739334 
L 287.50464 437.916188 
L 290.58048 403.942408 
L 293.65632 409.12643 
L 296.73216 413.79631 
L 299.808 391.941227 
L 302.88384 396.801707 
L 305.95968 414.451841 
L 309.03552 401.730494 
L 312.11136 416.16724 
L 315.1872 393.900844 
L 318.26304 410.387547 
L 321.33888 421.075828 
L 324.41472 420.209866 
L 327.49056 383.229455 
L 330.5664 424.918307 
L 333.64224 373.383633 
L 336.71808 425.550702 
L 339.79392 407.250912 
L 342.86976 429.024834 
L 345.9456 417.292844 
L 349.02144 408.017719 
L 352.09728 378.998433 
L 355.17312 417.96233 
L 358.24896 394.57841 
L 361.3248 403.967013 
L 364.40064 420.227861 
L 367.47648 400.165666 
L 370.55232 426.190809 
L 373.62816 387.395109 
L 376.704 405.26008 
L 379.77984 431.806343 
L 382.85568 399.916674 
L 385.93152 385.263255 
L 389.00736 401.079003 
L 392.0832 411.361479 
L 395.15904 413.386098 
L 398.23488 401.431925 
L 401.31072 390.976844 
L 404.38656 429.432108 
L 407.4624 394.188763 
L 410.53824 417.678818 
L 413.61408 431.548905 
L 416.68992 443.23756 
L 419.76576 404.731616 
L 422.8416 413.875267 
L 425.91744 414.982509 
L 428.99328 395.868539 
L 432.06912 420.147802 
L 435.14496 408.127525 
L 438.2208 415.797057 
L 441.29664 435.485397 
L 444.37248 451.116421 
L 447.44832 418.526418 
L 450.52416 396.608904 
L 453.6 385.518123 
L 456.67584 422.602463 
L 459.75168 436.798663 
L 462.82752 417.530818 
L 465.90336 437.448319 
L 468.9792 361.967106 
L 472.05504 410.068044 
L 475.13088 400.987192 
L 478.20672 441.889773 
L 481.28256 468.654545 
L 484.3584 416.943594 
L 487.43424 451.906364 
L 490.51008 425.946224 
L 493.58592 420.000169 
L 496.66176 420.838956 
L 499.7376 396.550879 
L 502.81344 409.228891 
L 505.88928 429.9356 
L 508.96512 418.251719 
L 512.04096 424.290686 
L 515.1168 419.96014 
L 518.19264 405.471981 
L 521.26848 406.903132 
L 524.34432 437.894153 
L 527.42016 411.225231 
L 530.496 408.888455 
L 533.57184 392.019083 
L 536.64768 404.264481 
L 539.72352 428.866919 
L 542.79936 392.503846 
L 545.8752 424.316026 
L 548.95104 407.164243 
L 552.02688 411.590272 
L 555.10272 413.456609 
L 558.17856 409.182985 
L 561.2544 395.2927 
L 564.33024 416.79229 
L 567.40608 381.853391 
L 570.48192 406.509813 
L 573.55776 385.79172 
L 573.55776 385.79172 
" clip-path="url(#p4582df4371)" style="fill: none; stroke: #777777; stroke-opacity: 0.4; stroke-width: 0.5; stroke-linecap: square"/>
   </g>
   <g id="line2d_30">
    <path d="M 576.6336 399.636467 
L 579.70944 406.964829 
L 582.78528 403.268147 
L 585.86112 378.114475 
L 588.93696 386.992242 
L 592.0128 393.447297 
L 595.08864 333.581683 
L 598.16448 381.34843 
L 601.24032 414.953864 
L 604.31616 420.344277 
L 607.392 400.022808 
L 610.46784 425.517282 
L 613.54368 441.972403 
L 616.61952 415.098558 
L 619.69536 392.675349 
L 622.7712 390.422672 
L 625.84704 391.589774 
L 628.92288 402.777508 
L 631.99872 421.730625 
L 635.07456 358.795216 
L 638.1504 402.862342 
L 641.22624 389.698833 
L 644.30208 411.606064 
L 647.37792 405.167535 
L 650.45376 377.139809 
L 653.5296 405.419465 
L 656.60544 401.092958 
L 659.68128 390.668358 
L 662.75712 404.523388 
L 665.83296 390.68672 
L 668.9088 340.502404 
L 671.98464 392.802048 
L 675.06048 389.388879 
L 678.13632 390.677907 
L 681.21216 436.593007 
L 684.288 375.303587 
L 687.36384 383.597067 
L 690.43968 399.387475 
L 693.51552 408.407732 
L 696.59136 393.057283 
L 699.6672 373.750143 
L 702.74304 403.671014 
L 705.81888 394.197577 
L 708.89472 424.25947 
L 711.97056 422.171686 
L 715.0464 427.743885 
L 718.12224 364.819493 
L 721.19808 396.662522 
L 724.27392 416.870145 
L 727.34976 360.157692 
L 730.4256 392.590883 
L 733.50144 417.172387 
L 736.57728 371.89666 
L 739.65312 373.375921 
L 742.72896 386.791726 
L 745.8048 374.230498 
L 748.88064 427.243698 
L 751.95648 387.391069 
L 755.03232 395.987894 
L 758.10816 406.837762 
L 761.184 401.693036 
L 764.25984 402.07497 
L 767.33568 369.467706 
L 770.41152 392.488789 
L 773.48736 388.10793 
L 776.5632 394.468603 
L 779.63904 403.047066 
L 782.71488 397.184009 
L 785.79072 410.859456 
L 788.86656 385.41052 
L 791.9424 405.066175 
L 795.01824 389.484362 
L 798.09408 394.633129 
L 801.16992 359.326618 
L 804.24576 386.990038 
L 807.3216 395.842465 
L 810.39744 384.350653 
L 813.47328 353.455482 
L 816.54912 396.868913 
L 819.62496 391.14651 
L 822.7008 392.407628 
L 825.77664 398.410605 
L 828.85248 410.876717 
L 831.92832 418.143014 
L 835.00416 363.077653 
L 838.08 407.363656 
L 838.08 407.363656 
" clip-path="url(#p4582df4371)" style="fill: none; stroke: #3db5af; stroke-opacity: 0.4; stroke-width: 0.5; stroke-linecap: square"/>
   </g>
   <g id="line2d_31">
    <path d="M 69.12 345.986465 
L 72.19584 344.216347 
L 75.27168 320.429926 
L 78.34752 331.223607 
L 81.42336 284.674276 
L 84.4992 306.313418 
L 87.57504 296.956398 
L 90.65088 332.194234 
L 93.72672 377.891558 
L 96.80256 295.333178 
L 99.8784 365.198489 
L 102.95424 323.080697 
L 106.03008 356.173825 
L 109.10592 304.491886 
L 112.18176 332.035584 
L 115.2576 355.324756 
L 118.33344 317.425133 
L 121.40928 300.828256 
L 124.48512 314.698343 
L 127.56096 312.33182 
L 130.6368 344.83699 
L 133.71264 268.524703 
L 136.78848 302.394553 
L 139.86432 280.499074 
L 142.94016 342.143987 
L 146.016 350.393765 
L 149.09184 309.666727 
L 152.16768 389.376392 
L 155.24352 379.962082 
L 158.31936 304.463241 
L 161.3952 342.477445 
L 164.47104 345.220026 
L 167.54688 377.657256 
L 170.62272 344.220019 
L 173.69856 392.800947 
L 176.7744 328.346614 
L 179.85024 294.655612 
L 182.92608 300.580366 
L 186.00192 299.980289 
L 189.07776 346.554592 
L 192.1536 367.897736 
L 195.22944 329.87582 
L 198.30528 372.824687 
L 201.38112 348.724639 
L 204.45696 347.458381 
L 207.5328 297.207593 
L 210.60864 309.804811 
L 213.68448 376.491622 
L 216.76032 387.948546 
L 219.83616 297.245787 
L 222.912 311.527555 
L 225.98784 339.906734 
L 229.06368 345.950108 
L 232.13952 332.739592 
L 235.21536 322.045802 
L 238.2912 360.898792 
L 241.36704 318.126202 
L 244.44288 324.833921 
L 247.51872 340.021681 
L 250.59456 285.269946 
L 253.6704 334.665422 
L 256.74624 284.703288 
L 259.82208 323.835751 
L 262.89792 361.24547 
L 265.97376 327.27169 
L 269.0496 360.192213 
L 272.12544 291.820485 
L 275.20128 306.779084 
L 278.27712 336.590884 
L 281.35296 335.613647 
L 284.4288 308.0391 
L 287.50464 354.550605 
L 290.58048 345.832222 
L 293.65632 313.711924 
L 296.73216 321.799014 
L 299.808 328.133612 
L 302.88384 341.464217 
L 305.95968 308.622651 
L 309.03552 352.685738 
L 312.11136 355.616348 
L 315.1872 308.626691 
L 318.26304 385.810816 
L 321.33888 346.131894 
L 324.41472 354.794822 
L 327.49056 354.449613 
L 330.5664 313.674465 
L 333.64224 288.57735 
L 336.71808 339.501663 
L 339.79392 351.404422 
L 342.86976 296.376152 
L 345.9456 300.881506 
L 349.02144 313.800063 
L 352.09728 285.64527 
L 355.17312 316.826524 
L 358.24896 342.019858 
L 361.3248 325.198962 
L 364.40064 340.437402 
L 367.47648 323.89855 
L 370.55232 342.722397 
L 373.62816 320.358314 
L 376.704 307.165425 
L 379.77984 361.845548 
L 382.85568 325.983764 
L 385.93152 332.22545 
L 389.00736 343.265918 
L 392.0832 308.844834 
L 395.15904 309.709328 
L 398.23488 345.873354 
L 401.31072 380.125138 
L 404.38656 407.725759 
L 407.4624 361.174959 
L 410.53824 366.692807 
L 413.61408 320.655414 
L 416.68992 318.751619 
L 419.76576 281.830335 
L 422.8416 363.899179 
L 425.91744 321.544513 
L 428.99328 370.331832 
L 432.06912 290.837004 
L 435.14496 310.217227 
L 438.2208 316.260233 
L 441.29664 315.160336 
L 444.37248 326.197867 
L 447.44832 369.057126 
L 450.52416 294.254948 
L 453.6 308.690959 
L 456.67584 339.36211 
L 459.75168 361.258691 
L 462.82752 395.270298 
L 465.90336 347.091504 
L 468.9792 305.248777 
L 472.05504 317.570561 
L 475.13088 297.575205 
L 478.20672 266.486129 
L 481.28256 342.556769 
L 484.3584 317.340299 
L 487.43424 320.27348 
L 490.51008 325.603298 
L 493.58592 348.654863 
L 496.66176 301.016285 
L 499.7376 323.039565 
L 502.81344 337.869996 
L 505.88928 345.471956 
L 508.96512 301.253525 
L 512.04096 331.785124 
L 515.1168 332.659533 
L 521.26848 388.259969 
L 524.34432 397.029031 
L 527.42016 309.200327 
L 530.496 276.27356 
L 533.57184 278.06204 
L 536.64768 370.239653 
L 539.72352 336.510457 
L 542.79936 272.110477 
L 545.8752 284.620658 
L 548.95104 313.139758 
L 552.02688 297.922251 
L 555.10272 330.90337 
L 558.17856 267.328221 
L 561.2544 274.153091 
L 564.33024 352.583644 
L 567.40608 380.661315 
L 570.48192 285.248279 
L 573.55776 233.975818 
L 573.55776 233.975818 
" clip-path="url(#p4582df4371)" style="fill: none; stroke: #777777; stroke-opacity: 0.4; stroke-width: 0.5; stroke-linecap: square"/>
   </g>
   <g id="line2d_32">
    <path d="M 576.6336 281.605214 
L 579.70944 349.938749 
L 582.78528 300.592118 
L 585.86112 271.776285 
L 588.93696 309.023682 
L 592.0128 340.077135 
L 595.08864 280.400653 
L 598.16448 284.174456 
L 601.24032 340.788488 
L 604.31616 346.517133 
L 607.392 307.087202 
L 610.46784 314.612408 
L 613.54368 300.215692 
L 616.61952 331.66834 
L 619.69536 281.426734 
L 622.7712 300.101112 
L 625.84704 309.122471 
L 628.92288 303.309359 
L 635.07456 261.361233 
L 638.1504 290.46572 
L 641.22624 307.499618 
L 644.30208 265.104556 
L 647.37792 268.300317 
L 650.45376 266.772947 
L 653.5296 313.163996 
L 656.60544 258.181631 
L 659.68128 331.491695 
L 662.75712 275.428531 
L 665.83296 266.20078 
L 668.9088 293.51899 
L 671.98464 280.378985 
L 675.06048 286.918139 
L 678.13632 310.084651 
L 681.21216 260.041357 
L 684.288 303.267493 
L 687.36384 276.224716 
L 690.43968 315.253616 
L 693.51552 288.755096 
L 696.59136 299.636915 
L 699.6672 248.034668 
L 702.74304 280.250082 
L 705.81888 326.273519 
L 708.89472 276.283108 
L 711.97056 258.549243 
L 715.0464 284.395537 
L 718.12224 235.519713 
L 721.19808 251.522756 
L 724.27392 277.720136 
L 727.34976 251.16102 
L 730.4256 287.279875 
L 733.50144 324.914715 
L 736.57728 239.927748 
L 739.65312 288.814957 
L 742.72896 238.46281 
L 745.8048 212.499364 
L 748.88064 270.583108 
L 751.95648 268.789853 
L 755.03232 313.643617 
L 758.10816 262.667154 
L 761.184 248.689098 
L 764.25984 270.72413 
L 767.33568 221.614371 
L 770.41152 215.195306 
L 773.48736 211.711625 
L 776.5632 265.58638 
L 779.63904 343.422365 
L 782.71488 257.228265 
L 785.79072 270.316121 
L 788.86656 187.805116 
L 791.9424 197.555087 
L 795.01824 221.319841 
L 798.09408 259.426223 
L 801.16992 247.198085 
L 804.24576 177.027226 
L 807.3216 289.957821 
L 810.39744 257.262051 
L 813.47328 252.574544 
L 816.54912 267.436558 
L 819.62496 225.619171 
L 822.7008 264.935623 
L 825.77664 267.82804 
L 828.85248 271.613596 
L 831.92832 285.942738 
L 835.00416 274.044019 
L 838.08 208.283766 
L 838.08 208.283766 
" clip-path="url(#p4582df4371)" style="fill: none; stroke: #3db5af; stroke-opacity: 0.4; stroke-width: 0.5; stroke-linecap: square"/>
   </g>
   <g id="line2d_33">
    <path d="M 69.12 117.73378 
L 72.19584 127.13083 
L 75.27168 119.722041 
L 78.34752 123.267786 
L 81.42336 122.888422 
L 84.4992 132.775377 
L 87.57504 123.156511 
L 90.65088 126.424986 
L 93.72672 119.576612 
L 96.80256 138.177542 
L 99.8784 137.285138 
L 102.95424 124.559385 
L 106.03008 126.133027 
L 109.10592 124.582154 
L 112.18176 129.260847 
L 115.2576 115.740377 
L 118.33344 134.086072 
L 121.40928 134.284751 
L 124.48512 126.696747 
L 127.56096 127.324 
L 130.6368 126.261562 
L 133.71264 107.990051 
L 136.78848 136.555056 
L 139.86432 114.092184 
L 142.94016 139.122094 
L 146.016 118.464596 
L 149.09184 122.609684 
L 152.16768 127.560873 
L 155.24352 126.614484 
L 158.31936 126.575556 
L 161.3952 132.55503 
L 164.47104 125.070589 
L 167.54688 124.798828 
L 170.62272 139.919749 
L 173.69856 147.59883 
L 176.7744 136.509518 
L 179.85024 142.202173 
L 182.92608 140.102637 
L 186.00192 124.555345 
L 189.07776 107.942309 
L 192.1536 134.195511 
L 195.22944 125.665525 
L 198.30528 126.72833 
L 201.38112 130.106244 
L 204.45696 135.004183 
L 207.5328 115.190612 
L 210.60864 127.227782 
L 213.68448 107.239771 
L 216.76032 109.122633 
L 219.83616 122.066897 
L 222.912 120.029792 
L 225.98784 113.555273 
L 229.06368 129.08457 
L 232.13952 119.367283 
L 235.21536 129.542524 
L 238.2912 123.84693 
L 241.36704 108.383003 
L 244.44288 127.801051 
L 247.51872 134.195143 
L 250.59456 129.889937 
L 253.6704 129.794086 
L 256.74624 111.501642 
L 259.82208 120.734901 
L 262.89792 141.485679 
L 265.97376 111.620262 
L 269.0496 95.868782 
L 272.12544 124.379435 
L 275.20128 120.702584 
L 278.27712 109.918819 
L 281.35296 142.46512 
L 284.4288 141.501471 
L 287.50464 128.584383 
L 290.58048 144.779127 
L 293.65632 126.18995 
L 296.73216 126.021752 
L 299.808 124.734193 
L 302.88384 121.106553 
L 305.95968 107.282004 
L 309.03552 123.085265 
L 312.11136 115.812724 
L 315.1872 113.983113 
L 318.26304 113.971728 
L 321.33888 120.779705 
L 324.41472 126.281761 
L 327.49056 120.095896 
L 330.5664 114.581354 
L 333.64224 120.733799 
L 336.71808 106.673847 
L 339.79392 124.926629 
L 342.86976 114.725681 
L 345.9456 121.09627 
L 349.02144 137.75668 
L 352.09728 112.012479 
L 355.17312 114.607061 
L 358.24896 115.591276 
L 361.3248 140.375867 
L 364.40064 120.361046 
L 367.47648 111.312879 
L 370.55232 111.829224 
L 373.62816 132.556132 
L 376.704 129.97881 
L 379.77984 132.796677 
L 382.85568 123.817184 
L 385.93152 121.797707 
L 389.00736 132.245076 
L 392.0832 130.092289 
L 395.15904 110.924701 
L 398.23488 117.059152 
L 401.31072 130.378005 
L 404.38656 110.322788 
L 407.4624 115.658114 
L 410.53824 117.963675 
L 413.61408 129.863128 
L 416.68992 126.161672 
L 419.76576 119.581387 
L 422.8416 123.556807 
L 425.91744 129.252034 
L 428.99328 130.588803 
L 432.06912 103.31503 
L 435.14496 125.067284 
L 438.2208 113.478886 
L 441.29664 109.763107 
L 444.37248 108.681205 
L 450.52416 101.80896 
L 453.6 100.847147 
L 456.67584 103.30695 
L 459.75168 116.443283 
L 462.82752 122.682766 
L 465.90336 125.289466 
L 468.9792 102.274994 
L 472.05504 116.493963 
L 475.13088 108.701404 
L 478.20672 128.81134 
L 481.28256 124.657072 
L 484.3584 114.037832 
L 487.43424 107.876205 
L 490.51008 109.18433 
L 493.58592 93.096454 
L 496.66176 102.114141 
L 499.7376 122.788899 
L 502.81344 116.363958 
L 505.88928 116.439611 
L 508.96512 112.713549 
L 512.04096 105.348829 
L 515.1168 93.206995 
L 518.19264 121.594988 
L 521.26848 105.478834 
L 524.34432 119.502062 
L 527.42016 107.600038 
L 530.496 100.260291 
L 533.57184 89.354601 
L 536.64768 93.401634 
L 539.72352 106.905211 
L 542.79936 103.922085 
L 545.8752 90.179432 
L 548.95104 94.101602 
L 552.02688 118.771245 
L 555.10272 89.461102 
L 558.17856 108.714624 
L 561.2544 105.100572 
L 564.33024 113.058024 
L 567.40608 109.155685 
L 570.48192 119.307789 
L 573.55776 119.497288 
L 573.55776 119.497288 
" clip-path="url(#p4582df4371)" style="fill: none; stroke: #777777; stroke-opacity: 0.4; stroke-width: 0.5; stroke-linecap: square"/>
   </g>
   <g id="line2d_34">
    <path d="M 576.6336 112.318394 
L 579.70944 117.141782 
L 582.78528 95.737309 
L 585.86112 104.899322 
L 588.93696 111.379717 
L 592.0128 91.190823 
L 595.08864 95.716008 
L 598.16448 105.331569 
L 601.24032 100.856696 
L 604.31616 93.496383 
L 607.392 100.374136 
L 610.46784 89.856257 
L 613.54368 104.47185 
L 616.61952 98.864762 
L 619.69536 91.027766 
L 622.7712 84.086112 
L 625.84704 99.062339 
L 628.92288 83.281847 
L 631.99872 90.412999 
L 635.07456 90.920531 
L 638.1504 99.609534 
L 641.22624 93.570934 
L 644.30208 98.829506 
L 647.37792 98.46116 
L 650.45376 91.523179 
L 653.5296 83.407812 
L 656.60544 79.486009 
L 659.68128 103.699535 
L 662.75712 106.079646 
L 665.83296 86.91977 
L 668.9088 103.54419 
L 671.98464 86.796376 
L 675.06048 97.750175 
L 678.13632 74.011129 
L 681.21216 92.840485 
L 684.288 87.374052 
L 687.36384 73.80841 
L 690.43968 82.063697 
L 693.51552 90.747191 
L 696.59136 81.61823 
L 699.6672 87.352017 
L 702.74304 87.97927 
L 705.81888 91.053473 
L 708.89472 85.732836 
L 711.97056 92.637398 
L 715.0464 98.277171 
L 718.12224 93.858486 
L 721.19808 97.889728 
L 724.27392 87.66748 
L 727.34976 100.341084 
L 730.4256 100.483208 
L 733.50144 72.628087 
L 736.57728 74.012598 
L 739.65312 85.000918 
L 742.72896 89.107812 
L 745.8048 72.8275 
L 748.88064 87.826864 
L 751.95648 78.650161 
L 755.03232 83.516149 
L 758.10816 85.956855 
L 761.184 77.96782 
L 764.25984 94.054595 
L 767.33568 78.905395 
L 770.41152 76.498108 
L 773.48736 90.958357 
L 776.5632 94.257314 
L 779.63904 79.656043 
L 782.71488 80.452596 
L 785.79072 63.806141 
L 788.86656 68.932506 
L 791.9424 86.206582 
L 795.01824 78.38501 
L 798.09408 74.730561 
L 801.16992 92.252159 
L 804.24576 67.474179 
L 807.3216 78.594707 
L 810.39744 78.539987 
L 813.47328 87.605048 
L 816.54912 84.193715 
L 819.62496 61.727538 
L 822.7008 71.213461 
L 825.77664 63.809814 
L 828.85248 81.217933 
L 831.92832 95.58784 
L 835.00416 79.439002 
L 838.08 81.88742 
L 838.08 81.88742 
" clip-path="url(#p4582df4371)" style="fill: none; stroke: #3db5af; stroke-opacity: 0.4; stroke-width: 0.5; stroke-linecap: square"/>
   </g>
   <g id="line2d_35">
    <path d="M 69.12 361.611246 
L 72.19584 339.377167 
L 75.27168 369.80557 
L 78.34752 367.513231 
L 81.42336 408.143316 
L 84.4992 369.64031 
L 87.57504 373.77842 
L 90.65088 395.88837 
L 93.72672 407.838136 
L 96.80256 364.051585 
L 99.8784 384.992963 
L 102.95424 379.582718 
L 106.03008 403.032009 
L 109.10592 381.216589 
L 112.18176 370.927135 
L 115.2576 387.219566 
L 118.33344 405.473082 
L 121.40928 379.094283 
L 124.48512 392.196462 
L 127.56096 373.762629 
L 130.6368 383.630119 
L 133.71264 403.576999 
L 136.78848 410.494048 
L 139.86432 386.466715 
L 142.94016 395.442903 
L 146.016 382.660227 
L 149.09184 398.064293 
L 152.16768 407.653412 
L 155.24352 381.190882 
L 158.31936 373.328546 
L 161.3952 386.282358 
L 164.47104 387.270613 
L 167.54688 368.648383 
L 170.62272 413.371408 
L 173.69856 386.643727 
L 176.7744 363.361165 
L 179.85024 385.379671 
L 182.92608 380.925364 
L 186.00192 389.716828 
L 189.07776 392.888718 
L 192.1536 416.563864 
L 195.22944 381.816666 
L 198.30528 404.616301 
L 201.38112 395.248263 
L 204.45696 390.766413 
L 207.5328 395.9497 
L 210.60864 381.691069 
L 213.68448 364.757429 
L 216.76032 372.207716 
L 219.83616 384.99737 
L 222.912 425.154445 
L 225.98784 382.634519 
L 229.06368 387.819643 
L 232.13952 405.620714 
L 235.21536 417.351603 
L 238.2912 397.703659 
L 241.36704 395.531776 
L 244.44288 393.825558 
L 247.51872 396.776367 
L 250.59456 364.928932 
L 253.6704 388.917337 
L 256.74624 382.480644 
L 259.82208 385.077429 
L 262.89792 376.220963 
L 265.97376 383.26618 
L 269.0496 386.200095 
L 272.12544 400.369487 
L 275.20128 393.334553 
L 278.27712 398.544649 
L 281.35296 415.696065 
L 284.4288 414.972226 
L 287.50464 372.139776 
L 290.58048 392.366864 
L 293.65632 384.375258 
L 296.73216 354.908668 
L 299.808 378.205552 
L 302.88384 389.263281 
L 305.95968 376.81443 
L 309.03552 420.366312 
L 312.11136 394.248624 
L 315.1872 392.417176 
L 318.26304 410.713293 
L 321.33888 357.146288 
L 324.41472 405.598313 
L 327.49056 377.300294 
L 330.5664 382.885347 
L 333.64224 369.913173 
L 336.71808 389.220681 
L 339.79392 400.9927 
L 342.86976 415.819826 
L 345.9456 397.388197 
L 349.02144 392.333077 
L 352.09728 406.185904 
L 355.17312 403.993087 
L 358.24896 390.190941 
L 361.3248 375.6297 
L 364.40064 375.675972 
L 367.47648 372.919436 
L 370.55232 391.277249 
L 373.62816 386.915488 
L 376.704 393.017621 
L 379.77984 414.954231 
L 382.85568 378.040659 
L 385.93152 404.601978 
L 389.00736 384.908864 
L 392.0832 376.158532 
L 395.15904 381.737709 
L 398.23488 406.909375 
L 401.31072 386.902634 
L 404.38656 386.416035 
L 407.4624 395.125971 
L 410.53824 425.341739 
L 413.61408 410.60165 
L 416.68992 373.589657 
L 419.76576 401.917055 
L 422.8416 414.572664 
L 425.91744 409.177844 
L 428.99328 394.795451 
L 432.06912 394.393318 
L 435.14496 360.142635 
L 438.2208 390.334533 
L 441.29664 382.63709 
L 444.37248 389.523657 
L 447.44832 398.319528 
L 450.52416 395.512312 
L 453.6 403.168991 
L 456.67584 400.096991 
L 459.75168 387.484716 
L 462.82752 360.771358 
L 465.90336 409.178578 
L 468.9792 387.740686 
L 472.05504 410.722841 
L 475.13088 396.322453 
L 478.20672 386.726724 
L 481.28256 382.244873 
L 484.3584 407.495864 
L 487.43424 418.611251 
L 490.51008 412.722487 
L 493.58592 380.77002 
L 496.66176 414.912733 
L 499.7376 391.575085 
L 502.81344 382.648842 
L 505.88928 394.822994 
L 508.96512 392.874763 
L 512.04096 388.947451 
L 515.1168 387.68413 
L 518.19264 386.575052 
L 521.26848 411.761041 
L 524.34432 382.670142 
L 527.42016 414.163187 
L 530.496 376.706827 
L 533.57184 380.022677 
L 536.64768 375.946264 
L 539.72352 398.100283 
L 542.79936 380.071153 
L 545.8752 405.902024 
L 548.95104 385.456058 
L 555.10272 368.637366 
L 558.17856 388.314322 
L 561.2544 357.70046 
L 564.33024 366.959426 
L 567.40608 375.624191 
L 570.48192 380.713097 
L 573.55776 372.45377 
L 573.55776 372.45377 
" clip-path="url(#p4582df4371)" style="fill: none; stroke: #777777; stroke-opacity: 0.4; stroke-width: 0.5; stroke-linecap: square"/>
   </g>
   <g id="line2d_36">
    <path d="M 576.6336 408.013312 
L 579.70944 388.092139 
L 582.78528 351.557196 
L 585.86112 389.406506 
L 588.93696 364.912406 
L 592.0128 400.760602 
L 595.08864 369.009017 
L 598.16448 361.407058 
L 601.24032 400.140693 
L 604.31616 349.920387 
L 607.392 379.130641 
L 610.46784 383.570258 
L 613.54368 354.795557 
L 616.61952 372.453035 
L 619.69536 389.209663 
L 622.7712 370.892614 
L 625.84704 361.161371 
L 628.92288 380.396899 
L 631.99872 361.82792 
L 635.07456 372.88418 
L 638.1504 382.706132 
L 641.22624 347.57039 
L 644.30208 367.334383 
L 647.37792 367.595126 
L 650.45376 354.839259 
L 653.5296 349.525967 
L 656.60544 363.76844 
L 659.68128 369.21394 
L 662.75712 375.14714 
L 665.83296 351.631379 
L 668.9088 358.765469 
L 671.98464 370.496724 
L 675.06048 370.704952 
L 678.13632 385.548604 
L 681.21216 339.754327 
L 684.288 332.29339 
L 687.36384 360.181196 
L 690.43968 361.193689 
L 693.51552 351.40736 
L 696.59136 339.153148 
L 699.6672 347.535869 
L 702.74304 372.749034 
L 705.81888 359.671828 
L 708.89472 328.914374 
L 711.97056 355.846978 
L 715.0464 363.411845 
L 718.12224 345.329832 
L 721.19808 355.923364 
L 724.27392 344.002611 
L 727.34976 329.783274 
L 730.4256 343.765371 
L 733.50144 380.27681 
L 736.57728 359.793019 
L 739.65312 371.733971 
L 742.72896 375.916885 
L 745.8048 372.40309 
L 748.88064 372.317522 
L 751.95648 343.917043 
L 755.03232 368.342101 
L 758.10816 368.255432 
L 761.184 329.25738 
L 764.25984 350.940225 
L 767.33568 361.54808 
L 770.41152 350.653407 
L 773.48736 347.694519 
L 776.5632 321.329308 
L 779.63904 371.690636 
L 782.71488 366.41517 
L 785.79072 358.178612 
L 788.86656 355.585867 
L 791.9424 348.287986 
L 795.01824 315.372604 
L 798.09408 363.025504 
L 801.16992 350.15726 
L 804.24576 355.972575 
L 807.3216 375.097562 
L 810.39744 335.468585 
L 813.47328 391.467115 
L 816.54912 352.311883 
L 819.62496 355.538859 
L 822.7008 344.057697 
L 825.77664 399.069441 
L 828.85248 366.588877 
L 831.92832 344.426044 
L 835.00416 346.350037 
L 838.08 363.818018 
L 838.08 363.818018 
" clip-path="url(#p4582df4371)" style="fill: none; stroke: #3db5af; stroke-opacity: 0.4; stroke-width: 0.5; stroke-linecap: square"/>
   </g>
   <g id="line2d_37">
    <path d="M 69.12 330.786219 
L 72.19584 381.224301 
L 75.27168 355.996079 
L 78.34752 269.940797 
L 81.42336 351.391568 
L 84.4992 347.76099 
L 87.57504 364.296537 
L 90.65088 379.226124 
L 93.72672 372.061553 
L 96.80256 304.994644 
L 99.8784 385.218818 
L 102.95424 414.290621 
L 106.03008 293.883664 
L 109.10592 330.09433 
L 112.18176 376.913586 
L 115.2576 379.805269 
L 118.33344 319.045415 
L 121.40928 417.580763 
L 124.48512 396.254146 
L 127.56096 317.516576 
L 130.6368 358.189997 
L 133.71264 312.90215 
L 136.78848 375.760439 
L 139.86432 363.398992 
L 142.94016 344.318441 
L 146.016 356.510955 
L 149.09184 399.877379 
L 152.16768 321.635223 
L 155.24352 344.117191 
L 158.31936 361.701588 
L 161.3952 342.632789 
L 164.47104 340.137731 
L 167.54688 354.085673 
L 170.62272 342.809066 
L 173.69856 340.688597 
L 176.7744 344.766846 
L 179.85024 357.345335 
L 182.92608 431.432121 
L 186.00192 335.688932 
L 189.07776 402.089659 
L 192.1536 415.282548 
L 195.22944 334.454991 
L 198.30528 317.940377 
L 201.38112 377.489425 
L 204.45696 340.805381 
L 207.5328 349.280647 
L 210.60864 404.020631 
L 213.68448 377.685534 
L 216.76032 334.759069 
L 219.83616 412.321089 
L 222.912 350.798836 
L 225.98784 379.59851 
L 229.06368 379.007981 
L 232.13952 403.381625 
L 235.21536 386.981224 
L 238.2912 352.720993 
L 241.36704 402.184776 
L 244.44288 383.674556 
L 247.51872 340.036738 
L 250.59456 388.76236 
L 253.6704 330.184672 
L 256.74624 325.021583 
L 259.82208 358.765102 
L 262.89792 369.249195 
L 265.97376 320.979691 
L 269.0496 339.200156 
L 272.12544 363.304977 
L 275.20128 442.484341 
L 278.27712 349.939484 
L 281.35296 290.067627 
L 284.4288 360.205434 
L 287.50464 351.443717 
L 290.58048 335.148348 
L 293.65632 391.057637 
L 296.73216 359.221219 
L 299.808 340.995246 
L 302.88384 361.449658 
L 305.95968 409.82603 
L 309.03552 422.221264 
L 312.11136 359.924125 
L 315.1872 357.723596 
L 318.26304 336.186181 
L 321.33888 352.548388 
L 324.41472 352.620001 
L 327.49056 329.746183 
L 330.5664 303.297975 
L 333.64224 389.341871 
L 336.71808 333.725643 
L 339.79392 333.179918 
L 342.86976 330.709098 
L 345.9456 286.950457 
L 349.02144 394.713188 
L 352.09728 344.323582 
L 355.17312 375.223527 
L 358.24896 418.733176 
L 361.3248 369.612033 
L 364.40064 402.279892 
L 367.47648 338.713557 
L 370.55232 342.500581 
L 373.62816 335.200497 
L 376.704 409.057755 
L 379.77984 383.524353 
L 382.85568 355.333203 
L 385.93152 333.724174 
L 389.00736 368.187859 
L 392.0832 392.245306 
L 395.15904 359.672195 
L 398.23488 395.521126 
L 401.31072 399.386741 
L 404.38656 389.927626 
L 407.4624 373.698728 
L 410.53824 371.72736 
L 413.61408 376.243732 
L 416.68992 373.986648 
L 419.76576 391.384485 
L 422.8416 379.662778 
L 425.91744 423.625974 
L 428.99328 413.36039 
L 432.06912 375.014932 
L 435.14496 362.831966 
L 438.2208 427.264631 
L 441.29664 393.912595 
L 444.37248 414.510233 
L 447.44832 339.058766 
L 450.52416 388.127027 
L 453.6 352.013313 
L 456.67584 340.947137 
L 459.75168 397.00259 
L 462.82752 394.26111 
L 465.90336 433.699121 
L 468.9792 370.259852 
L 472.05504 403.436712 
L 475.13088 403.726835 
L 478.20672 338.966955 
L 481.28256 402.923672 
L 484.3584 396.137362 
L 487.43424 351.749264 
L 490.51008 351.894326 
L 493.58592 397.350003 
L 496.66176 368.742398 
L 499.7376 375.509978 
L 502.81344 410.386078 
L 505.88928 379.694728 
L 508.96512 358.003437 
L 512.04096 386.320919 
L 515.1168 357.846256 
L 518.19264 358.563852 
L 521.26848 381.940428 
L 524.34432 363.138248 
L 527.42016 403.506488 
L 530.496 369.577512 
L 533.57184 419.347943 
L 536.64768 349.080132 
L 539.72352 341.335682 
L 542.79936 339.979815 
L 545.8752 362.372176 
L 548.95104 399.319168 
L 552.02688 386.640789 
L 555.10272 385.832484 
L 558.17856 351.43527 
L 561.2544 373.512903 
L 564.33024 348.162388 
L 567.40608 375.01787 
L 570.48192 362.062222 
L 573.55776 390.42157 
L 573.55776 390.42157 
" clip-path="url(#p4582df4371)" style="fill: none; stroke: #777777; stroke-opacity: 0.4; stroke-width: 0.5; stroke-linecap: square"/>
   </g>
   <g id="line2d_38">
    <path d="M 576.6336 367.50662 
L 579.70944 301.373981 
L 582.78528 395.042606 
L 585.86112 320.624566 
L 588.93696 350.520097 
L 592.0128 311.869459 
L 595.08864 340.716508 
L 598.16448 343.013989 
L 601.24032 392.033773 
L 604.31616 284.126347 
L 607.392 370.869477 
L 610.46784 325.002119 
L 613.54368 355.553182 
L 616.61952 361.104816 
L 619.69536 319.062308 
L 622.7712 304.822773 
L 625.84704 377.442418 
L 628.92288 338.872941 
L 631.99872 396.29895 
L 635.07456 388.721228 
L 638.1504 350.913416 
L 641.22624 343.7415 
L 644.30208 388.698826 
L 647.37792 315.227542 
L 650.45376 381.663892 
L 653.5296 378.784329 
L 656.60544 338.313995 
L 659.68128 340.061344 
L 662.75712 280.805723 
L 665.83296 346.447357 
L 668.9088 349.634671 
L 671.98464 357.714783 
L 675.06048 314.716705 
L 678.13632 317.449371 
L 681.21216 322.855943 
L 684.288 330.84204 
L 687.36384 378.041761 
L 690.43968 367.327772 
L 693.51552 318.419263 
L 696.59136 374.664581 
L 699.6672 333.887598 
L 702.74304 381.366425 
L 705.81888 341.222938 
L 708.89472 345.082309 
L 711.97056 355.389391 
L 715.0464 340.746255 
L 718.12224 314.492319 
L 721.19808 310.581166 
L 724.27392 383.315023 
L 727.34976 308.502195 
L 730.4256 408.075009 
L 733.50144 369.626355 
L 736.57728 289.153556 
L 739.65312 272.597811 
L 742.72896 313.61791 
L 745.8048 337.692617 
L 748.88064 348.52596 
L 751.95648 326.43474 
L 755.03232 330.561465 
L 758.10816 290.271815 
L 761.184 304.150349 
L 764.25984 300.916027 
L 767.33568 355.29097 
L 770.41152 354.247261 
L 773.48736 370.782808 
L 776.5632 325.832092 
L 779.63904 354.948698 
L 782.71488 278.57655 
L 785.79072 253.325558 
L 788.86656 373.26538 
L 791.9424 350.347125 
L 795.01824 296.631754 
L 798.09408 341.348535 
L 801.16992 268.468514 
L 804.24576 308.215377 
L 807.3216 321.807827 
L 810.39744 346.71618 
L 813.47328 286.341198 
L 816.54912 285.735612 
L 819.62496 316.128025 
L 822.7008 344.469011 
L 825.77664 333.237943 
L 828.85248 288.722411 
L 831.92832 334.477392 
L 835.00416 279.572884 
L 838.08 352.125323 
L 838.08 352.125323 
" clip-path="url(#p4582df4371)" style="fill: none; stroke: #3db5af; stroke-opacity: 0.4; stroke-width: 0.5; stroke-linecap: square"/>
   </g>
   <g id="line2d_39">
    <path d="M 69.12 158.090268 
L 72.19584 142.983302 
L 75.27168 153.196737 
L 78.34752 159.389579 
L 81.42336 148.534936 
L 84.4992 148.558807 
L 87.57504 159.633429 
L 90.65088 144.385809 
L 93.72672 151.306897 
L 96.80256 144.930065 
L 99.8784 143.573831 
L 102.95424 148.023365 
L 106.03008 134.436056 
L 109.10592 143.921979 
L 112.18176 154.713456 
L 115.2576 151.348395 
L 118.33344 137.791201 
L 121.40928 144.220181 
L 124.48512 162.551186 
L 127.56096 141.995415 
L 130.6368 142.662331 
L 133.71264 141.607972 
L 136.78848 143.780957 
L 139.86432 148.919441 
L 142.94016 147.861777 
L 146.016 141.461809 
L 149.09184 153.356121 
L 152.16768 143.260204 
L 155.24352 130.895452 
L 158.31936 143.657563 
L 161.3952 140.302418 
L 164.47104 144.871306 
L 167.54688 140.416264 
L 170.62272 153.488696 
L 173.69856 148.455611 
L 176.7744 155.905531 
L 179.85024 149.653195 
L 182.92608 146.94844 
L 186.00192 144.875713 
L 189.07776 147.857003 
L 192.1536 149.634099 
L 195.22944 138.669282 
L 198.30528 141.661957 
L 201.38112 153.562145 
L 204.45696 140.649464 
L 207.5328 148.000963 
L 210.60864 141.573451 
L 213.68448 152.895229 
L 216.76032 136.948008 
L 219.83616 147.330374 
L 222.912 138.645778 
L 225.98784 150.041005 
L 229.06368 142.364863 
L 232.13952 161.553016 
L 235.21536 158.439885 
L 238.2912 132.178972 
L 241.36704 156.840903 
L 244.44288 141.12982 
L 247.51872 135.750791 
L 250.59456 135.309363 
L 253.6704 132.129026 
L 256.74624 142.149657 
L 259.82208 157.31575 
L 262.89792 147.955424 
L 265.97376 146.215788 
L 269.0496 142.101181 
L 272.12544 146.788322 
L 275.20128 140.511747 
L 278.27712 141.314544 
L 281.35296 134.05706 
L 284.4288 150.60546 
L 287.50464 135.579288 
L 290.58048 145.862866 
L 293.65632 139.598778 
L 296.73216 137.699022 
L 299.808 144.309055 
L 302.88384 140.183431 
L 305.95968 119.875549 
L 309.03552 133.630322 
L 312.11136 140.988431 
L 315.1872 144.441263 
L 318.26304 137.996858 
L 321.33888 145.941089 
L 324.41472 125.598686 
L 327.49056 151.532018 
L 330.5664 146.037674 
L 333.64224 142.366332 
L 336.71808 121.44405 
L 339.79392 133.267484 
L 342.86976 115.330532 
L 345.9456 144.485332 
L 349.02144 133.296864 
L 352.09728 140.260185 
L 355.17312 136.183405 
L 358.24896 134.991329 
L 361.3248 142.211354 
L 364.40064 132.68834 
L 367.47648 125.576652 
L 370.55232 129.342376 
L 373.62816 135.304956 
L 376.704 135.01924 
L 379.77984 141.335109 
L 382.85568 125.148445 
L 385.93152 138.627049 
L 389.00736 143.555102 
L 392.0832 125.231809 
L 395.15904 139.926727 
L 398.23488 126.834096 
L 401.31072 135.002347 
L 404.38656 133.33065 
L 407.4624 143.709712 
L 410.53824 125.575183 
L 413.61408 139.336565 
L 416.68992 145.249935 
L 419.76576 144.52426 
L 422.8416 144.784269 
L 425.91744 135.403378 
L 428.99328 142.544078 
L 435.14496 134.185595 
L 438.2208 146.775101 
L 441.29664 142.134968 
L 444.37248 121.622531 
L 447.44832 132.442653 
L 450.52416 137.595092 
L 453.6 136.187444 
L 456.67584 144.61754 
L 459.75168 139.748613 
L 462.82752 133.575969 
L 465.90336 138.902115 
L 468.9792 137.218299 
L 472.05504 138.571962 
L 475.13088 140.123203 
L 478.20672 140.816193 
L 481.28256 139.465101 
L 484.3584 144.475783 
L 487.43424 141.674443 
L 490.51008 141.131289 
L 493.58592 140.044245 
L 496.66176 130.072458 
L 499.7376 136.896593 
L 502.81344 144.839355 
L 505.88928 140.906902 
L 508.96512 135.526037 
L 512.04096 149.590396 
L 515.1168 134.052285 
L 518.19264 133.626649 
L 521.26848 132.659327 
L 524.34432 134.832312 
L 527.42016 113.594201 
L 530.496 128.227422 
L 533.57184 140.565365 
L 536.64768 125.319948 
L 539.72352 120.391895 
L 542.79936 120.089286 
L 545.8752 123.513472 
L 548.95104 135.760339 
L 552.02688 134.581852 
L 555.10272 115.051427 
L 558.17856 137.20361 
L 561.2544 117.423091 
L 564.33024 119.782269 
L 567.40608 116.610012 
L 570.48192 121.541003 
L 573.55776 121.256756 
L 573.55776 121.256756 
" clip-path="url(#p4582df4371)" style="fill: none; stroke: #777777; stroke-opacity: 0.4; stroke-width: 0.5; stroke-linecap: square"/>
   </g>
   <g id="line2d_40">
    <path d="M 576.6336 120.11132 
L 579.70944 128.909395 
L 582.78528 140.337673 
L 585.86112 123.919645 
L 588.93696 122.269983 
L 592.0128 122.11574 
L 595.08864 116.742954 
L 598.16448 122.117576 
L 601.24032 114.82704 
L 604.31616 99.522864 
L 607.392 124.175247 
L 610.46784 118.937607 
L 613.54368 95.238591 
L 616.61952 104.268029 
L 619.69536 107.980503 
L 622.7712 112.297461 
L 625.84704 127.506521 
L 628.92288 103.67346 
L 631.99872 107.2585 
L 635.07456 103.687783 
L 638.1504 121.695613 
L 641.22624 110.50641 
L 644.30208 117.123052 
L 647.37792 116.961832 
L 650.45376 98.627889 
L 653.5296 104.096526 
L 656.60544 95.700217 
L 659.68128 96.710139 
L 662.75712 113.761664 
L 665.83296 92.479116 
L 668.9088 108.282378 
L 671.98464 108.526228 
L 675.06048 98.266521 
L 678.13632 105.721215 
L 681.21216 102.916202 
L 684.288 106.531724 
L 687.36384 101.872494 
L 690.43968 108.165594 
L 693.51552 101.644068 
L 696.59136 103.317968 
L 699.6672 99.828411 
L 702.74304 91.796776 
L 705.81888 91.017116 
L 708.89472 97.915802 
L 711.97056 91.798979 
L 715.0464 98.608425 
L 718.12224 103.891236 
L 721.19808 100.983762 
L 724.27392 99.950336 
L 727.34976 93.767042 
L 730.4256 73.479359 
L 733.50144 87.384702 
L 736.57728 99.754962 
L 739.65312 104.604425 
L 742.72896 91.485353 
L 745.8048 95.118134 
L 748.88064 76.890325 
L 751.95648 102.557037 
L 755.03232 100.570979 
L 758.10816 98.12807 
L 761.184 93.889335 
L 764.25984 108.614367 
L 767.33568 105.123341 
L 770.41152 75.275184 
L 773.48736 65.850958 
L 776.5632 90.231213 
L 779.63904 80.556526 
L 782.71488 94.749054 
L 785.79072 96.886784 
L 788.86656 86.876435 
L 791.9424 81.619699 
L 795.01824 95.505945 
L 798.09408 85.664896 
L 801.16992 90.456334 
L 804.24576 91.696518 
L 807.3216 86.840078 
L 810.39744 79.266397 
L 813.47328 72.317398 
L 816.54912 82.603179 
L 819.62496 85.549214 
L 822.7008 100.504141 
L 825.77664 94.376301 
L 828.85248 80.696446 
L 831.92832 77.148865 
L 835.00416 80.107386 
L 838.08 102.2155 
L 838.08 102.2155 
" clip-path="url(#p4582df4371)" style="fill: none; stroke: #3db5af; stroke-opacity: 0.4; stroke-width: 0.5; stroke-linecap: square"/>
   </g>
   <g id="text_25">
    <!-- Maximum temperature projections (8 CMIP6 models) -->
    <g transform="translate(215.434687 22.8) scale(0.18 -0.18)">
     <defs>
      <path id="DejaVuSans-4d" d="M 628 4666 
L 1569 4666 
L 2759 1491 
L 3956 4666 
L 4897 4666 
L 4897 0 
L 4281 0 
L 4281 4097 
L 3078 897 
L 2444 897 
L 1241 4097 
L 1241 0 
L 628 0 
L 628 4666 
z
" transform="scale(0.015625)"/>
      <path id="DejaVuSans-61" d="M 2194 1759 
Q 1497 1759 1228 1600 
Q 959 1441 959 1056 
Q 959 750 1161 570 
Q 1363 391 1709 391 
Q 2188 391 2477 730 
Q 2766 1069 2766 1631 
L 2766 1759 
L 2194 1759 
z
M 3341 1997 
L 3341 0 
L 2766 0 
L 2766 531 
Q 2569 213 2275 61 
Q 1981 -91 1556 -91 
Q 1019 -91 701 211 
Q 384 513 384 1019 
Q 384 1609 779 1909 
Q 1175 2209 1959 2209 
L 2766 2209 
L 2766 2266 
Q 2766 2663 2505 2880 
Q 2244 3097 1772 3097 
Q 1472 3097 1187 3025 
Q 903 2953 641 2809 
L 641 3341 
Q 956 3463 1253 3523 
Q 1550 3584 1831 3584 
Q 2591 3584 2966 3190 
Q 3341 2797 3341 1997 
z
" transform="scale(0.015625)"/>
      <path id="DejaVuSans-78" d="M 3513 3500 
L 2247 1797 
L 3578 0 
L 2900 0 
L 1881 1375 
L 863 0 
L 184 0 
L 1544 1831 
L 300 3500 
L 978 3500 
L 1906 2253 
L 2834 3500 
L 3513 3500 
z
" transform="scale(0.015625)"/>
      <path id="DejaVuSans-69" d="M 603 3500 
L 1178 3500 
L 1178 0 
L 603 0 
L 603 3500 
z
M 603 4863 
L 1178 4863 
L 1178 4134 
L 603 4134 
L 603 4863 
z
" transform="scale(0.015625)"/>
      <path id="DejaVuSans-6d" d="M 3328 2828 
Q 3544 3216 3844 3400 
Q 4144 3584 4550 3584 
Q 5097 3584 5394 3201 
Q 5691 2819 5691 2113 
L 5691 0 
L 5113 0 
L 5113 2094 
Q 5113 2597 4934 2840 
Q 4756 3084 4391 3084 
Q 3944 3084 3684 2787 
Q 3425 2491 3425 1978 
L 3425 0 
L 2847 0 
L 2847 2094 
Q 2847 2600 2669 2842 
Q 2491 3084 2119 3084 
Q 1678 3084 1418 2786 
Q 1159 2488 1159 1978 
L 1159 0 
L 581 0 
L 581 3500 
L 1159 3500 
L 1159 2956 
Q 1356 3278 1631 3431 
Q 1906 3584 2284 3584 
Q 2666 3584 2933 3390 
Q 3200 3197 3328 2828 
z
" transform="scale(0.015625)"/>
      <path id="DejaVuSans-75" d="M 544 1381 
L 544 3500 
L 1119 3500 
L 1119 1403 
Q 1119 906 1312 657 
Q 1506 409 1894 409 
Q 2359 409 2629 706 
Q 2900 1003 2900 1516 
L 2900 3500 
L 3475 3500 
L 3475 0 
L 2900 0 
L 2900 538 
Q 2691 219 2414 64 
Q 2138 -91 1772 -91 
Q 1169 -91 856 284 
Q 544 659 544 1381 
z
M 1991 3584 
L 1991 3584 
z
" transform="scale(0.015625)"/>
      <path id="DejaVuSans-20" transform="scale(0.015625)"/>
      <path id="DejaVuSans-74" d="M 1172 4494 
L 1172 3500 
L 2356 3500 
L 2356 3053 
L 1172 3053 
L 1172 1153 
Q 1172 725 1289 603 
Q 1406 481 1766 481 
L 2356 481 
L 2356 0 
L 1766 0 
Q 1100 0 847 248 
Q 594 497 594 1153 
L 594 3053 
L 172 3053 
L 172 3500 
L 594 3500 
L 594 4494 
L 1172 4494 
z
" transform="scale(0.015625)"/>
      <path id="DejaVuSans-65" d="M 3597 1894 
L 3597 1613 
L 953 1613 
Q 991 1019 1311 708 
Q 1631 397 2203 397 
Q 2534 397 2845 478 
Q 3156 559 3463 722 
L 3463 178 
Q 3153 47 2828 -22 
Q 2503 -91 2169 -91 
Q 1331 -91 842 396 
Q 353 884 353 1716 
Q 353 2575 817 3079 
Q 1281 3584 2069 3584 
Q 2775 3584 3186 3129 
Q 3597 2675 3597 1894 
z
M 3022 2063 
Q 3016 2534 2758 2815 
Q 2500 3097 2075 3097 
Q 1594 3097 1305 2825 
Q 1016 2553 972 2059 
L 3022 2063 
z
" transform="scale(0.015625)"/>
      <path id="DejaVuSans-70" d="M 1159 525 
L 1159 -1331 
L 581 -1331 
L 581 3500 
L 1159 3500 
L 1159 2969 
Q 1341 3281 1617 3432 
Q 1894 3584 2278 3584 
Q 2916 3584 3314 3078 
Q 3713 2572 3713 1747 
Q 3713 922 3314 415 
Q 2916 -91 2278 -91 
Q 1894 -91 1617 61 
Q 1341 213 1159 525 
z
M 3116 1747 
Q 3116 2381 2855 2742 
Q 2594 3103 2138 3103 
Q 1681 3103 1420 2742 
Q 1159 2381 1159 1747 
Q 1159 1113 1420 752 
Q 1681 391 2138 391 
Q 2594 391 2855 752 
Q 3116 1113 3116 1747 
z
" transform="scale(0.015625)"/>
      <path id="DejaVuSans-72" d="M 2631 2963 
Q 2534 3019 2420 3045 
Q 2306 3072 2169 3072 
Q 1681 3072 1420 2755 
Q 1159 2438 1159 1844 
L 1159 0 
L 581 0 
L 581 3500 
L 1159 3500 
L 1159 2956 
Q 1341 3275 1631 3429 
Q 1922 3584 2338 3584 
Q 2397 3584 2469 3576 
Q 2541 3569 2628 3553 
L 2631 2963 
z
" transform="scale(0.015625)"/>
      <path id="DejaVuSans-6f" d="M 1959 3097 
Q 1497 3097 1228 2736 
Q 959 2375 959 1747 
Q 959 1119 1226 758 
Q 1494 397 1959 397 
Q 2419 397 2687 759 
Q 2956 1122 2956 1747 
Q 2956 2369 2687 2733 
Q 2419 3097 1959 3097 
z
M 1959 3584 
Q 2709 3584 3137 3096 
Q 3566 2609 3566 1747 
Q 3566 888 3137 398 
Q 2709 -91 1959 -91 
Q 1206 -91 779 398 
Q 353 888 353 1747 
Q 353 2609 779 3096 
Q 1206 3584 1959 3584 
z
" transform="scale(0.015625)"/>
      <path id="DejaVuSans-6a" d="M 603 3500 
L 1178 3500 
L 1178 -63 
Q 1178 -731 923 -1031 
Q 669 -1331 103 -1331 
L -116 -1331 
L -116 -844 
L 38 -844 
Q 366 -844 484 -692 
Q 603 -541 603 -63 
L 603 3500 
z
M 603 4863 
L 1178 4863 
L 1178 4134 
L 603 4134 
L 603 4863 
z
" transform="scale(0.015625)"/>
      <path id="DejaVuSans-63" d="M 3122 3366 
L 3122 2828 
Q 2878 2963 2633 3030 
Q 2388 3097 2138 3097 
Q 1578 3097 1268 2742 
Q 959 2388 959 1747 
Q 959 1106 1268 751 
Q 1578 397 2138 397 
Q 2388 397 2633 464 
Q 2878 531 3122 666 
L 3122 134 
Q 2881 22 2623 -34 
Q 2366 -91 2075 -91 
Q 1284 -91 818 406 
Q 353 903 353 1747 
Q 353 2603 823 3093 
Q 1294 3584 2113 3584 
Q 2378 3584 2631 3529 
Q 2884 3475 3122 3366 
z
" transform="scale(0.015625)"/>
      <path id="DejaVuSans-6e" d="M 3513 2113 
L 3513 0 
L 2938 0 
L 2938 2094 
Q 2938 2591 2744 2837 
Q 2550 3084 2163 3084 
Q 1697 3084 1428 2787 
Q 1159 2491 1159 1978 
L 1159 0 
L 581 0 
L 581 3500 
L 1159 3500 
L 1159 2956 
Q 1366 3272 1645 3428 
Q 1925 3584 2291 3584 
Q 2894 3584 3203 3211 
Q 3513 2838 3513 2113 
z
" transform="scale(0.015625)"/>
      <path id="DejaVuSans-73" d="M 2834 3397 
L 2834 2853 
Q 2591 2978 2328 3040 
Q 2066 3103 1784 3103 
Q 1356 3103 1142 2972 
Q 928 2841 928 2578 
Q 928 2378 1081 2264 
Q 1234 2150 1697 2047 
L 1894 2003 
Q 2506 1872 2764 1633 
Q 3022 1394 3022 966 
Q 3022 478 2636 193 
Q 2250 -91 1575 -91 
Q 1294 -91 989 -36 
Q 684 19 347 128 
L 347 722 
Q 666 556 975 473 
Q 1284 391 1588 391 
Q 1994 391 2212 530 
Q 2431 669 2431 922 
Q 2431 1156 2273 1281 
Q 2116 1406 1581 1522 
L 1381 1569 
Q 847 1681 609 1914 
Q 372 2147 372 2553 
Q 372 3047 722 3315 
Q 1072 3584 1716 3584 
Q 2034 3584 2315 3537 
Q 2597 3491 2834 3397 
z
" transform="scale(0.015625)"/>
      <path id="DejaVuSans-28" d="M 1984 4856 
Q 1566 4138 1362 3434 
Q 1159 2731 1159 2009 
Q 1159 1288 1364 580 
Q 1569 -128 1984 -844 
L 1484 -844 
Q 1016 -109 783 600 
Q 550 1309 550 2009 
Q 550 2706 781 3412 
Q 1013 4119 1484 4856 
L 1984 4856 
z
" transform="scale(0.015625)"/>
      <path id="DejaVuSans-43" d="M 4122 4306 
L 4122 3641 
Q 3803 3938 3442 4084 
Q 3081 4231 2675 4231 
Q 1875 4231 1450 3742 
Q 1025 3253 1025 2328 
Q 1025 1406 1450 917 
Q 1875 428 2675 428 
Q 3081 428 3442 575 
Q 3803 722 4122 1019 
L 4122 359 
Q 3791 134 3420 21 
Q 3050 -91 2638 -91 
Q 1578 -91 968 557 
Q 359 1206 359 2328 
Q 359 3453 968 4101 
Q 1578 4750 2638 4750 
Q 3056 4750 3426 4639 
Q 3797 4528 4122 4306 
z
" transform="scale(0.015625)"/>
      <path id="DejaVuSans-49" d="M 628 4666 
L 1259 4666 
L 1259 0 
L 628 0 
L 628 4666 
z
" transform="scale(0.015625)"/>
      <path id="DejaVuSans-50" d="M 1259 4147 
L 1259 2394 
L 2053 2394 
Q 2494 2394 2734 2622 
Q 2975 2850 2975 3272 
Q 2975 3691 2734 3919 
Q 2494 4147 2053 4147 
L 1259 4147 
z
M 628 4666 
L 2053 4666 
Q 2838 4666 3239 4311 
Q 3641 3956 3641 3272 
Q 3641 2581 3239 2228 
Q 2838 1875 2053 1875 
L 1259 1875 
L 1259 0 
L 628 0 
L 628 4666 
z
" transform="scale(0.015625)"/>
      <path id="DejaVuSans-64" d="M 2906 2969 
L 2906 4863 
L 3481 4863 
L 3481 0 
L 2906 0 
L 2906 525 
Q 2725 213 2448 61 
Q 2172 -91 1784 -91 
Q 1150 -91 751 415 
Q 353 922 353 1747 
Q 353 2572 751 3078 
Q 1150 3584 1784 3584 
Q 2172 3584 2448 3432 
Q 2725 3281 2906 2969 
z
M 947 1747 
Q 947 1113 1208 752 
Q 1469 391 1925 391 
Q 2381 391 2643 752 
Q 2906 1113 2906 1747 
Q 2906 2381 2643 2742 
Q 2381 3103 1925 3103 
Q 1469 3103 1208 2742 
Q 947 2381 947 1747 
z
" transform="scale(0.015625)"/>
      <path id="DejaVuSans-6c" d="M 603 4863 
L 1178 4863 
L 1178 0 
L 603 0 
L 603 4863 
z
" transform="scale(0.015625)"/>
      <path id="DejaVuSans-29" d="M 513 4856 
L 1013 4856 
Q 1481 4119 1714 3412 
Q 1947 2706 1947 2009 
Q 1947 1309 1714 600 
Q 1481 -109 1013 -844 
L 513 -844 
Q 928 -128 1133 580 
Q 1338 1288 1338 2009 
Q 1338 2731 1133 3434 
Q 928 4138 513 4856 
z
" transform="scale(0.015625)"/>
     </defs>
     <use xlink:href="#DejaVuSans-4d"/>
     <use xlink:href="#DejaVuSans-61" x="86.279297"/>
     <use xlink:href="#DejaVuSans-78" x="147.558594"/>
     <use xlink:href="#DejaVuSans-69" x="206.738281"/>
     <use xlink:href="#DejaVuSans-6d" x="234.521484"/>
     <use xlink:href="#DejaVuSans-75" x="331.933594"/>
     <use xlink:href="#DejaVuSans-6d" x="395.3125"/>
     <use xlink:href="#DejaVuSans-20" x="492.724609"/>
     <use xlink:href="#DejaVuSans-74" x="524.511719"/>
     <use xlink:href="#DejaVuSans-65" x="563.720703"/>
     <use xlink:href="#DejaVuSans-6d" x="625.244141"/>
     <use xlink:href="#DejaVuSans-70" x="722.65625"/>
     <use xlink:href="#DejaVuSans-65" x="786.132812"/>
     <use xlink:href="#DejaVuSans-72" x="847.65625"/>
     <use xlink:href="#DejaVuSans-61" x="888.769531"/>
     <use xlink:href="#DejaVuSans-74" x="950.048828"/>
     <use xlink:href="#DejaVuSans-75" x="989.257812"/>
     <use xlink:href="#DejaVuSans-72" x="1052.636719"/>
     <use xlink:href="#DejaVuSans-65" x="1091.5"/>
     <use xlink:href="#DejaVuSans-20" x="1153.023438"/>
     <use xlink:href="#DejaVuSans-70" x="1184.810547"/>
     <use xlink:href="#DejaVuSans-72" x="1248.287109"/>
     <use xlink:href="#DejaVuSans-6f" x="1287.150391"/>
     <use xlink:href="#DejaVuSans-6a" x="1348.332031"/>
     <use xlink:href="#DejaVuSans-65" x="1376.115234"/>
     <use xlink:href="#DejaVuSans-63" x="1437.638672"/>
     <use xlink:href="#DejaVuSans-74" x="1492.619141"/>
     <use xlink:href="#DejaVuSans-69" x="1531.828125"/>
     <use xlink:href="#DejaVuSans-6f" x="1559.611328"/>
     <use xlink:href="#DejaVuSans-6e" x="1620.792969"/>
     <use xlink:href="#DejaVuSans-73" x="1684.171875"/>
     <use xlink:href="#DejaVuSans-20" x="1736.271484"/>
     <use xlink:href="#DejaVuSans-28" x="1768.058594"/>
     <use xlink:href="#DejaVuSans-38" x="1807.072266"/>
     <use xlink:href="#DejaVuSans-20" x="1870.695312"/>
     <use xlink:href="#DejaVuSans-43" x="1902.482422"/>
     <use xlink:href="#DejaVuSans-4d" x="1972.306641"/>
     <use xlink:href="#DejaVuSans-49" x="2058.585938"/>
     <use xlink:href="#DejaVuSans-50" x="2088.078125"/>
     <use xlink:href="#DejaVuSans-36" x="2148.380859"/>
     <use xlink:href="#DejaVuSans-20" x="2212.003906"/>
     <use xlink:href="#DejaVuSans-6d" x="2243.791016"/>
     <use xlink:href="#DejaVuSans-6f" x="2341.203125"/>
     <use xlink:href="#DejaVuSans-64" x="2402.384766"/>
     <use xlink:href="#DejaVuSans-65" x="2465.861328"/>
     <use xlink:href="#DejaVuSans-6c" x="2527.384766"/>
     <use xlink:href="#DejaVuSans-73" x="2555.167969"/>
     <use xlink:href="#DejaVuSans-29" x="2607.267578"/>
    </g>
   </g>
   <g id="legend_1"/>
  </g>
 </g>
 <defs>
  <clipPath id="p4582df4371">
   <rect x="69.12" y="28.8" width="768.96" height="460.8"/>
  </clipPath>
 </defs>
</svg>
