<?xml version="1.0" encoding="utf-8" standalone="no"?>
<!DOCTYPE svg PUBLIC "-//W3C//DTD SVG 1.1//EN"
  "http://www.w3.org/Graphics/SVG/1.1/DTD/svg11.dtd">
<svg xmlns:xlink="http://www.w3.org/1999/xlink" width="864pt" height="576pt" viewBox="0 0 864 576" xmlns="http://www.w3.org/2000/svg" version="1.1">
 <metadata>
  <rdf:RDF xmlns:dc="http://purl.org/dc/elements/1.1/" xmlns:cc="http://creativecommons.org/ns#" xmlns:rdf="http://www.w3.org/1999/02/22-rdf-syntax-ns#">
   <cc:Work>
    <dc:type rdf:resource="http://purl.org/dc/dcmitype/StillImage"/>
    <dc:date>2024-08-09T14:51:11.110293</dc:date>
    <dc:format>image/svg+xml</dc:format>
    <dc:creator>
     <cc:Agent>
      <dc:title>Matplotlib v3.8.3, https://matplotlib.org/</dc:title>
     </cc:Agent>
    </dc:creator>
   </cc:Work>
  </rdf:RDF>
 </metadata>
 <defs>
  <style type="text/css">*{stroke-linejoin: round; stroke-linecap: butt}</style>
 </defs>
 <g id="figure_1">
  <g id="patch_1">
   <path d="M 0 576 
L 864 576 
L 864 0 
L 0 0 
z
" style="fill: #ffffff"/>
  </g>
  <g id="axes_1">
   <g id="patch_2">
    <path d="M 69.12 489.6 
L 838.08 489.6 
L 838.08 28.8 
L 69.12 28.8 
z
" style="fill: #ffffff"/>
   </g>
   <g id="PathCollection_1">
    <defs>
     <path id="mc0311b3d98" d="M 0 1.322876 
C 0.350831 1.322876 0.68734 1.183489 0.935414 0.935414 
C 1.183489 0.68734 1.322876 0.350831 1.322876 0 
C 1.322876 -0.350831 1.183489 -0.68734 0.935414 -0.935414 
C 0.68734 -1.183489 0.350831 -1.322876 0 -1.322876 
C -0.350831 -1.322876 -0.68734 -1.183489 -0.935414 -0.935414 
C -1.183489 -0.68734 -1.322876 -0.350831 -1.322876 0 
C -1.322876 0.350831 -1.183489 0.68734 -0.935414 0.935414 
C -0.68734 1.183489 -0.350831 1.322876 0 1.322876 
z
" style="stroke: #000000"/>
    </defs>
    <g clip-path="url(#pb6a914d8ff)">
     <use xlink:href="#mc0311b3d98" x="410.53824" y="398.841504" style="stroke: #000000"/>
     <use xlink:href="#mc0311b3d98" x="413.61408" y="405.003537" style="stroke: #000000"/>
     <use xlink:href="#mc0311b3d98" x="416.68992" y="374.193372" style="stroke: #000000"/>
     <use xlink:href="#mc0311b3d98" x="419.76576" y="409.933163" style="stroke: #000000"/>
     <use xlink:href="#mc0311b3d98" x="422.8416" y="405.003537" style="stroke: #000000"/>
     <use xlink:href="#mc0311b3d98" x="425.91744" y="417.327602" style="stroke: #000000"/>
     <use xlink:href="#mc0311b3d98" x="428.99328" y="405.003537" style="stroke: #000000"/>
     <use xlink:href="#mc0311b3d98" x="432.06912" y="403.77113" style="stroke: #000000"/>
     <use xlink:href="#mc0311b3d98" x="435.14496" y="395.144284" style="stroke: #000000"/>
     <use xlink:href="#mc0311b3d98" x="438.2208" y="414.862789" style="stroke: #000000"/>
     <use xlink:href="#mc0311b3d98" x="441.29664" y="386.517438" style="stroke: #000000"/>
     <use xlink:href="#mc0311b3d98" x="444.37248" y="402.538723" style="stroke: #000000"/>
     <use xlink:href="#mc0311b3d98" x="447.44832" y="405.003537" style="stroke: #000000"/>
     <use xlink:href="#mc0311b3d98" x="450.52416" y="380.355405" style="stroke: #000000"/>
     <use xlink:href="#mc0311b3d98" x="453.6" y="427.186855" style="stroke: #000000"/>
     <use xlink:href="#mc0311b3d98" x="456.67584" y="375.425779" style="stroke: #000000"/>
     <use xlink:href="#mc0311b3d98" x="459.75168" y="435.813701" style="stroke: #000000"/>
     <use xlink:href="#mc0311b3d98" x="462.82752" y="437.046107" style="stroke: #000000"/>
     <use xlink:href="#mc0311b3d98" x="465.90336" y="419.792415" style="stroke: #000000"/>
     <use xlink:href="#mc0311b3d98" x="468.9792" y="418.560009" style="stroke: #000000"/>
     <use xlink:href="#mc0311b3d98" x="472.05504" y="425.954448" style="stroke: #000000"/>
     <use xlink:href="#mc0311b3d98" x="475.13088" y="405.003537" style="stroke: #000000"/>
     <use xlink:href="#mc0311b3d98" x="478.20672" y="333.523955" style="stroke: #000000"/>
     <use xlink:href="#mc0311b3d98" x="481.28256" y="364.33412" style="stroke: #000000"/>
     <use xlink:href="#mc0311b3d98" x="484.3584" y="417.327602" style="stroke: #000000"/>
     <use xlink:href="#mc0311b3d98" x="487.43424" y="388.982251" style="stroke: #000000"/>
     <use xlink:href="#mc0311b3d98" x="490.51008" y="427.186855" style="stroke: #000000"/>
     <use xlink:href="#mc0311b3d98" x="493.58592" y="381.587812" style="stroke: #000000"/>
     <use xlink:href="#mc0311b3d98" x="496.66176" y="402.538723" style="stroke: #000000"/>
     <use xlink:href="#mc0311b3d98" x="499.7376" y="382.820218" style="stroke: #000000"/>
     <use xlink:href="#mc0311b3d98" x="502.81344" y="392.679471" style="stroke: #000000"/>
     <use xlink:href="#mc0311b3d98" x="505.88928" y="359.404493" style="stroke: #000000"/>
     <use xlink:href="#mc0311b3d98" x="508.96512" y="400.07391" style="stroke: #000000"/>
     <use xlink:href="#mc0311b3d98" x="512.04096" y="359.404493" style="stroke: #000000"/>
     <use xlink:href="#mc0311b3d98" x="515.1168" y="374.193372" style="stroke: #000000"/>
     <use xlink:href="#mc0311b3d98" x="518.19264" y="424.722042" style="stroke: #000000"/>
     <use xlink:href="#mc0311b3d98" x="521.26848" y="397.609097" style="stroke: #000000"/>
     <use xlink:href="#mc0311b3d98" x="524.34432" y="365.566526" style="stroke: #000000"/>
     <use xlink:href="#mc0311b3d98" x="527.42016" y="385.285031" style="stroke: #000000"/>
     <use xlink:href="#mc0311b3d98" x="530.496" y="363.101713" style="stroke: #000000"/>
     <use xlink:href="#mc0311b3d98" x="533.57184" y="392.679471" style="stroke: #000000"/>
     <use xlink:href="#mc0311b3d98" x="536.64768" y="402.538723" style="stroke: #000000"/>
     <use xlink:href="#mc0311b3d98" x="539.72352" y="350.777647" style="stroke: #000000"/>
     <use xlink:href="#mc0311b3d98" x="542.79936" y="392.679471" style="stroke: #000000"/>
     <use xlink:href="#mc0311b3d98" x="545.8752" y="364.33412" style="stroke: #000000"/>
     <use xlink:href="#mc0311b3d98" x="548.95104" y="381.587812" style="stroke: #000000"/>
     <use xlink:href="#mc0311b3d98" x="552.02688" y="350.777647" style="stroke: #000000"/>
     <use xlink:href="#mc0311b3d98" x="555.10272" y="405.003537" style="stroke: #000000"/>
     <use xlink:href="#mc0311b3d98" x="558.17856" y="384.052625" style="stroke: #000000"/>
     <use xlink:href="#mc0311b3d98" x="561.2544" y="371.728559" style="stroke: #000000"/>
     <use xlink:href="#mc0311b3d98" x="564.33024" y="382.820218" style="stroke: #000000"/>
     <use xlink:href="#mc0311b3d98" x="567.40608" y="326.129516" style="stroke: #000000"/>
     <use xlink:href="#mc0311b3d98" x="570.48192" y="347.080428" style="stroke: #000000"/>
     <use xlink:href="#mc0311b3d98" x="573.55776" y="386.517438" style="stroke: #000000"/>
     <use xlink:href="#mc0311b3d98" x="576.6336" y="340.918395" style="stroke: #000000"/>
     <use xlink:href="#mc0311b3d98" x="579.70944" y="380.355405" style="stroke: #000000"/>
     <use xlink:href="#mc0311b3d98" x="582.78528" y="365.566526" style="stroke: #000000"/>
     <use xlink:href="#mc0311b3d98" x="585.86112" y="376.658185" style="stroke: #000000"/>
     <use xlink:href="#mc0311b3d98" x="588.93696" y="339.685988" style="stroke: #000000"/>
     <use xlink:href="#mc0311b3d98" x="592.0128" y="385.285031" style="stroke: #000000"/>
     <use xlink:href="#mc0311b3d98" x="595.08864" y="403.77113" style="stroke: #000000"/>
     <use xlink:href="#mc0311b3d98" x="598.16448" y="354.474867" style="stroke: #000000"/>
    </g>
   </g>
   <g id="PolyCollection_1">
    <defs>
     <path id="mef0d4ec9a8" d="M 69.12 -483.562835 
L 69.12 -151.905708 
L 72.19584 -150.86075 
L 75.27168 -165.821093 
L 78.34752 -131.954998 
L 81.42336 -136.522477 
L 84.4992 -136.955181 
L 87.57504 -149.4726 
L 90.65088 -125.352852 
L 93.72672 -142.368548 
L 96.80256 -154.9144 
L 99.8784 -145.429781 
L 102.95424 -132.489964 
L 106.03008 -135.637061 
L 109.10592 -132.153805 
L 112.18176 -139.574534 
L 115.2576 -140.043945 
L 118.33344 -138.280183 
L 121.40928 -142.966585 
L 124.48512 -124.799871 
L 127.56096 -143.763731 
L 130.6368 -118.390026 
L 133.71264 -123.646785 
L 136.78848 -145.472168 
L 139.86432 -144.560688 
L 142.94016 -138.665912 
L 146.016 -138.196313 
L 149.09184 -134.178881 
L 152.16768 -127.901423 
L 155.24352 -133.178867 
L 158.31936 -140.399736 
L 161.3952 -121.094378 
L 164.47104 -116.5615 
L 167.54688 -157.152914 
L 170.62272 -127.478347 
L 173.69856 -130.998236 
L 176.7744 -134.969896 
L 179.85024 -134.585484 
L 182.92608 -137.881178 
L 186.00192 -127.038949 
L 189.07776 -130.926024 
L 192.1536 -126.886027 
L 195.22944 -146.356042 
L 198.30528 -131.226115 
L 201.38112 -137.472394 
L 204.45696 -135.091113 
L 207.5328 -119.748276 
L 210.60864 -142.224765 
L 213.68448 -134.185689 
L 216.76032 -146.369055 
L 219.83616 -130.388614 
L 222.912 -125.052574 
L 225.98784 -142.053676 
L 229.06368 -146.638682 
L 232.13952 -127.830415 
L 235.21536 -121.133154 
L 238.2912 -127.721534 
L 241.36704 -135.780844 
L 244.44288 -134.296262 
L 247.51872 -138.185105 
L 250.59456 -134.227849 
L 253.6704 -125.551659 
L 256.74624 -152.907151 
L 259.82208 -128.513564 
L 262.89792 -137.053606 
L 265.97376 -126.424476 
L 269.0496 -134.513498 
L 272.12544 -133.903087 
L 275.20128 -130.007211 
L 278.27712 -135.499822 
L 281.35296 -119.250168 
L 284.4288 -120.559337 
L 287.50464 -135.564624 
L 290.58048 -141.909705 
L 293.65632 -128.895119 
L 296.73216 -142.231008 
L 299.808 -142.379492 
L 302.88384 -128.2096 
L 305.95968 -124.800022 
L 309.03552 -129.162188 
L 312.11136 -127.752938 
L 315.1872 -140.113862 
L 318.26304 -135.633751 
L 321.33888 -146.453038 
L 324.41472 -113.170388 
L 327.49056 -149.65027 
L 330.5664 -134.758941 
L 333.64224 -138.75501 
L 336.71808 -144.906889 
L 339.79392 -132.850983 
L 342.86976 -148.496393 
L 345.9456 -136.54241 
L 349.02144 -129.512713 
L 352.09728 -127.532544 
L 355.17312 -129.77824 
L 358.24896 -139.419956 
L 361.3248 -129.804944 
L 364.40064 -127.817477 
L 367.47648 -135.06708 
L 370.55232 -143.570377 
L 373.62816 -149.027936 
L 376.704 -141.383615 
L 379.77984 -120.055625 
L 382.85568 -136.592357 
L 385.93152 -131.135174 
L 389.00736 -136.682997 
L 392.0832 -144.133099 
L 395.15904 -140.536975 
L 398.23488 -127.352579 
L 401.31072 -135.1763 
L 404.38656 -137.099303 
L 407.4624 -133.054415 
L 410.53824 -116.526184 
L 413.61408 -120.668632 
L 416.68992 -124.483571 
L 419.76576 -132.982994 
L 422.8416 -121.286264 
L 425.91744 -125.9841 
L 428.99328 -124.249824 
L 432.06912 -128.956874 
L 435.14496 -147.453316 
L 438.2208 -132.044172 
L 441.29664 -123.873724 
L 444.37248 -126.406235 
L 447.44832 -135.546646 
L 450.52416 -137.4528 
L 453.6 -122.068892 
L 456.67584 -123.875567 
L 459.75168 -107.345455 
L 462.82752 -138.814735 
L 465.90336 -132.60144 
L 468.9792 -159.815593 
L 472.05504 -124.235909 
L 475.13088 -129.143082 
L 478.20672 -147.105686 
L 481.28256 -131.540949 
L 484.3584 -127.35871 
L 487.43424 -118.6161 
L 490.51008 -114.896051 
L 493.58592 -129.227178 
L 496.66176 -129.14925 
L 499.7376 -140.756881 
L 502.81344 -144.527478 
L 505.88928 -139.346203 
L 508.96512 -141.987257 
L 512.04096 -128.926109 
L 515.1168 -119.416217 
L 518.19264 -135.355512 
L 521.26848 -131.433535 
L 524.34432 -142.848151 
L 527.42016 -129.014342 
L 530.496 -138.983191 
L 533.57184 -127.374544 
L 536.64768 -137.385214 
L 539.72352 -157.241937 
L 542.79936 -142.6469 
L 545.8752 -137.567097 
L 548.95104 -145.839769 
L 552.02688 -141.026395 
L 555.10272 -149.080966 
L 558.17856 -127.841623 
L 561.2544 -162.583393 
L 564.33024 -149.788901 
L 567.40608 -152.573926 
L 570.48192 -144.024105 
L 573.55776 -148.503539 
L 573.55776 -476.987468 
L 573.55776 -476.987468 
L 570.48192 -512.205833 
L 567.40608 -449.477022 
L 564.33024 -474.390606 
L 561.2544 -443.869249 
L 558.17856 -466.900298 
L 555.10272 -476.984873 
L 552.02688 -459.206821 
L 548.95104 -446.528582 
L 545.8752 -450.124405 
L 542.79936 -458.693444 
L 539.72352 -461.396479 
L 536.64768 -495.189836 
L 533.57184 -451.5109 
L 530.496 -460.846206 
L 527.42016 -439.239187 
L 524.34432 -480.444058 
L 521.26848 -434.664186 
L 518.19264 -448.98591 
L 515.1168 -447.461085 
L 512.04096 -439.851065 
L 508.96512 -429.127007 
L 505.88928 -427.947066 
L 502.81344 -433.046239 
L 499.7376 -444.777194 
L 496.66176 -464.372413 
L 493.58592 -488.463126 
L 490.51008 -432.060629 
L 487.43424 -437.878192 
L 484.3584 -437.047122 
L 481.28256 -438.172603 
L 478.20672 -416.770672 
L 475.13088 -432.017904 
L 472.05504 -483.853674 
L 468.9792 -438.338351 
L 465.90336 -445.502654 
L 462.82752 -446.058192 
L 459.75168 -440.237621 
L 456.67584 -437.434054 
L 453.6 -448.583182 
L 450.52416 -450.424608 
L 447.44832 -446.029458 
L 444.37248 -453.270562 
L 441.29664 -432.413637 
L 438.2208 -429.791577 
L 435.14496 -430.379723 
L 432.06912 -436.89277 
L 428.99328 -442.746213 
L 425.91744 -427.872974 
L 422.8416 -441.777753 
L 419.76576 -458.682988 
L 416.68992 -435.402283 
L 413.61408 -473.303562 
L 410.53824 -501.678926 
L 407.4624 -430.573941 
L 404.38656 -465.988555 
L 401.31072 -448.699585 
L 398.23488 -429.395204 
L 395.15904 -492.311425 
L 392.0832 -441.393604 
L 389.00736 -455.727815 
L 385.93152 -434.947879 
L 382.85568 -490.212445 
L 379.77984 -451.74017 
L 376.704 -433.861324 
L 373.62816 -474.564928 
L 370.55232 -485.090556 
L 367.47648 -429.509727 
L 364.40064 -438.685868 
L 361.3248 -488.351462 
L 358.24896 -444.847524 
L 355.17312 -430.633177 
L 352.09728 -446.077374 
L 349.02144 -489.289457 
L 345.9456 -428.847451 
L 342.86976 -435.478858 
L 339.79392 -452.260092 
L 336.71808 -445.301478 
L 333.64224 -469.562602 
L 330.5664 -436.451078 
L 327.49056 -433.460702 
L 324.41472 -471.352089 
L 321.33888 -450.851971 
L 318.26304 -474.040456 
L 315.1872 -464.999749 
L 312.11136 -432.659231 
L 309.03552 -427.452494 
L 305.95968 -433.488495 
L 302.88384 -447.137902 
L 299.808 -496.154196 
L 296.73216 -474.541535 
L 293.65632 -431.214629 
L 290.58048 -442.723985 
L 287.50464 -448.68864 
L 284.4288 -429.501678 
L 281.35296 -430.305029 
L 278.27712 -430.854399 
L 275.20128 -456.099064 
L 272.12544 -456.681418 
L 269.0496 -443.526321 
L 265.97376 -446.719039 
L 262.89792 -440.738512 
L 259.82208 -421.28591 
L 256.74624 -429.196059 
L 253.6704 -429.122193 
L 250.59456 -427.268844 
L 247.51872 -457.812165 
L 244.44288 -450.823237 
L 241.36704 -478.280991 
L 238.2912 -433.046051 
L 235.21536 -436.301239 
L 232.13952 -471.485228 
L 229.06368 -451.70572 
L 225.98784 -491.285047 
L 222.912 -460.090319 
L 219.83616 -439.541083 
L 216.76032 -434.874389 
L 213.68448 -484.083697 
L 210.60864 -437.762315 
L 207.5328 -451.209267 
L 204.45696 -466.470867 
L 201.38112 -446.729081 
L 198.30528 -447.773587 
L 195.22944 -475.114073 
L 192.1536 -428.338625 
L 189.07776 -462.623921 
L 186.00192 -429.794134 
L 182.92608 -438.961399 
L 179.85024 -441.229963 
L 176.7744 -425.108409 
L 173.69856 -427.906071 
L 170.62272 -455.638679 
L 167.54688 -460.479471 
L 164.47104 -484.080989 
L 161.3952 -430.002231 
L 158.31936 -432.353198 
L 155.24352 -449.009341 
L 152.16768 -472.015154 
L 149.09184 -450.401929 
L 146.016 -450.538905 
L 142.94016 -473.879147 
L 139.86432 -492.403607 
L 136.78848 -431.044706 
L 133.71264 -432.774355 
L 130.6368 -432.225098 
L 127.56096 -460.140265 
L 124.48512 -457.088209 
L 121.40928 -458.417762 
L 118.33344 -451.445985 
L 115.2576 -475.947888 
L 112.18176 -444.682191 
L 109.10592 -465.058421 
L 106.03008 -449.710205 
L 102.95424 -470.203665 
L 99.8784 -449.225374 
L 96.80256 -433.131689 
L 93.72672 -446.375471 
L 90.65088 -480.7402 
L 87.57504 -489.892421 
L 84.4992 -471.26284 
L 81.42336 -465.424479 
L 78.34752 -466.766218 
L 75.27168 -420.303648 
L 72.19584 -447.930534 
L 69.12 -483.562835 
z
" style="stroke: #777777; stroke-opacity: 0.03"/>
    </defs>
    <g clip-path="url(#pb6a914d8ff)">
     <use xlink:href="#mef0d4ec9a8" x="0" y="576" style="fill: #777777; fill-opacity: 0.03; stroke: #777777; stroke-opacity: 0.03"/>
    </g>
   </g>
   <g id="PolyCollection_2">
    <defs>
     <path id="m33f29af0e8" d="M 576.6336 -437.876386 
L 576.6336 -134.184109 
L 579.70944 -132.533178 
L 582.78528 -133.047834 
L 585.86112 -147.256164 
L 588.93696 -149.3958 
L 592.0128 -135.335579 
L 595.08864 -143.554957 
L 598.16448 -152.492462 
L 601.24032 -136.214263 
L 604.31616 -132.367581 
L 607.392 -138.800895 
L 610.46784 -143.820635 
L 613.54368 -124.475485 
L 616.61952 -165.565457 
L 619.69536 -142.433688 
L 622.7712 -149.676221 
L 625.84704 -152.733505 
L 628.92288 -137.899231 
L 631.99872 -133.435593 
L 635.07456 -150.284075 
L 638.1504 -151.520882 
L 641.22624 -150.946275 
L 644.30208 -139.437972 
L 647.37792 -169.977832 
L 650.45376 -154.035867 
L 653.5296 -159.458222 
L 656.60544 -142.880571 
L 659.68128 -145.062369 
L 662.75712 -159.565336 
L 665.83296 -173.208612 
L 668.9088 -174.506122 
L 671.98464 -154.560151 
L 675.06048 -150.474983 
L 678.13632 -151.877876 
L 681.21216 -128.840584 
L 684.288 -167.798555 
L 687.36384 -152.3729 
L 690.43968 -144.344769 
L 693.51552 -143.34498 
L 696.59136 -155.190044 
L 699.6672 -166.61271 
L 702.74304 -135.587679 
L 705.81888 -162.356003 
L 708.89472 -144.702854 
L 711.97056 -169.164327 
L 715.0464 -162.477746 
L 718.12224 -186.811458 
L 721.19808 -163.514242 
L 724.27392 -151.694678 
L 727.34976 -170.752111 
L 730.4256 -151.992173 
L 733.50144 -154.414638 
L 736.57728 -166.367342 
L 739.65312 -161.638215 
L 742.72896 -150.735546 
L 745.8048 -173.789349 
L 748.88064 -143.806117 
L 751.95648 -170.850612 
L 755.03232 -171.547639 
L 758.10816 -167.72751 
L 761.184 -171.780069 
L 764.25984 -181.487001 
L 767.33568 -167.569397 
L 770.41152 -158.242515 
L 773.48736 -151.369351 
L 776.5632 -178.454727 
L 779.63904 -180.775644 
L 782.71488 -169.011893 
L 785.79072 -163.509014 
L 788.86656 -162.052339 
L 791.9424 -164.816303 
L 795.01824 -176.355747 
L 798.09408 -156.517529 
L 801.16992 -189.305155 
L 804.24576 -167.110103 
L 807.3216 -172.341775 
L 810.39744 -182.446471 
L 813.47328 -184.495919 
L 816.54912 -150.422028 
L 819.62496 -172.760112 
L 822.7008 -180.759209 
L 825.77664 -147.859768 
L 828.85248 -169.039913 
L 831.92832 -193.838334 
L 835.00416 -190.495589 
L 838.08 -168.618304 
L 838.08 -487.200368 
L 838.08 -487.200368 
L 835.00416 -498.553154 
L 831.92832 -492.435689 
L 828.85248 -497.514401 
L 825.77664 -515.679084 
L 822.7008 -498.19834 
L 819.62496 -493.512691 
L 816.54912 -507.805267 
L 813.47328 -495.546944 
L 810.39744 -495.486956 
L 807.3216 -494.418529 
L 804.24576 -498.839968 
L 801.16992 -506.932413 
L 798.09408 -494.660851 
L 795.01824 -506.222222 
L 791.9424 -493.918691 
L 788.86656 -526.254545 
L 785.79072 -500.954707 
L 782.71488 -485.985149 
L 779.63904 -497.340793 
L 776.5632 -481.155641 
L 773.48736 -494.412624 
L 770.41152 -496.96473 
L 767.33568 -499.926598 
L 764.25984 -488.37839 
L 761.184 -488.805453 
L 758.10816 -494.476411 
L 755.03232 -475.013165 
L 751.95648 -481.731827 
L 748.88064 -489.185389 
L 745.8048 -485.643048 
L 742.72896 -489.599175 
L 739.65312 -494.83506 
L 736.57728 -485.489148 
L 733.50144 -489.221119 
L 730.4256 -491.59281 
L 727.34976 -485.447476 
L 724.27392 -484.83744 
L 721.19808 -477.48362 
L 718.12224 -489.75379 
L 715.0464 -491.084622 
L 711.97056 -483.618235 
L 708.89472 -486.172146 
L 705.81888 -485.154268 
L 702.74304 -483.67025 
L 699.6672 -486.758675 
L 696.59136 -479.78513 
L 693.51552 -489.270012 
L 690.43968 -479.611936 
L 687.36384 -493.543268 
L 684.288 -478.053939 
L 681.21216 -481.785986 
L 678.13632 -478.117951 
L 675.06048 -468.021229 
L 671.98464 -477.60935 
L 668.9088 -464.79579 
L 665.83296 -463.925305 
L 662.75712 -465.529637 
L 659.68128 -476.241886 
L 656.60544 -473.359413 
L 653.5296 -482.703295 
L 650.45376 -489.919688 
L 647.37792 -466.781451 
L 644.30208 -462.776016 
L 641.22624 -461.082849 
L 638.1504 -468.285966 
L 635.07456 -470.703278 
L 631.99872 -463.087202 
L 628.92288 -458.127638 
L 625.84704 -460.892655 
L 622.7712 -461.581934 
L 619.69536 -455.543037 
L 616.61952 -455.788443 
L 613.54368 -469.359808 
L 610.46784 -464.205161 
L 607.392 -473.578078 
L 604.31616 -456.645237 
L 601.24032 -461.886012 
L 598.16448 -452.400866 
L 595.08864 -446.676088 
L 592.0128 -457.636789 
L 588.93696 -439.6151 
L 585.86112 -448.241193 
L 582.78528 -451.185422 
L 579.70944 -433.883063 
L 576.6336 -437.876386 
z
" style="stroke: #3db5af; stroke-opacity: 0.07"/>
    </defs>
    <g clip-path="url(#pb6a914d8ff)">
     <use xlink:href="#m33f29af0e8" x="0" y="576" style="fill: #3db5af; fill-opacity: 0.07; stroke: #3db5af; stroke-opacity: 0.07"/>
    </g>
   </g>
   <g id="matplotlib.axis_1">
    <g id="xtick_1">
     <g id="line2d_1">
      <defs>
       <path id="ma1a728f5d7" d="M 0 0 
L 0 3.5 
" style="stroke: #717174; stroke-width: 0.8"/>
      </defs>
      <g>
       <use xlink:href="#ma1a728f5d7" x="69.12" y="489.6" style="fill: #717174; stroke: #717174; stroke-width: 0.8"/>
      </g>
     </g>
     <g id="text_1">
      <!-- 1850 -->
      <g style="fill: #717174" transform="translate(53.85 505.718125) scale(0.12 -0.12)">
       <defs>
        <path id="DejaVuSans-31" d="M 794 531 
L 1825 531 
L 1825 4091 
L 703 3866 
L 703 4441 
L 1819 4666 
L 2450 4666 
L 2450 531 
L 3481 531 
L 3481 0 
L 794 0 
L 794 531 
z
" transform="scale(0.015625)"/>
        <path id="DejaVuSans-38" d="M 2034 2216 
Q 1584 2216 1326 1975 
Q 1069 1734 1069 1313 
Q 1069 891 1326 650 
Q 1584 409 2034 409 
Q 2484 409 2743 651 
Q 3003 894 3003 1313 
Q 3003 1734 2745 1975 
Q 2488 2216 2034 2216 
z
M 1403 2484 
Q 997 2584 770 2862 
Q 544 3141 544 3541 
Q 544 4100 942 4425 
Q 1341 4750 2034 4750 
Q 2731 4750 3128 4425 
Q 3525 4100 3525 3541 
Q 3525 3141 3298 2862 
Q 3072 2584 2669 2484 
Q 3125 2378 3379 2068 
Q 3634 1759 3634 1313 
Q 3634 634 3220 271 
Q 2806 -91 2034 -91 
Q 1263 -91 848 271 
Q 434 634 434 1313 
Q 434 1759 690 2068 
Q 947 2378 1403 2484 
z
M 1172 3481 
Q 1172 3119 1398 2916 
Q 1625 2713 2034 2713 
Q 2441 2713 2670 2916 
Q 2900 3119 2900 3481 
Q 2900 3844 2670 4047 
Q 2441 4250 2034 4250 
Q 1625 4250 1398 4047 
Q 1172 3844 1172 3481 
z
" transform="scale(0.015625)"/>
        <path id="DejaVuSans-35" d="M 691 4666 
L 3169 4666 
L 3169 4134 
L 1269 4134 
L 1269 2991 
Q 1406 3038 1543 3061 
Q 1681 3084 1819 3084 
Q 2600 3084 3056 2656 
Q 3513 2228 3513 1497 
Q 3513 744 3044 326 
Q 2575 -91 1722 -91 
Q 1428 -91 1123 -41 
Q 819 9 494 109 
L 494 744 
Q 775 591 1075 516 
Q 1375 441 1709 441 
Q 2250 441 2565 725 
Q 2881 1009 2881 1497 
Q 2881 1984 2565 2268 
Q 2250 2553 1709 2553 
Q 1456 2553 1204 2497 
Q 953 2441 691 2322 
L 691 4666 
z
" transform="scale(0.015625)"/>
        <path id="DejaVuSans-30" d="M 2034 4250 
Q 1547 4250 1301 3770 
Q 1056 3291 1056 2328 
Q 1056 1369 1301 889 
Q 1547 409 2034 409 
Q 2525 409 2770 889 
Q 3016 1369 3016 2328 
Q 3016 3291 2770 3770 
Q 2525 4250 2034 4250 
z
M 2034 4750 
Q 2819 4750 3233 4129 
Q 3647 3509 3647 2328 
Q 3647 1150 3233 529 
Q 2819 -91 2034 -91 
Q 1250 -91 836 529 
Q 422 1150 422 2328 
Q 422 3509 836 4129 
Q 1250 4750 2034 4750 
z
" transform="scale(0.015625)"/>
       </defs>
       <use xlink:href="#DejaVuSans-31"/>
       <use xlink:href="#DejaVuSans-38" x="63.623047"/>
       <use xlink:href="#DejaVuSans-35" x="127.246094"/>
       <use xlink:href="#DejaVuSans-30" x="190.869141"/>
      </g>
     </g>
    </g>
    <g id="xtick_2">
     <g id="line2d_2">
      <g>
       <use xlink:href="#ma1a728f5d7" x="222.912" y="489.6" style="fill: #717174; stroke: #717174; stroke-width: 0.8"/>
      </g>
     </g>
     <g id="text_2">
      <!-- 1900 -->
      <g style="fill: #717174" transform="translate(207.642 505.718125) scale(0.12 -0.12)">
       <defs>
        <path id="DejaVuSans-39" d="M 703 97 
L 703 672 
Q 941 559 1184 500 
Q 1428 441 1663 441 
Q 2288 441 2617 861 
Q 2947 1281 2994 2138 
Q 2813 1869 2534 1725 
Q 2256 1581 1919 1581 
Q 1219 1581 811 2004 
Q 403 2428 403 3163 
Q 403 3881 828 4315 
Q 1253 4750 1959 4750 
Q 2769 4750 3195 4129 
Q 3622 3509 3622 2328 
Q 3622 1225 3098 567 
Q 2575 -91 1691 -91 
Q 1453 -91 1209 -44 
Q 966 3 703 97 
z
M 1959 2075 
Q 2384 2075 2632 2365 
Q 2881 2656 2881 3163 
Q 2881 3666 2632 3958 
Q 2384 4250 1959 4250 
Q 1534 4250 1286 3958 
Q 1038 3666 1038 3163 
Q 1038 2656 1286 2365 
Q 1534 2075 1959 2075 
z
" transform="scale(0.015625)"/>
       </defs>
       <use xlink:href="#DejaVuSans-31"/>
       <use xlink:href="#DejaVuSans-39" x="63.623047"/>
       <use xlink:href="#DejaVuSans-30" x="127.246094"/>
       <use xlink:href="#DejaVuSans-30" x="190.869141"/>
      </g>
     </g>
    </g>
    <g id="xtick_3">
     <g id="line2d_3">
      <g>
       <use xlink:href="#ma1a728f5d7" x="376.704" y="489.6" style="fill: #717174; stroke: #717174; stroke-width: 0.8"/>
      </g>
     </g>
     <g id="text_3">
      <!-- 1950 -->
      <g style="fill: #717174" transform="translate(361.434 505.718125) scale(0.12 -0.12)">
       <use xlink:href="#DejaVuSans-31"/>
       <use xlink:href="#DejaVuSans-39" x="63.623047"/>
       <use xlink:href="#DejaVuSans-35" x="127.246094"/>
       <use xlink:href="#DejaVuSans-30" x="190.869141"/>
      </g>
     </g>
    </g>
    <g id="xtick_4">
     <g id="line2d_4">
      <g>
       <use xlink:href="#ma1a728f5d7" x="530.496" y="489.6" style="fill: #717174; stroke: #717174; stroke-width: 0.8"/>
      </g>
     </g>
     <g id="text_4">
      <!-- 2000 -->
      <g style="fill: #717174" transform="translate(515.226 505.718125) scale(0.12 -0.12)">
       <defs>
        <path id="DejaVuSans-32" d="M 1228 531 
L 3431 531 
L 3431 0 
L 469 0 
L 469 531 
Q 828 903 1448 1529 
Q 2069 2156 2228 2338 
Q 2531 2678 2651 2914 
Q 2772 3150 2772 3378 
Q 2772 3750 2511 3984 
Q 2250 4219 1831 4219 
Q 1534 4219 1204 4116 
Q 875 4013 500 3803 
L 500 4441 
Q 881 4594 1212 4672 
Q 1544 4750 1819 4750 
Q 2544 4750 2975 4387 
Q 3406 4025 3406 3419 
Q 3406 3131 3298 2873 
Q 3191 2616 2906 2266 
Q 2828 2175 2409 1742 
Q 1991 1309 1228 531 
z
" transform="scale(0.015625)"/>
       </defs>
       <use xlink:href="#DejaVuSans-32"/>
       <use xlink:href="#DejaVuSans-30" x="63.623047"/>
       <use xlink:href="#DejaVuSans-30" x="127.246094"/>
       <use xlink:href="#DejaVuSans-30" x="190.869141"/>
      </g>
     </g>
    </g>
    <g id="xtick_5">
     <g id="line2d_5">
      <g>
       <use xlink:href="#ma1a728f5d7" x="576.6336" y="489.6" style="fill: #717174; stroke: #717174; stroke-width: 0.8"/>
      </g>
     </g>
     <g id="text_5">
      <!-- 2015 -->
      <g style="fill: #717174" transform="translate(561.3636 505.718125) scale(0.12 -0.12)">
       <use xlink:href="#DejaVuSans-32"/>
       <use xlink:href="#DejaVuSans-30" x="63.623047"/>
       <use xlink:href="#DejaVuSans-31" x="127.246094"/>
       <use xlink:href="#DejaVuSans-35" x="190.869141"/>
      </g>
     </g>
    </g>
    <g id="xtick_6">
     <g id="line2d_6">
      <g>
       <use xlink:href="#ma1a728f5d7" x="684.288" y="489.6" style="fill: #717174; stroke: #717174; stroke-width: 0.8"/>
      </g>
     </g>
     <g id="text_6">
      <!-- 2050 -->
      <g style="fill: #717174" transform="translate(669.018 505.718125) scale(0.12 -0.12)">
       <use xlink:href="#DejaVuSans-32"/>
       <use xlink:href="#DejaVuSans-30" x="63.623047"/>
       <use xlink:href="#DejaVuSans-35" x="127.246094"/>
       <use xlink:href="#DejaVuSans-30" x="190.869141"/>
      </g>
     </g>
    </g>
    <g id="xtick_7">
     <g id="line2d_7">
      <g>
       <use xlink:href="#ma1a728f5d7" x="761.184" y="489.6" style="fill: #717174; stroke: #717174; stroke-width: 0.8"/>
      </g>
     </g>
     <g id="text_7">
      <!-- 2075 -->
      <g style="fill: #717174" transform="translate(745.914 505.718125) scale(0.12 -0.12)">
       <defs>
        <path id="DejaVuSans-37" d="M 525 4666 
L 3525 4666 
L 3525 4397 
L 1831 0 
L 1172 0 
L 2766 4134 
L 525 4134 
L 525 4666 
z
" transform="scale(0.015625)"/>
       </defs>
       <use xlink:href="#DejaVuSans-32"/>
       <use xlink:href="#DejaVuSans-30" x="63.623047"/>
       <use xlink:href="#DejaVuSans-37" x="127.246094"/>
       <use xlink:href="#DejaVuSans-35" x="190.869141"/>
      </g>
     </g>
    </g>
    <g id="xtick_8">
     <g id="line2d_8">
      <g>
       <use xlink:href="#ma1a728f5d7" x="838.08" y="489.6" style="fill: #717174; stroke: #717174; stroke-width: 0.8"/>
      </g>
     </g>
     <g id="text_8">
      <!-- 2100 -->
      <g style="fill: #717174" transform="translate(807.54 505.718125) scale(0.12 -0.12)">
       <use xlink:href="#DejaVuSans-32"/>
       <use xlink:href="#DejaVuSans-31" x="63.623047"/>
       <use xlink:href="#DejaVuSans-30" x="127.246094"/>
       <use xlink:href="#DejaVuSans-30" x="190.869141"/>
      </g>
     </g>
    </g>
    <g id="xtick_9">
     <g id="line2d_9">
      <defs>
       <path id="m7d28b17adb" d="M 0 0 
L 0 2 
" style="stroke: #ffffff; stroke-width: 0.6"/>
      </defs>
      <g>
       <use xlink:href="#m7d28b17adb" x="146.016" y="489.6" style="fill: #ffffff; stroke: #ffffff; stroke-width: 0.6"/>
      </g>
     </g>
     <g id="text_9">
      <!-- Pre-industrial -->
      <g style="fill: #b2b2b2" transform="translate(111.483885 548.363148) rotate(-25) scale(0.11 -0.11)">
       <defs>
        <path id="DejaVuSans-Oblique-50" d="M 1081 4666 
L 2541 4666 
Q 3178 4666 3512 4369 
Q 3847 4072 3847 3500 
Q 3847 2731 3353 2303 
Q 2859 1875 1966 1875 
L 1172 1875 
L 806 0 
L 172 0 
L 1081 4666 
z
M 1613 4147 
L 1275 2394 
L 2069 2394 
Q 2606 2394 2893 2669 
Q 3181 2944 3181 3456 
Q 3181 3784 2986 3965 
Q 2791 4147 2438 4147 
L 1613 4147 
z
" transform="scale(0.015625)"/>
        <path id="DejaVuSans-Oblique-72" d="M 2853 2969 
Q 2766 3016 2653 3041 
Q 2541 3066 2413 3066 
Q 1953 3066 1609 2717 
Q 1266 2369 1153 1784 
L 800 0 
L 225 0 
L 909 3500 
L 1484 3500 
L 1375 2956 
Q 1603 3259 1920 3421 
Q 2238 3584 2597 3584 
Q 2691 3584 2781 3573 
Q 2872 3563 2963 3538 
L 2853 2969 
z
" transform="scale(0.015625)"/>
        <path id="DejaVuSans-Oblique-65" d="M 3078 2063 
Q 3088 2113 3092 2166 
Q 3097 2219 3097 2272 
Q 3097 2653 2873 2875 
Q 2650 3097 2266 3097 
Q 1838 3097 1509 2826 
Q 1181 2556 1013 2059 
L 3078 2063 
z
M 3578 1613 
L 903 1613 
Q 884 1494 878 1425 
Q 872 1356 872 1306 
Q 872 872 1139 634 
Q 1406 397 1894 397 
Q 2269 397 2603 481 
Q 2938 566 3225 728 
L 3116 159 
Q 2806 34 2476 -28 
Q 2147 -91 1806 -91 
Q 1078 -91 686 257 
Q 294 606 294 1247 
Q 294 1794 489 2264 
Q 684 2734 1063 3103 
Q 1306 3334 1642 3459 
Q 1978 3584 2356 3584 
Q 2950 3584 3301 3228 
Q 3653 2872 3653 2272 
Q 3653 2128 3634 1964 
Q 3616 1800 3578 1613 
z
" transform="scale(0.015625)"/>
        <path id="DejaVuSans-Oblique-2d" d="M 391 2009 
L 2075 2009 
L 1978 1497 
L 288 1497 
L 391 2009 
z
" transform="scale(0.015625)"/>
        <path id="DejaVuSans-Oblique-69" d="M 1172 4863 
L 1747 4863 
L 1606 4134 
L 1031 4134 
L 1172 4863 
z
M 909 3500 
L 1484 3500 
L 800 0 
L 225 0 
L 909 3500 
z
" transform="scale(0.015625)"/>
        <path id="DejaVuSans-Oblique-6e" d="M 3566 2113 
L 3156 0 
L 2578 0 
L 2988 2091 
Q 3016 2238 3031 2350 
Q 3047 2463 3047 2528 
Q 3047 2791 2881 2937 
Q 2716 3084 2419 3084 
Q 1956 3084 1622 2776 
Q 1288 2469 1184 1941 
L 800 0 
L 225 0 
L 903 3500 
L 1478 3500 
L 1363 2950 
Q 1603 3253 1940 3418 
Q 2278 3584 2650 3584 
Q 3113 3584 3367 3334 
Q 3622 3084 3622 2631 
Q 3622 2519 3608 2391 
Q 3594 2263 3566 2113 
z
" transform="scale(0.015625)"/>
        <path id="DejaVuSans-Oblique-64" d="M 2675 525 
Q 2444 222 2128 65 
Q 1813 -91 1428 -91 
Q 903 -91 598 267 
Q 294 625 294 1247 
Q 294 1766 478 2236 
Q 663 2706 1013 3078 
Q 1244 3325 1534 3454 
Q 1825 3584 2144 3584 
Q 2481 3584 2739 3421 
Q 2997 3259 3138 2956 
L 3513 4863 
L 4091 4863 
L 3144 0 
L 2566 0 
L 2675 525 
z
M 891 1350 
Q 891 897 1095 644 
Q 1300 391 1663 391 
Q 1931 391 2161 520 
Q 2391 650 2566 903 
Q 2750 1166 2856 1509 
Q 2963 1853 2963 2188 
Q 2963 2622 2758 2865 
Q 2553 3109 2194 3109 
Q 1922 3109 1687 2981 
Q 1453 2853 1288 2613 
Q 1106 2353 998 2009 
Q 891 1666 891 1350 
z
" transform="scale(0.015625)"/>
        <path id="DejaVuSans-Oblique-75" d="M 428 1388 
L 838 3500 
L 1416 3500 
L 1006 1409 
Q 975 1256 961 1147 
Q 947 1038 947 966 
Q 947 700 1109 554 
Q 1272 409 1569 409 
Q 2031 409 2368 721 
Q 2706 1034 2809 1563 
L 3194 3500 
L 3769 3500 
L 3091 0 
L 2516 0 
L 2631 550 
Q 2388 244 2052 76 
Q 1716 -91 1338 -91 
Q 878 -91 622 161 
Q 366 413 366 863 
Q 366 956 381 1097 
Q 397 1238 428 1388 
z
" transform="scale(0.015625)"/>
        <path id="DejaVuSans-Oblique-73" d="M 3200 3397 
L 3091 2853 
Q 2863 2978 2609 3040 
Q 2356 3103 2088 3103 
Q 1634 3103 1373 2948 
Q 1113 2794 1113 2528 
Q 1113 2219 1719 2053 
Q 1766 2041 1788 2034 
L 1972 1978 
Q 2547 1819 2739 1644 
Q 2931 1469 2931 1166 
Q 2931 609 2489 259 
Q 2047 -91 1331 -91 
Q 1053 -91 747 -37 
Q 441 16 72 128 
L 184 722 
Q 500 559 806 475 
Q 1113 391 1394 391 
Q 1816 391 2080 572 
Q 2344 753 2344 1031 
Q 2344 1331 1650 1516 
L 1591 1531 
L 1394 1581 
Q 956 1697 753 1886 
Q 550 2075 550 2369 
Q 550 2928 970 3256 
Q 1391 3584 2113 3584 
Q 2397 3584 2667 3537 
Q 2938 3491 3200 3397 
z
" transform="scale(0.015625)"/>
        <path id="DejaVuSans-Oblique-74" d="M 2706 3500 
L 2619 3053 
L 1472 3053 
L 1100 1153 
Q 1081 1047 1072 975 
Q 1063 903 1063 863 
Q 1063 663 1183 572 
Q 1303 481 1569 481 
L 2150 481 
L 2053 0 
L 1503 0 
Q 991 0 739 200 
Q 488 400 488 806 
Q 488 878 497 964 
Q 506 1050 525 1153 
L 897 3053 
L 409 3053 
L 500 3500 
L 978 3500 
L 1172 4494 
L 1747 4494 
L 1556 3500 
L 2706 3500 
z
" transform="scale(0.015625)"/>
        <path id="DejaVuSans-Oblique-61" d="M 3438 1997 
L 3047 0 
L 2472 0 
L 2578 531 
Q 2325 219 2001 64 
Q 1678 -91 1281 -91 
Q 834 -91 548 182 
Q 263 456 263 884 
Q 263 1497 752 1853 
Q 1241 2209 2100 2209 
L 2900 2209 
L 2931 2363 
Q 2938 2388 2941 2417 
Q 2944 2447 2944 2509 
Q 2944 2788 2717 2942 
Q 2491 3097 2081 3097 
Q 1800 3097 1504 3025 
Q 1209 2953 897 2809 
L 997 3341 
Q 1322 3463 1633 3523 
Q 1944 3584 2234 3584 
Q 2853 3584 3176 3315 
Q 3500 3047 3500 2534 
Q 3500 2431 3484 2292 
Q 3469 2153 3438 1997 
z
M 2816 1759 
L 2241 1759 
Q 1534 1759 1195 1570 
Q 856 1381 856 984 
Q 856 709 1029 553 
Q 1203 397 1509 397 
Q 1978 397 2328 733 
Q 2678 1069 2791 1631 
L 2816 1759 
z
" transform="scale(0.015625)"/>
        <path id="DejaVuSans-Oblique-6c" d="M 1172 4863 
L 1747 4863 
L 800 0 
L 225 0 
L 1172 4863 
z
" transform="scale(0.015625)"/>
       </defs>
       <use xlink:href="#DejaVuSans-Oblique-50"/>
       <use xlink:href="#DejaVuSans-Oblique-72" x="60.302734"/>
       <use xlink:href="#DejaVuSans-Oblique-65" x="101.416016"/>
       <use xlink:href="#DejaVuSans-Oblique-2d" x="162.939453"/>
       <use xlink:href="#DejaVuSans-Oblique-69" x="199.023438"/>
       <use xlink:href="#DejaVuSans-Oblique-6e" x="226.806641"/>
       <use xlink:href="#DejaVuSans-Oblique-64" x="290.185547"/>
       <use xlink:href="#DejaVuSans-Oblique-75" x="353.662109"/>
       <use xlink:href="#DejaVuSans-Oblique-73" x="417.041016"/>
       <use xlink:href="#DejaVuSans-Oblique-74" x="469.140625"/>
       <use xlink:href="#DejaVuSans-Oblique-72" x="508.349609"/>
       <use xlink:href="#DejaVuSans-Oblique-69" x="549.462891"/>
       <use xlink:href="#DejaVuSans-Oblique-61" x="577.246094"/>
       <use xlink:href="#DejaVuSans-Oblique-6c" x="638.525391"/>
      </g>
      <!-- Era -->
      <g style="fill: #b2b2b2" transform="translate(141.648038 547.888334) rotate(-25) scale(0.11 -0.11)">
       <defs>
        <path id="DejaVuSans-Oblique-45" d="M 1081 4666 
L 4031 4666 
L 3928 4134 
L 1606 4134 
L 1338 2753 
L 3566 2753 
L 3463 2222 
L 1234 2222 
L 909 531 
L 3284 531 
L 3181 0 
L 172 0 
L 1081 4666 
z
" transform="scale(0.015625)"/>
       </defs>
       <use xlink:href="#DejaVuSans-Oblique-45"/>
       <use xlink:href="#DejaVuSans-Oblique-72" x="63.183594"/>
       <use xlink:href="#DejaVuSans-Oblique-61" x="104.296875"/>
      </g>
     </g>
    </g>
    <g id="xtick_10">
     <g id="line2d_10">
      <g>
       <use xlink:href="#m7d28b17adb" x="361.3248" y="489.6" style="fill: #ffffff; stroke: #ffffff; stroke-width: 0.6"/>
      </g>
     </g>
     <g id="text_10">
      <!-- Baby -->
      <g style="fill: #b2b2b2" transform="translate(347.415294 543.933713) rotate(-25) scale(0.11 -0.11)">
       <defs>
        <path id="DejaVuSans-Oblique-42" d="M 1081 4666 
L 2694 4666 
Q 3350 4666 3675 4422 
Q 4000 4178 4000 3688 
Q 4000 3238 3720 2911 
Q 3441 2584 2988 2516 
Q 3375 2428 3569 2181 
Q 3763 1934 3763 1522 
Q 3763 819 3242 409 
Q 2722 0 1819 0 
L 172 0 
L 1081 4666 
z
M 1234 2228 
L 903 519 
L 1919 519 
Q 2491 519 2800 781 
Q 3109 1044 3109 1522 
Q 3109 1891 2904 2059 
Q 2700 2228 2247 2228 
L 1234 2228 
z
M 1606 4147 
L 1331 2741 
L 2272 2741 
Q 2775 2741 3058 2959 
Q 3341 3178 3341 3566 
Q 3341 3869 3150 4008 
Q 2959 4147 2541 4147 
L 1606 4147 
z
" transform="scale(0.015625)"/>
        <path id="DejaVuSans-Oblique-62" d="M 3169 2138 
Q 3169 2591 2961 2847 
Q 2753 3103 2388 3103 
Q 2122 3103 1889 2973 
Q 1656 2844 1484 2597 
Q 1303 2338 1198 1995 
Q 1094 1653 1094 1313 
Q 1094 881 1298 636 
Q 1503 391 1863 391 
Q 2134 391 2365 517 
Q 2597 644 2772 891 
Q 2950 1147 3059 1487 
Q 3169 1828 3169 2138 
z
M 1381 2969 
Q 1594 3256 1914 3420 
Q 2234 3584 2584 3584 
Q 3122 3584 3439 3221 
Q 3756 2859 3756 2241 
Q 3756 1734 3570 1259 
Q 3384 784 3041 416 
Q 2816 172 2522 40 
Q 2228 -91 1906 -91 
Q 1566 -91 1316 65 
Q 1066 222 909 531 
L 806 0 
L 231 0 
L 1178 4863 
L 1753 4863 
L 1381 2969 
z
" transform="scale(0.015625)"/>
        <path id="DejaVuSans-Oblique-79" d="M 1588 -325 
Q 1188 -997 936 -1164 
Q 684 -1331 294 -1331 
L -159 -1331 
L -63 -850 
L 269 -850 
Q 509 -850 678 -719 
Q 847 -588 1056 -206 
L 1234 128 
L 459 3500 
L 1069 3500 
L 1650 819 
L 3256 3500 
L 3859 3500 
L 1588 -325 
z
" transform="scale(0.015625)"/>
       </defs>
       <use xlink:href="#DejaVuSans-Oblique-42"/>
       <use xlink:href="#DejaVuSans-Oblique-61" x="68.603516"/>
       <use xlink:href="#DejaVuSans-Oblique-62" x="129.882812"/>
       <use xlink:href="#DejaVuSans-Oblique-79" x="193.359375"/>
      </g>
      <!-- Boomers -->
      <g style="fill: #b2b2b2" transform="translate(343.121978 559.526679) rotate(-25) scale(0.11 -0.11)">
       <defs>
        <path id="DejaVuSans-Oblique-6f" d="M 1625 -91 
Q 1009 -91 651 289 
Q 294 669 294 1325 
Q 294 1706 417 2101 
Q 541 2497 738 2766 
Q 1047 3184 1428 3384 
Q 1809 3584 2291 3584 
Q 2888 3584 3255 3212 
Q 3622 2841 3622 2241 
Q 3622 1825 3500 1412 
Q 3378 1000 3181 728 
Q 2875 309 2494 109 
Q 2113 -91 1625 -91 
z
M 891 1344 
Q 891 869 1089 633 
Q 1288 397 1691 397 
Q 2269 397 2648 901 
Q 3028 1406 3028 2181 
Q 3028 2634 2825 2865 
Q 2622 3097 2228 3097 
Q 1903 3097 1650 2945 
Q 1397 2794 1197 2484 
Q 1050 2253 970 1956 
Q 891 1659 891 1344 
z
" transform="scale(0.015625)"/>
        <path id="DejaVuSans-Oblique-6d" d="M 5747 2113 
L 5338 0 
L 4763 0 
L 5166 2094 
Q 5191 2228 5203 2325 
Q 5216 2422 5216 2491 
Q 5216 2772 5059 2928 
Q 4903 3084 4622 3084 
Q 4203 3084 3875 2770 
Q 3547 2456 3450 1953 
L 3066 0 
L 2491 0 
L 2900 2094 
Q 2925 2209 2937 2307 
Q 2950 2406 2950 2484 
Q 2950 2769 2794 2926 
Q 2638 3084 2363 3084 
Q 1938 3084 1609 2770 
Q 1281 2456 1184 1953 
L 800 0 
L 225 0 
L 909 3500 
L 1484 3500 
L 1375 2956 
Q 1609 3263 1923 3423 
Q 2238 3584 2597 3584 
Q 2978 3584 3223 3384 
Q 3469 3184 3519 2828 
Q 3781 3197 4126 3390 
Q 4472 3584 4856 3584 
Q 5306 3584 5551 3325 
Q 5797 3066 5797 2591 
Q 5797 2488 5784 2364 
Q 5772 2241 5747 2113 
z
" transform="scale(0.015625)"/>
       </defs>
       <use xlink:href="#DejaVuSans-Oblique-42"/>
       <use xlink:href="#DejaVuSans-Oblique-6f" x="68.603516"/>
       <use xlink:href="#DejaVuSans-Oblique-6f" x="129.785156"/>
       <use xlink:href="#DejaVuSans-Oblique-6d" x="190.966797"/>
       <use xlink:href="#DejaVuSans-Oblique-65" x="288.378906"/>
       <use xlink:href="#DejaVuSans-Oblique-72" x="349.902344"/>
       <use xlink:href="#DejaVuSans-Oblique-73" x="391.015625"/>
      </g>
     </g>
    </g>
    <g id="xtick_11">
     <g id="line2d_11">
      <g>
       <use xlink:href="#m7d28b17adb" x="438.2208" y="489.6" style="fill: #ffffff; stroke: #ffffff; stroke-width: 0.6"/>
      </g>
     </g>
     <g id="text_11">
      <!-- +1 gen -->
      <g style="fill: #b2b2b2" transform="translate(421.180159 559.526679) rotate(-25) scale(0.11 -0.11)">
       <defs>
        <path id="DejaVuSans-Oblique-2b" d="M 2944 4013 
L 2944 2272 
L 4684 2272 
L 4684 1741 
L 2944 1741 
L 2944 0 
L 2419 0 
L 2419 1741 
L 678 1741 
L 678 2272 
L 2419 2272 
L 2419 4013 
L 2944 4013 
z
" transform="scale(0.015625)"/>
        <path id="DejaVuSans-Oblique-31" d="M 416 531 
L 1447 531 
L 2144 4122 
L 978 3897 
L 1088 4441 
L 2247 4666 
L 2881 4666 
L 2075 531 
L 3103 531 
L 3003 0 
L 313 0 
L 416 531 
z
" transform="scale(0.015625)"/>
        <path id="DejaVuSans-Oblique-20" transform="scale(0.015625)"/>
        <path id="DejaVuSans-Oblique-67" d="M 3816 3500 
L 3219 434 
Q 3047 -456 2561 -893 
Q 2075 -1331 1253 -1331 
Q 950 -1331 690 -1286 
Q 431 -1241 206 -1147 
L 313 -588 
Q 525 -725 762 -790 
Q 1000 -856 1269 -856 
Q 1816 -856 2167 -557 
Q 2519 -259 2631 300 
L 2681 563 
Q 2441 288 2122 144 
Q 1803 0 1434 0 
Q 903 0 598 351 
Q 294 703 294 1319 
Q 294 1803 478 2267 
Q 663 2731 997 3091 
Q 1219 3328 1514 3456 
Q 1809 3584 2131 3584 
Q 2484 3584 2746 3420 
Q 3009 3256 3138 2956 
L 3238 3500 
L 3816 3500 
z
M 2950 2216 
Q 2950 2641 2750 2872 
Q 2550 3103 2181 3103 
Q 1953 3103 1747 3012 
Q 1541 2922 1394 2759 
Q 1156 2491 1023 2127 
Q 891 1763 891 1375 
Q 891 944 1092 712 
Q 1294 481 1672 481 
Q 2219 481 2584 976 
Q 2950 1472 2950 2216 
z
" transform="scale(0.015625)"/>
       </defs>
       <use xlink:href="#DejaVuSans-Oblique-2b"/>
       <use xlink:href="#DejaVuSans-Oblique-31" x="83.789062"/>
       <use xlink:href="#DejaVuSans-Oblique-20" x="147.412109"/>
       <use xlink:href="#DejaVuSans-Oblique-67" x="179.199219"/>
       <use xlink:href="#DejaVuSans-Oblique-65" x="242.675781"/>
       <use xlink:href="#DejaVuSans-Oblique-6e" x="304.199219"/>
      </g>
     </g>
    </g>
    <g id="xtick_12">
     <g id="line2d_12">
      <g>
       <use xlink:href="#m7d28b17adb" x="515.1168" y="489.6" style="fill: #ffffff; stroke: #ffffff; stroke-width: 0.6"/>
      </g>
     </g>
     <g id="text_12">
      <!-- +2 gen -->
      <g style="fill: #b2b2b2" transform="translate(498.076159 559.526679) rotate(-25) scale(0.11 -0.11)">
       <defs>
        <path id="DejaVuSans-Oblique-32" d="M 2950 2253 
L 934 525 
L 3163 525 
L 3053 0 
L 25 0 
L 128 531 
L 2234 2338 
Q 2656 2703 2832 2979 
Q 3009 3256 3009 3547 
Q 3009 3850 2796 4040 
Q 2584 4231 2241 4231 
Q 1944 4231 1581 4125 
Q 1219 4019 806 3816 
L 922 4441 
Q 1309 4594 1662 4672 
Q 2016 4750 2316 4750 
Q 2928 4750 3301 4425 
Q 3675 4100 3675 3572 
Q 3675 3216 3497 2892 
Q 3319 2569 2950 2253 
z
" transform="scale(0.015625)"/>
       </defs>
       <use xlink:href="#DejaVuSans-Oblique-2b"/>
       <use xlink:href="#DejaVuSans-Oblique-32" x="83.789062"/>
       <use xlink:href="#DejaVuSans-Oblique-20" x="147.412109"/>
       <use xlink:href="#DejaVuSans-Oblique-67" x="179.199219"/>
       <use xlink:href="#DejaVuSans-Oblique-65" x="242.675781"/>
       <use xlink:href="#DejaVuSans-Oblique-6e" x="304.199219"/>
      </g>
     </g>
    </g>
    <g id="xtick_13">
     <g id="line2d_13">
      <g>
       <use xlink:href="#m7d28b17adb" x="592.0128" y="489.6" style="fill: #ffffff; stroke: #ffffff; stroke-width: 0.6"/>
      </g>
     </g>
     <g id="text_13">
      <!-- +3 gen -->
      <g style="fill: #b2b2b2" transform="translate(574.972159 559.526679) rotate(-25) scale(0.11 -0.11)">
       <defs>
        <path id="DejaVuSans-Oblique-33" d="M 1013 4550 
Q 1356 4650 1679 4700 
Q 2003 4750 2316 4750 
Q 2934 4750 3296 4475 
Q 3659 4200 3659 3738 
Q 3659 3284 3373 2959 
Q 3088 2634 2584 2516 
Q 2978 2403 3162 2165 
Q 3347 1928 3347 1538 
Q 3347 1163 3167 834 
Q 2988 506 2650 269 
Q 2394 88 2037 -1 
Q 1681 -91 1216 -91 
Q 922 -91 622 -33 
Q 322 25 13 141 
L 128 738 
Q 422 575 720 495 
Q 1019 416 1331 416 
Q 1947 416 2330 733 
Q 2713 1050 2713 1556 
Q 2713 1881 2469 2057 
Q 2225 2234 1772 2234 
L 1228 2234 
L 1325 2747 
L 1900 2747 
Q 2419 2747 2717 2984 
Q 3016 3222 3016 3628 
Q 3016 3922 2797 4083 
Q 2578 4244 2181 4244 
Q 1881 4244 1567 4180 
Q 1253 4116 916 3988 
L 1013 4550 
z
" transform="scale(0.015625)"/>
       </defs>
       <use xlink:href="#DejaVuSans-Oblique-2b"/>
       <use xlink:href="#DejaVuSans-Oblique-33" x="83.789062"/>
       <use xlink:href="#DejaVuSans-Oblique-20" x="147.412109"/>
       <use xlink:href="#DejaVuSans-Oblique-67" x="179.199219"/>
       <use xlink:href="#DejaVuSans-Oblique-65" x="242.675781"/>
       <use xlink:href="#DejaVuSans-Oblique-6e" x="304.199219"/>
      </g>
     </g>
    </g>
    <g id="xtick_14">
     <g id="line2d_14">
      <g>
       <use xlink:href="#m7d28b17adb" x="668.9088" y="489.6" style="fill: #ffffff; stroke: #ffffff; stroke-width: 0.6"/>
      </g>
     </g>
     <g id="text_14">
      <!-- +4 gen -->
      <g style="fill: #b2b2b2" transform="translate(651.868159 559.526679) rotate(-25) scale(0.11 -0.11)">
       <defs>
        <path id="DejaVuSans-Oblique-34" d="M 2753 4666 
L 3547 4666 
L 2950 1625 
L 3616 1625 
L 3513 1100 
L 2847 1100 
L 2638 0 
L 2009 0 
L 2222 1100 
L 116 1100 
L 238 1709 
L 2753 4666 
z
M 2809 4116 
L 728 1625 
L 2322 1625 
L 2809 4116 
z
" transform="scale(0.015625)"/>
       </defs>
       <use xlink:href="#DejaVuSans-Oblique-2b"/>
       <use xlink:href="#DejaVuSans-Oblique-34" x="83.789062"/>
       <use xlink:href="#DejaVuSans-Oblique-20" x="147.412109"/>
       <use xlink:href="#DejaVuSans-Oblique-67" x="179.199219"/>
       <use xlink:href="#DejaVuSans-Oblique-65" x="242.675781"/>
       <use xlink:href="#DejaVuSans-Oblique-6e" x="304.199219"/>
      </g>
     </g>
    </g>
    <g id="xtick_15">
     <g id="line2d_15">
      <g>
       <use xlink:href="#m7d28b17adb" x="745.8048" y="489.6" style="fill: #ffffff; stroke: #ffffff; stroke-width: 0.6"/>
      </g>
     </g>
     <g id="text_15">
      <!-- +5 gen -->
      <g style="fill: #b2b2b2" transform="translate(728.764159 559.526679) rotate(-25) scale(0.11 -0.11)">
       <defs>
        <path id="DejaVuSans-Oblique-35" d="M 3719 4666 
L 3622 4141 
L 1691 4141 
L 1466 2988 
Q 1609 3034 1757 3056 
Q 1906 3078 2059 3078 
Q 2706 3078 3081 2731 
Q 3456 2384 3456 1791 
Q 3456 1375 3264 994 
Q 3072 613 2719 325 
Q 2469 125 2108 17 
Q 1747 -91 1319 -91 
Q 1038 -91 744 -41 
Q 450 9 128 109 
L 244 697 
Q 531 556 820 486 
Q 1109 416 1403 416 
Q 2013 416 2411 781 
Q 2809 1147 2809 1697 
Q 2809 2103 2548 2328 
Q 2288 2553 1819 2553 
Q 1572 2553 1305 2495 
Q 1038 2438 756 2322 
L 1209 4666 
L 3719 4666 
z
" transform="scale(0.015625)"/>
       </defs>
       <use xlink:href="#DejaVuSans-Oblique-2b"/>
       <use xlink:href="#DejaVuSans-Oblique-35" x="83.789062"/>
       <use xlink:href="#DejaVuSans-Oblique-20" x="147.412109"/>
       <use xlink:href="#DejaVuSans-Oblique-67" x="179.199219"/>
       <use xlink:href="#DejaVuSans-Oblique-65" x="242.675781"/>
       <use xlink:href="#DejaVuSans-Oblique-6e" x="304.199219"/>
      </g>
     </g>
    </g>
    <g id="xtick_16">
     <g id="line2d_16">
      <g>
       <use xlink:href="#m7d28b17adb" x="822.7008" y="489.6" style="fill: #ffffff; stroke: #ffffff; stroke-width: 0.6"/>
      </g>
     </g>
     <g id="text_16">
      <!-- +6 gen -->
      <g style="fill: #b2b2b2" transform="translate(805.660159 559.526679) rotate(-25) scale(0.11 -0.11)">
       <defs>
        <path id="DejaVuSans-Oblique-36" d="M 2938 1728 
Q 2938 2125 2734 2354 
Q 2531 2584 2181 2584 
Q 1697 2584 1367 2211 
Q 1038 1838 1038 1288 
Q 1038 875 1239 642 
Q 1441 409 1797 409 
Q 2284 409 2611 792 
Q 2938 1175 2938 1728 
z
M 3788 4556 
L 3681 3981 
Q 3500 4100 3265 4162 
Q 3031 4225 2766 4225 
Q 2119 4225 1726 3819 
Q 1334 3413 1141 2547 
Q 1369 2813 1670 2948 
Q 1972 3084 2322 3084 
Q 2894 3084 3233 2754 
Q 3572 2425 3572 1869 
Q 3572 1413 3405 1020 
Q 3238 628 2919 331 
Q 2700 128 2409 18 
Q 2119 -91 1791 -91 
Q 1147 -91 775 318 
Q 403 728 403 1441 
Q 403 2103 573 2717 
Q 744 3331 1050 3781 
Q 1372 4256 1830 4503 
Q 2288 4750 2841 4750 
Q 3084 4750 3321 4701 
Q 3559 4653 3788 4556 
z
" transform="scale(0.015625)"/>
       </defs>
       <use xlink:href="#DejaVuSans-Oblique-2b"/>
       <use xlink:href="#DejaVuSans-Oblique-36" x="83.789062"/>
       <use xlink:href="#DejaVuSans-Oblique-20" x="147.412109"/>
       <use xlink:href="#DejaVuSans-Oblique-67" x="179.199219"/>
       <use xlink:href="#DejaVuSans-Oblique-65" x="242.675781"/>
       <use xlink:href="#DejaVuSans-Oblique-6e" x="304.199219"/>
      </g>
     </g>
    </g>
   </g>
   <g id="matplotlib.axis_2">
    <g id="ytick_1">
     <g id="line2d_17">
      <path d="M 69.12 444.440547 
L 838.08 444.440547 
" clip-path="url(#pb6a914d8ff)" style="fill: none; stroke-dasharray: 2.4,7.2; stroke-dashoffset: 0; stroke: #717174; stroke-opacity: 0.5; stroke-width: 0.8"/>
     </g>
     <g id="line2d_18">
      <defs>
       <path id="mfeac1176aa" d="M 0 0 
L -3.5 0 
" style="stroke: #717174; stroke-width: 0.8"/>
      </defs>
      <g>
       <use xlink:href="#mfeac1176aa" x="69.12" y="444.440547" style="fill: #717174; stroke: #717174; stroke-width: 0.8"/>
      </g>
     </g>
     <g id="text_17">
      <!-- 30 °C -->
      <g style="fill: #717174" transform="translate(34.234063 448.239766) scale(0.1 -0.1)">
       <defs>
        <path id="DejaVuSans-33" d="M 2597 2516 
Q 3050 2419 3304 2112 
Q 3559 1806 3559 1356 
Q 3559 666 3084 287 
Q 2609 -91 1734 -91 
Q 1441 -91 1130 -33 
Q 819 25 488 141 
L 488 750 
Q 750 597 1062 519 
Q 1375 441 1716 441 
Q 2309 441 2620 675 
Q 2931 909 2931 1356 
Q 2931 1769 2642 2001 
Q 2353 2234 1838 2234 
L 1294 2234 
L 1294 2753 
L 1863 2753 
Q 2328 2753 2575 2939 
Q 2822 3125 2822 3475 
Q 2822 3834 2567 4026 
Q 2313 4219 1838 4219 
Q 1578 4219 1281 4162 
Q 984 4106 628 3988 
L 628 4550 
Q 988 4650 1302 4700 
Q 1616 4750 1894 4750 
Q 2613 4750 3031 4423 
Q 3450 4097 3450 3541 
Q 3450 3153 3228 2886 
Q 3006 2619 2597 2516 
z
" transform="scale(0.015625)"/>
        <path id="DejaVuSans-20" transform="scale(0.015625)"/>
        <path id="DejaVuSans-b0" d="M 1600 4347 
Q 1350 4347 1178 4173 
Q 1006 4000 1006 3750 
Q 1006 3503 1178 3333 
Q 1350 3163 1600 3163 
Q 1850 3163 2022 3333 
Q 2194 3503 2194 3750 
Q 2194 3997 2020 4172 
Q 1847 4347 1600 4347 
z
M 1600 4750 
Q 1800 4750 1984 4673 
Q 2169 4597 2303 4453 
Q 2447 4313 2519 4134 
Q 2591 3956 2591 3750 
Q 2591 3338 2302 3052 
Q 2013 2766 1594 2766 
Q 1172 2766 890 3047 
Q 609 3328 609 3750 
Q 609 4169 896 4459 
Q 1184 4750 1600 4750 
z
" transform="scale(0.015625)"/>
        <path id="DejaVuSans-43" d="M 4122 4306 
L 4122 3641 
Q 3803 3938 3442 4084 
Q 3081 4231 2675 4231 
Q 1875 4231 1450 3742 
Q 1025 3253 1025 2328 
Q 1025 1406 1450 917 
Q 1875 428 2675 428 
Q 3081 428 3442 575 
Q 3803 722 4122 1019 
L 4122 359 
Q 3791 134 3420 21 
Q 3050 -91 2638 -91 
Q 1578 -91 968 557 
Q 359 1206 359 2328 
Q 359 3453 968 4101 
Q 1578 4750 2638 4750 
Q 3056 4750 3426 4639 
Q 3797 4528 4122 4306 
z
" transform="scale(0.015625)"/>
       </defs>
       <use xlink:href="#DejaVuSans-33"/>
       <use xlink:href="#DejaVuSans-30" x="63.623047"/>
       <use xlink:href="#DejaVuSans-20" x="127.246094"/>
       <use xlink:href="#DejaVuSans-b0" x="159.033203"/>
       <use xlink:href="#DejaVuSans-43" x="209.033203"/>
      </g>
     </g>
    </g>
    <g id="ytick_2">
     <g id="line2d_19">
      <path d="M 69.12 382.820218 
L 838.08 382.820218 
" clip-path="url(#pb6a914d8ff)" style="fill: none; stroke-dasharray: 2.4,7.2; stroke-dashoffset: 0; stroke: #717174; stroke-opacity: 0.5; stroke-width: 0.8"/>
     </g>
     <g id="line2d_20">
      <g>
       <use xlink:href="#mfeac1176aa" x="69.12" y="382.820218" style="fill: #717174; stroke: #717174; stroke-width: 0.8"/>
      </g>
     </g>
     <g id="text_18">
      <!-- 35 °C -->
      <g style="fill: #717174" transform="translate(34.234063 386.619437) scale(0.1 -0.1)">
       <use xlink:href="#DejaVuSans-33"/>
       <use xlink:href="#DejaVuSans-35" x="63.623047"/>
       <use xlink:href="#DejaVuSans-20" x="127.246094"/>
       <use xlink:href="#DejaVuSans-b0" x="159.033203"/>
       <use xlink:href="#DejaVuSans-43" x="209.033203"/>
      </g>
     </g>
    </g>
    <g id="ytick_3">
     <g id="line2d_21">
      <path d="M 69.12 321.199889 
L 838.08 321.199889 
" clip-path="url(#pb6a914d8ff)" style="fill: none; stroke-dasharray: 2.4,7.2; stroke-dashoffset: 0; stroke: #717174; stroke-opacity: 0.5; stroke-width: 0.8"/>
     </g>
     <g id="line2d_22">
      <g>
       <use xlink:href="#mfeac1176aa" x="69.12" y="321.199889" style="fill: #717174; stroke: #717174; stroke-width: 0.8"/>
      </g>
     </g>
     <g id="text_19">
      <!-- 40 °C -->
      <g style="fill: #717174" transform="translate(34.234063 324.999108) scale(0.1 -0.1)">
       <defs>
        <path id="DejaVuSans-34" d="M 2419 4116 
L 825 1625 
L 2419 1625 
L 2419 4116 
z
M 2253 4666 
L 3047 4666 
L 3047 1625 
L 3713 1625 
L 3713 1100 
L 3047 1100 
L 3047 0 
L 2419 0 
L 2419 1100 
L 313 1100 
L 313 1709 
L 2253 4666 
z
" transform="scale(0.015625)"/>
       </defs>
       <use xlink:href="#DejaVuSans-34"/>
       <use xlink:href="#DejaVuSans-30" x="63.623047"/>
       <use xlink:href="#DejaVuSans-20" x="127.246094"/>
       <use xlink:href="#DejaVuSans-b0" x="159.033203"/>
       <use xlink:href="#DejaVuSans-43" x="209.033203"/>
      </g>
     </g>
    </g>
    <g id="ytick_4">
     <g id="line2d_23">
      <path d="M 69.12 259.579561 
L 838.08 259.579561 
" clip-path="url(#pb6a914d8ff)" style="fill: none; stroke-dasharray: 2.4,7.2; stroke-dashoffset: 0; stroke: #717174; stroke-opacity: 0.5; stroke-width: 0.8"/>
     </g>
     <g id="line2d_24">
      <g>
       <use xlink:href="#mfeac1176aa" x="69.12" y="259.579561" style="fill: #717174; stroke: #717174; stroke-width: 0.8"/>
      </g>
     </g>
     <g id="text_20">
      <!-- 45 °C -->
      <g style="fill: #717174" transform="translate(34.234063 263.37878) scale(0.1 -0.1)">
       <use xlink:href="#DejaVuSans-34"/>
       <use xlink:href="#DejaVuSans-35" x="63.623047"/>
       <use xlink:href="#DejaVuSans-20" x="127.246094"/>
       <use xlink:href="#DejaVuSans-b0" x="159.033203"/>
       <use xlink:href="#DejaVuSans-43" x="209.033203"/>
      </g>
     </g>
    </g>
    <g id="text_21">
     <!-- Max Temperature -->
     <g transform="translate(27.3225 320.234531) rotate(-90) scale(0.14 -0.14)">
      <defs>
       <path id="DejaVuSans-4d" d="M 628 4666 
L 1569 4666 
L 2759 1491 
L 3956 4666 
L 4897 4666 
L 4897 0 
L 4281 0 
L 4281 4097 
L 3078 897 
L 2444 897 
L 1241 4097 
L 1241 0 
L 628 0 
L 628 4666 
z
" transform="scale(0.015625)"/>
       <path id="DejaVuSans-61" d="M 2194 1759 
Q 1497 1759 1228 1600 
Q 959 1441 959 1056 
Q 959 750 1161 570 
Q 1363 391 1709 391 
Q 2188 391 2477 730 
Q 2766 1069 2766 1631 
L 2766 1759 
L 2194 1759 
z
M 3341 1997 
L 3341 0 
L 2766 0 
L 2766 531 
Q 2569 213 2275 61 
Q 1981 -91 1556 -91 
Q 1019 -91 701 211 
Q 384 513 384 1019 
Q 384 1609 779 1909 
Q 1175 2209 1959 2209 
L 2766 2209 
L 2766 2266 
Q 2766 2663 2505 2880 
Q 2244 3097 1772 3097 
Q 1472 3097 1187 3025 
Q 903 2953 641 2809 
L 641 3341 
Q 956 3463 1253 3523 
Q 1550 3584 1831 3584 
Q 2591 3584 2966 3190 
Q 3341 2797 3341 1997 
z
" transform="scale(0.015625)"/>
       <path id="DejaVuSans-78" d="M 3513 3500 
L 2247 1797 
L 3578 0 
L 2900 0 
L 1881 1375 
L 863 0 
L 184 0 
L 1544 1831 
L 300 3500 
L 978 3500 
L 1906 2253 
L 2834 3500 
L 3513 3500 
z
" transform="scale(0.015625)"/>
       <path id="DejaVuSans-54" d="M -19 4666 
L 3928 4666 
L 3928 4134 
L 2272 4134 
L 2272 0 
L 1638 0 
L 1638 4134 
L -19 4134 
L -19 4666 
z
" transform="scale(0.015625)"/>
       <path id="DejaVuSans-65" d="M 3597 1894 
L 3597 1613 
L 953 1613 
Q 991 1019 1311 708 
Q 1631 397 2203 397 
Q 2534 397 2845 478 
Q 3156 559 3463 722 
L 3463 178 
Q 3153 47 2828 -22 
Q 2503 -91 2169 -91 
Q 1331 -91 842 396 
Q 353 884 353 1716 
Q 353 2575 817 3079 
Q 1281 3584 2069 3584 
Q 2775 3584 3186 3129 
Q 3597 2675 3597 1894 
z
M 3022 2063 
Q 3016 2534 2758 2815 
Q 2500 3097 2075 3097 
Q 1594 3097 1305 2825 
Q 1016 2553 972 2059 
L 3022 2063 
z
" transform="scale(0.015625)"/>
       <path id="DejaVuSans-6d" d="M 3328 2828 
Q 3544 3216 3844 3400 
Q 4144 3584 4550 3584 
Q 5097 3584 5394 3201 
Q 5691 2819 5691 2113 
L 5691 0 
L 5113 0 
L 5113 2094 
Q 5113 2597 4934 2840 
Q 4756 3084 4391 3084 
Q 3944 3084 3684 2787 
Q 3425 2491 3425 1978 
L 3425 0 
L 2847 0 
L 2847 2094 
Q 2847 2600 2669 2842 
Q 2491 3084 2119 3084 
Q 1678 3084 1418 2786 
Q 1159 2488 1159 1978 
L 1159 0 
L 581 0 
L 581 3500 
L 1159 3500 
L 1159 2956 
Q 1356 3278 1631 3431 
Q 1906 3584 2284 3584 
Q 2666 3584 2933 3390 
Q 3200 3197 3328 2828 
z
" transform="scale(0.015625)"/>
       <path id="DejaVuSans-70" d="M 1159 525 
L 1159 -1331 
L 581 -1331 
L 581 3500 
L 1159 3500 
L 1159 2969 
Q 1341 3281 1617 3432 
Q 1894 3584 2278 3584 
Q 2916 3584 3314 3078 
Q 3713 2572 3713 1747 
Q 3713 922 3314 415 
Q 2916 -91 2278 -91 
Q 1894 -91 1617 61 
Q 1341 213 1159 525 
z
M 3116 1747 
Q 3116 2381 2855 2742 
Q 2594 3103 2138 3103 
Q 1681 3103 1420 2742 
Q 1159 2381 1159 1747 
Q 1159 1113 1420 752 
Q 1681 391 2138 391 
Q 2594 391 2855 752 
Q 3116 1113 3116 1747 
z
" transform="scale(0.015625)"/>
       <path id="DejaVuSans-72" d="M 2631 2963 
Q 2534 3019 2420 3045 
Q 2306 3072 2169 3072 
Q 1681 3072 1420 2755 
Q 1159 2438 1159 1844 
L 1159 0 
L 581 0 
L 581 3500 
L 1159 3500 
L 1159 2956 
Q 1341 3275 1631 3429 
Q 1922 3584 2338 3584 
Q 2397 3584 2469 3576 
Q 2541 3569 2628 3553 
L 2631 2963 
z
" transform="scale(0.015625)"/>
       <path id="DejaVuSans-74" d="M 1172 4494 
L 1172 3500 
L 2356 3500 
L 2356 3053 
L 1172 3053 
L 1172 1153 
Q 1172 725 1289 603 
Q 1406 481 1766 481 
L 2356 481 
L 2356 0 
L 1766 0 
Q 1100 0 847 248 
Q 594 497 594 1153 
L 594 3053 
L 172 3053 
L 172 3500 
L 594 3500 
L 594 4494 
L 1172 4494 
z
" transform="scale(0.015625)"/>
       <path id="DejaVuSans-75" d="M 544 1381 
L 544 3500 
L 1119 3500 
L 1119 1403 
Q 1119 906 1312 657 
Q 1506 409 1894 409 
Q 2359 409 2629 706 
Q 2900 1003 2900 1516 
L 2900 3500 
L 3475 3500 
L 3475 0 
L 2900 0 
L 2900 538 
Q 2691 219 2414 64 
Q 2138 -91 1772 -91 
Q 1169 -91 856 284 
Q 544 659 544 1381 
z
M 1991 3584 
L 1991 3584 
z
" transform="scale(0.015625)"/>
      </defs>
      <use xlink:href="#DejaVuSans-4d"/>
      <use xlink:href="#DejaVuSans-61" x="86.279297"/>
      <use xlink:href="#DejaVuSans-78" x="147.558594"/>
      <use xlink:href="#DejaVuSans-20" x="206.738281"/>
      <use xlink:href="#DejaVuSans-54" x="238.525391"/>
      <use xlink:href="#DejaVuSans-65" x="282.609375"/>
      <use xlink:href="#DejaVuSans-6d" x="344.132812"/>
      <use xlink:href="#DejaVuSans-70" x="441.544922"/>
      <use xlink:href="#DejaVuSans-65" x="505.021484"/>
      <use xlink:href="#DejaVuSans-72" x="566.544922"/>
      <use xlink:href="#DejaVuSans-61" x="607.658203"/>
      <use xlink:href="#DejaVuSans-74" x="668.9375"/>
      <use xlink:href="#DejaVuSans-75" x="708.146484"/>
      <use xlink:href="#DejaVuSans-72" x="771.525391"/>
      <use xlink:href="#DejaVuSans-65" x="810.388672"/>
     </g>
    </g>
   </g>
   <g id="line2d_25">
    <path d="M 69.12 336.125167 
L 838.08 336.125167 
" clip-path="url(#pb6a914d8ff)" style="fill: none; stroke: #717174; stroke-width: 1.5; stroke-linecap: square"/>
   </g>
   <g id="line2d_26">
    <path d="M 69.12 321.199889 
L 838.08 321.199889 
" clip-path="url(#pb6a914d8ff)" style="fill: none; stroke: #e34d21; stroke-width: 0.5; stroke-linecap: square"/>
   </g>
   <g id="LineCollection_1">
    <path d="M 69.12 441.606012 
L 222.912 441.606012 
" clip-path="url(#pb6a914d8ff)" style="fill: none; stroke: #b2b2b2; stroke-width: 1.5"/>
   </g>
   <g id="LineCollection_2">
    <path d="M 222.912 442.838418 
L 222.912 441.606012 
" clip-path="url(#pb6a914d8ff)" style="fill: none; stroke: #b2b2b2; stroke-width: 1.5"/>
   </g>
   <g id="LineCollection_3">
    <path d="M 69.12 442.838418 
L 69.12 441.606012 
" clip-path="url(#pb6a914d8ff)" style="fill: none; stroke: #b2b2b2; stroke-width: 1.5"/>
   </g>
   <g id="line2d_27">
    <path d="M 69.12 323.619157 
L 72.19584 329.725339 
L 75.27168 338.268653 
L 78.34752 326.976983 
L 81.42336 332.18955 
L 84.4992 337.001382 
L 87.57504 329.031809 
L 90.65088 328.229398 
L 93.72672 350.781521 
L 96.80256 325.697301 
L 99.8784 339.594596 
L 102.95424 340.496109 
L 106.03008 327.397464 
L 109.10592 333.273284 
L 112.18176 339.916538 
L 115.2576 324.479111 
L 118.33344 348.294744 
L 121.40928 314.552499 
L 124.48512 333.425041 
L 127.56096 331.916501 
L 130.6368 344.817693 
L 133.71264 324.454288 
L 136.78848 341.367722 
L 139.86432 327.347819 
L 142.94016 330.669916 
L 146.016 340.801503 
L 149.09184 331.904278 
L 152.16768 327.839758 
L 155.24352 329.68472 
L 158.31936 334.207894 
L 161.3952 334.367173 
L 164.47104 330.130587 
L 167.54688 326.469247 
L 170.62272 344.027318 
L 173.69856 370.24849 
L 176.7744 356.625373 
L 179.85024 341.357191 
L 182.92608 330.638699 
L 186.00192 347.396803 
L 189.07776 344.071134 
L 192.1536 339.839625 
L 195.22944 339.996271 
L 198.30528 325.922021 
L 201.38112 346.37475 
L 204.45696 339.39263 
L 207.5328 346.708915 
L 210.60864 342.436412 
L 213.68448 345.672194 
L 216.76032 340.289065 
L 219.83616 338.150557 
L 222.912 324.306481 
L 225.98784 326.770692 
L 229.06368 342.7954 
L 232.13952 343.759158 
L 235.21536 344.977348 
L 238.2912 354.898883 
L 241.36704 343.714026 
L 244.44288 337.597313 
L 247.51872 316.300803 
L 250.59456 318.52619 
L 253.6704 332.736212 
L 256.74624 328.270393 
L 259.82208 329.681523 
L 262.89792 361.862386 
L 265.97376 346.50394 
L 269.0496 321.899813 
L 272.12544 316.138139 
L 275.20128 326.95122 
L 278.27712 344.951209 
L 281.35296 333.748487 
L 284.4288 317.012197 
L 287.50464 345.511223 
L 290.58048 345.901615 
L 293.65632 319.663706 
L 296.73216 346.452227 
L 299.808 325.148946 
L 302.88384 345.303427 
L 305.95968 317.928002 
L 309.03552 345.867954 
L 312.11136 332.924451 
L 315.1872 348.302078 
L 318.26304 353.620141 
L 321.33888 349.559006 
L 324.41472 349.461972 
L 327.49056 338.321119 
L 330.5664 343.130318 
L 333.64224 328.022731 
L 336.71808 335.245368 
L 339.79392 353.115414 
L 342.86976 312.992621 
L 345.9456 323.866443 
L 349.02144 347.24185 
L 352.09728 333.123408 
L 355.17312 356.953145 
L 358.24896 342.810632 
L 361.3248 331.595687 
L 364.40064 335.695184 
L 367.47648 350.369879 
L 370.55232 348.017181 
L 373.62816 331.789191 
L 376.704 346.508266 
L 379.77984 359.224792 
L 382.85568 346.411984 
L 385.93152 369.06509 
L 389.00736 333.958351 
L 392.0832 345.475493 
L 395.15904 346.556595 
L 398.23488 351.30054 
L 401.31072 342.144182 
L 404.38656 340.198237 
L 407.4624 347.592 
L 410.53824 339.72435 
L 413.61408 354.172633 
L 416.68992 345.205829 
L 419.76576 339.928949 
L 422.8416 341.570628 
L 425.91744 340.931633 
L 428.99328 363.241547 
L 432.06912 317.880425 
L 435.14496 343.063372 
L 438.2208 342.738609 
L 441.29664 359.514014 
L 444.37248 343.17733 
L 447.44832 340.74001 
L 450.52416 350.532731 
L 453.6 345.801384 
L 456.67584 362.906254 
L 459.75168 371.78693 
L 462.82752 350.429115 
L 465.90336 345.276724 
L 468.9792 344.415642 
L 472.05504 333.264258 
L 475.13088 347.534456 
L 481.28256 353.910678 
L 484.3584 329.801123 
L 487.43424 348.545039 
L 490.51008 340.305802 
L 493.58592 346.529515 
L 496.66176 335.225058 
L 499.7376 349.141158 
L 502.81344 326.188112 
L 505.88928 361.91993 
L 508.96512 338.54772 
L 512.04096 346.754612 
L 515.1168 336.84718 
L 518.19264 343.234498 
L 521.26848 337.501972 
L 524.34432 344.46115 
L 527.42016 341.089408 
L 530.496 307.909809 
L 533.57184 335.851642 
L 536.64768 322.829346 
L 539.72352 336.661951 
L 542.79936 305.836366 
L 545.8752 330.259778 
L 548.95104 340.227197 
L 552.02688 326.107063 
L 555.10272 310.219631 
L 558.17856 309.238573 
L 561.2544 319.37881 
L 564.33024 337.218204 
L 567.40608 327.455383 
L 570.48192 321.567904 
L 573.55776 309.767934 
L 573.55776 309.767934 
" clip-path="url(#pb6a914d8ff)" style="fill: none; stroke: #777777; stroke-width: 1.8; stroke-linecap: square"/>
   </g>
   <g id="line2d_28">
    <path d="M 576.6336 350.029132 
L 579.70944 340.79793 
L 582.78528 326.493694 
L 585.86112 332.053026 
L 588.93696 338.134009 
L 592.0128 301.339895 
L 595.08864 342.315684 
L 598.16448 333.993329 
L 601.24032 331.933426 
L 604.31616 333.587892 
L 607.392 344.737396 
L 610.46784 339.393382 
L 613.54368 360.886593 
L 616.61952 344.312214 
L 619.69536 344.02036 
L 622.7712 330.343836 
L 625.84704 338.699476 
L 628.92288 339.167345 
L 631.99872 319.122874 
L 635.07456 323.072307 
L 638.1504 331.07554 
L 641.22624 318.120754 
L 644.30208 338.264704 
L 647.37792 304.888029 
L 650.45376 317.624113 
L 653.5296 318.664219 
L 656.60544 332.950778 
L 659.68128 308.480918 
L 662.75712 317.310257 
L 665.83296 327.44128 
L 668.9088 330.563855 
L 671.98464 330.204491 
L 675.06048 328.196114 
L 678.13632 331.879079 
L 681.21216 317.280169 
L 684.288 317.730925 
L 687.36384 331.961633 
L 690.43968 327.230099 
L 693.51552 327.249844 
L 696.59136 319.249996 
L 699.6672 311.919794 
L 702.74304 311.410742 
L 705.81888 299.282813 
L 708.89472 315.450439 
L 711.97056 313.818914 
L 715.0464 317.752363 
L 718.12224 309.917246 
L 721.19808 301.00761 
L 724.27392 307.441752 
L 727.34976 313.450336 
L 730.4256 329.648426 
L 733.50144 320.780913 
L 736.57728 322.277042 
L 739.65312 312.612007 
L 742.72896 299.216619 
L 745.8048 313.764004 
L 748.88064 307.011117 
L 751.95648 304.750752 
L 755.03232 312.498049 
L 758.10816 295.168084 
L 761.184 304.115894 
L 764.25984 315.173253 
L 767.33568 318.174724 
L 770.41152 322.976401 
L 773.48736 296.307669 
L 776.5632 301.559162 
L 779.63904 303.11998 
L 782.71488 290.848756 
L 785.79072 306.718322 
L 788.86656 293.970767 
L 791.9424 315.336481 
L 795.01824 315.000999 
L 798.09408 295.885496 
L 801.16992 294.983606 
L 804.24576 266.29653 
L 807.3216 294.770733 
L 810.39744 290.601094 
L 813.47328 312.362465 
L 816.54912 302.098302 
L 819.62496 304.050641 
L 822.7008 302.683891 
L 825.77664 303.278694 
L 828.85248 310.205716 
L 831.92832 314.298819 
L 835.00416 313.845618 
L 838.08 288.054892 
L 838.08 288.054892 
" clip-path="url(#pb6a914d8ff)" style="fill: none; stroke: #3db5af; stroke-width: 1.8; stroke-linecap: square"/>
   </g>
   <g id="text_22">
    <!-- Maximal temperature (in Czechia) projections (34 CMIP6 models) -->
    <g transform="translate(160.001719 22.8) scale(0.18 -0.18)">
     <defs>
      <path id="DejaVuSans-69" d="M 603 3500 
L 1178 3500 
L 1178 0 
L 603 0 
L 603 3500 
z
M 603 4863 
L 1178 4863 
L 1178 4134 
L 603 4134 
L 603 4863 
z
" transform="scale(0.015625)"/>
      <path id="DejaVuSans-6c" d="M 603 4863 
L 1178 4863 
L 1178 0 
L 603 0 
L 603 4863 
z
" transform="scale(0.015625)"/>
      <path id="DejaVuSans-28" d="M 1984 4856 
Q 1566 4138 1362 3434 
Q 1159 2731 1159 2009 
Q 1159 1288 1364 580 
Q 1569 -128 1984 -844 
L 1484 -844 
Q 1016 -109 783 600 
Q 550 1309 550 2009 
Q 550 2706 781 3412 
Q 1013 4119 1484 4856 
L 1984 4856 
z
" transform="scale(0.015625)"/>
      <path id="DejaVuSans-6e" d="M 3513 2113 
L 3513 0 
L 2938 0 
L 2938 2094 
Q 2938 2591 2744 2837 
Q 2550 3084 2163 3084 
Q 1697 3084 1428 2787 
Q 1159 2491 1159 1978 
L 1159 0 
L 581 0 
L 581 3500 
L 1159 3500 
L 1159 2956 
Q 1366 3272 1645 3428 
Q 1925 3584 2291 3584 
Q 2894 3584 3203 3211 
Q 3513 2838 3513 2113 
z
" transform="scale(0.015625)"/>
      <path id="DejaVuSans-7a" d="M 353 3500 
L 3084 3500 
L 3084 2975 
L 922 459 
L 3084 459 
L 3084 0 
L 275 0 
L 275 525 
L 2438 3041 
L 353 3041 
L 353 3500 
z
" transform="scale(0.015625)"/>
      <path id="DejaVuSans-63" d="M 3122 3366 
L 3122 2828 
Q 2878 2963 2633 3030 
Q 2388 3097 2138 3097 
Q 1578 3097 1268 2742 
Q 959 2388 959 1747 
Q 959 1106 1268 751 
Q 1578 397 2138 397 
Q 2388 397 2633 464 
Q 2878 531 3122 666 
L 3122 134 
Q 2881 22 2623 -34 
Q 2366 -91 2075 -91 
Q 1284 -91 818 406 
Q 353 903 353 1747 
Q 353 2603 823 3093 
Q 1294 3584 2113 3584 
Q 2378 3584 2631 3529 
Q 2884 3475 3122 3366 
z
" transform="scale(0.015625)"/>
      <path id="DejaVuSans-68" d="M 3513 2113 
L 3513 0 
L 2938 0 
L 2938 2094 
Q 2938 2591 2744 2837 
Q 2550 3084 2163 3084 
Q 1697 3084 1428 2787 
Q 1159 2491 1159 1978 
L 1159 0 
L 581 0 
L 581 4863 
L 1159 4863 
L 1159 2956 
Q 1366 3272 1645 3428 
Q 1925 3584 2291 3584 
Q 2894 3584 3203 3211 
Q 3513 2838 3513 2113 
z
" transform="scale(0.015625)"/>
      <path id="DejaVuSans-29" d="M 513 4856 
L 1013 4856 
Q 1481 4119 1714 3412 
Q 1947 2706 1947 2009 
Q 1947 1309 1714 600 
Q 1481 -109 1013 -844 
L 513 -844 
Q 928 -128 1133 580 
Q 1338 1288 1338 2009 
Q 1338 2731 1133 3434 
Q 928 4138 513 4856 
z
" transform="scale(0.015625)"/>
      <path id="DejaVuSans-6f" d="M 1959 3097 
Q 1497 3097 1228 2736 
Q 959 2375 959 1747 
Q 959 1119 1226 758 
Q 1494 397 1959 397 
Q 2419 397 2687 759 
Q 2956 1122 2956 1747 
Q 2956 2369 2687 2733 
Q 2419 3097 1959 3097 
z
M 1959 3584 
Q 2709 3584 3137 3096 
Q 3566 2609 3566 1747 
Q 3566 888 3137 398 
Q 2709 -91 1959 -91 
Q 1206 -91 779 398 
Q 353 888 353 1747 
Q 353 2609 779 3096 
Q 1206 3584 1959 3584 
z
" transform="scale(0.015625)"/>
      <path id="DejaVuSans-6a" d="M 603 3500 
L 1178 3500 
L 1178 -63 
Q 1178 -731 923 -1031 
Q 669 -1331 103 -1331 
L -116 -1331 
L -116 -844 
L 38 -844 
Q 366 -844 484 -692 
Q 603 -541 603 -63 
L 603 3500 
z
M 603 4863 
L 1178 4863 
L 1178 4134 
L 603 4134 
L 603 4863 
z
" transform="scale(0.015625)"/>
      <path id="DejaVuSans-73" d="M 2834 3397 
L 2834 2853 
Q 2591 2978 2328 3040 
Q 2066 3103 1784 3103 
Q 1356 3103 1142 2972 
Q 928 2841 928 2578 
Q 928 2378 1081 2264 
Q 1234 2150 1697 2047 
L 1894 2003 
Q 2506 1872 2764 1633 
Q 3022 1394 3022 966 
Q 3022 478 2636 193 
Q 2250 -91 1575 -91 
Q 1294 -91 989 -36 
Q 684 19 347 128 
L 347 722 
Q 666 556 975 473 
Q 1284 391 1588 391 
Q 1994 391 2212 530 
Q 2431 669 2431 922 
Q 2431 1156 2273 1281 
Q 2116 1406 1581 1522 
L 1381 1569 
Q 847 1681 609 1914 
Q 372 2147 372 2553 
Q 372 3047 722 3315 
Q 1072 3584 1716 3584 
Q 2034 3584 2315 3537 
Q 2597 3491 2834 3397 
z
" transform="scale(0.015625)"/>
      <path id="DejaVuSans-49" d="M 628 4666 
L 1259 4666 
L 1259 0 
L 628 0 
L 628 4666 
z
" transform="scale(0.015625)"/>
      <path id="DejaVuSans-50" d="M 1259 4147 
L 1259 2394 
L 2053 2394 
Q 2494 2394 2734 2622 
Q 2975 2850 2975 3272 
Q 2975 3691 2734 3919 
Q 2494 4147 2053 4147 
L 1259 4147 
z
M 628 4666 
L 2053 4666 
Q 2838 4666 3239 4311 
Q 3641 3956 3641 3272 
Q 3641 2581 3239 2228 
Q 2838 1875 2053 1875 
L 1259 1875 
L 1259 0 
L 628 0 
L 628 4666 
z
" transform="scale(0.015625)"/>
      <path id="DejaVuSans-36" d="M 2113 2584 
Q 1688 2584 1439 2293 
Q 1191 2003 1191 1497 
Q 1191 994 1439 701 
Q 1688 409 2113 409 
Q 2538 409 2786 701 
Q 3034 994 3034 1497 
Q 3034 2003 2786 2293 
Q 2538 2584 2113 2584 
z
M 3366 4563 
L 3366 3988 
Q 3128 4100 2886 4159 
Q 2644 4219 2406 4219 
Q 1781 4219 1451 3797 
Q 1122 3375 1075 2522 
Q 1259 2794 1537 2939 
Q 1816 3084 2150 3084 
Q 2853 3084 3261 2657 
Q 3669 2231 3669 1497 
Q 3669 778 3244 343 
Q 2819 -91 2113 -91 
Q 1303 -91 875 529 
Q 447 1150 447 2328 
Q 447 3434 972 4092 
Q 1497 4750 2381 4750 
Q 2619 4750 2861 4703 
Q 3103 4656 3366 4563 
z
" transform="scale(0.015625)"/>
      <path id="DejaVuSans-64" d="M 2906 2969 
L 2906 4863 
L 3481 4863 
L 3481 0 
L 2906 0 
L 2906 525 
Q 2725 213 2448 61 
Q 2172 -91 1784 -91 
Q 1150 -91 751 415 
Q 353 922 353 1747 
Q 353 2572 751 3078 
Q 1150 3584 1784 3584 
Q 2172 3584 2448 3432 
Q 2725 3281 2906 2969 
z
M 947 1747 
Q 947 1113 1208 752 
Q 1469 391 1925 391 
Q 2381 391 2643 752 
Q 2906 1113 2906 1747 
Q 2906 2381 2643 2742 
Q 2381 3103 1925 3103 
Q 1469 3103 1208 2742 
Q 947 2381 947 1747 
z
" transform="scale(0.015625)"/>
     </defs>
     <use xlink:href="#DejaVuSans-4d"/>
     <use xlink:href="#DejaVuSans-61" x="86.279297"/>
     <use xlink:href="#DejaVuSans-78" x="147.558594"/>
     <use xlink:href="#DejaVuSans-69" x="206.738281"/>
     <use xlink:href="#DejaVuSans-6d" x="234.521484"/>
     <use xlink:href="#DejaVuSans-61" x="331.933594"/>
     <use xlink:href="#DejaVuSans-6c" x="393.212891"/>
     <use xlink:href="#DejaVuSans-20" x="420.996094"/>
     <use xlink:href="#DejaVuSans-74" x="452.783203"/>
     <use xlink:href="#DejaVuSans-65" x="491.992188"/>
     <use xlink:href="#DejaVuSans-6d" x="553.515625"/>
     <use xlink:href="#DejaVuSans-70" x="650.927734"/>
     <use xlink:href="#DejaVuSans-65" x="714.404297"/>
     <use xlink:href="#DejaVuSans-72" x="775.927734"/>
     <use xlink:href="#DejaVuSans-61" x="817.041016"/>
     <use xlink:href="#DejaVuSans-74" x="878.320312"/>
     <use xlink:href="#DejaVuSans-75" x="917.529297"/>
     <use xlink:href="#DejaVuSans-72" x="980.908203"/>
     <use xlink:href="#DejaVuSans-65" x="1019.771484"/>
     <use xlink:href="#DejaVuSans-20" x="1081.294922"/>
     <use xlink:href="#DejaVuSans-28" x="1113.082031"/>
     <use xlink:href="#DejaVuSans-69" x="1152.095703"/>
     <use xlink:href="#DejaVuSans-6e" x="1179.878906"/>
     <use xlink:href="#DejaVuSans-20" x="1243.257812"/>
     <use xlink:href="#DejaVuSans-43" x="1275.044922"/>
     <use xlink:href="#DejaVuSans-7a" x="1344.869141"/>
     <use xlink:href="#DejaVuSans-65" x="1397.359375"/>
     <use xlink:href="#DejaVuSans-63" x="1458.882812"/>
     <use xlink:href="#DejaVuSans-68" x="1513.863281"/>
     <use xlink:href="#DejaVuSans-69" x="1577.242188"/>
     <use xlink:href="#DejaVuSans-61" x="1605.025391"/>
     <use xlink:href="#DejaVuSans-29" x="1666.304688"/>
     <use xlink:href="#DejaVuSans-20" x="1705.318359"/>
     <use xlink:href="#DejaVuSans-70" x="1737.105469"/>
     <use xlink:href="#DejaVuSans-72" x="1800.582031"/>
     <use xlink:href="#DejaVuSans-6f" x="1839.445312"/>
     <use xlink:href="#DejaVuSans-6a" x="1900.626953"/>
     <use xlink:href="#DejaVuSans-65" x="1928.410156"/>
     <use xlink:href="#DejaVuSans-63" x="1989.933594"/>
     <use xlink:href="#DejaVuSans-74" x="2044.914062"/>
     <use xlink:href="#DejaVuSans-69" x="2084.123047"/>
     <use xlink:href="#DejaVuSans-6f" x="2111.90625"/>
     <use xlink:href="#DejaVuSans-6e" x="2173.087891"/>
     <use xlink:href="#DejaVuSans-73" x="2236.466797"/>
     <use xlink:href="#DejaVuSans-20" x="2288.566406"/>
     <use xlink:href="#DejaVuSans-28" x="2320.353516"/>
     <use xlink:href="#DejaVuSans-33" x="2359.367188"/>
     <use xlink:href="#DejaVuSans-34" x="2422.990234"/>
     <use xlink:href="#DejaVuSans-20" x="2486.613281"/>
     <use xlink:href="#DejaVuSans-43" x="2518.400391"/>
     <use xlink:href="#DejaVuSans-4d" x="2588.224609"/>
     <use xlink:href="#DejaVuSans-49" x="2674.503906"/>
     <use xlink:href="#DejaVuSans-50" x="2703.996094"/>
     <use xlink:href="#DejaVuSans-36" x="2764.298828"/>
     <use xlink:href="#DejaVuSans-20" x="2827.921875"/>
     <use xlink:href="#DejaVuSans-6d" x="2859.708984"/>
     <use xlink:href="#DejaVuSans-6f" x="2957.121094"/>
     <use xlink:href="#DejaVuSans-64" x="3018.302734"/>
     <use xlink:href="#DejaVuSans-65" x="3081.779297"/>
     <use xlink:href="#DejaVuSans-6c" x="3143.302734"/>
     <use xlink:href="#DejaVuSans-73" x="3171.085938"/>
     <use xlink:href="#DejaVuSans-29" x="3223.185547"/>
    </g>
   </g>
   <g id="legend_1">
    <g id="PathCollection_2">
     <g>
      <use xlink:href="#mc0311b3d98" x="95.72" y="48.362813" style="stroke: #000000"/>
     </g>
    </g>
    <g id="text_23">
     <!-- measurements -->
     <g transform="translate(120.92 52.037813) scale(0.14 -0.14)">
      <use xlink:href="#DejaVuSans-6d"/>
      <use xlink:href="#DejaVuSans-65" x="97.412109"/>
      <use xlink:href="#DejaVuSans-61" x="158.935547"/>
      <use xlink:href="#DejaVuSans-73" x="220.214844"/>
      <use xlink:href="#DejaVuSans-75" x="272.314453"/>
      <use xlink:href="#DejaVuSans-72" x="335.693359"/>
      <use xlink:href="#DejaVuSans-65" x="374.556641"/>
      <use xlink:href="#DejaVuSans-6d" x="436.080078"/>
      <use xlink:href="#DejaVuSans-65" x="533.492188"/>
      <use xlink:href="#DejaVuSans-6e" x="595.015625"/>
      <use xlink:href="#DejaVuSans-74" x="658.394531"/>
      <use xlink:href="#DejaVuSans-73" x="697.603516"/>
     </g>
    </g>
    <g id="line2d_29">
     <path d="M 81.72 67.687188 
L 95.72 67.687188 
L 109.72 67.687188 
" style="fill: none; stroke: #777777; stroke-width: 1.8; stroke-linecap: square"/>
    </g>
    <g id="text_24">
     <!-- hindcast -->
     <g transform="translate(120.92 72.587188) scale(0.14 -0.14)">
      <use xlink:href="#DejaVuSans-68"/>
      <use xlink:href="#DejaVuSans-69" x="63.378906"/>
      <use xlink:href="#DejaVuSans-6e" x="91.162109"/>
      <use xlink:href="#DejaVuSans-64" x="154.541016"/>
      <use xlink:href="#DejaVuSans-63" x="218.017578"/>
      <use xlink:href="#DejaVuSans-61" x="272.998047"/>
      <use xlink:href="#DejaVuSans-73" x="334.277344"/>
      <use xlink:href="#DejaVuSans-74" x="386.376953"/>
     </g>
    </g>
    <g id="line2d_30">
     <path d="M 81.72 88.236563 
L 95.72 88.236563 
L 109.72 88.236563 
" style="fill: none; stroke: #3db5af; stroke-width: 1.8; stroke-linecap: square"/>
    </g>
    <g id="text_25">
     <!-- 3° = no decline till 2050 -->
     <g transform="translate(120.92 93.136563) scale(0.14 -0.14)">
      <defs>
       <path id="DejaVuSans-3d" d="M 678 2906 
L 4684 2906 
L 4684 2381 
L 678 2381 
L 678 2906 
z
M 678 1631 
L 4684 1631 
L 4684 1100 
L 678 1100 
L 678 1631 
z
" transform="scale(0.015625)"/>
      </defs>
      <use xlink:href="#DejaVuSans-33"/>
      <use xlink:href="#DejaVuSans-b0" x="63.623047"/>
      <use xlink:href="#DejaVuSans-20" x="113.623047"/>
      <use xlink:href="#DejaVuSans-3d" x="145.410156"/>
      <use xlink:href="#DejaVuSans-20" x="229.199219"/>
      <use xlink:href="#DejaVuSans-6e" x="260.986328"/>
      <use xlink:href="#DejaVuSans-6f" x="324.365234"/>
      <use xlink:href="#DejaVuSans-20" x="385.546875"/>
      <use xlink:href="#DejaVuSans-64" x="417.333984"/>
      <use xlink:href="#DejaVuSans-65" x="480.810547"/>
      <use xlink:href="#DejaVuSans-63" x="542.333984"/>
      <use xlink:href="#DejaVuSans-6c" x="597.314453"/>
      <use xlink:href="#DejaVuSans-69" x="625.097656"/>
      <use xlink:href="#DejaVuSans-6e" x="652.880859"/>
      <use xlink:href="#DejaVuSans-65" x="716.259766"/>
      <use xlink:href="#DejaVuSans-20" x="777.783203"/>
      <use xlink:href="#DejaVuSans-74" x="809.570312"/>
      <use xlink:href="#DejaVuSans-69" x="848.779297"/>
      <use xlink:href="#DejaVuSans-6c" x="876.5625"/>
      <use xlink:href="#DejaVuSans-6c" x="904.345703"/>
      <use xlink:href="#DejaVuSans-20" x="932.128906"/>
      <use xlink:href="#DejaVuSans-32" x="963.916016"/>
      <use xlink:href="#DejaVuSans-30" x="1027.539062"/>
      <use xlink:href="#DejaVuSans-35" x="1091.162109"/>
      <use xlink:href="#DejaVuSans-30" x="1154.785156"/>
     </g>
    </g>
   </g>
  </g>
 </g>
 <defs>
  <clipPath id="pb6a914d8ff">
   <rect x="69.12" y="28.8" width="768.96" height="460.8"/>
  </clipPath>
 </defs>
</svg>
