<?xml version="1.0" encoding="utf-8" standalone="no"?>
<!DOCTYPE svg PUBLIC "-//W3C//DTD SVG 1.1//EN"
  "http://www.w3.org/Graphics/SVG/1.1/DTD/svg11.dtd">
<svg xmlns:xlink="http://www.w3.org/1999/xlink" width="864pt" height="576pt" viewBox="0 0 864 576" xmlns="http://www.w3.org/2000/svg" version="1.1">
 <metadata>
  <rdf:RDF xmlns:dc="http://purl.org/dc/elements/1.1/" xmlns:cc="http://creativecommons.org/ns#" xmlns:rdf="http://www.w3.org/1999/02/22-rdf-syntax-ns#">
   <cc:Work>
    <dc:type rdf:resource="http://purl.org/dc/dcmitype/StillImage"/>
    <dc:date>2024-08-09T14:52:08.953580</dc:date>
    <dc:format>image/svg+xml</dc:format>
    <dc:creator>
     <cc:Agent>
      <dc:title>Matplotlib v3.8.3, https://matplotlib.org/</dc:title>
     </cc:Agent>
    </dc:creator>
   </cc:Work>
  </rdf:RDF>
 </metadata>
 <defs>
  <style type="text/css">*{stroke-linejoin: round; stroke-linecap: butt}</style>
 </defs>
 <g id="figure_1">
  <g id="patch_1">
   <path d="M 0 576 
L 864 576 
L 864 0 
L 0 0 
z
" style="fill: #ffffff"/>
  </g>
  <g id="axes_1">
   <g id="patch_2">
    <path d="M 69.12 489.6 
L 838.08 489.6 
L 838.08 28.8 
L 69.12 28.8 
z
" style="fill: #ffffff"/>
   </g>
   <g id="PathCollection_1">
    <defs>
     <path id="mf97f8e3297" d="M 0 1.322876 
C 0.350831 1.322876 0.68734 1.183489 0.935414 0.935414 
C 1.183489 0.68734 1.322876 0.350831 1.322876 0 
C 1.322876 -0.350831 1.183489 -0.68734 0.935414 -0.935414 
C 0.68734 -1.183489 0.350831 -1.322876 0 -1.322876 
C -0.350831 -1.322876 -0.68734 -1.183489 -0.935414 -0.935414 
C -1.183489 -0.68734 -1.322876 -0.350831 -1.322876 0 
C -1.322876 0.350831 -1.183489 0.68734 -0.935414 0.935414 
C -0.68734 1.183489 -0.350831 1.322876 0 1.322876 
z
" style="stroke: #000000"/>
    </defs>
    <g clip-path="url(#p6f9531b3c3)">
     <use xlink:href="#mf97f8e3297" x="410.53824" y="382.954221" style="stroke: #000000"/>
     <use xlink:href="#mf97f8e3297" x="413.61408" y="389.741756" style="stroke: #000000"/>
     <use xlink:href="#mf97f8e3297" x="416.68992" y="355.804085" style="stroke: #000000"/>
     <use xlink:href="#mf97f8e3297" x="419.76576" y="395.171783" style="stroke: #000000"/>
     <use xlink:href="#mf97f8e3297" x="422.8416" y="389.741756" style="stroke: #000000"/>
     <use xlink:href="#mf97f8e3297" x="425.91744" y="403.316824" style="stroke: #000000"/>
     <use xlink:href="#mf97f8e3297" x="428.99328" y="389.741756" style="stroke: #000000"/>
     <use xlink:href="#mf97f8e3297" x="432.06912" y="388.384249" style="stroke: #000000"/>
     <use xlink:href="#mf97f8e3297" x="435.14496" y="378.881701" style="stroke: #000000"/>
     <use xlink:href="#mf97f8e3297" x="438.2208" y="400.60181" style="stroke: #000000"/>
     <use xlink:href="#mf97f8e3297" x="441.29664" y="369.379153" style="stroke: #000000"/>
     <use xlink:href="#mf97f8e3297" x="444.37248" y="387.026742" style="stroke: #000000"/>
     <use xlink:href="#mf97f8e3297" x="447.44832" y="389.741756" style="stroke: #000000"/>
     <use xlink:href="#mf97f8e3297" x="450.52416" y="362.591619" style="stroke: #000000"/>
     <use xlink:href="#mf97f8e3297" x="453.6" y="414.176878" style="stroke: #000000"/>
     <use xlink:href="#mf97f8e3297" x="456.67584" y="357.161592" style="stroke: #000000"/>
     <use xlink:href="#mf97f8e3297" x="459.75168" y="423.679426" style="stroke: #000000"/>
     <use xlink:href="#mf97f8e3297" x="462.82752" y="425.036933" style="stroke: #000000"/>
     <use xlink:href="#mf97f8e3297" x="465.90336" y="406.031838" style="stroke: #000000"/>
     <use xlink:href="#mf97f8e3297" x="468.9792" y="404.674331" style="stroke: #000000"/>
     <use xlink:href="#mf97f8e3297" x="472.05504" y="412.819372" style="stroke: #000000"/>
     <use xlink:href="#mf97f8e3297" x="475.13088" y="389.741756" style="stroke: #000000"/>
     <use xlink:href="#mf97f8e3297" x="478.20672" y="311.00636" style="stroke: #000000"/>
     <use xlink:href="#mf97f8e3297" x="481.28256" y="344.94403" style="stroke: #000000"/>
     <use xlink:href="#mf97f8e3297" x="484.3584" y="403.316824" style="stroke: #000000"/>
     <use xlink:href="#mf97f8e3297" x="487.43424" y="372.094167" style="stroke: #000000"/>
     <use xlink:href="#mf97f8e3297" x="490.51008" y="414.176878" style="stroke: #000000"/>
     <use xlink:href="#mf97f8e3297" x="493.58592" y="363.949126" style="stroke: #000000"/>
     <use xlink:href="#mf97f8e3297" x="496.66176" y="387.026742" style="stroke: #000000"/>
     <use xlink:href="#mf97f8e3297" x="499.7376" y="365.306633" style="stroke: #000000"/>
     <use xlink:href="#mf97f8e3297" x="502.81344" y="376.166687" style="stroke: #000000"/>
     <use xlink:href="#mf97f8e3297" x="505.88928" y="339.514003" style="stroke: #000000"/>
     <use xlink:href="#mf97f8e3297" x="508.96512" y="384.311728" style="stroke: #000000"/>
     <use xlink:href="#mf97f8e3297" x="512.04096" y="339.514003" style="stroke: #000000"/>
     <use xlink:href="#mf97f8e3297" x="515.1168" y="355.804085" style="stroke: #000000"/>
     <use xlink:href="#mf97f8e3297" x="518.19264" y="411.461865" style="stroke: #000000"/>
     <use xlink:href="#mf97f8e3297" x="521.26848" y="381.596715" style="stroke: #000000"/>
     <use xlink:href="#mf97f8e3297" x="524.34432" y="346.301537" style="stroke: #000000"/>
     <use xlink:href="#mf97f8e3297" x="527.42016" y="368.021646" style="stroke: #000000"/>
     <use xlink:href="#mf97f8e3297" x="530.496" y="343.586524" style="stroke: #000000"/>
     <use xlink:href="#mf97f8e3297" x="533.57184" y="376.166687" style="stroke: #000000"/>
     <use xlink:href="#mf97f8e3297" x="536.64768" y="387.026742" style="stroke: #000000"/>
     <use xlink:href="#mf97f8e3297" x="539.72352" y="330.011455" style="stroke: #000000"/>
     <use xlink:href="#mf97f8e3297" x="542.79936" y="376.166687" style="stroke: #000000"/>
     <use xlink:href="#mf97f8e3297" x="545.8752" y="344.94403" style="stroke: #000000"/>
     <use xlink:href="#mf97f8e3297" x="548.95104" y="363.949126" style="stroke: #000000"/>
     <use xlink:href="#mf97f8e3297" x="552.02688" y="330.011455" style="stroke: #000000"/>
     <use xlink:href="#mf97f8e3297" x="555.10272" y="389.741756" style="stroke: #000000"/>
     <use xlink:href="#mf97f8e3297" x="558.17856" y="366.66414" style="stroke: #000000"/>
     <use xlink:href="#mf97f8e3297" x="561.2544" y="353.089071" style="stroke: #000000"/>
     <use xlink:href="#mf97f8e3297" x="564.33024" y="365.306633" style="stroke: #000000"/>
     <use xlink:href="#mf97f8e3297" x="567.40608" y="302.861319" style="stroke: #000000"/>
     <use xlink:href="#mf97f8e3297" x="570.48192" y="325.938935" style="stroke: #000000"/>
     <use xlink:href="#mf97f8e3297" x="573.55776" y="369.379153" style="stroke: #000000"/>
     <use xlink:href="#mf97f8e3297" x="576.6336" y="319.151401" style="stroke: #000000"/>
     <use xlink:href="#mf97f8e3297" x="579.70944" y="362.591619" style="stroke: #000000"/>
     <use xlink:href="#mf97f8e3297" x="582.78528" y="346.301537" style="stroke: #000000"/>
     <use xlink:href="#mf97f8e3297" x="585.86112" y="358.519099" style="stroke: #000000"/>
     <use xlink:href="#mf97f8e3297" x="588.93696" y="317.793894" style="stroke: #000000"/>
     <use xlink:href="#mf97f8e3297" x="592.0128" y="368.021646" style="stroke: #000000"/>
     <use xlink:href="#mf97f8e3297" x="595.08864" y="388.384249" style="stroke: #000000"/>
     <use xlink:href="#mf97f8e3297" x="598.16448" y="334.083976" style="stroke: #000000"/>
    </g>
   </g>
   <g id="PolyCollection_1">
    <defs>
     <path id="ma9fd507a6e" d="M 69.12 -451.066282 
L 69.12 -188.665781 
L 72.19584 -166.540839 
L 75.27168 -190.777357 
L 78.34752 -182.007916 
L 81.42336 -136.174246 
L 84.4992 -179.608416 
L 87.57504 -174.94033 
L 90.65088 -149.99871 
L 93.72672 -136.518512 
L 96.80256 -168.36822 
L 99.8784 -162.289516 
L 102.95424 -146.438403 
L 106.03008 -141.94017 
L 109.10592 -166.549539 
L 112.18176 -171.403636 
L 115.2576 -159.777747 
L 118.33344 -149.422035 
L 121.40928 -125.664008 
L 124.48512 -149.586089 
L 127.56096 -174.958143 
L 130.6368 -184.071435 
L 133.71264 -141.325382 
L 136.78848 -133.522452 
L 139.86432 -164.377064 
L 142.94016 -150.50123 
L 146.016 -164.921011 
L 149.09184 -145.49882 
L 152.16768 -136.726893 
L 155.24352 -166.578538 
L 158.31936 -175.44782 
L 161.3952 -160.834985 
L 164.47104 -168.984666 
L 167.54688 -170.564723 
L 170.62272 -140.432612 
L 173.69856 -153.481547 
L 176.7744 -186.691745 
L 179.85024 -161.853281 
L 182.92608 -126.61312 
L 186.00192 -156.960655 
L 189.07776 -143.003208 
L 192.1536 -128.120678 
L 195.22944 -158.938834 
L 198.30528 -174.823503 
L 201.38112 -150.720797 
L 204.45696 -145.700574 
L 207.5328 -149.929526 
L 210.60864 -140.824934 
L 213.68448 -170.532824 
L 216.76032 -158.955405 
L 219.83616 -148.341597 
L 222.912 -134.526662 
L 225.98784 -164.950011 
L 229.06368 -159.100817 
L 232.13952 -139.019923 
L 235.21536 -149.513176 
L 238.2912 -147.950933 
L 241.36704 -149.623374 
L 244.44288 -151.615638 
L 247.51872 -148.996985 
L 250.59456 -158.037364 
L 253.6704 -154.884293 
L 256.74624 -165.123593 
L 259.82208 -162.194232 
L 262.89792 -172.184965 
L 265.97376 -164.237452 
L 269.0496 -160.927783 
L 272.12544 -149.502405 
L 275.20128 -152.879601 
L 278.27712 -147.002236 
L 281.35296 -153.190724 
L 284.4288 -138.886112 
L 287.50464 -176.788839 
L 290.58048 -153.971224 
L 293.65632 -155.448126 
L 296.73216 -191.361903 
L 299.808 -169.946206 
L 302.88384 -155.68095 
L 305.95968 -134.276024 
L 309.03552 -122.385825 
L 312.11136 -151.848462 
L 315.1872 -153.914468 
L 318.26304 -133.642592 
L 321.33888 -123.228881 
L 324.41472 -139.045194 
L 327.49056 -170.967402 
L 330.5664 -162.20376 
L 333.64224 -175.385679 
L 336.71808 -157.520345 
L 339.79392 -144.240657 
L 342.86976 -127.514589 
L 345.9456 -148.306798 
L 349.02144 -151.3244 
L 352.09728 -169.051779 
L 355.17312 -140.856004 
L 358.24896 -151.47644 
L 361.3248 -172.851953 
L 364.40064 -142.788612 
L 367.47648 -175.909326 
L 370.55232 -155.200387 
L 373.62816 -160.12077 
L 376.704 -139.426745 
L 379.77984 -128.491043 
L 382.85568 -170.132217 
L 385.93152 -161.984607 
L 389.00736 -162.384386 
L 392.0832 -154.10835 
L 395.15904 -165.961678 
L 398.23488 -143.745181 
L 401.31072 -155.539267 
L 404.38656 -136.645281 
L 407.4624 -151.91599 
L 410.53824 -125.417513 
L 413.61408 -133.401068 
L 416.68992 -174.705434 
L 419.76576 -143.197919 
L 422.8416 -129.708192 
L 425.91744 -128.459143 
L 428.99328 -150.021081 
L 432.06912 -151.685237 
L 435.14496 -187.28872 
L 438.2208 -127.540274 
L 441.29664 -152.227527 
L 444.37248 -128.991905 
L 447.44832 -147.256188 
L 450.52416 -150.422931 
L 453.6 -161.697098 
L 456.67584 -145.251082 
L 459.75168 -148.74179 
L 462.82752 -150.69594 
L 465.90336 -107.345455 
L 468.9792 -178.909529 
L 472.05504 -134.003014 
L 475.13088 -144.246871 
L 478.20672 -160.333709 
L 481.28256 -142.062383 
L 484.3584 -136.904619 
L 487.43424 -124.36566 
L 490.51008 -131.008611 
L 493.58592 -148.349883 
L 496.66176 -128.537856 
L 499.7376 -154.864408 
L 502.81344 -134.94964 
L 505.88928 -151.200531 
L 508.96512 -153.398277 
L 512.04096 -157.828568 
L 515.1168 -159.253685 
L 518.19264 -160.504805 
L 521.26848 -137.573264 
L 524.34432 -148.711962 
L 527.42016 -132.697624 
L 530.496 -170.367112 
L 533.57184 -154.363545 
L 536.64768 -172.494845 
L 539.72352 -147.503512 
L 542.79936 -167.841672 
L 545.8752 -138.702586 
L 548.95104 -146.128523 
L 552.02688 -160.43065 
L 555.10272 -161.342476 
L 558.17856 -158.542784 
L 561.2544 -175.239853 
L 564.33024 -182.632647 
L 567.40608 -167.175927 
L 570.48192 -167.117514 
L 573.55776 -161.388461 
L 573.55776 -461.787802 
L 573.55776 -461.787802 
L 570.48192 -463.025666 
L 567.40608 -477.280564 
L 564.33024 -469.051756 
L 561.2544 -465.8382 
L 558.17856 -457.892344 
L 555.10272 -466.803054 
L 552.02688 -457.385268 
L 548.95104 -454.706545 
L 545.8752 -468.814375 
L 542.79936 -461.119986 
L 539.72352 -465.916499 
L 536.64768 -470.557243 
L 533.57184 -480.375223 
L 530.496 -482.079563 
L 527.42016 -468.44691 
L 524.34432 -452.552713 
L 521.26848 -468.306884 
L 518.19264 -459.421445 
L 515.1168 -460.461698 
L 512.04096 -445.973975 
L 508.96512 -444.857909 
L 505.88928 -450.917971 
L 502.81344 -455.800654 
L 499.7376 -458.074627 
L 496.66176 -468.649907 
L 493.58592 -452.704753 
L 490.51008 -473.421563 
L 487.43424 -474.897222 
L 484.3584 -458.471091 
L 481.28256 -443.196654 
L 478.20672 -449.602637 
L 475.13088 -448.373474 
L 472.05504 -463.34466 
L 468.9792 -456.647024 
L 465.90336 -448.706968 
L 462.82752 -445.906033 
L 459.75168 -438.942845 
L 456.67584 -440.124781 
L 453.6 -453.204372 
L 450.52416 -441.561912 
L 447.44832 -462.567888 
L 444.37248 -459.390374 
L 441.29664 -464.102789 
L 438.2208 -462.049626 
L 435.14496 -452.116892 
L 432.06912 -449.307671 
L 428.99328 -449.275772 
L 425.91744 -450.783745 
L 422.8416 -457.208371 
L 419.76576 -449.138232 
L 416.68992 -450.810673 
L 413.61408 -450.094386 
L 410.53824 -454.931498 
L 407.4624 -454.455492 
L 404.38656 -466.614972 
L 401.31072 -445.901062 
L 398.23488 -453.511352 
L 395.15904 -456.901805 
L 392.0832 -449.835876 
L 389.00736 -447.407377 
L 385.93152 -453.462882 
L 382.85568 -456.914648 
L 379.77984 -448.254576 
L 376.704 -448.187049 
L 373.62816 -447.056484 
L 370.55232 -451.993437 
L 367.47648 -459.695697 
L 364.40064 -460.81342 
L 361.3248 -450.090657 
L 358.24896 -458.014556 
L 355.17312 -457.593236 
L 352.09728 -455.140294 
L 349.02144 -446.220884 
L 345.9456 -459.984035 
L 342.86976 -467.170519 
L 339.79392 -446.254027 
L 336.71808 -459.591714 
L 333.64224 -460.392928 
L 330.5664 -462.667315 
L 327.49056 -461.112529 
L 324.41472 -454.904984 
L 321.33888 -445.444113 
L 318.26304 -450.813573 
L 315.1872 -461.960971 
L 312.11136 -445.434999 
L 309.03552 -448.724368 
L 305.95968 -466.879282 
L 302.88384 -455.6221 
L 299.808 -451.709656 
L 296.73216 -454.427736 
L 293.65632 -439.11187 
L 290.58048 -437.855779 
L 287.50464 -451.536902 
L 284.4288 -442.775333 
L 281.35296 -446.979428 
L 278.27712 -454.781529 
L 275.20128 -460.428141 
L 272.12544 -446.959957 
L 269.0496 -442.850317 
L 265.97376 -438.777548 
L 262.89792 -436.983309 
L 259.82208 -435.912814 
L 256.74624 -450.815644 
L 253.6704 -450.17227 
L 250.59456 -445.355043 
L 247.51872 -445.20756 
L 244.44288 -452.420558 
L 241.36704 -451.204651 
L 238.2912 -449.229373 
L 235.21536 -450.456051 
L 232.13952 -461.934457 
L 229.06368 -447.294694 
L 225.98784 -458.290466 
L 222.912 -454.459221 
L 219.83616 -454.593033 
L 216.76032 -447.300079 
L 213.68448 -444.260934 
L 210.60864 -453.067246 
L 207.5328 -466.646043 
L 204.45696 -444.294905 
L 201.38112 -449.820134 
L 198.30528 -453.630664 
L 195.22944 -454.829586 
L 192.1536 -445.207146 
L 189.07776 -461.536335 
L 186.00192 -448.563628 
L 182.92608 -438.543481 
L 179.85024 -436.175052 
L 176.7744 -442.596779 
L 173.69856 -430.087234 
L 170.62272 -438.749791 
L 167.54688 -455.807282 
L 164.47104 -455.500716 
L 161.3952 -447.057726 
L 158.31936 -453.803004 
L 155.24352 -453.372155 
L 152.16768 -452.691496 
L 149.09184 -458.276795 
L 146.016 -455.063653 
L 142.94016 -439.649604 
L 139.86432 -450.865772 
L 136.78848 -442.70822 
L 133.71264 -458.974439 
L 130.6368 -449.001106 
L 127.56096 -450.144513 
L 124.48512 -450.836772 
L 121.40928 -445.106476 
L 118.33344 -445.330601 
L 115.2576 -447.726786 
L 112.18176 -450.773802 
L 109.10592 -456.051706 
L 106.03008 -444.935793 
L 102.95424 -456.076149 
L 99.8784 -441.721823 
L 96.80256 -440.715127 
L 93.72672 -461.698318 
L 90.65088 -443.354494 
L 87.57504 -445.967761 
L 84.4992 -446.501765 
L 81.42336 -457.962357 
L 78.34752 -457.534408 
L 75.27168 -446.873373 
L 72.19584 -453.176616 
L 69.12 -451.066282 
z
" style="stroke: #777777; stroke-opacity: 0.03"/>
    </defs>
    <g clip-path="url(#p6f9531b3c3)">
     <use xlink:href="#ma9fd507a6e" x="0" y="576" style="fill: #777777; fill-opacity: 0.03; stroke: #777777; stroke-opacity: 0.03"/>
    </g>
   </g>
   <g id="PolyCollection_2">
    <defs>
     <path id="mcd1749cd14" d="M 576.6336 -469.711246 
L 576.6336 -142.935681 
L 579.70944 -152.406495 
L 582.78528 -148.169092 
L 585.86112 -166.227479 
L 588.93696 -177.469539 
L 592.0128 -150.277436 
L 595.08864 -202.661756 
L 598.16448 -182.147527 
L 601.24032 -140.188685 
L 604.31616 -178.020944 
L 607.392 -161.832277 
L 610.46784 -149.698648 
L 613.54368 -166.253578 
L 616.61952 -162.003291 
L 619.69536 -156.359911 
L 622.7712 -171.586333 
L 625.84704 -166.019304 
L 628.92288 -159.900125 
L 631.99872 -140.928917 
L 635.07456 -170.589497 
L 638.1504 -158.047929 
L 641.22624 -190.247702 
L 644.30208 -150.356729 
L 647.37792 -169.200215 
L 650.45376 -169.617393 
L 653.5296 -160.279397 
L 656.60544 -173.600885 
L 659.68128 -172.828753 
L 662.75712 -163.454756 
L 665.83296 -186.706618 
L 668.9088 -199.086162 
L 671.98464 -171.093715 
L 675.06048 -172.084378 
L 678.13632 -159.926846 
L 681.21216 -180.549656 
L 684.288 -207.182857 
L 687.36384 -168.250938 
L 690.43968 -171.367429 
L 693.51552 -180.88634 
L 696.59136 -167.716188 
L 699.6672 -195.672344 
L 702.74304 -158.832157 
L 705.81888 -179.169323 
L 708.89472 -168.016415 
L 711.97056 -172.722574 
L 715.0464 -164.863219 
L 718.12224 -200.436667 
L 721.19808 -181.295109 
L 724.27392 -152.826573 
L 727.34976 -197.857247 
L 730.4256 -148.478351 
L 733.50144 -155.123414 
L 736.57728 -186.620738 
L 739.65312 -176.690945 
L 742.72896 -168.847706 
L 745.8048 -175.873367 
L 748.88064 -158.000121 
L 751.95648 -193.913567 
L 755.03232 -171.716955 
L 758.10816 -168.113563 
L 761.184 -200.649482 
L 764.25984 -183.398358 
L 767.33568 -186.056864 
L 770.41152 -184.031126 
L 773.48736 -172.4564 
L 776.5632 -205.799167 
L 779.63904 -166.683806 
L 782.71488 -172.833766 
L 785.79072 -174.709701 
L 788.86656 -171.408898 
L 791.9424 -182.85441 
L 795.01824 -215.745283 
L 798.09408 -176.373691 
L 801.16992 -198.483594 
L 804.24576 -184.529627 
L 807.3216 -166.431718 
L 810.39744 -192.73217 
L 813.47328 -185.002111 
L 816.54912 -184.07707 
L 819.62496 -183.465471 
L 822.7008 -191.779993 
L 825.77664 -146.930483 
L 828.85248 -168.06269 
L 831.92832 -183.10451 
L 835.00416 -200.220539 
L 838.08 -171.439596 
L 838.08 -514.064409 
L 838.08 -514.064409 
L 835.00416 -512.309941 
L 831.92832 -512.914787 
L 828.85248 -511.386598 
L 825.77664 -526.254545 
L 822.7008 -518.701839 
L 819.62496 -524.289748 
L 816.54912 -508.703359 
L 813.47328 -512.99988 
L 810.39744 -511.915217 
L 807.3216 -512.389151 
L 804.24576 -511.3298 
L 801.16992 -500.644695 
L 798.09408 -512.875762 
L 795.01824 -508.919322 
L 791.9424 -509.069084 
L 788.86656 -519.787248 
L 785.79072 -526.206489 
L 782.71488 -511.232279 
L 779.63904 -512.079147 
L 776.5632 -501.552627 
L 773.48736 -523.417817 
L 770.41152 -510.707844 
L 767.33568 -500.078543 
L 764.25984 -496.676573 
L 761.184 -518.187099 
L 758.10816 -496.439109 
L 755.03232 -502.511599 
L 751.95648 -496.515336 
L 748.88064 -508.687492 
L 745.8048 -511.691631 
L 742.72896 -495.643612 
L 739.65312 -504.463139 
L 736.57728 -512.367899 
L 733.50144 -508.8003 
L 730.4256 -517.976065 
L 727.34976 -493.685319 
L 724.27392 -502.878111 
L 721.19808 -492.117731 
L 718.12224 -495.953865 
L 715.0464 -493.90298 
L 711.97056 -493.888812 
L 708.89472 -503.354986 
L 705.81888 -493.886782 
L 702.74304 -494.327905 
L 699.6672 -499.479869 
L 696.59136 -513.801467 
L 693.51552 -498.065441 
L 690.43968 -505.157884 
L 687.36384 -497.709037 
L 684.288 -500.269566 
L 681.21216 -490.918147 
L 678.13632 -504.095136 
L 675.06048 -487.351295 
L 671.98464 -503.211149 
L 668.9088 -487.026915 
L 665.83296 -494.147653 
L 662.75712 -481.64801 
L 659.68128 -492.997492 
L 656.60544 -494.119855 
L 653.5296 -486.162482 
L 650.45376 -493.378297 
L 647.37792 -493.714194 
L 644.30208 -486.696362 
L 641.22624 -492.082559 
L 638.1504 -477.001465 
L 635.07456 -483.942779 
L 631.99872 -481.29492 
L 628.92288 -486.539185 
L 625.84704 -486.81178 
L 622.7712 -488.052792 
L 619.69536 -480.51674 
L 616.61952 -483.756064 
L 613.54368 -489.978481 
L 610.46784 -478.848442 
L 607.392 -493.125049 
L 604.31616 -486.359886 
L 601.24032 -471.784045 
L 598.16448 -474.054373 
L 595.08864 -474.760013 
L 592.0128 -482.687558 
L 588.93696 -472.256695 
L 585.86112 -479.143615 
L 582.78528 -476.442024 
L 579.70944 -457.613287 
L 576.6336 -469.711246 
z
" style="stroke: #3db5af; stroke-opacity: 0.07"/>
    </defs>
    <g clip-path="url(#p6f9531b3c3)">
     <use xlink:href="#mcd1749cd14" x="0" y="576" style="fill: #3db5af; fill-opacity: 0.07; stroke: #3db5af; stroke-opacity: 0.07"/>
    </g>
   </g>
   <g id="matplotlib.axis_1">
    <g id="xtick_1">
     <g id="line2d_1">
      <defs>
       <path id="me22ae975a5" d="M 0 0 
L 0 3.5 
" style="stroke: #717174; stroke-width: 0.8"/>
      </defs>
      <g>
       <use xlink:href="#me22ae975a5" x="69.12" y="489.6" style="fill: #717174; stroke: #717174; stroke-width: 0.8"/>
      </g>
     </g>
     <g id="text_1">
      <!-- 1850 -->
      <g style="fill: #717174" transform="translate(53.85 505.718125) scale(0.12 -0.12)">
       <defs>
        <path id="DejaVuSans-31" d="M 794 531 
L 1825 531 
L 1825 4091 
L 703 3866 
L 703 4441 
L 1819 4666 
L 2450 4666 
L 2450 531 
L 3481 531 
L 3481 0 
L 794 0 
L 794 531 
z
" transform="scale(0.015625)"/>
        <path id="DejaVuSans-38" d="M 2034 2216 
Q 1584 2216 1326 1975 
Q 1069 1734 1069 1313 
Q 1069 891 1326 650 
Q 1584 409 2034 409 
Q 2484 409 2743 651 
Q 3003 894 3003 1313 
Q 3003 1734 2745 1975 
Q 2488 2216 2034 2216 
z
M 1403 2484 
Q 997 2584 770 2862 
Q 544 3141 544 3541 
Q 544 4100 942 4425 
Q 1341 4750 2034 4750 
Q 2731 4750 3128 4425 
Q 3525 4100 3525 3541 
Q 3525 3141 3298 2862 
Q 3072 2584 2669 2484 
Q 3125 2378 3379 2068 
Q 3634 1759 3634 1313 
Q 3634 634 3220 271 
Q 2806 -91 2034 -91 
Q 1263 -91 848 271 
Q 434 634 434 1313 
Q 434 1759 690 2068 
Q 947 2378 1403 2484 
z
M 1172 3481 
Q 1172 3119 1398 2916 
Q 1625 2713 2034 2713 
Q 2441 2713 2670 2916 
Q 2900 3119 2900 3481 
Q 2900 3844 2670 4047 
Q 2441 4250 2034 4250 
Q 1625 4250 1398 4047 
Q 1172 3844 1172 3481 
z
" transform="scale(0.015625)"/>
        <path id="DejaVuSans-35" d="M 691 4666 
L 3169 4666 
L 3169 4134 
L 1269 4134 
L 1269 2991 
Q 1406 3038 1543 3061 
Q 1681 3084 1819 3084 
Q 2600 3084 3056 2656 
Q 3513 2228 3513 1497 
Q 3513 744 3044 326 
Q 2575 -91 1722 -91 
Q 1428 -91 1123 -41 
Q 819 9 494 109 
L 494 744 
Q 775 591 1075 516 
Q 1375 441 1709 441 
Q 2250 441 2565 725 
Q 2881 1009 2881 1497 
Q 2881 1984 2565 2268 
Q 2250 2553 1709 2553 
Q 1456 2553 1204 2497 
Q 953 2441 691 2322 
L 691 4666 
z
" transform="scale(0.015625)"/>
        <path id="DejaVuSans-30" d="M 2034 4250 
Q 1547 4250 1301 3770 
Q 1056 3291 1056 2328 
Q 1056 1369 1301 889 
Q 1547 409 2034 409 
Q 2525 409 2770 889 
Q 3016 1369 3016 2328 
Q 3016 3291 2770 3770 
Q 2525 4250 2034 4250 
z
M 2034 4750 
Q 2819 4750 3233 4129 
Q 3647 3509 3647 2328 
Q 3647 1150 3233 529 
Q 2819 -91 2034 -91 
Q 1250 -91 836 529 
Q 422 1150 422 2328 
Q 422 3509 836 4129 
Q 1250 4750 2034 4750 
z
" transform="scale(0.015625)"/>
       </defs>
       <use xlink:href="#DejaVuSans-31"/>
       <use xlink:href="#DejaVuSans-38" x="63.623047"/>
       <use xlink:href="#DejaVuSans-35" x="127.246094"/>
       <use xlink:href="#DejaVuSans-30" x="190.869141"/>
      </g>
     </g>
    </g>
    <g id="xtick_2">
     <g id="line2d_2">
      <g>
       <use xlink:href="#me22ae975a5" x="222.912" y="489.6" style="fill: #717174; stroke: #717174; stroke-width: 0.8"/>
      </g>
     </g>
     <g id="text_2">
      <!-- 1900 -->
      <g style="fill: #717174" transform="translate(207.642 505.718125) scale(0.12 -0.12)">
       <defs>
        <path id="DejaVuSans-39" d="M 703 97 
L 703 672 
Q 941 559 1184 500 
Q 1428 441 1663 441 
Q 2288 441 2617 861 
Q 2947 1281 2994 2138 
Q 2813 1869 2534 1725 
Q 2256 1581 1919 1581 
Q 1219 1581 811 2004 
Q 403 2428 403 3163 
Q 403 3881 828 4315 
Q 1253 4750 1959 4750 
Q 2769 4750 3195 4129 
Q 3622 3509 3622 2328 
Q 3622 1225 3098 567 
Q 2575 -91 1691 -91 
Q 1453 -91 1209 -44 
Q 966 3 703 97 
z
M 1959 2075 
Q 2384 2075 2632 2365 
Q 2881 2656 2881 3163 
Q 2881 3666 2632 3958 
Q 2384 4250 1959 4250 
Q 1534 4250 1286 3958 
Q 1038 3666 1038 3163 
Q 1038 2656 1286 2365 
Q 1534 2075 1959 2075 
z
" transform="scale(0.015625)"/>
       </defs>
       <use xlink:href="#DejaVuSans-31"/>
       <use xlink:href="#DejaVuSans-39" x="63.623047"/>
       <use xlink:href="#DejaVuSans-30" x="127.246094"/>
       <use xlink:href="#DejaVuSans-30" x="190.869141"/>
      </g>
     </g>
    </g>
    <g id="xtick_3">
     <g id="line2d_3">
      <g>
       <use xlink:href="#me22ae975a5" x="376.704" y="489.6" style="fill: #717174; stroke: #717174; stroke-width: 0.8"/>
      </g>
     </g>
     <g id="text_3">
      <!-- 1950 -->
      <g style="fill: #717174" transform="translate(361.434 505.718125) scale(0.12 -0.12)">
       <use xlink:href="#DejaVuSans-31"/>
       <use xlink:href="#DejaVuSans-39" x="63.623047"/>
       <use xlink:href="#DejaVuSans-35" x="127.246094"/>
       <use xlink:href="#DejaVuSans-30" x="190.869141"/>
      </g>
     </g>
    </g>
    <g id="xtick_4">
     <g id="line2d_4">
      <g>
       <use xlink:href="#me22ae975a5" x="530.496" y="489.6" style="fill: #717174; stroke: #717174; stroke-width: 0.8"/>
      </g>
     </g>
     <g id="text_4">
      <!-- 2000 -->
      <g style="fill: #717174" transform="translate(515.226 505.718125) scale(0.12 -0.12)">
       <defs>
        <path id="DejaVuSans-32" d="M 1228 531 
L 3431 531 
L 3431 0 
L 469 0 
L 469 531 
Q 828 903 1448 1529 
Q 2069 2156 2228 2338 
Q 2531 2678 2651 2914 
Q 2772 3150 2772 3378 
Q 2772 3750 2511 3984 
Q 2250 4219 1831 4219 
Q 1534 4219 1204 4116 
Q 875 4013 500 3803 
L 500 4441 
Q 881 4594 1212 4672 
Q 1544 4750 1819 4750 
Q 2544 4750 2975 4387 
Q 3406 4025 3406 3419 
Q 3406 3131 3298 2873 
Q 3191 2616 2906 2266 
Q 2828 2175 2409 1742 
Q 1991 1309 1228 531 
z
" transform="scale(0.015625)"/>
       </defs>
       <use xlink:href="#DejaVuSans-32"/>
       <use xlink:href="#DejaVuSans-30" x="63.623047"/>
       <use xlink:href="#DejaVuSans-30" x="127.246094"/>
       <use xlink:href="#DejaVuSans-30" x="190.869141"/>
      </g>
     </g>
    </g>
    <g id="xtick_5">
     <g id="line2d_5">
      <g>
       <use xlink:href="#me22ae975a5" x="576.6336" y="489.6" style="fill: #717174; stroke: #717174; stroke-width: 0.8"/>
      </g>
     </g>
     <g id="text_5">
      <!-- 2015 -->
      <g style="fill: #717174" transform="translate(561.3636 505.718125) scale(0.12 -0.12)">
       <use xlink:href="#DejaVuSans-32"/>
       <use xlink:href="#DejaVuSans-30" x="63.623047"/>
       <use xlink:href="#DejaVuSans-31" x="127.246094"/>
       <use xlink:href="#DejaVuSans-35" x="190.869141"/>
      </g>
     </g>
    </g>
    <g id="xtick_6">
     <g id="line2d_6">
      <g>
       <use xlink:href="#me22ae975a5" x="684.288" y="489.6" style="fill: #717174; stroke: #717174; stroke-width: 0.8"/>
      </g>
     </g>
     <g id="text_6">
      <!-- 2050 -->
      <g style="fill: #717174" transform="translate(669.018 505.718125) scale(0.12 -0.12)">
       <use xlink:href="#DejaVuSans-32"/>
       <use xlink:href="#DejaVuSans-30" x="63.623047"/>
       <use xlink:href="#DejaVuSans-35" x="127.246094"/>
       <use xlink:href="#DejaVuSans-30" x="190.869141"/>
      </g>
     </g>
    </g>
    <g id="xtick_7">
     <g id="line2d_7">
      <g>
       <use xlink:href="#me22ae975a5" x="761.184" y="489.6" style="fill: #717174; stroke: #717174; stroke-width: 0.8"/>
      </g>
     </g>
     <g id="text_7">
      <!-- 2075 -->
      <g style="fill: #717174" transform="translate(745.914 505.718125) scale(0.12 -0.12)">
       <defs>
        <path id="DejaVuSans-37" d="M 525 4666 
L 3525 4666 
L 3525 4397 
L 1831 0 
L 1172 0 
L 2766 4134 
L 525 4134 
L 525 4666 
z
" transform="scale(0.015625)"/>
       </defs>
       <use xlink:href="#DejaVuSans-32"/>
       <use xlink:href="#DejaVuSans-30" x="63.623047"/>
       <use xlink:href="#DejaVuSans-37" x="127.246094"/>
       <use xlink:href="#DejaVuSans-35" x="190.869141"/>
      </g>
     </g>
    </g>
    <g id="xtick_8">
     <g id="line2d_8">
      <g>
       <use xlink:href="#me22ae975a5" x="838.08" y="489.6" style="fill: #717174; stroke: #717174; stroke-width: 0.8"/>
      </g>
     </g>
     <g id="text_8">
      <!-- 2100 -->
      <g style="fill: #717174" transform="translate(807.54 505.718125) scale(0.12 -0.12)">
       <use xlink:href="#DejaVuSans-32"/>
       <use xlink:href="#DejaVuSans-31" x="63.623047"/>
       <use xlink:href="#DejaVuSans-30" x="127.246094"/>
       <use xlink:href="#DejaVuSans-30" x="190.869141"/>
      </g>
     </g>
    </g>
    <g id="xtick_9">
     <g id="line2d_9">
      <defs>
       <path id="m2e3dcfab69" d="M 0 0 
L 0 2 
" style="stroke: #ffffff; stroke-width: 0.6"/>
      </defs>
      <g>
       <use xlink:href="#m2e3dcfab69" x="146.016" y="489.6" style="fill: #ffffff; stroke: #ffffff; stroke-width: 0.6"/>
      </g>
     </g>
     <g id="text_9">
      <!-- Pre-industrial -->
      <g style="fill: #b2b2b2" transform="translate(111.483885 548.363148) rotate(-25) scale(0.11 -0.11)">
       <defs>
        <path id="DejaVuSans-Oblique-50" d="M 1081 4666 
L 2541 4666 
Q 3178 4666 3512 4369 
Q 3847 4072 3847 3500 
Q 3847 2731 3353 2303 
Q 2859 1875 1966 1875 
L 1172 1875 
L 806 0 
L 172 0 
L 1081 4666 
z
M 1613 4147 
L 1275 2394 
L 2069 2394 
Q 2606 2394 2893 2669 
Q 3181 2944 3181 3456 
Q 3181 3784 2986 3965 
Q 2791 4147 2438 4147 
L 1613 4147 
z
" transform="scale(0.015625)"/>
        <path id="DejaVuSans-Oblique-72" d="M 2853 2969 
Q 2766 3016 2653 3041 
Q 2541 3066 2413 3066 
Q 1953 3066 1609 2717 
Q 1266 2369 1153 1784 
L 800 0 
L 225 0 
L 909 3500 
L 1484 3500 
L 1375 2956 
Q 1603 3259 1920 3421 
Q 2238 3584 2597 3584 
Q 2691 3584 2781 3573 
Q 2872 3563 2963 3538 
L 2853 2969 
z
" transform="scale(0.015625)"/>
        <path id="DejaVuSans-Oblique-65" d="M 3078 2063 
Q 3088 2113 3092 2166 
Q 3097 2219 3097 2272 
Q 3097 2653 2873 2875 
Q 2650 3097 2266 3097 
Q 1838 3097 1509 2826 
Q 1181 2556 1013 2059 
L 3078 2063 
z
M 3578 1613 
L 903 1613 
Q 884 1494 878 1425 
Q 872 1356 872 1306 
Q 872 872 1139 634 
Q 1406 397 1894 397 
Q 2269 397 2603 481 
Q 2938 566 3225 728 
L 3116 159 
Q 2806 34 2476 -28 
Q 2147 -91 1806 -91 
Q 1078 -91 686 257 
Q 294 606 294 1247 
Q 294 1794 489 2264 
Q 684 2734 1063 3103 
Q 1306 3334 1642 3459 
Q 1978 3584 2356 3584 
Q 2950 3584 3301 3228 
Q 3653 2872 3653 2272 
Q 3653 2128 3634 1964 
Q 3616 1800 3578 1613 
z
" transform="scale(0.015625)"/>
        <path id="DejaVuSans-Oblique-2d" d="M 391 2009 
L 2075 2009 
L 1978 1497 
L 288 1497 
L 391 2009 
z
" transform="scale(0.015625)"/>
        <path id="DejaVuSans-Oblique-69" d="M 1172 4863 
L 1747 4863 
L 1606 4134 
L 1031 4134 
L 1172 4863 
z
M 909 3500 
L 1484 3500 
L 800 0 
L 225 0 
L 909 3500 
z
" transform="scale(0.015625)"/>
        <path id="DejaVuSans-Oblique-6e" d="M 3566 2113 
L 3156 0 
L 2578 0 
L 2988 2091 
Q 3016 2238 3031 2350 
Q 3047 2463 3047 2528 
Q 3047 2791 2881 2937 
Q 2716 3084 2419 3084 
Q 1956 3084 1622 2776 
Q 1288 2469 1184 1941 
L 800 0 
L 225 0 
L 903 3500 
L 1478 3500 
L 1363 2950 
Q 1603 3253 1940 3418 
Q 2278 3584 2650 3584 
Q 3113 3584 3367 3334 
Q 3622 3084 3622 2631 
Q 3622 2519 3608 2391 
Q 3594 2263 3566 2113 
z
" transform="scale(0.015625)"/>
        <path id="DejaVuSans-Oblique-64" d="M 2675 525 
Q 2444 222 2128 65 
Q 1813 -91 1428 -91 
Q 903 -91 598 267 
Q 294 625 294 1247 
Q 294 1766 478 2236 
Q 663 2706 1013 3078 
Q 1244 3325 1534 3454 
Q 1825 3584 2144 3584 
Q 2481 3584 2739 3421 
Q 2997 3259 3138 2956 
L 3513 4863 
L 4091 4863 
L 3144 0 
L 2566 0 
L 2675 525 
z
M 891 1350 
Q 891 897 1095 644 
Q 1300 391 1663 391 
Q 1931 391 2161 520 
Q 2391 650 2566 903 
Q 2750 1166 2856 1509 
Q 2963 1853 2963 2188 
Q 2963 2622 2758 2865 
Q 2553 3109 2194 3109 
Q 1922 3109 1687 2981 
Q 1453 2853 1288 2613 
Q 1106 2353 998 2009 
Q 891 1666 891 1350 
z
" transform="scale(0.015625)"/>
        <path id="DejaVuSans-Oblique-75" d="M 428 1388 
L 838 3500 
L 1416 3500 
L 1006 1409 
Q 975 1256 961 1147 
Q 947 1038 947 966 
Q 947 700 1109 554 
Q 1272 409 1569 409 
Q 2031 409 2368 721 
Q 2706 1034 2809 1563 
L 3194 3500 
L 3769 3500 
L 3091 0 
L 2516 0 
L 2631 550 
Q 2388 244 2052 76 
Q 1716 -91 1338 -91 
Q 878 -91 622 161 
Q 366 413 366 863 
Q 366 956 381 1097 
Q 397 1238 428 1388 
z
" transform="scale(0.015625)"/>
        <path id="DejaVuSans-Oblique-73" d="M 3200 3397 
L 3091 2853 
Q 2863 2978 2609 3040 
Q 2356 3103 2088 3103 
Q 1634 3103 1373 2948 
Q 1113 2794 1113 2528 
Q 1113 2219 1719 2053 
Q 1766 2041 1788 2034 
L 1972 1978 
Q 2547 1819 2739 1644 
Q 2931 1469 2931 1166 
Q 2931 609 2489 259 
Q 2047 -91 1331 -91 
Q 1053 -91 747 -37 
Q 441 16 72 128 
L 184 722 
Q 500 559 806 475 
Q 1113 391 1394 391 
Q 1816 391 2080 572 
Q 2344 753 2344 1031 
Q 2344 1331 1650 1516 
L 1591 1531 
L 1394 1581 
Q 956 1697 753 1886 
Q 550 2075 550 2369 
Q 550 2928 970 3256 
Q 1391 3584 2113 3584 
Q 2397 3584 2667 3537 
Q 2938 3491 3200 3397 
z
" transform="scale(0.015625)"/>
        <path id="DejaVuSans-Oblique-74" d="M 2706 3500 
L 2619 3053 
L 1472 3053 
L 1100 1153 
Q 1081 1047 1072 975 
Q 1063 903 1063 863 
Q 1063 663 1183 572 
Q 1303 481 1569 481 
L 2150 481 
L 2053 0 
L 1503 0 
Q 991 0 739 200 
Q 488 400 488 806 
Q 488 878 497 964 
Q 506 1050 525 1153 
L 897 3053 
L 409 3053 
L 500 3500 
L 978 3500 
L 1172 4494 
L 1747 4494 
L 1556 3500 
L 2706 3500 
z
" transform="scale(0.015625)"/>
        <path id="DejaVuSans-Oblique-61" d="M 3438 1997 
L 3047 0 
L 2472 0 
L 2578 531 
Q 2325 219 2001 64 
Q 1678 -91 1281 -91 
Q 834 -91 548 182 
Q 263 456 263 884 
Q 263 1497 752 1853 
Q 1241 2209 2100 2209 
L 2900 2209 
L 2931 2363 
Q 2938 2388 2941 2417 
Q 2944 2447 2944 2509 
Q 2944 2788 2717 2942 
Q 2491 3097 2081 3097 
Q 1800 3097 1504 3025 
Q 1209 2953 897 2809 
L 997 3341 
Q 1322 3463 1633 3523 
Q 1944 3584 2234 3584 
Q 2853 3584 3176 3315 
Q 3500 3047 3500 2534 
Q 3500 2431 3484 2292 
Q 3469 2153 3438 1997 
z
M 2816 1759 
L 2241 1759 
Q 1534 1759 1195 1570 
Q 856 1381 856 984 
Q 856 709 1029 553 
Q 1203 397 1509 397 
Q 1978 397 2328 733 
Q 2678 1069 2791 1631 
L 2816 1759 
z
" transform="scale(0.015625)"/>
        <path id="DejaVuSans-Oblique-6c" d="M 1172 4863 
L 1747 4863 
L 800 0 
L 225 0 
L 1172 4863 
z
" transform="scale(0.015625)"/>
       </defs>
       <use xlink:href="#DejaVuSans-Oblique-50"/>
       <use xlink:href="#DejaVuSans-Oblique-72" x="60.302734"/>
       <use xlink:href="#DejaVuSans-Oblique-65" x="101.416016"/>
       <use xlink:href="#DejaVuSans-Oblique-2d" x="162.939453"/>
       <use xlink:href="#DejaVuSans-Oblique-69" x="199.023438"/>
       <use xlink:href="#DejaVuSans-Oblique-6e" x="226.806641"/>
       <use xlink:href="#DejaVuSans-Oblique-64" x="290.185547"/>
       <use xlink:href="#DejaVuSans-Oblique-75" x="353.662109"/>
       <use xlink:href="#DejaVuSans-Oblique-73" x="417.041016"/>
       <use xlink:href="#DejaVuSans-Oblique-74" x="469.140625"/>
       <use xlink:href="#DejaVuSans-Oblique-72" x="508.349609"/>
       <use xlink:href="#DejaVuSans-Oblique-69" x="549.462891"/>
       <use xlink:href="#DejaVuSans-Oblique-61" x="577.246094"/>
       <use xlink:href="#DejaVuSans-Oblique-6c" x="638.525391"/>
      </g>
      <!-- Era -->
      <g style="fill: #b2b2b2" transform="translate(141.648038 547.888334) rotate(-25) scale(0.11 -0.11)">
       <defs>
        <path id="DejaVuSans-Oblique-45" d="M 1081 4666 
L 4031 4666 
L 3928 4134 
L 1606 4134 
L 1338 2753 
L 3566 2753 
L 3463 2222 
L 1234 2222 
L 909 531 
L 3284 531 
L 3181 0 
L 172 0 
L 1081 4666 
z
" transform="scale(0.015625)"/>
       </defs>
       <use xlink:href="#DejaVuSans-Oblique-45"/>
       <use xlink:href="#DejaVuSans-Oblique-72" x="63.183594"/>
       <use xlink:href="#DejaVuSans-Oblique-61" x="104.296875"/>
      </g>
     </g>
    </g>
    <g id="xtick_10">
     <g id="line2d_10">
      <g>
       <use xlink:href="#m2e3dcfab69" x="361.3248" y="489.6" style="fill: #ffffff; stroke: #ffffff; stroke-width: 0.6"/>
      </g>
     </g>
     <g id="text_10">
      <!-- Baby -->
      <g style="fill: #b2b2b2" transform="translate(347.415294 543.933713) rotate(-25) scale(0.11 -0.11)">
       <defs>
        <path id="DejaVuSans-Oblique-42" d="M 1081 4666 
L 2694 4666 
Q 3350 4666 3675 4422 
Q 4000 4178 4000 3688 
Q 4000 3238 3720 2911 
Q 3441 2584 2988 2516 
Q 3375 2428 3569 2181 
Q 3763 1934 3763 1522 
Q 3763 819 3242 409 
Q 2722 0 1819 0 
L 172 0 
L 1081 4666 
z
M 1234 2228 
L 903 519 
L 1919 519 
Q 2491 519 2800 781 
Q 3109 1044 3109 1522 
Q 3109 1891 2904 2059 
Q 2700 2228 2247 2228 
L 1234 2228 
z
M 1606 4147 
L 1331 2741 
L 2272 2741 
Q 2775 2741 3058 2959 
Q 3341 3178 3341 3566 
Q 3341 3869 3150 4008 
Q 2959 4147 2541 4147 
L 1606 4147 
z
" transform="scale(0.015625)"/>
        <path id="DejaVuSans-Oblique-62" d="M 3169 2138 
Q 3169 2591 2961 2847 
Q 2753 3103 2388 3103 
Q 2122 3103 1889 2973 
Q 1656 2844 1484 2597 
Q 1303 2338 1198 1995 
Q 1094 1653 1094 1313 
Q 1094 881 1298 636 
Q 1503 391 1863 391 
Q 2134 391 2365 517 
Q 2597 644 2772 891 
Q 2950 1147 3059 1487 
Q 3169 1828 3169 2138 
z
M 1381 2969 
Q 1594 3256 1914 3420 
Q 2234 3584 2584 3584 
Q 3122 3584 3439 3221 
Q 3756 2859 3756 2241 
Q 3756 1734 3570 1259 
Q 3384 784 3041 416 
Q 2816 172 2522 40 
Q 2228 -91 1906 -91 
Q 1566 -91 1316 65 
Q 1066 222 909 531 
L 806 0 
L 231 0 
L 1178 4863 
L 1753 4863 
L 1381 2969 
z
" transform="scale(0.015625)"/>
        <path id="DejaVuSans-Oblique-79" d="M 1588 -325 
Q 1188 -997 936 -1164 
Q 684 -1331 294 -1331 
L -159 -1331 
L -63 -850 
L 269 -850 
Q 509 -850 678 -719 
Q 847 -588 1056 -206 
L 1234 128 
L 459 3500 
L 1069 3500 
L 1650 819 
L 3256 3500 
L 3859 3500 
L 1588 -325 
z
" transform="scale(0.015625)"/>
       </defs>
       <use xlink:href="#DejaVuSans-Oblique-42"/>
       <use xlink:href="#DejaVuSans-Oblique-61" x="68.603516"/>
       <use xlink:href="#DejaVuSans-Oblique-62" x="129.882812"/>
       <use xlink:href="#DejaVuSans-Oblique-79" x="193.359375"/>
      </g>
      <!-- Boomers -->
      <g style="fill: #b2b2b2" transform="translate(343.121978 559.526679) rotate(-25) scale(0.11 -0.11)">
       <defs>
        <path id="DejaVuSans-Oblique-6f" d="M 1625 -91 
Q 1009 -91 651 289 
Q 294 669 294 1325 
Q 294 1706 417 2101 
Q 541 2497 738 2766 
Q 1047 3184 1428 3384 
Q 1809 3584 2291 3584 
Q 2888 3584 3255 3212 
Q 3622 2841 3622 2241 
Q 3622 1825 3500 1412 
Q 3378 1000 3181 728 
Q 2875 309 2494 109 
Q 2113 -91 1625 -91 
z
M 891 1344 
Q 891 869 1089 633 
Q 1288 397 1691 397 
Q 2269 397 2648 901 
Q 3028 1406 3028 2181 
Q 3028 2634 2825 2865 
Q 2622 3097 2228 3097 
Q 1903 3097 1650 2945 
Q 1397 2794 1197 2484 
Q 1050 2253 970 1956 
Q 891 1659 891 1344 
z
" transform="scale(0.015625)"/>
        <path id="DejaVuSans-Oblique-6d" d="M 5747 2113 
L 5338 0 
L 4763 0 
L 5166 2094 
Q 5191 2228 5203 2325 
Q 5216 2422 5216 2491 
Q 5216 2772 5059 2928 
Q 4903 3084 4622 3084 
Q 4203 3084 3875 2770 
Q 3547 2456 3450 1953 
L 3066 0 
L 2491 0 
L 2900 2094 
Q 2925 2209 2937 2307 
Q 2950 2406 2950 2484 
Q 2950 2769 2794 2926 
Q 2638 3084 2363 3084 
Q 1938 3084 1609 2770 
Q 1281 2456 1184 1953 
L 800 0 
L 225 0 
L 909 3500 
L 1484 3500 
L 1375 2956 
Q 1609 3263 1923 3423 
Q 2238 3584 2597 3584 
Q 2978 3584 3223 3384 
Q 3469 3184 3519 2828 
Q 3781 3197 4126 3390 
Q 4472 3584 4856 3584 
Q 5306 3584 5551 3325 
Q 5797 3066 5797 2591 
Q 5797 2488 5784 2364 
Q 5772 2241 5747 2113 
z
" transform="scale(0.015625)"/>
       </defs>
       <use xlink:href="#DejaVuSans-Oblique-42"/>
       <use xlink:href="#DejaVuSans-Oblique-6f" x="68.603516"/>
       <use xlink:href="#DejaVuSans-Oblique-6f" x="129.785156"/>
       <use xlink:href="#DejaVuSans-Oblique-6d" x="190.966797"/>
       <use xlink:href="#DejaVuSans-Oblique-65" x="288.378906"/>
       <use xlink:href="#DejaVuSans-Oblique-72" x="349.902344"/>
       <use xlink:href="#DejaVuSans-Oblique-73" x="391.015625"/>
      </g>
     </g>
    </g>
    <g id="xtick_11">
     <g id="line2d_11">
      <g>
       <use xlink:href="#m2e3dcfab69" x="438.2208" y="489.6" style="fill: #ffffff; stroke: #ffffff; stroke-width: 0.6"/>
      </g>
     </g>
     <g id="text_11">
      <!-- +1 gen -->
      <g style="fill: #b2b2b2" transform="translate(421.180159 559.526679) rotate(-25) scale(0.11 -0.11)">
       <defs>
        <path id="DejaVuSans-Oblique-2b" d="M 2944 4013 
L 2944 2272 
L 4684 2272 
L 4684 1741 
L 2944 1741 
L 2944 0 
L 2419 0 
L 2419 1741 
L 678 1741 
L 678 2272 
L 2419 2272 
L 2419 4013 
L 2944 4013 
z
" transform="scale(0.015625)"/>
        <path id="DejaVuSans-Oblique-31" d="M 416 531 
L 1447 531 
L 2144 4122 
L 978 3897 
L 1088 4441 
L 2247 4666 
L 2881 4666 
L 2075 531 
L 3103 531 
L 3003 0 
L 313 0 
L 416 531 
z
" transform="scale(0.015625)"/>
        <path id="DejaVuSans-Oblique-20" transform="scale(0.015625)"/>
        <path id="DejaVuSans-Oblique-67" d="M 3816 3500 
L 3219 434 
Q 3047 -456 2561 -893 
Q 2075 -1331 1253 -1331 
Q 950 -1331 690 -1286 
Q 431 -1241 206 -1147 
L 313 -588 
Q 525 -725 762 -790 
Q 1000 -856 1269 -856 
Q 1816 -856 2167 -557 
Q 2519 -259 2631 300 
L 2681 563 
Q 2441 288 2122 144 
Q 1803 0 1434 0 
Q 903 0 598 351 
Q 294 703 294 1319 
Q 294 1803 478 2267 
Q 663 2731 997 3091 
Q 1219 3328 1514 3456 
Q 1809 3584 2131 3584 
Q 2484 3584 2746 3420 
Q 3009 3256 3138 2956 
L 3238 3500 
L 3816 3500 
z
M 2950 2216 
Q 2950 2641 2750 2872 
Q 2550 3103 2181 3103 
Q 1953 3103 1747 3012 
Q 1541 2922 1394 2759 
Q 1156 2491 1023 2127 
Q 891 1763 891 1375 
Q 891 944 1092 712 
Q 1294 481 1672 481 
Q 2219 481 2584 976 
Q 2950 1472 2950 2216 
z
" transform="scale(0.015625)"/>
       </defs>
       <use xlink:href="#DejaVuSans-Oblique-2b"/>
       <use xlink:href="#DejaVuSans-Oblique-31" x="83.789062"/>
       <use xlink:href="#DejaVuSans-Oblique-20" x="147.412109"/>
       <use xlink:href="#DejaVuSans-Oblique-67" x="179.199219"/>
       <use xlink:href="#DejaVuSans-Oblique-65" x="242.675781"/>
       <use xlink:href="#DejaVuSans-Oblique-6e" x="304.199219"/>
      </g>
     </g>
    </g>
    <g id="xtick_12">
     <g id="line2d_12">
      <g>
       <use xlink:href="#m2e3dcfab69" x="515.1168" y="489.6" style="fill: #ffffff; stroke: #ffffff; stroke-width: 0.6"/>
      </g>
     </g>
     <g id="text_12">
      <!-- +2 gen -->
      <g style="fill: #b2b2b2" transform="translate(498.076159 559.526679) rotate(-25) scale(0.11 -0.11)">
       <defs>
        <path id="DejaVuSans-Oblique-32" d="M 2950 2253 
L 934 525 
L 3163 525 
L 3053 0 
L 25 0 
L 128 531 
L 2234 2338 
Q 2656 2703 2832 2979 
Q 3009 3256 3009 3547 
Q 3009 3850 2796 4040 
Q 2584 4231 2241 4231 
Q 1944 4231 1581 4125 
Q 1219 4019 806 3816 
L 922 4441 
Q 1309 4594 1662 4672 
Q 2016 4750 2316 4750 
Q 2928 4750 3301 4425 
Q 3675 4100 3675 3572 
Q 3675 3216 3497 2892 
Q 3319 2569 2950 2253 
z
" transform="scale(0.015625)"/>
       </defs>
       <use xlink:href="#DejaVuSans-Oblique-2b"/>
       <use xlink:href="#DejaVuSans-Oblique-32" x="83.789062"/>
       <use xlink:href="#DejaVuSans-Oblique-20" x="147.412109"/>
       <use xlink:href="#DejaVuSans-Oblique-67" x="179.199219"/>
       <use xlink:href="#DejaVuSans-Oblique-65" x="242.675781"/>
       <use xlink:href="#DejaVuSans-Oblique-6e" x="304.199219"/>
      </g>
     </g>
    </g>
    <g id="xtick_13">
     <g id="line2d_13">
      <g>
       <use xlink:href="#m2e3dcfab69" x="592.0128" y="489.6" style="fill: #ffffff; stroke: #ffffff; stroke-width: 0.6"/>
      </g>
     </g>
     <g id="text_13">
      <!-- +3 gen -->
      <g style="fill: #b2b2b2" transform="translate(574.972159 559.526679) rotate(-25) scale(0.11 -0.11)">
       <defs>
        <path id="DejaVuSans-Oblique-33" d="M 1013 4550 
Q 1356 4650 1679 4700 
Q 2003 4750 2316 4750 
Q 2934 4750 3296 4475 
Q 3659 4200 3659 3738 
Q 3659 3284 3373 2959 
Q 3088 2634 2584 2516 
Q 2978 2403 3162 2165 
Q 3347 1928 3347 1538 
Q 3347 1163 3167 834 
Q 2988 506 2650 269 
Q 2394 88 2037 -1 
Q 1681 -91 1216 -91 
Q 922 -91 622 -33 
Q 322 25 13 141 
L 128 738 
Q 422 575 720 495 
Q 1019 416 1331 416 
Q 1947 416 2330 733 
Q 2713 1050 2713 1556 
Q 2713 1881 2469 2057 
Q 2225 2234 1772 2234 
L 1228 2234 
L 1325 2747 
L 1900 2747 
Q 2419 2747 2717 2984 
Q 3016 3222 3016 3628 
Q 3016 3922 2797 4083 
Q 2578 4244 2181 4244 
Q 1881 4244 1567 4180 
Q 1253 4116 916 3988 
L 1013 4550 
z
" transform="scale(0.015625)"/>
       </defs>
       <use xlink:href="#DejaVuSans-Oblique-2b"/>
       <use xlink:href="#DejaVuSans-Oblique-33" x="83.789062"/>
       <use xlink:href="#DejaVuSans-Oblique-20" x="147.412109"/>
       <use xlink:href="#DejaVuSans-Oblique-67" x="179.199219"/>
       <use xlink:href="#DejaVuSans-Oblique-65" x="242.675781"/>
       <use xlink:href="#DejaVuSans-Oblique-6e" x="304.199219"/>
      </g>
     </g>
    </g>
    <g id="xtick_14">
     <g id="line2d_14">
      <g>
       <use xlink:href="#m2e3dcfab69" x="668.9088" y="489.6" style="fill: #ffffff; stroke: #ffffff; stroke-width: 0.6"/>
      </g>
     </g>
     <g id="text_14">
      <!-- +4 gen -->
      <g style="fill: #b2b2b2" transform="translate(651.868159 559.526679) rotate(-25) scale(0.11 -0.11)">
       <defs>
        <path id="DejaVuSans-Oblique-34" d="M 2753 4666 
L 3547 4666 
L 2950 1625 
L 3616 1625 
L 3513 1100 
L 2847 1100 
L 2638 0 
L 2009 0 
L 2222 1100 
L 116 1100 
L 238 1709 
L 2753 4666 
z
M 2809 4116 
L 728 1625 
L 2322 1625 
L 2809 4116 
z
" transform="scale(0.015625)"/>
       </defs>
       <use xlink:href="#DejaVuSans-Oblique-2b"/>
       <use xlink:href="#DejaVuSans-Oblique-34" x="83.789062"/>
       <use xlink:href="#DejaVuSans-Oblique-20" x="147.412109"/>
       <use xlink:href="#DejaVuSans-Oblique-67" x="179.199219"/>
       <use xlink:href="#DejaVuSans-Oblique-65" x="242.675781"/>
       <use xlink:href="#DejaVuSans-Oblique-6e" x="304.199219"/>
      </g>
     </g>
    </g>
    <g id="xtick_15">
     <g id="line2d_15">
      <g>
       <use xlink:href="#m2e3dcfab69" x="745.8048" y="489.6" style="fill: #ffffff; stroke: #ffffff; stroke-width: 0.6"/>
      </g>
     </g>
     <g id="text_15">
      <!-- +5 gen -->
      <g style="fill: #b2b2b2" transform="translate(728.764159 559.526679) rotate(-25) scale(0.11 -0.11)">
       <defs>
        <path id="DejaVuSans-Oblique-35" d="M 3719 4666 
L 3622 4141 
L 1691 4141 
L 1466 2988 
Q 1609 3034 1757 3056 
Q 1906 3078 2059 3078 
Q 2706 3078 3081 2731 
Q 3456 2384 3456 1791 
Q 3456 1375 3264 994 
Q 3072 613 2719 325 
Q 2469 125 2108 17 
Q 1747 -91 1319 -91 
Q 1038 -91 744 -41 
Q 450 9 128 109 
L 244 697 
Q 531 556 820 486 
Q 1109 416 1403 416 
Q 2013 416 2411 781 
Q 2809 1147 2809 1697 
Q 2809 2103 2548 2328 
Q 2288 2553 1819 2553 
Q 1572 2553 1305 2495 
Q 1038 2438 756 2322 
L 1209 4666 
L 3719 4666 
z
" transform="scale(0.015625)"/>
       </defs>
       <use xlink:href="#DejaVuSans-Oblique-2b"/>
       <use xlink:href="#DejaVuSans-Oblique-35" x="83.789062"/>
       <use xlink:href="#DejaVuSans-Oblique-20" x="147.412109"/>
       <use xlink:href="#DejaVuSans-Oblique-67" x="179.199219"/>
       <use xlink:href="#DejaVuSans-Oblique-65" x="242.675781"/>
       <use xlink:href="#DejaVuSans-Oblique-6e" x="304.199219"/>
      </g>
     </g>
    </g>
    <g id="xtick_16">
     <g id="line2d_16">
      <g>
       <use xlink:href="#m2e3dcfab69" x="822.7008" y="489.6" style="fill: #ffffff; stroke: #ffffff; stroke-width: 0.6"/>
      </g>
     </g>
     <g id="text_16">
      <!-- +6 gen -->
      <g style="fill: #b2b2b2" transform="translate(805.660159 559.526679) rotate(-25) scale(0.11 -0.11)">
       <defs>
        <path id="DejaVuSans-Oblique-36" d="M 2938 1728 
Q 2938 2125 2734 2354 
Q 2531 2584 2181 2584 
Q 1697 2584 1367 2211 
Q 1038 1838 1038 1288 
Q 1038 875 1239 642 
Q 1441 409 1797 409 
Q 2284 409 2611 792 
Q 2938 1175 2938 1728 
z
M 3788 4556 
L 3681 3981 
Q 3500 4100 3265 4162 
Q 3031 4225 2766 4225 
Q 2119 4225 1726 3819 
Q 1334 3413 1141 2547 
Q 1369 2813 1670 2948 
Q 1972 3084 2322 3084 
Q 2894 3084 3233 2754 
Q 3572 2425 3572 1869 
Q 3572 1413 3405 1020 
Q 3238 628 2919 331 
Q 2700 128 2409 18 
Q 2119 -91 1791 -91 
Q 1147 -91 775 318 
Q 403 728 403 1441 
Q 403 2103 573 2717 
Q 744 3331 1050 3781 
Q 1372 4256 1830 4503 
Q 2288 4750 2841 4750 
Q 3084 4750 3321 4701 
Q 3559 4653 3788 4556 
z
" transform="scale(0.015625)"/>
       </defs>
       <use xlink:href="#DejaVuSans-Oblique-2b"/>
       <use xlink:href="#DejaVuSans-Oblique-36" x="83.789062"/>
       <use xlink:href="#DejaVuSans-Oblique-20" x="147.412109"/>
       <use xlink:href="#DejaVuSans-Oblique-67" x="179.199219"/>
       <use xlink:href="#DejaVuSans-Oblique-65" x="242.675781"/>
       <use xlink:href="#DejaVuSans-Oblique-6e" x="304.199219"/>
      </g>
     </g>
    </g>
   </g>
   <g id="matplotlib.axis_2">
    <g id="ytick_1">
     <g id="line2d_17">
      <path d="M 69.12 433.181974 
L 838.08 433.181974 
" clip-path="url(#p6f9531b3c3)" style="fill: none; stroke-dasharray: 2.4,7.2; stroke-dashoffset: 0; stroke: #717174; stroke-opacity: 0.5; stroke-width: 0.8"/>
     </g>
     <g id="line2d_18">
      <defs>
       <path id="m5e4ec00ed7" d="M 0 0 
L -3.5 0 
" style="stroke: #717174; stroke-width: 0.8"/>
      </defs>
      <g>
       <use xlink:href="#m5e4ec00ed7" x="69.12" y="433.181974" style="fill: #717174; stroke: #717174; stroke-width: 0.8"/>
      </g>
     </g>
     <g id="text_17">
      <!-- 30 °C -->
      <g style="fill: #717174" transform="translate(34.234063 436.981193) scale(0.1 -0.1)">
       <defs>
        <path id="DejaVuSans-33" d="M 2597 2516 
Q 3050 2419 3304 2112 
Q 3559 1806 3559 1356 
Q 3559 666 3084 287 
Q 2609 -91 1734 -91 
Q 1441 -91 1130 -33 
Q 819 25 488 141 
L 488 750 
Q 750 597 1062 519 
Q 1375 441 1716 441 
Q 2309 441 2620 675 
Q 2931 909 2931 1356 
Q 2931 1769 2642 2001 
Q 2353 2234 1838 2234 
L 1294 2234 
L 1294 2753 
L 1863 2753 
Q 2328 2753 2575 2939 
Q 2822 3125 2822 3475 
Q 2822 3834 2567 4026 
Q 2313 4219 1838 4219 
Q 1578 4219 1281 4162 
Q 984 4106 628 3988 
L 628 4550 
Q 988 4650 1302 4700 
Q 1616 4750 1894 4750 
Q 2613 4750 3031 4423 
Q 3450 4097 3450 3541 
Q 3450 3153 3228 2886 
Q 3006 2619 2597 2516 
z
" transform="scale(0.015625)"/>
        <path id="DejaVuSans-20" transform="scale(0.015625)"/>
        <path id="DejaVuSans-b0" d="M 1600 4347 
Q 1350 4347 1178 4173 
Q 1006 4000 1006 3750 
Q 1006 3503 1178 3333 
Q 1350 3163 1600 3163 
Q 1850 3163 2022 3333 
Q 2194 3503 2194 3750 
Q 2194 3997 2020 4172 
Q 1847 4347 1600 4347 
z
M 1600 4750 
Q 1800 4750 1984 4673 
Q 2169 4597 2303 4453 
Q 2447 4313 2519 4134 
Q 2591 3956 2591 3750 
Q 2591 3338 2302 3052 
Q 2013 2766 1594 2766 
Q 1172 2766 890 3047 
Q 609 3328 609 3750 
Q 609 4169 896 4459 
Q 1184 4750 1600 4750 
z
" transform="scale(0.015625)"/>
        <path id="DejaVuSans-43" d="M 4122 4306 
L 4122 3641 
Q 3803 3938 3442 4084 
Q 3081 4231 2675 4231 
Q 1875 4231 1450 3742 
Q 1025 3253 1025 2328 
Q 1025 1406 1450 917 
Q 1875 428 2675 428 
Q 3081 428 3442 575 
Q 3803 722 4122 1019 
L 4122 359 
Q 3791 134 3420 21 
Q 3050 -91 2638 -91 
Q 1578 -91 968 557 
Q 359 1206 359 2328 
Q 359 3453 968 4101 
Q 1578 4750 2638 4750 
Q 3056 4750 3426 4639 
Q 3797 4528 4122 4306 
z
" transform="scale(0.015625)"/>
       </defs>
       <use xlink:href="#DejaVuSans-33"/>
       <use xlink:href="#DejaVuSans-30" x="63.623047"/>
       <use xlink:href="#DejaVuSans-20" x="127.246094"/>
       <use xlink:href="#DejaVuSans-b0" x="159.033203"/>
       <use xlink:href="#DejaVuSans-43" x="209.033203"/>
      </g>
     </g>
    </g>
    <g id="ytick_2">
     <g id="line2d_19">
      <path d="M 69.12 365.306633 
L 838.08 365.306633 
" clip-path="url(#p6f9531b3c3)" style="fill: none; stroke-dasharray: 2.4,7.2; stroke-dashoffset: 0; stroke: #717174; stroke-opacity: 0.5; stroke-width: 0.8"/>
     </g>
     <g id="line2d_20">
      <g>
       <use xlink:href="#m5e4ec00ed7" x="69.12" y="365.306633" style="fill: #717174; stroke: #717174; stroke-width: 0.8"/>
      </g>
     </g>
     <g id="text_18">
      <!-- 35 °C -->
      <g style="fill: #717174" transform="translate(34.234063 369.105851) scale(0.1 -0.1)">
       <use xlink:href="#DejaVuSans-33"/>
       <use xlink:href="#DejaVuSans-35" x="63.623047"/>
       <use xlink:href="#DejaVuSans-20" x="127.246094"/>
       <use xlink:href="#DejaVuSans-b0" x="159.033203"/>
       <use xlink:href="#DejaVuSans-43" x="209.033203"/>
      </g>
     </g>
    </g>
    <g id="ytick_3">
     <g id="line2d_21">
      <path d="M 69.12 297.431291 
L 838.08 297.431291 
" clip-path="url(#p6f9531b3c3)" style="fill: none; stroke-dasharray: 2.4,7.2; stroke-dashoffset: 0; stroke: #717174; stroke-opacity: 0.5; stroke-width: 0.8"/>
     </g>
     <g id="line2d_22">
      <g>
       <use xlink:href="#m5e4ec00ed7" x="69.12" y="297.431291" style="fill: #717174; stroke: #717174; stroke-width: 0.8"/>
      </g>
     </g>
     <g id="text_19">
      <!-- 40 °C -->
      <g style="fill: #717174" transform="translate(34.234063 301.23051) scale(0.1 -0.1)">
       <defs>
        <path id="DejaVuSans-34" d="M 2419 4116 
L 825 1625 
L 2419 1625 
L 2419 4116 
z
M 2253 4666 
L 3047 4666 
L 3047 1625 
L 3713 1625 
L 3713 1100 
L 3047 1100 
L 3047 0 
L 2419 0 
L 2419 1100 
L 313 1100 
L 313 1709 
L 2253 4666 
z
" transform="scale(0.015625)"/>
       </defs>
       <use xlink:href="#DejaVuSans-34"/>
       <use xlink:href="#DejaVuSans-30" x="63.623047"/>
       <use xlink:href="#DejaVuSans-20" x="127.246094"/>
       <use xlink:href="#DejaVuSans-b0" x="159.033203"/>
       <use xlink:href="#DejaVuSans-43" x="209.033203"/>
      </g>
     </g>
    </g>
    <g id="ytick_4">
     <g id="line2d_23">
      <path d="M 69.12 229.55595 
L 838.08 229.55595 
" clip-path="url(#p6f9531b3c3)" style="fill: none; stroke-dasharray: 2.4,7.2; stroke-dashoffset: 0; stroke: #717174; stroke-opacity: 0.5; stroke-width: 0.8"/>
     </g>
     <g id="line2d_24">
      <g>
       <use xlink:href="#m5e4ec00ed7" x="69.12" y="229.55595" style="fill: #717174; stroke: #717174; stroke-width: 0.8"/>
      </g>
     </g>
     <g id="text_20">
      <!-- 45 °C -->
      <g style="fill: #717174" transform="translate(34.234063 233.355169) scale(0.1 -0.1)">
       <use xlink:href="#DejaVuSans-34"/>
       <use xlink:href="#DejaVuSans-35" x="63.623047"/>
       <use xlink:href="#DejaVuSans-20" x="127.246094"/>
       <use xlink:href="#DejaVuSans-b0" x="159.033203"/>
       <use xlink:href="#DejaVuSans-43" x="209.033203"/>
      </g>
     </g>
    </g>
    <g id="text_21">
     <!-- Max Temperature -->
     <g transform="translate(27.3225 320.234531) rotate(-90) scale(0.14 -0.14)">
      <defs>
       <path id="DejaVuSans-4d" d="M 628 4666 
L 1569 4666 
L 2759 1491 
L 3956 4666 
L 4897 4666 
L 4897 0 
L 4281 0 
L 4281 4097 
L 3078 897 
L 2444 897 
L 1241 4097 
L 1241 0 
L 628 0 
L 628 4666 
z
" transform="scale(0.015625)"/>
       <path id="DejaVuSans-61" d="M 2194 1759 
Q 1497 1759 1228 1600 
Q 959 1441 959 1056 
Q 959 750 1161 570 
Q 1363 391 1709 391 
Q 2188 391 2477 730 
Q 2766 1069 2766 1631 
L 2766 1759 
L 2194 1759 
z
M 3341 1997 
L 3341 0 
L 2766 0 
L 2766 531 
Q 2569 213 2275 61 
Q 1981 -91 1556 -91 
Q 1019 -91 701 211 
Q 384 513 384 1019 
Q 384 1609 779 1909 
Q 1175 2209 1959 2209 
L 2766 2209 
L 2766 2266 
Q 2766 2663 2505 2880 
Q 2244 3097 1772 3097 
Q 1472 3097 1187 3025 
Q 903 2953 641 2809 
L 641 3341 
Q 956 3463 1253 3523 
Q 1550 3584 1831 3584 
Q 2591 3584 2966 3190 
Q 3341 2797 3341 1997 
z
" transform="scale(0.015625)"/>
       <path id="DejaVuSans-78" d="M 3513 3500 
L 2247 1797 
L 3578 0 
L 2900 0 
L 1881 1375 
L 863 0 
L 184 0 
L 1544 1831 
L 300 3500 
L 978 3500 
L 1906 2253 
L 2834 3500 
L 3513 3500 
z
" transform="scale(0.015625)"/>
       <path id="DejaVuSans-54" d="M -19 4666 
L 3928 4666 
L 3928 4134 
L 2272 4134 
L 2272 0 
L 1638 0 
L 1638 4134 
L -19 4134 
L -19 4666 
z
" transform="scale(0.015625)"/>
       <path id="DejaVuSans-65" d="M 3597 1894 
L 3597 1613 
L 953 1613 
Q 991 1019 1311 708 
Q 1631 397 2203 397 
Q 2534 397 2845 478 
Q 3156 559 3463 722 
L 3463 178 
Q 3153 47 2828 -22 
Q 2503 -91 2169 -91 
Q 1331 -91 842 396 
Q 353 884 353 1716 
Q 353 2575 817 3079 
Q 1281 3584 2069 3584 
Q 2775 3584 3186 3129 
Q 3597 2675 3597 1894 
z
M 3022 2063 
Q 3016 2534 2758 2815 
Q 2500 3097 2075 3097 
Q 1594 3097 1305 2825 
Q 1016 2553 972 2059 
L 3022 2063 
z
" transform="scale(0.015625)"/>
       <path id="DejaVuSans-6d" d="M 3328 2828 
Q 3544 3216 3844 3400 
Q 4144 3584 4550 3584 
Q 5097 3584 5394 3201 
Q 5691 2819 5691 2113 
L 5691 0 
L 5113 0 
L 5113 2094 
Q 5113 2597 4934 2840 
Q 4756 3084 4391 3084 
Q 3944 3084 3684 2787 
Q 3425 2491 3425 1978 
L 3425 0 
L 2847 0 
L 2847 2094 
Q 2847 2600 2669 2842 
Q 2491 3084 2119 3084 
Q 1678 3084 1418 2786 
Q 1159 2488 1159 1978 
L 1159 0 
L 581 0 
L 581 3500 
L 1159 3500 
L 1159 2956 
Q 1356 3278 1631 3431 
Q 1906 3584 2284 3584 
Q 2666 3584 2933 3390 
Q 3200 3197 3328 2828 
z
" transform="scale(0.015625)"/>
       <path id="DejaVuSans-70" d="M 1159 525 
L 1159 -1331 
L 581 -1331 
L 581 3500 
L 1159 3500 
L 1159 2969 
Q 1341 3281 1617 3432 
Q 1894 3584 2278 3584 
Q 2916 3584 3314 3078 
Q 3713 2572 3713 1747 
Q 3713 922 3314 415 
Q 2916 -91 2278 -91 
Q 1894 -91 1617 61 
Q 1341 213 1159 525 
z
M 3116 1747 
Q 3116 2381 2855 2742 
Q 2594 3103 2138 3103 
Q 1681 3103 1420 2742 
Q 1159 2381 1159 1747 
Q 1159 1113 1420 752 
Q 1681 391 2138 391 
Q 2594 391 2855 752 
Q 3116 1113 3116 1747 
z
" transform="scale(0.015625)"/>
       <path id="DejaVuSans-72" d="M 2631 2963 
Q 2534 3019 2420 3045 
Q 2306 3072 2169 3072 
Q 1681 3072 1420 2755 
Q 1159 2438 1159 1844 
L 1159 0 
L 581 0 
L 581 3500 
L 1159 3500 
L 1159 2956 
Q 1341 3275 1631 3429 
Q 1922 3584 2338 3584 
Q 2397 3584 2469 3576 
Q 2541 3569 2628 3553 
L 2631 2963 
z
" transform="scale(0.015625)"/>
       <path id="DejaVuSans-74" d="M 1172 4494 
L 1172 3500 
L 2356 3500 
L 2356 3053 
L 1172 3053 
L 1172 1153 
Q 1172 725 1289 603 
Q 1406 481 1766 481 
L 2356 481 
L 2356 0 
L 1766 0 
Q 1100 0 847 248 
Q 594 497 594 1153 
L 594 3053 
L 172 3053 
L 172 3500 
L 594 3500 
L 594 4494 
L 1172 4494 
z
" transform="scale(0.015625)"/>
       <path id="DejaVuSans-75" d="M 544 1381 
L 544 3500 
L 1119 3500 
L 1119 1403 
Q 1119 906 1312 657 
Q 1506 409 1894 409 
Q 2359 409 2629 706 
Q 2900 1003 2900 1516 
L 2900 3500 
L 3475 3500 
L 3475 0 
L 2900 0 
L 2900 538 
Q 2691 219 2414 64 
Q 2138 -91 1772 -91 
Q 1169 -91 856 284 
Q 544 659 544 1381 
z
M 1991 3584 
L 1991 3584 
z
" transform="scale(0.015625)"/>
      </defs>
      <use xlink:href="#DejaVuSans-4d"/>
      <use xlink:href="#DejaVuSans-61" x="86.279297"/>
      <use xlink:href="#DejaVuSans-78" x="147.558594"/>
      <use xlink:href="#DejaVuSans-20" x="206.738281"/>
      <use xlink:href="#DejaVuSans-54" x="238.525391"/>
      <use xlink:href="#DejaVuSans-65" x="282.609375"/>
      <use xlink:href="#DejaVuSans-6d" x="344.132812"/>
      <use xlink:href="#DejaVuSans-70" x="441.544922"/>
      <use xlink:href="#DejaVuSans-65" x="505.021484"/>
      <use xlink:href="#DejaVuSans-72" x="566.544922"/>
      <use xlink:href="#DejaVuSans-61" x="607.658203"/>
      <use xlink:href="#DejaVuSans-74" x="668.9375"/>
      <use xlink:href="#DejaVuSans-75" x="708.146484"/>
      <use xlink:href="#DejaVuSans-72" x="771.525391"/>
      <use xlink:href="#DejaVuSans-65" x="810.388672"/>
     </g>
    </g>
   </g>
   <g id="line2d_25">
    <path d="M 69.12 332.26174 
L 838.08 332.26174 
" clip-path="url(#p6f9531b3c3)" style="fill: none; stroke: #717174; stroke-width: 1.5; stroke-linecap: square"/>
   </g>
   <g id="line2d_26">
    <path d="M 69.12 297.431291 
L 838.08 297.431291 
" clip-path="url(#p6f9531b3c3)" style="fill: none; stroke: #e34d21; stroke-width: 0.5; stroke-linecap: square"/>
   </g>
   <g id="LineCollection_1">
    <path d="M 69.12 430.059708 
L 222.912 430.059708 
" clip-path="url(#p6f9531b3c3)" style="fill: none; stroke: #b2b2b2; stroke-width: 1.5"/>
   </g>
   <g id="LineCollection_2">
    <path d="M 222.912 431.417215 
L 222.912 430.059708 
" clip-path="url(#p6f9531b3c3)" style="fill: none; stroke: #b2b2b2; stroke-width: 1.5"/>
   </g>
   <g id="LineCollection_3">
    <path d="M 69.12 431.417215 
L 69.12 430.059708 
" clip-path="url(#p6f9531b3c3)" style="fill: none; stroke: #b2b2b2; stroke-width: 1.5"/>
   </g>
   <g id="line2d_27">
    <path d="M 69.12 346.223736 
L 72.19584 279.069238 
L 75.27168 318.440996 
L 78.34752 308.725344 
L 81.42336 313.20162 
L 84.4992 314.755163 
L 87.57504 314.398884 
L 90.65088 291.915177 
L 93.72672 350.727768 
L 96.80256 323.466605 
L 99.8784 315.886143 
L 102.95424 320.92998 
L 106.03008 310.932618 
L 109.10592 315.130499 
L 112.18176 353.970738 
L 115.2576 341.368809 
L 118.33344 333.943287 
L 121.40928 310.772292 
L 124.48512 334.413078 
L 127.56096 337.592249 
L 130.6368 368.411648 
L 133.71264 332.386844 
L 136.78848 320.533516 
L 139.86432 353.241609 
L 142.94016 320.497059 
L 146.016 344.403812 
L 149.09184 328.737053 
L 152.16768 342.99568 
L 155.24352 343.262889 
L 158.31936 330.602133 
L 161.3952 309.473945 
L 164.47104 343.241761 
L 167.54688 360.229239 
L 170.62272 361.420703 
L 173.69856 363.731961 
L 176.7744 365.239105 
L 179.85024 337.270355 
L 182.92608 311.015474 
L 186.00192 337.038359 
L 189.07776 323.073041 
L 192.1536 297.396906 
L 195.22944 351.534368 
L 198.30528 338.070326 
L 201.38112 353.377078 
L 204.45696 363.863702 
L 207.5328 326.011102 
L 210.60864 339.440759 
L 213.68448 323.22301 
L 216.76032 349.935668 
L 222.912 329.93266 
L 225.98784 362.849963 
L 229.06368 355.832919 
L 232.13952 354.764909 
L 235.21536 342.701542 
L 238.2912 351.096476 
L 241.36704 338.279951 
L 244.44288 345.846743 
L 247.51872 292.294656 
L 250.59456 305.708984 
L 253.6704 350.084809 
L 256.74624 346.058439 
L 259.82208 329.230044 
L 262.89792 383.598673 
L 265.97376 330.771573 
L 269.0496 362.052892 
L 272.12544 308.605203 
L 275.20128 325.479583 
L 278.27712 359.109445 
L 281.35296 306.627853 
L 284.4288 326.900972 
L 287.50464 343.059479 
L 290.58048 357.48216 
L 293.65632 333.300327 
L 296.73216 341.680347 
L 299.808 308.650774 
L 302.88384 364.606917 
L 305.95968 338.741871 
L 309.03552 329.824533 
L 312.11136 312.686258 
L 315.1872 327.563817 
L 318.26304 368.39632 
L 321.33888 331.808511 
L 324.41472 363.230685 
L 327.49056 335.343547 
L 330.5664 321.587854 
L 333.64224 337.228927 
L 336.71808 312.902511 
L 339.79392 332.586526 
L 342.86976 313.744324 
L 345.9456 303.11146 
L 349.02144 326.908429 
L 352.09728 310.565153 
L 355.17312 336.813821 
L 358.24896 334.035257 
L 361.3248 336.912419 
L 364.40064 362.930747 
L 367.47648 344.791576 
L 370.55232 365.77601 
L 373.62816 340.797934 
L 376.704 333.257242 
L 379.77984 341.834872 
L 382.85568 365.745768 
L 385.93152 354.18492 
L 389.00736 367.106257 
L 392.0832 327.809898 
L 395.15904 355.11166 
L 398.23488 368.20078 
L 401.31072 352.37411 
L 404.38656 350.720311 
L 407.4624 359.366712 
L 410.53824 356.957684 
L 413.61408 387.744355 
L 416.68992 338.985467 
L 419.76576 338.792413 
L 422.8416 355.494453 
L 425.91744 342.136053 
L 428.99328 364.864184 
L 432.06912 307.495766 
L 435.14496 329.358056 
L 438.2208 336.175004 
L 441.29664 346.28712 
L 444.37248 355.527596 
L 447.44832 361.893395 
L 450.52416 311.351453 
L 453.6 327.636315 
L 456.67584 364.023613 
L 459.75168 386.936512 
L 462.82752 363.348754 
L 465.90336 328.688996 
L 468.9792 333.264285 
L 472.05504 352.344696 
L 475.13088 358.155362 
L 478.20672 361.789825 
L 481.28256 365.839395 
L 484.3584 337.393396 
L 487.43424 340.702236 
L 490.51008 346.714655 
L 493.58592 347.196047 
L 496.66176 361.307191 
L 499.7376 343.822579 
L 502.81344 341.447108 
L 505.88928 353.817041 
L 508.96512 319.246353 
L 512.04096 338.381864 
L 515.1168 354.674597 
L 518.19264 345.641675 
L 521.26848 319.34578 
L 524.34432 326.668562 
L 527.42016 319.521848 
L 530.496 291.06715 
L 533.57184 314.11966 
L 536.64768 301.707057 
L 539.72352 319.817229 
L 542.79936 286.662544 
L 545.8752 344.411269 
L 548.95104 332.933691 
L 552.02688 320.163565 
L 555.10272 319.930327 
L 558.17856 328.266433 
L 561.2544 288.675107 
L 564.33024 325.996188 
L 567.40608 361.535044 
L 570.48192 294.482045 
L 573.55776 316.328592 
L 573.55776 316.328592 
" clip-path="url(#p6f9531b3c3)" style="fill: none; stroke: #777777; stroke-width: 1.8; stroke-linecap: square"/>
   </g>
   <g id="line2d_28">
    <path d="M 576.6336 286.859533 
L 579.70944 296.844466 
L 582.78528 308.788521 
L 585.86112 290.980358 
L 588.93696 311.433481 
L 592.0128 292.341677 
L 595.08864 318.077882 
L 598.16448 276.127242 
L 601.24032 312.203002 
L 604.31616 325.452241 
L 607.392 308.304437 
L 610.46784 297.425284 
L 613.54368 328.187305 
L 616.61952 324.84263 
L 619.69536 310.652773 
L 622.7712 303.502746 
L 625.84704 323.840906 
L 628.92288 337.161607 
L 631.99872 311.888772 
L 635.07456 290.325592 
L 638.1504 311.603542 
L 641.22624 294.251292 
L 644.30208 336.129019 
L 647.37792 255.187343 
L 650.45376 277.497881 
L 653.5296 312.909968 
L 656.60544 295.391386 
L 659.68128 294.927187 
L 662.75712 284.616009 
L 665.83296 275.401012 
L 668.9088 307.745783 
L 671.98464 301.861168 
L 675.06048 318.754398 
L 678.13632 333.362469 
L 681.21216 299.534375 
L 684.288 286.787656 
L 687.36384 337.148143 
L 690.43968 342.359349 
L 693.51552 288.264143 
L 696.59136 300.047251 
L 699.6672 263.145006 
L 702.74304 314.127325 
L 705.81888 293.165469 
L 708.89472 320.763854 
L 711.97056 286.945496 
L 715.0464 299.662387 
L 718.12224 278.618504 
L 721.19808 275.189316 
L 724.27392 295.814778 
L 727.34976 295.080884 
L 730.4256 296.867252 
L 733.50144 317.665053 
L 736.57728 277.831582 
L 739.65312 296.067695 
L 742.72896 271.051505 
L 745.8048 271.410477 
L 748.88064 281.802232 
L 751.95648 302.533335 
L 755.03232 313.628119 
L 758.10816 277.697149 
L 761.184 274.218248 
L 764.25984 278.48987 
L 767.33568 245.890318 
L 770.41152 260.194931 
L 773.48736 240.938451 
L 776.5632 275.917617 
L 779.63904 318.334113 
L 782.71488 281.623885 
L 785.79072 233.782623 
L 788.86656 226.395836 
L 791.9424 219.518403 
L 795.01824 240.246399 
L 798.09408 275.618301 
L 801.16992 270.265205 
L 804.24576 209.871935 
L 807.3216 309.171522 
L 810.39744 251.968608 
L 813.47328 274.438644 
L 816.54912 280.326573 
L 819.62496 247.289957 
L 822.7008 262.09916 
L 825.77664 260.041026 
L 828.85248 282.521833 
L 831.92832 301.022876 
L 835.00416 291.670546 
L 838.08 230.556846 
L 838.08 230.556846 
" clip-path="url(#p6f9531b3c3)" style="fill: none; stroke: #3db5af; stroke-width: 1.8; stroke-linecap: square"/>
   </g>
   <g id="text_22">
    <!-- Maximal temperature (in Czechia) projections (8 CMIP6 models) -->
    <g transform="translate(165.727969 22.8) scale(0.18 -0.18)">
     <defs>
      <path id="DejaVuSans-69" d="M 603 3500 
L 1178 3500 
L 1178 0 
L 603 0 
L 603 3500 
z
M 603 4863 
L 1178 4863 
L 1178 4134 
L 603 4134 
L 603 4863 
z
" transform="scale(0.015625)"/>
      <path id="DejaVuSans-6c" d="M 603 4863 
L 1178 4863 
L 1178 0 
L 603 0 
L 603 4863 
z
" transform="scale(0.015625)"/>
      <path id="DejaVuSans-28" d="M 1984 4856 
Q 1566 4138 1362 3434 
Q 1159 2731 1159 2009 
Q 1159 1288 1364 580 
Q 1569 -128 1984 -844 
L 1484 -844 
Q 1016 -109 783 600 
Q 550 1309 550 2009 
Q 550 2706 781 3412 
Q 1013 4119 1484 4856 
L 1984 4856 
z
" transform="scale(0.015625)"/>
      <path id="DejaVuSans-6e" d="M 3513 2113 
L 3513 0 
L 2938 0 
L 2938 2094 
Q 2938 2591 2744 2837 
Q 2550 3084 2163 3084 
Q 1697 3084 1428 2787 
Q 1159 2491 1159 1978 
L 1159 0 
L 581 0 
L 581 3500 
L 1159 3500 
L 1159 2956 
Q 1366 3272 1645 3428 
Q 1925 3584 2291 3584 
Q 2894 3584 3203 3211 
Q 3513 2838 3513 2113 
z
" transform="scale(0.015625)"/>
      <path id="DejaVuSans-7a" d="M 353 3500 
L 3084 3500 
L 3084 2975 
L 922 459 
L 3084 459 
L 3084 0 
L 275 0 
L 275 525 
L 2438 3041 
L 353 3041 
L 353 3500 
z
" transform="scale(0.015625)"/>
      <path id="DejaVuSans-63" d="M 3122 3366 
L 3122 2828 
Q 2878 2963 2633 3030 
Q 2388 3097 2138 3097 
Q 1578 3097 1268 2742 
Q 959 2388 959 1747 
Q 959 1106 1268 751 
Q 1578 397 2138 397 
Q 2388 397 2633 464 
Q 2878 531 3122 666 
L 3122 134 
Q 2881 22 2623 -34 
Q 2366 -91 2075 -91 
Q 1284 -91 818 406 
Q 353 903 353 1747 
Q 353 2603 823 3093 
Q 1294 3584 2113 3584 
Q 2378 3584 2631 3529 
Q 2884 3475 3122 3366 
z
" transform="scale(0.015625)"/>
      <path id="DejaVuSans-68" d="M 3513 2113 
L 3513 0 
L 2938 0 
L 2938 2094 
Q 2938 2591 2744 2837 
Q 2550 3084 2163 3084 
Q 1697 3084 1428 2787 
Q 1159 2491 1159 1978 
L 1159 0 
L 581 0 
L 581 4863 
L 1159 4863 
L 1159 2956 
Q 1366 3272 1645 3428 
Q 1925 3584 2291 3584 
Q 2894 3584 3203 3211 
Q 3513 2838 3513 2113 
z
" transform="scale(0.015625)"/>
      <path id="DejaVuSans-29" d="M 513 4856 
L 1013 4856 
Q 1481 4119 1714 3412 
Q 1947 2706 1947 2009 
Q 1947 1309 1714 600 
Q 1481 -109 1013 -844 
L 513 -844 
Q 928 -128 1133 580 
Q 1338 1288 1338 2009 
Q 1338 2731 1133 3434 
Q 928 4138 513 4856 
z
" transform="scale(0.015625)"/>
      <path id="DejaVuSans-6f" d="M 1959 3097 
Q 1497 3097 1228 2736 
Q 959 2375 959 1747 
Q 959 1119 1226 758 
Q 1494 397 1959 397 
Q 2419 397 2687 759 
Q 2956 1122 2956 1747 
Q 2956 2369 2687 2733 
Q 2419 3097 1959 3097 
z
M 1959 3584 
Q 2709 3584 3137 3096 
Q 3566 2609 3566 1747 
Q 3566 888 3137 398 
Q 2709 -91 1959 -91 
Q 1206 -91 779 398 
Q 353 888 353 1747 
Q 353 2609 779 3096 
Q 1206 3584 1959 3584 
z
" transform="scale(0.015625)"/>
      <path id="DejaVuSans-6a" d="M 603 3500 
L 1178 3500 
L 1178 -63 
Q 1178 -731 923 -1031 
Q 669 -1331 103 -1331 
L -116 -1331 
L -116 -844 
L 38 -844 
Q 366 -844 484 -692 
Q 603 -541 603 -63 
L 603 3500 
z
M 603 4863 
L 1178 4863 
L 1178 4134 
L 603 4134 
L 603 4863 
z
" transform="scale(0.015625)"/>
      <path id="DejaVuSans-73" d="M 2834 3397 
L 2834 2853 
Q 2591 2978 2328 3040 
Q 2066 3103 1784 3103 
Q 1356 3103 1142 2972 
Q 928 2841 928 2578 
Q 928 2378 1081 2264 
Q 1234 2150 1697 2047 
L 1894 2003 
Q 2506 1872 2764 1633 
Q 3022 1394 3022 966 
Q 3022 478 2636 193 
Q 2250 -91 1575 -91 
Q 1294 -91 989 -36 
Q 684 19 347 128 
L 347 722 
Q 666 556 975 473 
Q 1284 391 1588 391 
Q 1994 391 2212 530 
Q 2431 669 2431 922 
Q 2431 1156 2273 1281 
Q 2116 1406 1581 1522 
L 1381 1569 
Q 847 1681 609 1914 
Q 372 2147 372 2553 
Q 372 3047 722 3315 
Q 1072 3584 1716 3584 
Q 2034 3584 2315 3537 
Q 2597 3491 2834 3397 
z
" transform="scale(0.015625)"/>
      <path id="DejaVuSans-49" d="M 628 4666 
L 1259 4666 
L 1259 0 
L 628 0 
L 628 4666 
z
" transform="scale(0.015625)"/>
      <path id="DejaVuSans-50" d="M 1259 4147 
L 1259 2394 
L 2053 2394 
Q 2494 2394 2734 2622 
Q 2975 2850 2975 3272 
Q 2975 3691 2734 3919 
Q 2494 4147 2053 4147 
L 1259 4147 
z
M 628 4666 
L 2053 4666 
Q 2838 4666 3239 4311 
Q 3641 3956 3641 3272 
Q 3641 2581 3239 2228 
Q 2838 1875 2053 1875 
L 1259 1875 
L 1259 0 
L 628 0 
L 628 4666 
z
" transform="scale(0.015625)"/>
      <path id="DejaVuSans-36" d="M 2113 2584 
Q 1688 2584 1439 2293 
Q 1191 2003 1191 1497 
Q 1191 994 1439 701 
Q 1688 409 2113 409 
Q 2538 409 2786 701 
Q 3034 994 3034 1497 
Q 3034 2003 2786 2293 
Q 2538 2584 2113 2584 
z
M 3366 4563 
L 3366 3988 
Q 3128 4100 2886 4159 
Q 2644 4219 2406 4219 
Q 1781 4219 1451 3797 
Q 1122 3375 1075 2522 
Q 1259 2794 1537 2939 
Q 1816 3084 2150 3084 
Q 2853 3084 3261 2657 
Q 3669 2231 3669 1497 
Q 3669 778 3244 343 
Q 2819 -91 2113 -91 
Q 1303 -91 875 529 
Q 447 1150 447 2328 
Q 447 3434 972 4092 
Q 1497 4750 2381 4750 
Q 2619 4750 2861 4703 
Q 3103 4656 3366 4563 
z
" transform="scale(0.015625)"/>
      <path id="DejaVuSans-64" d="M 2906 2969 
L 2906 4863 
L 3481 4863 
L 3481 0 
L 2906 0 
L 2906 525 
Q 2725 213 2448 61 
Q 2172 -91 1784 -91 
Q 1150 -91 751 415 
Q 353 922 353 1747 
Q 353 2572 751 3078 
Q 1150 3584 1784 3584 
Q 2172 3584 2448 3432 
Q 2725 3281 2906 2969 
z
M 947 1747 
Q 947 1113 1208 752 
Q 1469 391 1925 391 
Q 2381 391 2643 752 
Q 2906 1113 2906 1747 
Q 2906 2381 2643 2742 
Q 2381 3103 1925 3103 
Q 1469 3103 1208 2742 
Q 947 2381 947 1747 
z
" transform="scale(0.015625)"/>
     </defs>
     <use xlink:href="#DejaVuSans-4d"/>
     <use xlink:href="#DejaVuSans-61" x="86.279297"/>
     <use xlink:href="#DejaVuSans-78" x="147.558594"/>
     <use xlink:href="#DejaVuSans-69" x="206.738281"/>
     <use xlink:href="#DejaVuSans-6d" x="234.521484"/>
     <use xlink:href="#DejaVuSans-61" x="331.933594"/>
     <use xlink:href="#DejaVuSans-6c" x="393.212891"/>
     <use xlink:href="#DejaVuSans-20" x="420.996094"/>
     <use xlink:href="#DejaVuSans-74" x="452.783203"/>
     <use xlink:href="#DejaVuSans-65" x="491.992188"/>
     <use xlink:href="#DejaVuSans-6d" x="553.515625"/>
     <use xlink:href="#DejaVuSans-70" x="650.927734"/>
     <use xlink:href="#DejaVuSans-65" x="714.404297"/>
     <use xlink:href="#DejaVuSans-72" x="775.927734"/>
     <use xlink:href="#DejaVuSans-61" x="817.041016"/>
     <use xlink:href="#DejaVuSans-74" x="878.320312"/>
     <use xlink:href="#DejaVuSans-75" x="917.529297"/>
     <use xlink:href="#DejaVuSans-72" x="980.908203"/>
     <use xlink:href="#DejaVuSans-65" x="1019.771484"/>
     <use xlink:href="#DejaVuSans-20" x="1081.294922"/>
     <use xlink:href="#DejaVuSans-28" x="1113.082031"/>
     <use xlink:href="#DejaVuSans-69" x="1152.095703"/>
     <use xlink:href="#DejaVuSans-6e" x="1179.878906"/>
     <use xlink:href="#DejaVuSans-20" x="1243.257812"/>
     <use xlink:href="#DejaVuSans-43" x="1275.044922"/>
     <use xlink:href="#DejaVuSans-7a" x="1344.869141"/>
     <use xlink:href="#DejaVuSans-65" x="1397.359375"/>
     <use xlink:href="#DejaVuSans-63" x="1458.882812"/>
     <use xlink:href="#DejaVuSans-68" x="1513.863281"/>
     <use xlink:href="#DejaVuSans-69" x="1577.242188"/>
     <use xlink:href="#DejaVuSans-61" x="1605.025391"/>
     <use xlink:href="#DejaVuSans-29" x="1666.304688"/>
     <use xlink:href="#DejaVuSans-20" x="1705.318359"/>
     <use xlink:href="#DejaVuSans-70" x="1737.105469"/>
     <use xlink:href="#DejaVuSans-72" x="1800.582031"/>
     <use xlink:href="#DejaVuSans-6f" x="1839.445312"/>
     <use xlink:href="#DejaVuSans-6a" x="1900.626953"/>
     <use xlink:href="#DejaVuSans-65" x="1928.410156"/>
     <use xlink:href="#DejaVuSans-63" x="1989.933594"/>
     <use xlink:href="#DejaVuSans-74" x="2044.914062"/>
     <use xlink:href="#DejaVuSans-69" x="2084.123047"/>
     <use xlink:href="#DejaVuSans-6f" x="2111.90625"/>
     <use xlink:href="#DejaVuSans-6e" x="2173.087891"/>
     <use xlink:href="#DejaVuSans-73" x="2236.466797"/>
     <use xlink:href="#DejaVuSans-20" x="2288.566406"/>
     <use xlink:href="#DejaVuSans-28" x="2320.353516"/>
     <use xlink:href="#DejaVuSans-38" x="2359.367188"/>
     <use xlink:href="#DejaVuSans-20" x="2422.990234"/>
     <use xlink:href="#DejaVuSans-43" x="2454.777344"/>
     <use xlink:href="#DejaVuSans-4d" x="2524.601562"/>
     <use xlink:href="#DejaVuSans-49" x="2610.880859"/>
     <use xlink:href="#DejaVuSans-50" x="2640.373047"/>
     <use xlink:href="#DejaVuSans-36" x="2700.675781"/>
     <use xlink:href="#DejaVuSans-20" x="2764.298828"/>
     <use xlink:href="#DejaVuSans-6d" x="2796.085938"/>
     <use xlink:href="#DejaVuSans-6f" x="2893.498047"/>
     <use xlink:href="#DejaVuSans-64" x="2954.679688"/>
     <use xlink:href="#DejaVuSans-65" x="3018.15625"/>
     <use xlink:href="#DejaVuSans-6c" x="3079.679688"/>
     <use xlink:href="#DejaVuSans-73" x="3107.462891"/>
     <use xlink:href="#DejaVuSans-29" x="3159.5625"/>
    </g>
   </g>
   <g id="legend_1">
    <g id="PathCollection_2">
     <g>
      <use xlink:href="#mf97f8e3297" x="95.72" y="48.362813" style="stroke: #000000"/>
     </g>
    </g>
    <g id="text_23">
     <!-- measurements -->
     <g transform="translate(120.92 52.037813) scale(0.14 -0.14)">
      <use xlink:href="#DejaVuSans-6d"/>
      <use xlink:href="#DejaVuSans-65" x="97.412109"/>
      <use xlink:href="#DejaVuSans-61" x="158.935547"/>
      <use xlink:href="#DejaVuSans-73" x="220.214844"/>
      <use xlink:href="#DejaVuSans-75" x="272.314453"/>
      <use xlink:href="#DejaVuSans-72" x="335.693359"/>
      <use xlink:href="#DejaVuSans-65" x="374.556641"/>
      <use xlink:href="#DejaVuSans-6d" x="436.080078"/>
      <use xlink:href="#DejaVuSans-65" x="533.492188"/>
      <use xlink:href="#DejaVuSans-6e" x="595.015625"/>
      <use xlink:href="#DejaVuSans-74" x="658.394531"/>
      <use xlink:href="#DejaVuSans-73" x="697.603516"/>
     </g>
    </g>
    <g id="line2d_29">
     <path d="M 81.72 67.687188 
L 95.72 67.687188 
L 109.72 67.687188 
" style="fill: none; stroke: #777777; stroke-width: 1.8; stroke-linecap: square"/>
    </g>
    <g id="text_24">
     <!-- hindcast -->
     <g transform="translate(120.92 72.587188) scale(0.14 -0.14)">
      <use xlink:href="#DejaVuSans-68"/>
      <use xlink:href="#DejaVuSans-69" x="63.378906"/>
      <use xlink:href="#DejaVuSans-6e" x="91.162109"/>
      <use xlink:href="#DejaVuSans-64" x="154.541016"/>
      <use xlink:href="#DejaVuSans-63" x="218.017578"/>
      <use xlink:href="#DejaVuSans-61" x="272.998047"/>
      <use xlink:href="#DejaVuSans-73" x="334.277344"/>
      <use xlink:href="#DejaVuSans-74" x="386.376953"/>
     </g>
    </g>
    <g id="line2d_30">
     <path d="M 81.72 88.236563 
L 95.72 88.236563 
L 109.72 88.236563 
" style="fill: none; stroke: #3db5af; stroke-width: 1.8; stroke-linecap: square"/>
    </g>
    <g id="text_25">
     <!-- 3° = no decline till 2050 -->
     <g transform="translate(120.92 93.136563) scale(0.14 -0.14)">
      <defs>
       <path id="DejaVuSans-3d" d="M 678 2906 
L 4684 2906 
L 4684 2381 
L 678 2381 
L 678 2906 
z
M 678 1631 
L 4684 1631 
L 4684 1100 
L 678 1100 
L 678 1631 
z
" transform="scale(0.015625)"/>
      </defs>
      <use xlink:href="#DejaVuSans-33"/>
      <use xlink:href="#DejaVuSans-b0" x="63.623047"/>
      <use xlink:href="#DejaVuSans-20" x="113.623047"/>
      <use xlink:href="#DejaVuSans-3d" x="145.410156"/>
      <use xlink:href="#DejaVuSans-20" x="229.199219"/>
      <use xlink:href="#DejaVuSans-6e" x="260.986328"/>
      <use xlink:href="#DejaVuSans-6f" x="324.365234"/>
      <use xlink:href="#DejaVuSans-20" x="385.546875"/>
      <use xlink:href="#DejaVuSans-64" x="417.333984"/>
      <use xlink:href="#DejaVuSans-65" x="480.810547"/>
      <use xlink:href="#DejaVuSans-63" x="542.333984"/>
      <use xlink:href="#DejaVuSans-6c" x="597.314453"/>
      <use xlink:href="#DejaVuSans-69" x="625.097656"/>
      <use xlink:href="#DejaVuSans-6e" x="652.880859"/>
      <use xlink:href="#DejaVuSans-65" x="716.259766"/>
      <use xlink:href="#DejaVuSans-20" x="777.783203"/>
      <use xlink:href="#DejaVuSans-74" x="809.570312"/>
      <use xlink:href="#DejaVuSans-69" x="848.779297"/>
      <use xlink:href="#DejaVuSans-6c" x="876.5625"/>
      <use xlink:href="#DejaVuSans-6c" x="904.345703"/>
      <use xlink:href="#DejaVuSans-20" x="932.128906"/>
      <use xlink:href="#DejaVuSans-32" x="963.916016"/>
      <use xlink:href="#DejaVuSans-30" x="1027.539062"/>
      <use xlink:href="#DejaVuSans-35" x="1091.162109"/>
      <use xlink:href="#DejaVuSans-30" x="1154.785156"/>
     </g>
    </g>
   </g>
  </g>
 </g>
 <defs>
  <clipPath id="p6f9531b3c3">
   <rect x="69.12" y="28.8" width="768.96" height="460.8"/>
  </clipPath>
 </defs>
</svg>
