<?xml version="1.0" encoding="utf-8" standalone="no"?>
<!DOCTYPE svg PUBLIC "-//W3C//DTD SVG 1.1//EN"
  "http://www.w3.org/Graphics/SVG/1.1/DTD/svg11.dtd">
<svg xmlns:xlink="http://www.w3.org/1999/xlink" width="864pt" height="576pt" viewBox="0 0 864 576" xmlns="http://www.w3.org/2000/svg" version="1.1">
 <metadata>
  <rdf:RDF xmlns:dc="http://purl.org/dc/elements/1.1/" xmlns:cc="http://creativecommons.org/ns#" xmlns:rdf="http://www.w3.org/1999/02/22-rdf-syntax-ns#">
   <cc:Work>
    <dc:type rdf:resource="http://purl.org/dc/dcmitype/StillImage"/>
    <dc:date>2024-07-09T22:19:29.525837</dc:date>
    <dc:format>image/svg+xml</dc:format>
    <dc:creator>
     <cc:Agent>
      <dc:title>Matplotlib v3.8.3, https://matplotlib.org/</dc:title>
     </cc:Agent>
    </dc:creator>
   </cc:Work>
  </rdf:RDF>
 </metadata>
 <defs>
  <style type="text/css">*{stroke-linejoin: round; stroke-linecap: butt}</style>
 </defs>
 <g id="figure_1">
  <g id="patch_1">
   <path d="M 0 576 
L 864 576 
L 864 0 
L 0 0 
z
" style="fill: #ffffff"/>
  </g>
  <g id="axes_1">
   <g id="patch_2">
    <path d="M 69.12 489.6 
L 838.08 489.6 
L 838.08 28.8 
L 69.12 28.8 
z
" style="fill: #ffffff"/>
   </g>
   <g id="PathCollection_1">
    <defs>
     <path id="m58a16b3c47" d="M 0 1.322876 
C 0.350831 1.322876 0.68734 1.183489 0.935414 0.935414 
C 1.183489 0.68734 1.322876 0.350831 1.322876 0 
C 1.322876 -0.350831 1.183489 -0.68734 0.935414 -0.935414 
C 0.68734 -1.183489 0.350831 -1.322876 0 -1.322876 
C -0.350831 -1.322876 -0.68734 -1.183489 -0.935414 -0.935414 
C -1.183489 -0.68734 -1.322876 -0.350831 -1.322876 0 
C -1.322876 0.350831 -1.183489 0.68734 -0.935414 0.935414 
C -0.68734 1.183489 -0.350831 1.322876 0 1.322876 
z
" style="stroke: #000000"/>
    </defs>
    <g clip-path="url(#p81b509c6ad)">
     <use xlink:href="#m58a16b3c47" x="410.53824" y="326.433745" style="stroke: #000000"/>
     <use xlink:href="#m58a16b3c47" x="413.61408" y="336.76191" style="stroke: #000000"/>
     <use xlink:href="#m58a16b3c47" x="416.68992" y="285.121085" style="stroke: #000000"/>
     <use xlink:href="#m58a16b3c47" x="419.76576" y="345.024442" style="stroke: #000000"/>
     <use xlink:href="#m58a16b3c47" x="422.8416" y="336.76191" style="stroke: #000000"/>
     <use xlink:href="#m58a16b3c47" x="425.91744" y="357.41824" style="stroke: #000000"/>
     <use xlink:href="#m58a16b3c47" x="428.99328" y="336.76191" style="stroke: #000000"/>
     <use xlink:href="#m58a16b3c47" x="432.06912" y="334.696277" style="stroke: #000000"/>
     <use xlink:href="#m58a16b3c47" x="435.14496" y="320.236846" style="stroke: #000000"/>
     <use xlink:href="#m58a16b3c47" x="438.2208" y="353.286974" style="stroke: #000000"/>
     <use xlink:href="#m58a16b3c47" x="441.29664" y="305.777415" style="stroke: #000000"/>
     <use xlink:href="#m58a16b3c47" x="444.37248" y="332.630644" style="stroke: #000000"/>
     <use xlink:href="#m58a16b3c47" x="447.44832" y="336.76191" style="stroke: #000000"/>
     <use xlink:href="#m58a16b3c47" x="450.52416" y="295.44925" style="stroke: #000000"/>
     <use xlink:href="#m58a16b3c47" x="453.6" y="373.943305" style="stroke: #000000"/>
     <use xlink:href="#m58a16b3c47" x="456.67584" y="287.186718" style="stroke: #000000"/>
     <use xlink:href="#m58a16b3c47" x="459.75168" y="388.402736" style="stroke: #000000"/>
     <use xlink:href="#m58a16b3c47" x="462.82752" y="390.468369" style="stroke: #000000"/>
     <use xlink:href="#m58a16b3c47" x="465.90336" y="361.549506" style="stroke: #000000"/>
     <use xlink:href="#m58a16b3c47" x="468.9792" y="359.483873" style="stroke: #000000"/>
     <use xlink:href="#m58a16b3c47" x="472.05504" y="371.877672" style="stroke: #000000"/>
     <use xlink:href="#m58a16b3c47" x="475.13088" y="336.76191" style="stroke: #000000"/>
     <use xlink:href="#m58a16b3c47" x="478.20672" y="216.955195" style="stroke: #000000"/>
     <use xlink:href="#m58a16b3c47" x="481.28256" y="268.59602" style="stroke: #000000"/>
     <use xlink:href="#m58a16b3c47" x="484.3584" y="357.41824" style="stroke: #000000"/>
     <use xlink:href="#m58a16b3c47" x="487.43424" y="309.908681" style="stroke: #000000"/>
     <use xlink:href="#m58a16b3c47" x="490.51008" y="373.943305" style="stroke: #000000"/>
     <use xlink:href="#m58a16b3c47" x="493.58592" y="297.514883" style="stroke: #000000"/>
     <use xlink:href="#m58a16b3c47" x="496.66176" y="332.630644" style="stroke: #000000"/>
     <use xlink:href="#m58a16b3c47" x="499.7376" y="299.580516" style="stroke: #000000"/>
     <use xlink:href="#m58a16b3c47" x="502.81344" y="316.10558" style="stroke: #000000"/>
     <use xlink:href="#m58a16b3c47" x="505.88928" y="260.333488" style="stroke: #000000"/>
     <use xlink:href="#m58a16b3c47" x="508.96512" y="328.499378" style="stroke: #000000"/>
     <use xlink:href="#m58a16b3c47" x="512.04096" y="260.333488" style="stroke: #000000"/>
     <use xlink:href="#m58a16b3c47" x="515.1168" y="285.121085" style="stroke: #000000"/>
     <use xlink:href="#m58a16b3c47" x="518.19264" y="369.812039" style="stroke: #000000"/>
     <use xlink:href="#m58a16b3c47" x="521.26848" y="324.368112" style="stroke: #000000"/>
     <use xlink:href="#m58a16b3c47" x="524.34432" y="270.661653" style="stroke: #000000"/>
     <use xlink:href="#m58a16b3c47" x="527.42016" y="303.711782" style="stroke: #000000"/>
     <use xlink:href="#m58a16b3c47" x="530.496" y="266.530387" style="stroke: #000000"/>
     <use xlink:href="#m58a16b3c47" x="533.57184" y="316.10558" style="stroke: #000000"/>
     <use xlink:href="#m58a16b3c47" x="536.64768" y="332.630644" style="stroke: #000000"/>
     <use xlink:href="#m58a16b3c47" x="539.72352" y="245.874057" style="stroke: #000000"/>
     <use xlink:href="#m58a16b3c47" x="542.79936" y="316.10558" style="stroke: #000000"/>
     <use xlink:href="#m58a16b3c47" x="545.8752" y="268.59602" style="stroke: #000000"/>
     <use xlink:href="#m58a16b3c47" x="548.95104" y="297.514883" style="stroke: #000000"/>
     <use xlink:href="#m58a16b3c47" x="552.02688" y="245.874057" style="stroke: #000000"/>
     <use xlink:href="#m58a16b3c47" x="555.10272" y="336.76191" style="stroke: #000000"/>
     <use xlink:href="#m58a16b3c47" x="558.17856" y="301.646149" style="stroke: #000000"/>
     <use xlink:href="#m58a16b3c47" x="561.2544" y="280.989819" style="stroke: #000000"/>
     <use xlink:href="#m58a16b3c47" x="564.33024" y="299.580516" style="stroke: #000000"/>
     <use xlink:href="#m58a16b3c47" x="567.40608" y="204.561397" style="stroke: #000000"/>
     <use xlink:href="#m58a16b3c47" x="570.48192" y="239.677158" style="stroke: #000000"/>
     <use xlink:href="#m58a16b3c47" x="573.55776" y="305.777415" style="stroke: #000000"/>
     <use xlink:href="#m58a16b3c47" x="576.6336" y="229.348993" style="stroke: #000000"/>
     <use xlink:href="#m58a16b3c47" x="579.70944" y="295.44925" style="stroke: #000000"/>
     <use xlink:href="#m58a16b3c47" x="582.78528" y="270.661653" style="stroke: #000000"/>
     <use xlink:href="#m58a16b3c47" x="585.86112" y="289.252351" style="stroke: #000000"/>
     <use xlink:href="#m58a16b3c47" x="588.93696" y="227.28336" style="stroke: #000000"/>
     <use xlink:href="#m58a16b3c47" x="592.0128" y="303.711782" style="stroke: #000000"/>
     <use xlink:href="#m58a16b3c47" x="595.08864" y="334.696277" style="stroke: #000000"/>
     <use xlink:href="#m58a16b3c47" x="598.16448" y="252.070956" style="stroke: #000000"/>
    </g>
   </g>
   <g id="PolyCollection_1">
    <defs>
     <path id="m4a00648dea" d="M 69.12 -401.971872 
L 69.12 -158.314168 
L 72.19584 -159.004813 
L 75.27168 -212.567545 
L 78.34752 -161.857162 
L 81.42336 -160.008506 
L 84.4992 -155.131877 
L 87.57504 -182.446294 
L 90.65088 -152.63872 
L 93.72672 -161.031867 
L 96.80256 -171.286656 
L 99.8784 -184.15387 
L 102.95424 -162.817737 
L 106.03008 -163.772512 
L 109.10592 -151.337613 
L 112.18176 -147.22488 
L 115.2576 -175.88869 
L 118.33344 -166.53043 
L 121.40928 -146.994287 
L 124.48512 -127.772956 
L 127.56096 -176.370554 
L 130.6368 -135.187248 
L 133.71264 -151.862342 
L 136.78848 -157.975275 
L 139.86432 -140.668412 
L 142.94016 -169.06431 
L 146.016 -174.059072 
L 149.09184 -136.208213 
L 152.16768 -129.91247 
L 155.24352 -148.430673 
L 158.31936 -171.762467 
L 161.3952 -152.844098 
L 164.47104 -135.110971 
L 167.54688 -167.491509 
L 170.62272 -156.921782 
L 173.69856 -125.951911 
L 176.7744 -129.834051 
L 179.85024 -175.097184 
L 182.92608 -143.394432 
L 186.00192 -147.992306 
L 189.07776 -139.442825 
L 192.1536 -152.871709 
L 195.22944 -152.892133 
L 198.30528 -138.7078 
L 201.38112 -169.898556 
L 204.45696 -150.333416 
L 207.5328 -107.345455 
L 210.60864 -161.843168 
L 213.68448 -146.874262 
L 216.76032 -167.334922 
L 219.83616 -158.944549 
L 222.912 -146.422531 
L 225.98784 -157.267987 
L 229.06368 -186.517547 
L 232.13952 -145.733272 
L 235.21536 -145.947224 
L 238.2912 -146.279687 
L 241.36704 -174.811621 
L 244.44288 -165.873951 
L 247.51872 -166.101518 
L 250.59456 -147.396722 
L 253.6704 -153.512933 
L 256.74624 -170.123602 
L 259.82208 -148.898038 
L 262.89792 -124.575915 
L 265.97376 -133.678745 
L 269.0496 -161.626695 
L 272.12544 -143.508657 
L 275.20128 -149.277528 
L 278.27712 -154.315156 
L 281.35296 -139.578735 
L 284.4288 -146.376135 
L 287.50464 -164.53893 
L 290.58048 -166.684999 
L 293.65632 -160.568915 
L 296.73216 -152.751432 
L 299.808 -150.437177 
L 302.88384 -155.346081 
L 305.95968 -151.478062 
L 309.03552 -141.332771 
L 312.11136 -158.951168 
L 315.1872 -182.336418 
L 318.26304 -152.493669 
L 321.33888 -142.580043 
L 324.41472 -130.024993 
L 327.49056 -185.546193 
L 330.5664 -157.298435 
L 333.64224 -165.324637 
L 336.71808 -133.344706 
L 339.79392 -155.531161 
L 342.86976 -143.051568 
L 345.9456 -165.042163 
L 349.02144 -156.629348 
L 352.09728 -122.185888 
L 355.17312 -142.471239 
L 358.24896 -144.200564 
L 361.3248 -153.061517 
L 364.40064 -140.621259 
L 367.47648 -172.398396 
L 370.55232 -173.952286 
L 373.62816 -192.51512 
L 376.704 -155.543832 
L 379.77984 -121.440651 
L 382.85568 -157.930203 
L 385.93152 -139.846143 
L 389.00736 -141.245337 
L 392.0832 -153.158847 
L 395.15904 -153.473345 
L 398.23488 -152.535463 
L 401.31072 -152.715122 
L 404.38656 -125.732286 
L 407.4624 -149.90482 
L 410.53824 -133.178286 
L 413.61408 -121.69854 
L 416.68992 -152.607516 
L 419.76576 -166.338037 
L 422.8416 -130.946106 
L 425.91744 -135.256022 
L 428.99328 -122.635602 
L 432.06912 -140.569379 
L 435.14496 -161.164373 
L 438.2208 -134.101857 
L 441.29664 -139.805987 
L 444.37248 -127.87035 
L 447.44832 -153.30787 
L 450.52416 -129.191629 
L 453.6 -147.124902 
L 456.67584 -133.597552 
L 459.75168 -123.596492 
L 462.82752 -145.891372 
L 465.90336 -136.305418 
L 468.9792 -183.565725 
L 472.05504 -155.251083 
L 475.13088 -134.86424 
L 478.20672 -153.428335 
L 481.28256 -151.000044 
L 484.3584 -153.867207 
L 487.43424 -144.586609 
L 490.51008 -130.59284 
L 493.58592 -142.031548 
L 496.66176 -150.882289 
L 499.7376 -167.730108 
L 502.81344 -157.816104 
L 505.88928 -137.644536 
L 508.96512 -143.005802 
L 512.04096 -137.842098 
L 515.1168 -142.557853 
L 518.19264 -158.073362 
L 521.26848 -157.7762 
L 524.34432 -151.740427 
L 527.42016 -157.374963 
L 530.496 -161.143129 
L 533.57184 -147.961481 
L 536.64768 -174.091915 
L 539.72352 -127.888316 
L 542.79936 -158.053316 
L 545.8752 -166.04926 
L 548.95104 -180.641449 
L 552.02688 -177.837766 
L 555.10272 -167.397771 
L 558.17856 -159.728806 
L 561.2544 -192.657901 
L 564.33024 -184.517789 
L 567.40608 -171.471988 
L 570.48192 -175.216767 
L 573.55776 -190.72011 
L 573.55776 -432.708312 
L 573.55776 -432.708312 
L 570.48192 -386.815743 
L 567.40608 -379.079895 
L 564.33024 -422.924103 
L 561.2544 -422.451254 
L 558.17856 -441.094273 
L 555.10272 -420.811885 
L 552.02688 -393.061308 
L 548.95104 -377.64231 
L 545.8752 -384.851602 
L 542.79936 -411.632274 
L 539.72352 -407.276277 
L 536.64768 -387.907753 
L 533.57184 -388.853072 
L 530.496 -430.824355 
L 527.42016 -366.409359 
L 524.34432 -356.840362 
L 521.26848 -380.178334 
L 518.19264 -385.840922 
L 515.1168 -395.812732 
L 512.04096 -348.613699 
L 508.96512 -407.488148 
L 505.88928 -369.948256 
L 502.81344 -409.487906 
L 499.7376 -359.409291 
L 496.66176 -373.652124 
L 493.58592 -385.622306 
L 490.51008 -393.836298 
L 487.43424 -385.752101 
L 484.3584 -378.15771 
L 481.28256 -400.296445 
L 478.20672 -368.345953 
L 475.13088 -354.047774 
L 472.05504 -388.299976 
L 468.9792 -367.184854 
L 465.90336 -363.187796 
L 462.82752 -408.244606 
L 459.75168 -360.467323 
L 456.67584 -387.893632 
L 453.6 -355.999686 
L 450.52416 -361.082638 
L 447.44832 -371.489727 
L 444.37248 -364.391824 
L 441.29664 -328.717167 
L 438.2208 -376.935464 
L 435.14496 -377.410267 
L 432.06912 -405.680341 
L 428.99328 -346.922764 
L 425.91744 -357.672465 
L 422.8416 -351.329444 
L 419.76576 -375.964992 
L 416.68992 -355.264535 
L 413.61408 -346.152438 
L 410.53824 -377.08726 
L 407.4624 -381.270343 
L 404.38656 -393.988346 
L 401.31072 -366.323564 
L 398.23488 -376.049841 
L 395.15904 -383.169114 
L 392.0832 -350.112808 
L 389.00736 -379.645094 
L 385.93152 -356.189557 
L 382.85568 -387.668775 
L 379.77984 -397.40684 
L 376.704 -372.762025 
L 373.62816 -386.341949 
L 370.55232 -359.054261 
L 367.47648 -367.887792 
L 364.40064 -418.955475 
L 361.3248 -387.636689 
L 358.24896 -371.568588 
L 355.17312 -387.03852 
L 352.09728 -376.483418 
L 349.02144 -380.931198 
L 345.9456 -389.529975 
L 342.86976 -398.230496 
L 339.79392 -402.871426 
L 336.71808 -393.625184 
L 333.64224 -384.15087 
L 330.5664 -354.52617 
L 327.49056 -373.735334 
L 324.41472 -350.232518 
L 321.33888 -347.134068 
L 318.26304 -364.936221 
L 315.1872 -348.65959 
L 312.11136 -393.829364 
L 309.03552 -357.63584 
L 305.95968 -404.136727 
L 302.88384 -366.368195 
L 299.808 -385.757459 
L 296.73216 -358.22241 
L 293.65632 -396.014013 
L 290.58048 -388.46129 
L 287.50464 -368.039714 
L 284.4288 -402.550562 
L 281.35296 -383.364154 
L 278.27712 -368.223281 
L 275.20128 -433.990066 
L 272.12544 -408.828276 
L 269.0496 -422.953731 
L 265.97376 -377.514469 
L 262.89792 -328.597521 
L 259.82208 -385.8442 
L 256.74624 -405.553319 
L 253.6704 -371.725931 
L 250.59456 -397.394044 
L 247.51872 -428.246285 
L 244.44288 -380.359127 
L 241.36704 -362.325309 
L 238.2912 -383.669133 
L 235.21536 -368.846602 
L 232.13952 -370.825494 
L 229.06368 -404.755635 
L 225.98784 -395.735133 
L 222.912 -406.605678 
L 219.83616 -381.39976 
L 216.76032 -399.165919 
L 213.68448 -405.628839 
L 210.60864 -405.050779 
L 207.5328 -358.511377 
L 204.45696 -379.910422 
L 201.38112 -377.861305 
L 198.30528 -380.000314 
L 195.22944 -377.135736 
L 192.1536 -381.604004 
L 189.07776 -389.407619 
L 186.00192 -351.774619 
L 182.92608 -376.025004 
L 179.85024 -372.55526 
L 176.7744 -344.838913 
L 173.69856 -335.719441 
L 170.62272 -368.756836 
L 167.54688 -390.987858 
L 164.47104 -380.8889 
L 161.3952 -383.993527 
L 158.31936 -373.875153 
L 155.24352 -382.300701 
L 152.16768 -390.286118 
L 149.09184 -419.281256 
L 146.016 -359.659679 
L 142.94016 -388.895119 
L 139.86432 -384.418782 
L 136.78848 -374.655186 
L 133.71264 -389.541259 
L 130.6368 -378.220622 
L 127.56096 -372.37661 
L 124.48512 -379.038983 
L 121.40928 -414.496159 
L 118.33344 -374.657708 
L 115.2576 -396.452632 
L 112.18176 -363.279328 
L 109.10592 -392.308507 
L 106.03008 -401.281983 
L 102.95424 -355.667223 
L 99.8784 -398.376934 
L 96.80256 -430.693677 
L 93.72672 -372.661164 
L 90.65088 -392.222018 
L 87.57504 -384.054169 
L 84.4992 -374.741674 
L 81.42336 -384.143557 
L 78.34752 -392.960573 
L 75.27168 -373.096884 
L 72.19584 -388.285792 
L 69.12 -401.971872 
z
" style="stroke: #777777; stroke-opacity: 0.03"/>
    </defs>
    <g clip-path="url(#p81b509c6ad)">
     <use xlink:href="#m4a00648dea" x="0" y="576" style="fill: #777777; fill-opacity: 0.03; stroke: #777777; stroke-opacity: 0.03"/>
    </g>
   </g>
   <g id="PolyCollection_2">
    <defs>
     <path id="m7c58bec890" d="M 576.6336 -410.960477 
L 576.6336 -166.100636 
L 579.70944 -134.529256 
L 582.78528 -125.129264 
L 585.86112 -183.243978 
L 588.93696 -173.881809 
L 592.0128 -169.119468 
L 595.08864 -167.523784 
L 598.16448 -143.383527 
L 601.24032 -158.966108 
L 604.31616 -145.130943 
L 607.392 -152.697219 
L 610.46784 -178.009041 
L 613.54368 -139.901112 
L 616.61952 -165.729972 
L 619.69536 -167.769255 
L 622.7712 -168.829052 
L 625.84704 -194.455685 
L 628.92288 -148.985409 
L 631.99872 -158.175736 
L 635.07456 -194.82761 
L 638.1504 -178.985375 
L 641.22624 -199.442126 
L 644.30208 -162.073761 
L 647.37792 -223.585851 
L 650.45376 -206.117107 
L 653.5296 -194.064345 
L 656.60544 -174.407295 
L 659.68128 -171.020635 
L 662.75712 -179.327042 
L 665.83296 -203.912664 
L 668.9088 -228.545943 
L 671.98464 -192.459394 
L 675.06048 -190.959339 
L 678.13632 -194.768985 
L 681.21216 -148.781165 
L 684.288 -172.165155 
L 687.36384 -182.180777 
L 690.43968 -152.633425 
L 693.51552 -166.910297 
L 696.59136 -210.507838 
L 699.6672 -217.78937 
L 702.74304 -155.80399 
L 705.81888 -214.097858 
L 708.89472 -151.318828 
L 711.97056 -218.768983 
L 715.0464 -197.821416 
L 718.12224 -242.627271 
L 721.19808 -189.301941 
L 724.27392 -199.895497 
L 727.34976 -235.887614 
L 730.4256 -182.138668 
L 733.50144 -194.598404 
L 736.57728 -205.172543 
L 739.65312 -205.997082 
L 742.72896 -190.287605 
L 745.8048 -226.235343 
L 748.88064 -166.701137 
L 751.95648 -203.78041 
L 755.03232 -193.384289 
L 758.10816 -178.514858 
L 761.184 -217.226818 
L 764.25984 -217.0372 
L 767.33568 -207.475956 
L 770.41152 -192.37568 
L 773.48736 -185.401394 
L 776.5632 -211.879421 
L 779.63904 -241.478591 
L 782.71488 -192.40329 
L 785.79072 -172.075389 
L 788.86656 -213.722151 
L 791.9424 -179.434837 
L 795.01824 -221.860372 
L 798.09408 -194.645052 
L 801.16992 -249.97096 
L 804.24576 -204.385702 
L 807.3216 -205.658693 
L 810.39744 -235.047316 
L 813.47328 -204.702909 
L 816.54912 -170.708974 
L 819.62496 -240.914904 
L 822.7008 -218.290145 
L 825.77664 -180.857103 
L 828.85248 -218.694094 
L 831.92832 -212.253237 
L 835.00416 -259.040254 
L 838.08 -179.531285 
L 838.08 -505.121017 
L 838.08 -505.121017 
L 835.00416 -466.09311 
L 831.92832 -492.303981 
L 828.85248 -441.552749 
L 825.77664 -462.359362 
L 822.7008 -519.245337 
L 819.62496 -489.543415 
L 816.54912 -488.33447 
L 813.47328 -487.723757 
L 810.39744 -480.894081 
L 807.3216 -514.206574 
L 804.24576 -503.11817 
L 801.16992 -493.808953 
L 798.09408 -504.20999 
L 795.01824 -523.930708 
L 791.9424 -478.621305 
L 788.86656 -510.16747 
L 785.79072 -449.827889 
L 782.71488 -515.473136 
L 779.63904 -494.634626 
L 776.5632 -473.339467 
L 773.48736 -494.558224 
L 770.41152 -490.609768 
L 767.33568 -490.57888 
L 764.25984 -470.813278 
L 761.184 -472.964012 
L 758.10816 -490.53034 
L 755.03232 -454.534315 
L 751.95648 -501.332804 
L 748.88064 -495.348974 
L 745.8048 -498.402036 
L 742.72896 -526.254545 
L 739.65312 -458.438517 
L 736.57728 -452.782863 
L 733.50144 -456.162967 
L 730.4256 -497.001581 
L 727.34976 -479.309555 
L 724.27392 -506.228849 
L 721.19808 -469.071787 
L 718.12224 -478.140955 
L 715.0464 -469.995674 
L 711.97056 -522.055324 
L 708.89472 -482.639481 
L 705.81888 -479.112498 
L 702.74304 -455.316239 
L 699.6672 -474.004141 
L 696.59136 -456.007894 
L 693.51552 -436.10613 
L 690.43968 -421.619718 
L 687.36384 -513.843475 
L 684.288 -464.007557 
L 681.21216 -422.457873 
L 678.13632 -411.439819 
L 675.06048 -474.321349 
L 671.98464 -458.09849 
L 668.9088 -477.532133 
L 665.83296 -447.010211 
L 662.75712 -459.364295 
L 659.68128 -472.104046 
L 656.60544 -462.627526 
L 653.5296 -474.095421 
L 650.45376 -453.961298 
L 647.37792 -482.223177 
L 644.30208 -451.730883 
L 641.22624 -496.280425 
L 638.1504 -440.695935 
L 635.07456 -436.566686 
L 631.99872 -430.686364 
L 628.92288 -415.864464 
L 625.84704 -434.507105 
L 622.7712 -433.802086 
L 619.69536 -450.110804 
L 616.61952 -428.089698 
L 613.54368 -472.588557 
L 610.46784 -439.227651 
L 607.392 -431.229375 
L 604.31616 -440.003083 
L 601.24032 -455.263413 
L 598.16448 -451.49884 
L 595.08864 -406.253736 
L 592.0128 -460.787191 
L 588.93696 -444.272466 
L 585.86112 -396.643386 
L 582.78528 -439.327882 
L 579.70944 -405.654811 
L 576.6336 -410.960477 
z
" style="stroke: #3db5af; stroke-opacity: 0.07"/>
    </defs>
    <g clip-path="url(#p81b509c6ad)">
     <use xlink:href="#m7c58bec890" x="0" y="576" style="fill: #3db5af; fill-opacity: 0.07; stroke: #3db5af; stroke-opacity: 0.07"/>
    </g>
   </g>
   <g id="matplotlib.axis_1">
    <g id="xtick_1">
     <g id="line2d_1">
      <defs>
       <path id="m70f708323a" d="M 0 0 
L 0 3.5 
" style="stroke: #717174; stroke-width: 0.8"/>
      </defs>
      <g>
       <use xlink:href="#m70f708323a" x="69.12" y="489.6" style="fill: #717174; stroke: #717174; stroke-width: 0.8"/>
      </g>
     </g>
     <g id="text_1">
      <!-- 1850 -->
      <g style="fill: #717174" transform="translate(53.85 505.718125) scale(0.12 -0.12)">
       <defs>
        <path id="DejaVuSans-31" d="M 794 531 
L 1825 531 
L 1825 4091 
L 703 3866 
L 703 4441 
L 1819 4666 
L 2450 4666 
L 2450 531 
L 3481 531 
L 3481 0 
L 794 0 
L 794 531 
z
" transform="scale(0.015625)"/>
        <path id="DejaVuSans-38" d="M 2034 2216 
Q 1584 2216 1326 1975 
Q 1069 1734 1069 1313 
Q 1069 891 1326 650 
Q 1584 409 2034 409 
Q 2484 409 2743 651 
Q 3003 894 3003 1313 
Q 3003 1734 2745 1975 
Q 2488 2216 2034 2216 
z
M 1403 2484 
Q 997 2584 770 2862 
Q 544 3141 544 3541 
Q 544 4100 942 4425 
Q 1341 4750 2034 4750 
Q 2731 4750 3128 4425 
Q 3525 4100 3525 3541 
Q 3525 3141 3298 2862 
Q 3072 2584 2669 2484 
Q 3125 2378 3379 2068 
Q 3634 1759 3634 1313 
Q 3634 634 3220 271 
Q 2806 -91 2034 -91 
Q 1263 -91 848 271 
Q 434 634 434 1313 
Q 434 1759 690 2068 
Q 947 2378 1403 2484 
z
M 1172 3481 
Q 1172 3119 1398 2916 
Q 1625 2713 2034 2713 
Q 2441 2713 2670 2916 
Q 2900 3119 2900 3481 
Q 2900 3844 2670 4047 
Q 2441 4250 2034 4250 
Q 1625 4250 1398 4047 
Q 1172 3844 1172 3481 
z
" transform="scale(0.015625)"/>
        <path id="DejaVuSans-35" d="M 691 4666 
L 3169 4666 
L 3169 4134 
L 1269 4134 
L 1269 2991 
Q 1406 3038 1543 3061 
Q 1681 3084 1819 3084 
Q 2600 3084 3056 2656 
Q 3513 2228 3513 1497 
Q 3513 744 3044 326 
Q 2575 -91 1722 -91 
Q 1428 -91 1123 -41 
Q 819 9 494 109 
L 494 744 
Q 775 591 1075 516 
Q 1375 441 1709 441 
Q 2250 441 2565 725 
Q 2881 1009 2881 1497 
Q 2881 1984 2565 2268 
Q 2250 2553 1709 2553 
Q 1456 2553 1204 2497 
Q 953 2441 691 2322 
L 691 4666 
z
" transform="scale(0.015625)"/>
        <path id="DejaVuSans-30" d="M 2034 4250 
Q 1547 4250 1301 3770 
Q 1056 3291 1056 2328 
Q 1056 1369 1301 889 
Q 1547 409 2034 409 
Q 2525 409 2770 889 
Q 3016 1369 3016 2328 
Q 3016 3291 2770 3770 
Q 2525 4250 2034 4250 
z
M 2034 4750 
Q 2819 4750 3233 4129 
Q 3647 3509 3647 2328 
Q 3647 1150 3233 529 
Q 2819 -91 2034 -91 
Q 1250 -91 836 529 
Q 422 1150 422 2328 
Q 422 3509 836 4129 
Q 1250 4750 2034 4750 
z
" transform="scale(0.015625)"/>
       </defs>
       <use xlink:href="#DejaVuSans-31"/>
       <use xlink:href="#DejaVuSans-38" x="63.623047"/>
       <use xlink:href="#DejaVuSans-35" x="127.246094"/>
       <use xlink:href="#DejaVuSans-30" x="190.869141"/>
      </g>
     </g>
    </g>
    <g id="xtick_2">
     <g id="line2d_2">
      <g>
       <use xlink:href="#m70f708323a" x="222.912" y="489.6" style="fill: #717174; stroke: #717174; stroke-width: 0.8"/>
      </g>
     </g>
     <g id="text_2">
      <!-- 1900 -->
      <g style="fill: #717174" transform="translate(207.642 505.718125) scale(0.12 -0.12)">
       <defs>
        <path id="DejaVuSans-39" d="M 703 97 
L 703 672 
Q 941 559 1184 500 
Q 1428 441 1663 441 
Q 2288 441 2617 861 
Q 2947 1281 2994 2138 
Q 2813 1869 2534 1725 
Q 2256 1581 1919 1581 
Q 1219 1581 811 2004 
Q 403 2428 403 3163 
Q 403 3881 828 4315 
Q 1253 4750 1959 4750 
Q 2769 4750 3195 4129 
Q 3622 3509 3622 2328 
Q 3622 1225 3098 567 
Q 2575 -91 1691 -91 
Q 1453 -91 1209 -44 
Q 966 3 703 97 
z
M 1959 2075 
Q 2384 2075 2632 2365 
Q 2881 2656 2881 3163 
Q 2881 3666 2632 3958 
Q 2384 4250 1959 4250 
Q 1534 4250 1286 3958 
Q 1038 3666 1038 3163 
Q 1038 2656 1286 2365 
Q 1534 2075 1959 2075 
z
" transform="scale(0.015625)"/>
       </defs>
       <use xlink:href="#DejaVuSans-31"/>
       <use xlink:href="#DejaVuSans-39" x="63.623047"/>
       <use xlink:href="#DejaVuSans-30" x="127.246094"/>
       <use xlink:href="#DejaVuSans-30" x="190.869141"/>
      </g>
     </g>
    </g>
    <g id="xtick_3">
     <g id="line2d_3">
      <g>
       <use xlink:href="#m70f708323a" x="376.704" y="489.6" style="fill: #717174; stroke: #717174; stroke-width: 0.8"/>
      </g>
     </g>
     <g id="text_3">
      <!-- 1950 -->
      <g style="fill: #717174" transform="translate(361.434 505.718125) scale(0.12 -0.12)">
       <use xlink:href="#DejaVuSans-31"/>
       <use xlink:href="#DejaVuSans-39" x="63.623047"/>
       <use xlink:href="#DejaVuSans-35" x="127.246094"/>
       <use xlink:href="#DejaVuSans-30" x="190.869141"/>
      </g>
     </g>
    </g>
    <g id="xtick_4">
     <g id="line2d_4">
      <g>
       <use xlink:href="#m70f708323a" x="530.496" y="489.6" style="fill: #717174; stroke: #717174; stroke-width: 0.8"/>
      </g>
     </g>
     <g id="text_4">
      <!-- 2000 -->
      <g style="fill: #717174" transform="translate(515.226 505.718125) scale(0.12 -0.12)">
       <defs>
        <path id="DejaVuSans-32" d="M 1228 531 
L 3431 531 
L 3431 0 
L 469 0 
L 469 531 
Q 828 903 1448 1529 
Q 2069 2156 2228 2338 
Q 2531 2678 2651 2914 
Q 2772 3150 2772 3378 
Q 2772 3750 2511 3984 
Q 2250 4219 1831 4219 
Q 1534 4219 1204 4116 
Q 875 4013 500 3803 
L 500 4441 
Q 881 4594 1212 4672 
Q 1544 4750 1819 4750 
Q 2544 4750 2975 4387 
Q 3406 4025 3406 3419 
Q 3406 3131 3298 2873 
Q 3191 2616 2906 2266 
Q 2828 2175 2409 1742 
Q 1991 1309 1228 531 
z
" transform="scale(0.015625)"/>
       </defs>
       <use xlink:href="#DejaVuSans-32"/>
       <use xlink:href="#DejaVuSans-30" x="63.623047"/>
       <use xlink:href="#DejaVuSans-30" x="127.246094"/>
       <use xlink:href="#DejaVuSans-30" x="190.869141"/>
      </g>
     </g>
    </g>
    <g id="xtick_5">
     <g id="line2d_5">
      <g>
       <use xlink:href="#m70f708323a" x="576.6336" y="489.6" style="fill: #717174; stroke: #717174; stroke-width: 0.8"/>
      </g>
     </g>
     <g id="text_5">
      <!-- 2015 -->
      <g style="fill: #717174" transform="translate(561.3636 505.718125) scale(0.12 -0.12)">
       <use xlink:href="#DejaVuSans-32"/>
       <use xlink:href="#DejaVuSans-30" x="63.623047"/>
       <use xlink:href="#DejaVuSans-31" x="127.246094"/>
       <use xlink:href="#DejaVuSans-35" x="190.869141"/>
      </g>
     </g>
    </g>
    <g id="xtick_6">
     <g id="line2d_6">
      <g>
       <use xlink:href="#m70f708323a" x="684.288" y="489.6" style="fill: #717174; stroke: #717174; stroke-width: 0.8"/>
      </g>
     </g>
     <g id="text_6">
      <!-- 2050 -->
      <g style="fill: #717174" transform="translate(669.018 505.718125) scale(0.12 -0.12)">
       <use xlink:href="#DejaVuSans-32"/>
       <use xlink:href="#DejaVuSans-30" x="63.623047"/>
       <use xlink:href="#DejaVuSans-35" x="127.246094"/>
       <use xlink:href="#DejaVuSans-30" x="190.869141"/>
      </g>
     </g>
    </g>
    <g id="xtick_7">
     <g id="line2d_7">
      <g>
       <use xlink:href="#m70f708323a" x="761.184" y="489.6" style="fill: #717174; stroke: #717174; stroke-width: 0.8"/>
      </g>
     </g>
     <g id="text_7">
      <!-- 2075 -->
      <g style="fill: #717174" transform="translate(745.914 505.718125) scale(0.12 -0.12)">
       <defs>
        <path id="DejaVuSans-37" d="M 525 4666 
L 3525 4666 
L 3525 4397 
L 1831 0 
L 1172 0 
L 2766 4134 
L 525 4134 
L 525 4666 
z
" transform="scale(0.015625)"/>
       </defs>
       <use xlink:href="#DejaVuSans-32"/>
       <use xlink:href="#DejaVuSans-30" x="63.623047"/>
       <use xlink:href="#DejaVuSans-37" x="127.246094"/>
       <use xlink:href="#DejaVuSans-35" x="190.869141"/>
      </g>
     </g>
    </g>
    <g id="xtick_8">
     <g id="line2d_8">
      <g>
       <use xlink:href="#m70f708323a" x="838.08" y="489.6" style="fill: #717174; stroke: #717174; stroke-width: 0.8"/>
      </g>
     </g>
     <g id="text_8">
      <!-- 2100 -->
      <g style="fill: #717174" transform="translate(807.54 505.718125) scale(0.12 -0.12)">
       <use xlink:href="#DejaVuSans-32"/>
       <use xlink:href="#DejaVuSans-31" x="63.623047"/>
       <use xlink:href="#DejaVuSans-30" x="127.246094"/>
       <use xlink:href="#DejaVuSans-30" x="190.869141"/>
      </g>
     </g>
    </g>
    <g id="xtick_9">
     <g id="line2d_9">
      <defs>
       <path id="mc96b61e404" d="M 0 0 
L 0 2 
" style="stroke: #ffffff; stroke-width: 0.6"/>
      </defs>
      <g>
       <use xlink:href="#mc96b61e404" x="219.83616" y="489.6" style="fill: #ffffff; stroke: #ffffff; stroke-width: 0.6"/>
      </g>
     </g>
     <g id="text_9">
      <!-- Industrial -->
      <g style="fill: #b2b2b2" transform="translate(195.138688 548.363148) rotate(-25) scale(0.11 -0.11)">
       <defs>
        <path id="DejaVuSans-Oblique-49" d="M 1081 4666 
L 1716 4666 
L 806 0 
L 172 0 
L 1081 4666 
z
" transform="scale(0.015625)"/>
        <path id="DejaVuSans-Oblique-6e" d="M 3566 2113 
L 3156 0 
L 2578 0 
L 2988 2091 
Q 3016 2238 3031 2350 
Q 3047 2463 3047 2528 
Q 3047 2791 2881 2937 
Q 2716 3084 2419 3084 
Q 1956 3084 1622 2776 
Q 1288 2469 1184 1941 
L 800 0 
L 225 0 
L 903 3500 
L 1478 3500 
L 1363 2950 
Q 1603 3253 1940 3418 
Q 2278 3584 2650 3584 
Q 3113 3584 3367 3334 
Q 3622 3084 3622 2631 
Q 3622 2519 3608 2391 
Q 3594 2263 3566 2113 
z
" transform="scale(0.015625)"/>
        <path id="DejaVuSans-Oblique-64" d="M 2675 525 
Q 2444 222 2128 65 
Q 1813 -91 1428 -91 
Q 903 -91 598 267 
Q 294 625 294 1247 
Q 294 1766 478 2236 
Q 663 2706 1013 3078 
Q 1244 3325 1534 3454 
Q 1825 3584 2144 3584 
Q 2481 3584 2739 3421 
Q 2997 3259 3138 2956 
L 3513 4863 
L 4091 4863 
L 3144 0 
L 2566 0 
L 2675 525 
z
M 891 1350 
Q 891 897 1095 644 
Q 1300 391 1663 391 
Q 1931 391 2161 520 
Q 2391 650 2566 903 
Q 2750 1166 2856 1509 
Q 2963 1853 2963 2188 
Q 2963 2622 2758 2865 
Q 2553 3109 2194 3109 
Q 1922 3109 1687 2981 
Q 1453 2853 1288 2613 
Q 1106 2353 998 2009 
Q 891 1666 891 1350 
z
" transform="scale(0.015625)"/>
        <path id="DejaVuSans-Oblique-75" d="M 428 1388 
L 838 3500 
L 1416 3500 
L 1006 1409 
Q 975 1256 961 1147 
Q 947 1038 947 966 
Q 947 700 1109 554 
Q 1272 409 1569 409 
Q 2031 409 2368 721 
Q 2706 1034 2809 1563 
L 3194 3500 
L 3769 3500 
L 3091 0 
L 2516 0 
L 2631 550 
Q 2388 244 2052 76 
Q 1716 -91 1338 -91 
Q 878 -91 622 161 
Q 366 413 366 863 
Q 366 956 381 1097 
Q 397 1238 428 1388 
z
" transform="scale(0.015625)"/>
        <path id="DejaVuSans-Oblique-73" d="M 3200 3397 
L 3091 2853 
Q 2863 2978 2609 3040 
Q 2356 3103 2088 3103 
Q 1634 3103 1373 2948 
Q 1113 2794 1113 2528 
Q 1113 2219 1719 2053 
Q 1766 2041 1788 2034 
L 1972 1978 
Q 2547 1819 2739 1644 
Q 2931 1469 2931 1166 
Q 2931 609 2489 259 
Q 2047 -91 1331 -91 
Q 1053 -91 747 -37 
Q 441 16 72 128 
L 184 722 
Q 500 559 806 475 
Q 1113 391 1394 391 
Q 1816 391 2080 572 
Q 2344 753 2344 1031 
Q 2344 1331 1650 1516 
L 1591 1531 
L 1394 1581 
Q 956 1697 753 1886 
Q 550 2075 550 2369 
Q 550 2928 970 3256 
Q 1391 3584 2113 3584 
Q 2397 3584 2667 3537 
Q 2938 3491 3200 3397 
z
" transform="scale(0.015625)"/>
        <path id="DejaVuSans-Oblique-74" d="M 2706 3500 
L 2619 3053 
L 1472 3053 
L 1100 1153 
Q 1081 1047 1072 975 
Q 1063 903 1063 863 
Q 1063 663 1183 572 
Q 1303 481 1569 481 
L 2150 481 
L 2053 0 
L 1503 0 
Q 991 0 739 200 
Q 488 400 488 806 
Q 488 878 497 964 
Q 506 1050 525 1153 
L 897 3053 
L 409 3053 
L 500 3500 
L 978 3500 
L 1172 4494 
L 1747 4494 
L 1556 3500 
L 2706 3500 
z
" transform="scale(0.015625)"/>
        <path id="DejaVuSans-Oblique-72" d="M 2853 2969 
Q 2766 3016 2653 3041 
Q 2541 3066 2413 3066 
Q 1953 3066 1609 2717 
Q 1266 2369 1153 1784 
L 800 0 
L 225 0 
L 909 3500 
L 1484 3500 
L 1375 2956 
Q 1603 3259 1920 3421 
Q 2238 3584 2597 3584 
Q 2691 3584 2781 3573 
Q 2872 3563 2963 3538 
L 2853 2969 
z
" transform="scale(0.015625)"/>
        <path id="DejaVuSans-Oblique-69" d="M 1172 4863 
L 1747 4863 
L 1606 4134 
L 1031 4134 
L 1172 4863 
z
M 909 3500 
L 1484 3500 
L 800 0 
L 225 0 
L 909 3500 
z
" transform="scale(0.015625)"/>
        <path id="DejaVuSans-Oblique-61" d="M 3438 1997 
L 3047 0 
L 2472 0 
L 2578 531 
Q 2325 219 2001 64 
Q 1678 -91 1281 -91 
Q 834 -91 548 182 
Q 263 456 263 884 
Q 263 1497 752 1853 
Q 1241 2209 2100 2209 
L 2900 2209 
L 2931 2363 
Q 2938 2388 2941 2417 
Q 2944 2447 2944 2509 
Q 2944 2788 2717 2942 
Q 2491 3097 2081 3097 
Q 1800 3097 1504 3025 
Q 1209 2953 897 2809 
L 997 3341 
Q 1322 3463 1633 3523 
Q 1944 3584 2234 3584 
Q 2853 3584 3176 3315 
Q 3500 3047 3500 2534 
Q 3500 2431 3484 2292 
Q 3469 2153 3438 1997 
z
M 2816 1759 
L 2241 1759 
Q 1534 1759 1195 1570 
Q 856 1381 856 984 
Q 856 709 1029 553 
Q 1203 397 1509 397 
Q 1978 397 2328 733 
Q 2678 1069 2791 1631 
L 2816 1759 
z
" transform="scale(0.015625)"/>
        <path id="DejaVuSans-Oblique-6c" d="M 1172 4863 
L 1747 4863 
L 800 0 
L 225 0 
L 1172 4863 
z
" transform="scale(0.015625)"/>
       </defs>
       <use xlink:href="#DejaVuSans-Oblique-49"/>
       <use xlink:href="#DejaVuSans-Oblique-6e" x="29.492188"/>
       <use xlink:href="#DejaVuSans-Oblique-64" x="92.871094"/>
       <use xlink:href="#DejaVuSans-Oblique-75" x="156.347656"/>
       <use xlink:href="#DejaVuSans-Oblique-73" x="219.726562"/>
       <use xlink:href="#DejaVuSans-Oblique-74" x="271.826172"/>
       <use xlink:href="#DejaVuSans-Oblique-72" x="311.035156"/>
       <use xlink:href="#DejaVuSans-Oblique-69" x="352.148438"/>
       <use xlink:href="#DejaVuSans-Oblique-61" x="379.931641"/>
       <use xlink:href="#DejaVuSans-Oblique-6c" x="441.210938"/>
      </g>
      <!-- Era -->
      <g style="fill: #b2b2b2" transform="translate(215.468198 552.474303) rotate(-25) scale(0.11 -0.11)">
       <defs>
        <path id="DejaVuSans-Oblique-45" d="M 1081 4666 
L 4031 4666 
L 3928 4134 
L 1606 4134 
L 1338 2753 
L 3566 2753 
L 3463 2222 
L 1234 2222 
L 909 531 
L 3284 531 
L 3181 0 
L 172 0 
L 1081 4666 
z
" transform="scale(0.015625)"/>
       </defs>
       <use xlink:href="#DejaVuSans-Oblique-45"/>
       <use xlink:href="#DejaVuSans-Oblique-72" x="63.183594"/>
       <use xlink:href="#DejaVuSans-Oblique-61" x="104.296875"/>
      </g>
     </g>
    </g>
    <g id="xtick_10">
     <g id="line2d_10">
      <g>
       <use xlink:href="#mc96b61e404" x="361.3248" y="489.6" style="fill: #ffffff; stroke: #ffffff; stroke-width: 0.6"/>
      </g>
     </g>
     <g id="text_10">
      <!-- Baby -->
      <g style="fill: #b2b2b2" transform="translate(347.415294 543.933713) rotate(-25) scale(0.11 -0.11)">
       <defs>
        <path id="DejaVuSans-Oblique-42" d="M 1081 4666 
L 2694 4666 
Q 3350 4666 3675 4422 
Q 4000 4178 4000 3688 
Q 4000 3238 3720 2911 
Q 3441 2584 2988 2516 
Q 3375 2428 3569 2181 
Q 3763 1934 3763 1522 
Q 3763 819 3242 409 
Q 2722 0 1819 0 
L 172 0 
L 1081 4666 
z
M 1234 2228 
L 903 519 
L 1919 519 
Q 2491 519 2800 781 
Q 3109 1044 3109 1522 
Q 3109 1891 2904 2059 
Q 2700 2228 2247 2228 
L 1234 2228 
z
M 1606 4147 
L 1331 2741 
L 2272 2741 
Q 2775 2741 3058 2959 
Q 3341 3178 3341 3566 
Q 3341 3869 3150 4008 
Q 2959 4147 2541 4147 
L 1606 4147 
z
" transform="scale(0.015625)"/>
        <path id="DejaVuSans-Oblique-62" d="M 3169 2138 
Q 3169 2591 2961 2847 
Q 2753 3103 2388 3103 
Q 2122 3103 1889 2973 
Q 1656 2844 1484 2597 
Q 1303 2338 1198 1995 
Q 1094 1653 1094 1313 
Q 1094 881 1298 636 
Q 1503 391 1863 391 
Q 2134 391 2365 517 
Q 2597 644 2772 891 
Q 2950 1147 3059 1487 
Q 3169 1828 3169 2138 
z
M 1381 2969 
Q 1594 3256 1914 3420 
Q 2234 3584 2584 3584 
Q 3122 3584 3439 3221 
Q 3756 2859 3756 2241 
Q 3756 1734 3570 1259 
Q 3384 784 3041 416 
Q 2816 172 2522 40 
Q 2228 -91 1906 -91 
Q 1566 -91 1316 65 
Q 1066 222 909 531 
L 806 0 
L 231 0 
L 1178 4863 
L 1753 4863 
L 1381 2969 
z
" transform="scale(0.015625)"/>
        <path id="DejaVuSans-Oblique-79" d="M 1588 -325 
Q 1188 -997 936 -1164 
Q 684 -1331 294 -1331 
L -159 -1331 
L -63 -850 
L 269 -850 
Q 509 -850 678 -719 
Q 847 -588 1056 -206 
L 1234 128 
L 459 3500 
L 1069 3500 
L 1650 819 
L 3256 3500 
L 3859 3500 
L 1588 -325 
z
" transform="scale(0.015625)"/>
       </defs>
       <use xlink:href="#DejaVuSans-Oblique-42"/>
       <use xlink:href="#DejaVuSans-Oblique-61" x="68.603516"/>
       <use xlink:href="#DejaVuSans-Oblique-62" x="129.882812"/>
       <use xlink:href="#DejaVuSans-Oblique-79" x="193.359375"/>
      </g>
      <!-- Boomers -->
      <g style="fill: #b2b2b2" transform="translate(343.121978 559.526679) rotate(-25) scale(0.11 -0.11)">
       <defs>
        <path id="DejaVuSans-Oblique-6f" d="M 1625 -91 
Q 1009 -91 651 289 
Q 294 669 294 1325 
Q 294 1706 417 2101 
Q 541 2497 738 2766 
Q 1047 3184 1428 3384 
Q 1809 3584 2291 3584 
Q 2888 3584 3255 3212 
Q 3622 2841 3622 2241 
Q 3622 1825 3500 1412 
Q 3378 1000 3181 728 
Q 2875 309 2494 109 
Q 2113 -91 1625 -91 
z
M 891 1344 
Q 891 869 1089 633 
Q 1288 397 1691 397 
Q 2269 397 2648 901 
Q 3028 1406 3028 2181 
Q 3028 2634 2825 2865 
Q 2622 3097 2228 3097 
Q 1903 3097 1650 2945 
Q 1397 2794 1197 2484 
Q 1050 2253 970 1956 
Q 891 1659 891 1344 
z
" transform="scale(0.015625)"/>
        <path id="DejaVuSans-Oblique-6d" d="M 5747 2113 
L 5338 0 
L 4763 0 
L 5166 2094 
Q 5191 2228 5203 2325 
Q 5216 2422 5216 2491 
Q 5216 2772 5059 2928 
Q 4903 3084 4622 3084 
Q 4203 3084 3875 2770 
Q 3547 2456 3450 1953 
L 3066 0 
L 2491 0 
L 2900 2094 
Q 2925 2209 2937 2307 
Q 2950 2406 2950 2484 
Q 2950 2769 2794 2926 
Q 2638 3084 2363 3084 
Q 1938 3084 1609 2770 
Q 1281 2456 1184 1953 
L 800 0 
L 225 0 
L 909 3500 
L 1484 3500 
L 1375 2956 
Q 1609 3263 1923 3423 
Q 2238 3584 2597 3584 
Q 2978 3584 3223 3384 
Q 3469 3184 3519 2828 
Q 3781 3197 4126 3390 
Q 4472 3584 4856 3584 
Q 5306 3584 5551 3325 
Q 5797 3066 5797 2591 
Q 5797 2488 5784 2364 
Q 5772 2241 5747 2113 
z
" transform="scale(0.015625)"/>
        <path id="DejaVuSans-Oblique-65" d="M 3078 2063 
Q 3088 2113 3092 2166 
Q 3097 2219 3097 2272 
Q 3097 2653 2873 2875 
Q 2650 3097 2266 3097 
Q 1838 3097 1509 2826 
Q 1181 2556 1013 2059 
L 3078 2063 
z
M 3578 1613 
L 903 1613 
Q 884 1494 878 1425 
Q 872 1356 872 1306 
Q 872 872 1139 634 
Q 1406 397 1894 397 
Q 2269 397 2603 481 
Q 2938 566 3225 728 
L 3116 159 
Q 2806 34 2476 -28 
Q 2147 -91 1806 -91 
Q 1078 -91 686 257 
Q 294 606 294 1247 
Q 294 1794 489 2264 
Q 684 2734 1063 3103 
Q 1306 3334 1642 3459 
Q 1978 3584 2356 3584 
Q 2950 3584 3301 3228 
Q 3653 2872 3653 2272 
Q 3653 2128 3634 1964 
Q 3616 1800 3578 1613 
z
" transform="scale(0.015625)"/>
       </defs>
       <use xlink:href="#DejaVuSans-Oblique-42"/>
       <use xlink:href="#DejaVuSans-Oblique-6f" x="68.603516"/>
       <use xlink:href="#DejaVuSans-Oblique-6f" x="129.785156"/>
       <use xlink:href="#DejaVuSans-Oblique-6d" x="190.966797"/>
       <use xlink:href="#DejaVuSans-Oblique-65" x="288.378906"/>
       <use xlink:href="#DejaVuSans-Oblique-72" x="349.902344"/>
       <use xlink:href="#DejaVuSans-Oblique-73" x="391.015625"/>
      </g>
     </g>
    </g>
    <g id="xtick_11">
     <g id="line2d_11">
      <g>
       <use xlink:href="#mc96b61e404" x="438.2208" y="489.6" style="fill: #ffffff; stroke: #ffffff; stroke-width: 0.6"/>
      </g>
     </g>
     <g id="text_11">
      <!-- +1 gen -->
      <g style="fill: #b2b2b2" transform="translate(421.180159 559.526679) rotate(-25) scale(0.11 -0.11)">
       <defs>
        <path id="DejaVuSans-Oblique-2b" d="M 2944 4013 
L 2944 2272 
L 4684 2272 
L 4684 1741 
L 2944 1741 
L 2944 0 
L 2419 0 
L 2419 1741 
L 678 1741 
L 678 2272 
L 2419 2272 
L 2419 4013 
L 2944 4013 
z
" transform="scale(0.015625)"/>
        <path id="DejaVuSans-Oblique-31" d="M 416 531 
L 1447 531 
L 2144 4122 
L 978 3897 
L 1088 4441 
L 2247 4666 
L 2881 4666 
L 2075 531 
L 3103 531 
L 3003 0 
L 313 0 
L 416 531 
z
" transform="scale(0.015625)"/>
        <path id="DejaVuSans-Oblique-20" transform="scale(0.015625)"/>
        <path id="DejaVuSans-Oblique-67" d="M 3816 3500 
L 3219 434 
Q 3047 -456 2561 -893 
Q 2075 -1331 1253 -1331 
Q 950 -1331 690 -1286 
Q 431 -1241 206 -1147 
L 313 -588 
Q 525 -725 762 -790 
Q 1000 -856 1269 -856 
Q 1816 -856 2167 -557 
Q 2519 -259 2631 300 
L 2681 563 
Q 2441 288 2122 144 
Q 1803 0 1434 0 
Q 903 0 598 351 
Q 294 703 294 1319 
Q 294 1803 478 2267 
Q 663 2731 997 3091 
Q 1219 3328 1514 3456 
Q 1809 3584 2131 3584 
Q 2484 3584 2746 3420 
Q 3009 3256 3138 2956 
L 3238 3500 
L 3816 3500 
z
M 2950 2216 
Q 2950 2641 2750 2872 
Q 2550 3103 2181 3103 
Q 1953 3103 1747 3012 
Q 1541 2922 1394 2759 
Q 1156 2491 1023 2127 
Q 891 1763 891 1375 
Q 891 944 1092 712 
Q 1294 481 1672 481 
Q 2219 481 2584 976 
Q 2950 1472 2950 2216 
z
" transform="scale(0.015625)"/>
       </defs>
       <use xlink:href="#DejaVuSans-Oblique-2b"/>
       <use xlink:href="#DejaVuSans-Oblique-31" x="83.789062"/>
       <use xlink:href="#DejaVuSans-Oblique-20" x="147.412109"/>
       <use xlink:href="#DejaVuSans-Oblique-67" x="179.199219"/>
       <use xlink:href="#DejaVuSans-Oblique-65" x="242.675781"/>
       <use xlink:href="#DejaVuSans-Oblique-6e" x="304.199219"/>
      </g>
     </g>
    </g>
    <g id="xtick_12">
     <g id="line2d_12">
      <g>
       <use xlink:href="#mc96b61e404" x="515.1168" y="489.6" style="fill: #ffffff; stroke: #ffffff; stroke-width: 0.6"/>
      </g>
     </g>
     <g id="text_12">
      <!-- +2 gen -->
      <g style="fill: #b2b2b2" transform="translate(498.076159 559.526679) rotate(-25) scale(0.11 -0.11)">
       <defs>
        <path id="DejaVuSans-Oblique-32" d="M 2950 2253 
L 934 525 
L 3163 525 
L 3053 0 
L 25 0 
L 128 531 
L 2234 2338 
Q 2656 2703 2832 2979 
Q 3009 3256 3009 3547 
Q 3009 3850 2796 4040 
Q 2584 4231 2241 4231 
Q 1944 4231 1581 4125 
Q 1219 4019 806 3816 
L 922 4441 
Q 1309 4594 1662 4672 
Q 2016 4750 2316 4750 
Q 2928 4750 3301 4425 
Q 3675 4100 3675 3572 
Q 3675 3216 3497 2892 
Q 3319 2569 2950 2253 
z
" transform="scale(0.015625)"/>
       </defs>
       <use xlink:href="#DejaVuSans-Oblique-2b"/>
       <use xlink:href="#DejaVuSans-Oblique-32" x="83.789062"/>
       <use xlink:href="#DejaVuSans-Oblique-20" x="147.412109"/>
       <use xlink:href="#DejaVuSans-Oblique-67" x="179.199219"/>
       <use xlink:href="#DejaVuSans-Oblique-65" x="242.675781"/>
       <use xlink:href="#DejaVuSans-Oblique-6e" x="304.199219"/>
      </g>
     </g>
    </g>
    <g id="xtick_13">
     <g id="line2d_13">
      <g>
       <use xlink:href="#mc96b61e404" x="592.0128" y="489.6" style="fill: #ffffff; stroke: #ffffff; stroke-width: 0.6"/>
      </g>
     </g>
     <g id="text_13">
      <!-- +3 gen -->
      <g style="fill: #b2b2b2" transform="translate(574.972159 559.526679) rotate(-25) scale(0.11 -0.11)">
       <defs>
        <path id="DejaVuSans-Oblique-33" d="M 1013 4550 
Q 1356 4650 1679 4700 
Q 2003 4750 2316 4750 
Q 2934 4750 3296 4475 
Q 3659 4200 3659 3738 
Q 3659 3284 3373 2959 
Q 3088 2634 2584 2516 
Q 2978 2403 3162 2165 
Q 3347 1928 3347 1538 
Q 3347 1163 3167 834 
Q 2988 506 2650 269 
Q 2394 88 2037 -1 
Q 1681 -91 1216 -91 
Q 922 -91 622 -33 
Q 322 25 13 141 
L 128 738 
Q 422 575 720 495 
Q 1019 416 1331 416 
Q 1947 416 2330 733 
Q 2713 1050 2713 1556 
Q 2713 1881 2469 2057 
Q 2225 2234 1772 2234 
L 1228 2234 
L 1325 2747 
L 1900 2747 
Q 2419 2747 2717 2984 
Q 3016 3222 3016 3628 
Q 3016 3922 2797 4083 
Q 2578 4244 2181 4244 
Q 1881 4244 1567 4180 
Q 1253 4116 916 3988 
L 1013 4550 
z
" transform="scale(0.015625)"/>
       </defs>
       <use xlink:href="#DejaVuSans-Oblique-2b"/>
       <use xlink:href="#DejaVuSans-Oblique-33" x="83.789062"/>
       <use xlink:href="#DejaVuSans-Oblique-20" x="147.412109"/>
       <use xlink:href="#DejaVuSans-Oblique-67" x="179.199219"/>
       <use xlink:href="#DejaVuSans-Oblique-65" x="242.675781"/>
       <use xlink:href="#DejaVuSans-Oblique-6e" x="304.199219"/>
      </g>
     </g>
    </g>
    <g id="xtick_14">
     <g id="line2d_14">
      <g>
       <use xlink:href="#mc96b61e404" x="668.9088" y="489.6" style="fill: #ffffff; stroke: #ffffff; stroke-width: 0.6"/>
      </g>
     </g>
     <g id="text_14">
      <!-- +4 gen -->
      <g style="fill: #b2b2b2" transform="translate(651.868159 559.526679) rotate(-25) scale(0.11 -0.11)">
       <defs>
        <path id="DejaVuSans-Oblique-34" d="M 2753 4666 
L 3547 4666 
L 2950 1625 
L 3616 1625 
L 3513 1100 
L 2847 1100 
L 2638 0 
L 2009 0 
L 2222 1100 
L 116 1100 
L 238 1709 
L 2753 4666 
z
M 2809 4116 
L 728 1625 
L 2322 1625 
L 2809 4116 
z
" transform="scale(0.015625)"/>
       </defs>
       <use xlink:href="#DejaVuSans-Oblique-2b"/>
       <use xlink:href="#DejaVuSans-Oblique-34" x="83.789062"/>
       <use xlink:href="#DejaVuSans-Oblique-20" x="147.412109"/>
       <use xlink:href="#DejaVuSans-Oblique-67" x="179.199219"/>
       <use xlink:href="#DejaVuSans-Oblique-65" x="242.675781"/>
       <use xlink:href="#DejaVuSans-Oblique-6e" x="304.199219"/>
      </g>
     </g>
    </g>
    <g id="xtick_15">
     <g id="line2d_15">
      <g>
       <use xlink:href="#mc96b61e404" x="745.8048" y="489.6" style="fill: #ffffff; stroke: #ffffff; stroke-width: 0.6"/>
      </g>
     </g>
     <g id="text_15">
      <!-- +5 gen -->
      <g style="fill: #b2b2b2" transform="translate(728.764159 559.526679) rotate(-25) scale(0.11 -0.11)">
       <defs>
        <path id="DejaVuSans-Oblique-35" d="M 3719 4666 
L 3622 4141 
L 1691 4141 
L 1466 2988 
Q 1609 3034 1757 3056 
Q 1906 3078 2059 3078 
Q 2706 3078 3081 2731 
Q 3456 2384 3456 1791 
Q 3456 1375 3264 994 
Q 3072 613 2719 325 
Q 2469 125 2108 17 
Q 1747 -91 1319 -91 
Q 1038 -91 744 -41 
Q 450 9 128 109 
L 244 697 
Q 531 556 820 486 
Q 1109 416 1403 416 
Q 2013 416 2411 781 
Q 2809 1147 2809 1697 
Q 2809 2103 2548 2328 
Q 2288 2553 1819 2553 
Q 1572 2553 1305 2495 
Q 1038 2438 756 2322 
L 1209 4666 
L 3719 4666 
z
" transform="scale(0.015625)"/>
       </defs>
       <use xlink:href="#DejaVuSans-Oblique-2b"/>
       <use xlink:href="#DejaVuSans-Oblique-35" x="83.789062"/>
       <use xlink:href="#DejaVuSans-Oblique-20" x="147.412109"/>
       <use xlink:href="#DejaVuSans-Oblique-67" x="179.199219"/>
       <use xlink:href="#DejaVuSans-Oblique-65" x="242.675781"/>
       <use xlink:href="#DejaVuSans-Oblique-6e" x="304.199219"/>
      </g>
     </g>
    </g>
    <g id="xtick_16">
     <g id="line2d_16">
      <g>
       <use xlink:href="#mc96b61e404" x="822.7008" y="489.6" style="fill: #ffffff; stroke: #ffffff; stroke-width: 0.6"/>
      </g>
     </g>
     <g id="text_16">
      <!-- +6 gen -->
      <g style="fill: #b2b2b2" transform="translate(805.660159 559.526679) rotate(-25) scale(0.11 -0.11)">
       <defs>
        <path id="DejaVuSans-Oblique-36" d="M 2938 1728 
Q 2938 2125 2734 2354 
Q 2531 2584 2181 2584 
Q 1697 2584 1367 2211 
Q 1038 1838 1038 1288 
Q 1038 875 1239 642 
Q 1441 409 1797 409 
Q 2284 409 2611 792 
Q 2938 1175 2938 1728 
z
M 3788 4556 
L 3681 3981 
Q 3500 4100 3265 4162 
Q 3031 4225 2766 4225 
Q 2119 4225 1726 3819 
Q 1334 3413 1141 2547 
Q 1369 2813 1670 2948 
Q 1972 3084 2322 3084 
Q 2894 3084 3233 2754 
Q 3572 2425 3572 1869 
Q 3572 1413 3405 1020 
Q 3238 628 2919 331 
Q 2700 128 2409 18 
Q 2119 -91 1791 -91 
Q 1147 -91 775 318 
Q 403 728 403 1441 
Q 403 2103 573 2717 
Q 744 3331 1050 3781 
Q 1372 4256 1830 4503 
Q 2288 4750 2841 4750 
Q 3084 4750 3321 4701 
Q 3559 4653 3788 4556 
z
" transform="scale(0.015625)"/>
       </defs>
       <use xlink:href="#DejaVuSans-Oblique-2b"/>
       <use xlink:href="#DejaVuSans-Oblique-36" x="83.789062"/>
       <use xlink:href="#DejaVuSans-Oblique-20" x="147.412109"/>
       <use xlink:href="#DejaVuSans-Oblique-67" x="179.199219"/>
       <use xlink:href="#DejaVuSans-Oblique-65" x="242.675781"/>
       <use xlink:href="#DejaVuSans-Oblique-6e" x="304.199219"/>
      </g>
     </g>
    </g>
   </g>
   <g id="matplotlib.axis_2">
    <g id="ytick_1">
     <g id="line2d_17">
      <path d="M 69.12 402.862167 
L 838.08 402.862167 
" clip-path="url(#p81b509c6ad)" style="fill: none; stroke-dasharray: 2.4,7.2; stroke-dashoffset: 0; stroke: #717174; stroke-opacity: 0.5; stroke-width: 0.8"/>
     </g>
     <g id="line2d_18">
      <defs>
       <path id="m6e6dc8ee8a" d="M 0 0 
L -3.5 0 
" style="stroke: #717174; stroke-width: 0.8"/>
      </defs>
      <g>
       <use xlink:href="#m6e6dc8ee8a" x="69.12" y="402.862167" style="fill: #717174; stroke: #717174; stroke-width: 0.8"/>
      </g>
     </g>
     <g id="text_17">
      <!-- 30 °C -->
      <g style="fill: #717174" transform="translate(34.234063 406.661386) scale(0.1 -0.1)">
       <defs>
        <path id="DejaVuSans-33" d="M 2597 2516 
Q 3050 2419 3304 2112 
Q 3559 1806 3559 1356 
Q 3559 666 3084 287 
Q 2609 -91 1734 -91 
Q 1441 -91 1130 -33 
Q 819 25 488 141 
L 488 750 
Q 750 597 1062 519 
Q 1375 441 1716 441 
Q 2309 441 2620 675 
Q 2931 909 2931 1356 
Q 2931 1769 2642 2001 
Q 2353 2234 1838 2234 
L 1294 2234 
L 1294 2753 
L 1863 2753 
Q 2328 2753 2575 2939 
Q 2822 3125 2822 3475 
Q 2822 3834 2567 4026 
Q 2313 4219 1838 4219 
Q 1578 4219 1281 4162 
Q 984 4106 628 3988 
L 628 4550 
Q 988 4650 1302 4700 
Q 1616 4750 1894 4750 
Q 2613 4750 3031 4423 
Q 3450 4097 3450 3541 
Q 3450 3153 3228 2886 
Q 3006 2619 2597 2516 
z
" transform="scale(0.015625)"/>
        <path id="DejaVuSans-20" transform="scale(0.015625)"/>
        <path id="DejaVuSans-b0" d="M 1600 4347 
Q 1350 4347 1178 4173 
Q 1006 4000 1006 3750 
Q 1006 3503 1178 3333 
Q 1350 3163 1600 3163 
Q 1850 3163 2022 3333 
Q 2194 3503 2194 3750 
Q 2194 3997 2020 4172 
Q 1847 4347 1600 4347 
z
M 1600 4750 
Q 1800 4750 1984 4673 
Q 2169 4597 2303 4453 
Q 2447 4313 2519 4134 
Q 2591 3956 2591 3750 
Q 2591 3338 2302 3052 
Q 2013 2766 1594 2766 
Q 1172 2766 890 3047 
Q 609 3328 609 3750 
Q 609 4169 896 4459 
Q 1184 4750 1600 4750 
z
" transform="scale(0.015625)"/>
        <path id="DejaVuSans-43" d="M 4122 4306 
L 4122 3641 
Q 3803 3938 3442 4084 
Q 3081 4231 2675 4231 
Q 1875 4231 1450 3742 
Q 1025 3253 1025 2328 
Q 1025 1406 1450 917 
Q 1875 428 2675 428 
Q 3081 428 3442 575 
Q 3803 722 4122 1019 
L 4122 359 
Q 3791 134 3420 21 
Q 3050 -91 2638 -91 
Q 1578 -91 968 557 
Q 359 1206 359 2328 
Q 359 3453 968 4101 
Q 1578 4750 2638 4750 
Q 3056 4750 3426 4639 
Q 3797 4528 4122 4306 
z
" transform="scale(0.015625)"/>
       </defs>
       <use xlink:href="#DejaVuSans-33"/>
       <use xlink:href="#DejaVuSans-30" x="63.623047"/>
       <use xlink:href="#DejaVuSans-20" x="127.246094"/>
       <use xlink:href="#DejaVuSans-b0" x="159.033203"/>
       <use xlink:href="#DejaVuSans-43" x="209.033203"/>
      </g>
     </g>
    </g>
    <g id="ytick_2">
     <g id="line2d_19">
      <path d="M 69.12 299.580516 
L 838.08 299.580516 
" clip-path="url(#p81b509c6ad)" style="fill: none; stroke-dasharray: 2.4,7.2; stroke-dashoffset: 0; stroke: #717174; stroke-opacity: 0.5; stroke-width: 0.8"/>
     </g>
     <g id="line2d_20">
      <g>
       <use xlink:href="#m6e6dc8ee8a" x="69.12" y="299.580516" style="fill: #717174; stroke: #717174; stroke-width: 0.8"/>
      </g>
     </g>
     <g id="text_18">
      <!-- 35 °C -->
      <g style="fill: #717174" transform="translate(34.234063 303.379735) scale(0.1 -0.1)">
       <use xlink:href="#DejaVuSans-33"/>
       <use xlink:href="#DejaVuSans-35" x="63.623047"/>
       <use xlink:href="#DejaVuSans-20" x="127.246094"/>
       <use xlink:href="#DejaVuSans-b0" x="159.033203"/>
       <use xlink:href="#DejaVuSans-43" x="209.033203"/>
      </g>
     </g>
    </g>
    <g id="ytick_3">
     <g id="line2d_21">
      <path d="M 69.12 196.298865 
L 838.08 196.298865 
" clip-path="url(#p81b509c6ad)" style="fill: none; stroke-dasharray: 2.4,7.2; stroke-dashoffset: 0; stroke: #717174; stroke-opacity: 0.5; stroke-width: 0.8"/>
     </g>
     <g id="line2d_22">
      <g>
       <use xlink:href="#m6e6dc8ee8a" x="69.12" y="196.298865" style="fill: #717174; stroke: #717174; stroke-width: 0.8"/>
      </g>
     </g>
     <g id="text_19">
      <!-- 40 °C -->
      <g style="fill: #717174" transform="translate(34.234063 200.098083) scale(0.1 -0.1)">
       <defs>
        <path id="DejaVuSans-34" d="M 2419 4116 
L 825 1625 
L 2419 1625 
L 2419 4116 
z
M 2253 4666 
L 3047 4666 
L 3047 1625 
L 3713 1625 
L 3713 1100 
L 3047 1100 
L 3047 0 
L 2419 0 
L 2419 1100 
L 313 1100 
L 313 1709 
L 2253 4666 
z
" transform="scale(0.015625)"/>
       </defs>
       <use xlink:href="#DejaVuSans-34"/>
       <use xlink:href="#DejaVuSans-30" x="63.623047"/>
       <use xlink:href="#DejaVuSans-20" x="127.246094"/>
       <use xlink:href="#DejaVuSans-b0" x="159.033203"/>
       <use xlink:href="#DejaVuSans-43" x="209.033203"/>
      </g>
     </g>
    </g>
    <g id="ytick_4">
     <g id="line2d_23">
      <path d="M 69.12 93.017214 
L 838.08 93.017214 
" clip-path="url(#p81b509c6ad)" style="fill: none; stroke-dasharray: 2.4,7.2; stroke-dashoffset: 0; stroke: #717174; stroke-opacity: 0.5; stroke-width: 0.8"/>
     </g>
     <g id="line2d_24">
      <g>
       <use xlink:href="#m6e6dc8ee8a" x="69.12" y="93.017214" style="fill: #717174; stroke: #717174; stroke-width: 0.8"/>
      </g>
     </g>
     <g id="text_20">
      <!-- 45 °C -->
      <g style="fill: #717174" transform="translate(34.234063 96.816432) scale(0.1 -0.1)">
       <use xlink:href="#DejaVuSans-34"/>
       <use xlink:href="#DejaVuSans-35" x="63.623047"/>
       <use xlink:href="#DejaVuSans-20" x="127.246094"/>
       <use xlink:href="#DejaVuSans-b0" x="159.033203"/>
       <use xlink:href="#DejaVuSans-43" x="209.033203"/>
      </g>
     </g>
    </g>
    <g id="text_21">
     <!-- Max Temperature (°C) -->
     <g transform="translate(27.3225 336.309375) rotate(-90) scale(0.14 -0.14)">
      <defs>
       <path id="DejaVuSans-4d" d="M 628 4666 
L 1569 4666 
L 2759 1491 
L 3956 4666 
L 4897 4666 
L 4897 0 
L 4281 0 
L 4281 4097 
L 3078 897 
L 2444 897 
L 1241 4097 
L 1241 0 
L 628 0 
L 628 4666 
z
" transform="scale(0.015625)"/>
       <path id="DejaVuSans-61" d="M 2194 1759 
Q 1497 1759 1228 1600 
Q 959 1441 959 1056 
Q 959 750 1161 570 
Q 1363 391 1709 391 
Q 2188 391 2477 730 
Q 2766 1069 2766 1631 
L 2766 1759 
L 2194 1759 
z
M 3341 1997 
L 3341 0 
L 2766 0 
L 2766 531 
Q 2569 213 2275 61 
Q 1981 -91 1556 -91 
Q 1019 -91 701 211 
Q 384 513 384 1019 
Q 384 1609 779 1909 
Q 1175 2209 1959 2209 
L 2766 2209 
L 2766 2266 
Q 2766 2663 2505 2880 
Q 2244 3097 1772 3097 
Q 1472 3097 1187 3025 
Q 903 2953 641 2809 
L 641 3341 
Q 956 3463 1253 3523 
Q 1550 3584 1831 3584 
Q 2591 3584 2966 3190 
Q 3341 2797 3341 1997 
z
" transform="scale(0.015625)"/>
       <path id="DejaVuSans-78" d="M 3513 3500 
L 2247 1797 
L 3578 0 
L 2900 0 
L 1881 1375 
L 863 0 
L 184 0 
L 1544 1831 
L 300 3500 
L 978 3500 
L 1906 2253 
L 2834 3500 
L 3513 3500 
z
" transform="scale(0.015625)"/>
       <path id="DejaVuSans-54" d="M -19 4666 
L 3928 4666 
L 3928 4134 
L 2272 4134 
L 2272 0 
L 1638 0 
L 1638 4134 
L -19 4134 
L -19 4666 
z
" transform="scale(0.015625)"/>
       <path id="DejaVuSans-65" d="M 3597 1894 
L 3597 1613 
L 953 1613 
Q 991 1019 1311 708 
Q 1631 397 2203 397 
Q 2534 397 2845 478 
Q 3156 559 3463 722 
L 3463 178 
Q 3153 47 2828 -22 
Q 2503 -91 2169 -91 
Q 1331 -91 842 396 
Q 353 884 353 1716 
Q 353 2575 817 3079 
Q 1281 3584 2069 3584 
Q 2775 3584 3186 3129 
Q 3597 2675 3597 1894 
z
M 3022 2063 
Q 3016 2534 2758 2815 
Q 2500 3097 2075 3097 
Q 1594 3097 1305 2825 
Q 1016 2553 972 2059 
L 3022 2063 
z
" transform="scale(0.015625)"/>
       <path id="DejaVuSans-6d" d="M 3328 2828 
Q 3544 3216 3844 3400 
Q 4144 3584 4550 3584 
Q 5097 3584 5394 3201 
Q 5691 2819 5691 2113 
L 5691 0 
L 5113 0 
L 5113 2094 
Q 5113 2597 4934 2840 
Q 4756 3084 4391 3084 
Q 3944 3084 3684 2787 
Q 3425 2491 3425 1978 
L 3425 0 
L 2847 0 
L 2847 2094 
Q 2847 2600 2669 2842 
Q 2491 3084 2119 3084 
Q 1678 3084 1418 2786 
Q 1159 2488 1159 1978 
L 1159 0 
L 581 0 
L 581 3500 
L 1159 3500 
L 1159 2956 
Q 1356 3278 1631 3431 
Q 1906 3584 2284 3584 
Q 2666 3584 2933 3390 
Q 3200 3197 3328 2828 
z
" transform="scale(0.015625)"/>
       <path id="DejaVuSans-70" d="M 1159 525 
L 1159 -1331 
L 581 -1331 
L 581 3500 
L 1159 3500 
L 1159 2969 
Q 1341 3281 1617 3432 
Q 1894 3584 2278 3584 
Q 2916 3584 3314 3078 
Q 3713 2572 3713 1747 
Q 3713 922 3314 415 
Q 2916 -91 2278 -91 
Q 1894 -91 1617 61 
Q 1341 213 1159 525 
z
M 3116 1747 
Q 3116 2381 2855 2742 
Q 2594 3103 2138 3103 
Q 1681 3103 1420 2742 
Q 1159 2381 1159 1747 
Q 1159 1113 1420 752 
Q 1681 391 2138 391 
Q 2594 391 2855 752 
Q 3116 1113 3116 1747 
z
" transform="scale(0.015625)"/>
       <path id="DejaVuSans-72" d="M 2631 2963 
Q 2534 3019 2420 3045 
Q 2306 3072 2169 3072 
Q 1681 3072 1420 2755 
Q 1159 2438 1159 1844 
L 1159 0 
L 581 0 
L 581 3500 
L 1159 3500 
L 1159 2956 
Q 1341 3275 1631 3429 
Q 1922 3584 2338 3584 
Q 2397 3584 2469 3576 
Q 2541 3569 2628 3553 
L 2631 2963 
z
" transform="scale(0.015625)"/>
       <path id="DejaVuSans-74" d="M 1172 4494 
L 1172 3500 
L 2356 3500 
L 2356 3053 
L 1172 3053 
L 1172 1153 
Q 1172 725 1289 603 
Q 1406 481 1766 481 
L 2356 481 
L 2356 0 
L 1766 0 
Q 1100 0 847 248 
Q 594 497 594 1153 
L 594 3053 
L 172 3053 
L 172 3500 
L 594 3500 
L 594 4494 
L 1172 4494 
z
" transform="scale(0.015625)"/>
       <path id="DejaVuSans-75" d="M 544 1381 
L 544 3500 
L 1119 3500 
L 1119 1403 
Q 1119 906 1312 657 
Q 1506 409 1894 409 
Q 2359 409 2629 706 
Q 2900 1003 2900 1516 
L 2900 3500 
L 3475 3500 
L 3475 0 
L 2900 0 
L 2900 538 
Q 2691 219 2414 64 
Q 2138 -91 1772 -91 
Q 1169 -91 856 284 
Q 544 659 544 1381 
z
M 1991 3584 
L 1991 3584 
z
" transform="scale(0.015625)"/>
       <path id="DejaVuSans-28" d="M 1984 4856 
Q 1566 4138 1362 3434 
Q 1159 2731 1159 2009 
Q 1159 1288 1364 580 
Q 1569 -128 1984 -844 
L 1484 -844 
Q 1016 -109 783 600 
Q 550 1309 550 2009 
Q 550 2706 781 3412 
Q 1013 4119 1484 4856 
L 1984 4856 
z
" transform="scale(0.015625)"/>
       <path id="DejaVuSans-29" d="M 513 4856 
L 1013 4856 
Q 1481 4119 1714 3412 
Q 1947 2706 1947 2009 
Q 1947 1309 1714 600 
Q 1481 -109 1013 -844 
L 513 -844 
Q 928 -128 1133 580 
Q 1338 1288 1338 2009 
Q 1338 2731 1133 3434 
Q 928 4138 513 4856 
z
" transform="scale(0.015625)"/>
      </defs>
      <use xlink:href="#DejaVuSans-4d"/>
      <use xlink:href="#DejaVuSans-61" x="86.279297"/>
      <use xlink:href="#DejaVuSans-78" x="147.558594"/>
      <use xlink:href="#DejaVuSans-20" x="206.738281"/>
      <use xlink:href="#DejaVuSans-54" x="238.525391"/>
      <use xlink:href="#DejaVuSans-65" x="282.609375"/>
      <use xlink:href="#DejaVuSans-6d" x="344.132812"/>
      <use xlink:href="#DejaVuSans-70" x="441.544922"/>
      <use xlink:href="#DejaVuSans-65" x="505.021484"/>
      <use xlink:href="#DejaVuSans-72" x="566.544922"/>
      <use xlink:href="#DejaVuSans-61" x="607.658203"/>
      <use xlink:href="#DejaVuSans-74" x="668.9375"/>
      <use xlink:href="#DejaVuSans-75" x="708.146484"/>
      <use xlink:href="#DejaVuSans-72" x="771.525391"/>
      <use xlink:href="#DejaVuSans-65" x="810.388672"/>
      <use xlink:href="#DejaVuSans-20" x="871.912109"/>
      <use xlink:href="#DejaVuSans-28" x="903.699219"/>
      <use xlink:href="#DejaVuSans-b0" x="942.712891"/>
      <use xlink:href="#DejaVuSans-43" x="992.712891"/>
      <use xlink:href="#DejaVuSans-29" x="1062.537109"/>
     </g>
    </g>
   </g>
   <g id="line2d_25">
    <path d="M 69.12 303.019764 
L 838.08 303.019764 
" clip-path="url(#p81b509c6ad)" style="fill: none; stroke: #717174; stroke-width: 1.5; stroke-linecap: square"/>
   </g>
   <g id="line2d_26">
    <path d="M 69.12 196.298865 
L 838.08 196.298865 
" clip-path="url(#p81b509c6ad)" style="fill: none; stroke: #e34d21; stroke-width: 0.5; stroke-linecap: square"/>
   </g>
   <g id="line2d_27">
    <path d="M 69.12 280.079044 
L 72.19584 293.276704 
L 75.27168 315.44658 
L 78.34752 286.437068 
L 81.42336 294.826811 
L 84.4992 295.539772 
L 87.57504 293.764619 
L 90.65088 276.012455 
L 93.72672 322.631034 
L 96.80256 307.094659 
L 99.8784 316.193581 
L 102.95424 296.155025 
L 106.03008 300.195768 
L 109.10592 279.591759 
L 112.18176 314.316936 
L 118.33344 285.699522 
L 121.40928 292.064481 
L 124.48512 289.952074 
L 127.56096 303.707621 
L 130.6368 307.793752 
L 133.71264 292.003965 
L 136.78848 301.564956 
L 139.86432 283.471125 
L 142.94016 309.04695 
L 146.016 313.84352 
L 149.09184 304.500641 
L 152.16768 282.124 
L 155.24352 312.300347 
L 158.31936 281.535855 
L 161.3952 287.726828 
L 164.47104 304.96271 
L 167.54688 291.854564 
L 170.62272 300.824258 
L 173.69856 332.518562 
L 176.7744 329.58729 
L 179.85024 311.64349 
L 182.92608 311.492198 
L 186.00192 318.759863 
L 189.07776 307.253515 
L 192.1536 300.733483 
L 195.22944 312.430206 
L 198.30528 317.173194 
L 201.38112 310.978438 
L 204.45696 313.881973 
L 207.5328 313.596411 
L 210.60864 285.924568 
L 213.68448 324.507678 
L 216.76032 310.124271 
L 219.83616 335.93838 
L 222.912 301.114864 
L 225.98784 318.557511 
L 229.06368 306.215908 
L 232.13952 299.045322 
L 235.21536 321.741566 
L 238.2912 314.252007 
L 241.36704 280.94897 
L 244.44288 297.510344 
L 247.51872 301.75407 
L 250.59456 302.387603 
L 253.6704 303.957883 
L 256.74624 285.748062 
L 259.82208 295.199997 
L 262.89792 346.209181 
L 265.97376 283.06579 
L 269.0496 298.448982 
L 272.12544 318.836139 
L 275.20128 320.005496 
L 278.27712 310.459634 
L 281.35296 316.039768 
L 284.4288 310.964569 
L 287.50464 303.062111 
L 290.58048 313.377669 
L 293.65632 315.531681 
L 296.73216 281.779812 
L 299.808 302.980792 
L 302.88384 328.133001 
L 305.95968 290.884408 
L 309.03552 311.912663 
L 312.11136 321.941397 
L 315.1872 321.641966 
L 318.26304 329.990419 
L 321.33888 314.426938 
L 324.41472 320.974077 
L 327.49056 328.850374 
L 330.5664 312.963193 
L 333.64224 326.950406 
L 336.71808 297.33037 
L 339.79392 308.089716 
L 342.86976 309.364347 
L 345.9456 311.707789 
L 349.02144 304.100979 
L 352.09728 311.196865 
L 355.17312 320.727283 
L 358.24896 300.371329 
L 361.3248 291.067533 
L 364.40064 331.721761 
L 367.47648 300.450442 
L 370.55232 313.468443 
L 373.62816 296.460759 
L 376.704 307.780199 
L 379.77984 317.353798 
L 382.85568 335.824596 
L 385.93152 311.733004 
L 389.00736 313.04073 
L 392.0832 314.21513 
L 395.15904 310.523303 
L 398.23488 330.193717 
L 401.31072 328.91751 
L 404.38656 303.005062 
L 407.4624 328.022053 
L 410.53824 338.557299 
L 413.61408 354.436285 
L 416.68992 329.169032 
L 419.76576 322.683986 
L 422.8416 322.355557 
L 425.91744 323.611592 
L 428.99328 360.322154 
L 432.06912 343.683559 
L 435.14496 323.248177 
L 438.2208 336.637788 
L 441.29664 333.014672 
L 444.37248 320.444872 
L 447.44832 338.962949 
L 450.52416 334.882492 
L 453.6 318.403067 
L 456.67584 343.269398 
L 459.75168 337.851272 
L 462.82752 321.049723 
L 465.90336 298.759444 
L 468.9792 323.428151 
L 472.05504 331.116279 
L 475.13088 343.481206 
L 478.20672 325.476574 
L 481.28256 332.490195 
L 484.3584 331.897637 
L 487.43424 317.107004 
L 490.51008 308.277885 
L 493.58592 309.914985 
L 496.66176 331.309491 
L 499.7376 304.161496 
L 502.81344 311.063539 
L 505.88928 330.596215 
L 508.96512 341.089225 
L 512.04096 309.400594 
L 515.1168 313.522971 
L 518.19264 328.750774 
L 521.26848 296.815979 
L 524.34432 317.425031 
L 527.42016 315.124455 
L 530.496 308.329261 
L 533.57184 298.861881 
L 536.64768 277.159118 
L 539.72352 295.176043 
L 542.79936 279.512646 
L 545.8752 303.990662 
L 548.95104 261.800196 
L 552.02688 273.493137 
L 555.10272 281.795257 
L 558.17856 264.253325 
L 561.2544 265.241762 
L 564.33024 283.665282 
L 567.40608 302.800188 
L 570.48192 281.360609 
L 573.55776 270.493468 
L 573.55776 270.493468 
" clip-path="url(#p81b509c6ad)" style="fill: none; stroke: #777777; stroke-width: 1.8; stroke-linecap: square"/>
   </g>
   <g id="line2d_28">
    <path d="M 576.6336 281.276138 
L 579.70944 297.643985 
L 582.78528 240.997302 
L 585.86112 270.880522 
L 588.93696 279.865975 
L 592.0128 278.031566 
L 595.08864 285.569349 
L 598.16448 282.778966 
L 601.24032 298.960536 
L 604.31616 259.680855 
L 607.392 252.439981 
L 610.46784 261.882461 
L 613.54368 282.356611 
L 616.61952 269.486749 
L 619.69536 246.051699 
L 622.7712 245.152775 
L 625.84704 253.210938 
L 628.92288 293.183408 
L 631.99872 275.486087 
L 635.07456 224.594154 
L 638.1504 271.40626 
L 641.22624 267.276002 
L 644.30208 235.793506 
L 647.37792 253.48011 
L 650.45376 258.063612 
L 653.5296 244.024393 
L 656.60544 269.525202 
L 659.68128 268.988118 
L 662.75712 232.663033 
L 665.83296 251.386614 
L 668.9088 264.068623 
L 671.98464 238.307466 
L 675.06048 252.60325 
L 678.13632 241.994565 
L 681.21216 240.245888 
L 684.288 231.638033 
L 687.36384 251.387245 
L 690.43968 243.881927 
L 693.51552 241.083034 
L 696.59136 269.485488 
L 699.6672 215.004165 
L 702.74304 246.56672 
L 705.81888 263.20374 
L 708.89472 235.647257 
L 711.97056 259.471253 
L 715.0464 265.213395 
L 718.12224 227.247428 
L 721.19808 235.526855 
L 724.27392 223.64417 
L 727.34976 231.832821 
L 730.4256 256.01046 
L 733.50144 221.491418 
L 736.57728 223.33024 
L 739.65312 221.953487 
L 742.72896 218.952242 
L 745.8048 236.26377 
L 748.88064 212.572785 
L 751.95648 214.824507 
L 755.03232 250.785231 
L 758.10816 210.643188 
L 761.184 219.8083 
L 764.25984 219.669616 
L 767.33568 243.888861 
L 770.41152 209.457441 
L 773.48736 226.503579 
L 776.5632 210.739637 
L 779.63904 238.332051 
L 782.71488 190.568069 
L 785.79072 233.712618 
L 788.86656 232.199072 
L 791.9424 211.552828 
L 795.01824 221.560129 
L 798.09408 181.981017 
L 801.16992 220.327104 
L 804.24576 167.371934 
L 807.3216 189.204555 
L 810.39744 195.294037 
L 813.47328 204.285164 
L 816.54912 202.85672 
L 819.62496 216.882701 
L 822.7008 191.780292 
L 825.77664 215.435976 
L 828.85248 207.98361 
L 831.92832 214.88061 
L 835.00416 197.947311 
L 838.08 177.343303 
L 838.08 177.343303 
" clip-path="url(#p81b509c6ad)" style="fill: none; stroke: #3db5af; stroke-width: 1.8; stroke-linecap: square"/>
   </g>
   <g id="text_22">
    <!-- Maximal temperature (in Czechia) projections (24 CMIP6 models) -->
    <g transform="translate(160.001719 22.8) scale(0.18 -0.18)">
     <defs>
      <path id="DejaVuSans-69" d="M 603 3500 
L 1178 3500 
L 1178 0 
L 603 0 
L 603 3500 
z
M 603 4863 
L 1178 4863 
L 1178 4134 
L 603 4134 
L 603 4863 
z
" transform="scale(0.015625)"/>
      <path id="DejaVuSans-6c" d="M 603 4863 
L 1178 4863 
L 1178 0 
L 603 0 
L 603 4863 
z
" transform="scale(0.015625)"/>
      <path id="DejaVuSans-6e" d="M 3513 2113 
L 3513 0 
L 2938 0 
L 2938 2094 
Q 2938 2591 2744 2837 
Q 2550 3084 2163 3084 
Q 1697 3084 1428 2787 
Q 1159 2491 1159 1978 
L 1159 0 
L 581 0 
L 581 3500 
L 1159 3500 
L 1159 2956 
Q 1366 3272 1645 3428 
Q 1925 3584 2291 3584 
Q 2894 3584 3203 3211 
Q 3513 2838 3513 2113 
z
" transform="scale(0.015625)"/>
      <path id="DejaVuSans-7a" d="M 353 3500 
L 3084 3500 
L 3084 2975 
L 922 459 
L 3084 459 
L 3084 0 
L 275 0 
L 275 525 
L 2438 3041 
L 353 3041 
L 353 3500 
z
" transform="scale(0.015625)"/>
      <path id="DejaVuSans-63" d="M 3122 3366 
L 3122 2828 
Q 2878 2963 2633 3030 
Q 2388 3097 2138 3097 
Q 1578 3097 1268 2742 
Q 959 2388 959 1747 
Q 959 1106 1268 751 
Q 1578 397 2138 397 
Q 2388 397 2633 464 
Q 2878 531 3122 666 
L 3122 134 
Q 2881 22 2623 -34 
Q 2366 -91 2075 -91 
Q 1284 -91 818 406 
Q 353 903 353 1747 
Q 353 2603 823 3093 
Q 1294 3584 2113 3584 
Q 2378 3584 2631 3529 
Q 2884 3475 3122 3366 
z
" transform="scale(0.015625)"/>
      <path id="DejaVuSans-68" d="M 3513 2113 
L 3513 0 
L 2938 0 
L 2938 2094 
Q 2938 2591 2744 2837 
Q 2550 3084 2163 3084 
Q 1697 3084 1428 2787 
Q 1159 2491 1159 1978 
L 1159 0 
L 581 0 
L 581 4863 
L 1159 4863 
L 1159 2956 
Q 1366 3272 1645 3428 
Q 1925 3584 2291 3584 
Q 2894 3584 3203 3211 
Q 3513 2838 3513 2113 
z
" transform="scale(0.015625)"/>
      <path id="DejaVuSans-6f" d="M 1959 3097 
Q 1497 3097 1228 2736 
Q 959 2375 959 1747 
Q 959 1119 1226 758 
Q 1494 397 1959 397 
Q 2419 397 2687 759 
Q 2956 1122 2956 1747 
Q 2956 2369 2687 2733 
Q 2419 3097 1959 3097 
z
M 1959 3584 
Q 2709 3584 3137 3096 
Q 3566 2609 3566 1747 
Q 3566 888 3137 398 
Q 2709 -91 1959 -91 
Q 1206 -91 779 398 
Q 353 888 353 1747 
Q 353 2609 779 3096 
Q 1206 3584 1959 3584 
z
" transform="scale(0.015625)"/>
      <path id="DejaVuSans-6a" d="M 603 3500 
L 1178 3500 
L 1178 -63 
Q 1178 -731 923 -1031 
Q 669 -1331 103 -1331 
L -116 -1331 
L -116 -844 
L 38 -844 
Q 366 -844 484 -692 
Q 603 -541 603 -63 
L 603 3500 
z
M 603 4863 
L 1178 4863 
L 1178 4134 
L 603 4134 
L 603 4863 
z
" transform="scale(0.015625)"/>
      <path id="DejaVuSans-73" d="M 2834 3397 
L 2834 2853 
Q 2591 2978 2328 3040 
Q 2066 3103 1784 3103 
Q 1356 3103 1142 2972 
Q 928 2841 928 2578 
Q 928 2378 1081 2264 
Q 1234 2150 1697 2047 
L 1894 2003 
Q 2506 1872 2764 1633 
Q 3022 1394 3022 966 
Q 3022 478 2636 193 
Q 2250 -91 1575 -91 
Q 1294 -91 989 -36 
Q 684 19 347 128 
L 347 722 
Q 666 556 975 473 
Q 1284 391 1588 391 
Q 1994 391 2212 530 
Q 2431 669 2431 922 
Q 2431 1156 2273 1281 
Q 2116 1406 1581 1522 
L 1381 1569 
Q 847 1681 609 1914 
Q 372 2147 372 2553 
Q 372 3047 722 3315 
Q 1072 3584 1716 3584 
Q 2034 3584 2315 3537 
Q 2597 3491 2834 3397 
z
" transform="scale(0.015625)"/>
      <path id="DejaVuSans-49" d="M 628 4666 
L 1259 4666 
L 1259 0 
L 628 0 
L 628 4666 
z
" transform="scale(0.015625)"/>
      <path id="DejaVuSans-50" d="M 1259 4147 
L 1259 2394 
L 2053 2394 
Q 2494 2394 2734 2622 
Q 2975 2850 2975 3272 
Q 2975 3691 2734 3919 
Q 2494 4147 2053 4147 
L 1259 4147 
z
M 628 4666 
L 2053 4666 
Q 2838 4666 3239 4311 
Q 3641 3956 3641 3272 
Q 3641 2581 3239 2228 
Q 2838 1875 2053 1875 
L 1259 1875 
L 1259 0 
L 628 0 
L 628 4666 
z
" transform="scale(0.015625)"/>
      <path id="DejaVuSans-36" d="M 2113 2584 
Q 1688 2584 1439 2293 
Q 1191 2003 1191 1497 
Q 1191 994 1439 701 
Q 1688 409 2113 409 
Q 2538 409 2786 701 
Q 3034 994 3034 1497 
Q 3034 2003 2786 2293 
Q 2538 2584 2113 2584 
z
M 3366 4563 
L 3366 3988 
Q 3128 4100 2886 4159 
Q 2644 4219 2406 4219 
Q 1781 4219 1451 3797 
Q 1122 3375 1075 2522 
Q 1259 2794 1537 2939 
Q 1816 3084 2150 3084 
Q 2853 3084 3261 2657 
Q 3669 2231 3669 1497 
Q 3669 778 3244 343 
Q 2819 -91 2113 -91 
Q 1303 -91 875 529 
Q 447 1150 447 2328 
Q 447 3434 972 4092 
Q 1497 4750 2381 4750 
Q 2619 4750 2861 4703 
Q 3103 4656 3366 4563 
z
" transform="scale(0.015625)"/>
      <path id="DejaVuSans-64" d="M 2906 2969 
L 2906 4863 
L 3481 4863 
L 3481 0 
L 2906 0 
L 2906 525 
Q 2725 213 2448 61 
Q 2172 -91 1784 -91 
Q 1150 -91 751 415 
Q 353 922 353 1747 
Q 353 2572 751 3078 
Q 1150 3584 1784 3584 
Q 2172 3584 2448 3432 
Q 2725 3281 2906 2969 
z
M 947 1747 
Q 947 1113 1208 752 
Q 1469 391 1925 391 
Q 2381 391 2643 752 
Q 2906 1113 2906 1747 
Q 2906 2381 2643 2742 
Q 2381 3103 1925 3103 
Q 1469 3103 1208 2742 
Q 947 2381 947 1747 
z
" transform="scale(0.015625)"/>
     </defs>
     <use xlink:href="#DejaVuSans-4d"/>
     <use xlink:href="#DejaVuSans-61" x="86.279297"/>
     <use xlink:href="#DejaVuSans-78" x="147.558594"/>
     <use xlink:href="#DejaVuSans-69" x="206.738281"/>
     <use xlink:href="#DejaVuSans-6d" x="234.521484"/>
     <use xlink:href="#DejaVuSans-61" x="331.933594"/>
     <use xlink:href="#DejaVuSans-6c" x="393.212891"/>
     <use xlink:href="#DejaVuSans-20" x="420.996094"/>
     <use xlink:href="#DejaVuSans-74" x="452.783203"/>
     <use xlink:href="#DejaVuSans-65" x="491.992188"/>
     <use xlink:href="#DejaVuSans-6d" x="553.515625"/>
     <use xlink:href="#DejaVuSans-70" x="650.927734"/>
     <use xlink:href="#DejaVuSans-65" x="714.404297"/>
     <use xlink:href="#DejaVuSans-72" x="775.927734"/>
     <use xlink:href="#DejaVuSans-61" x="817.041016"/>
     <use xlink:href="#DejaVuSans-74" x="878.320312"/>
     <use xlink:href="#DejaVuSans-75" x="917.529297"/>
     <use xlink:href="#DejaVuSans-72" x="980.908203"/>
     <use xlink:href="#DejaVuSans-65" x="1019.771484"/>
     <use xlink:href="#DejaVuSans-20" x="1081.294922"/>
     <use xlink:href="#DejaVuSans-28" x="1113.082031"/>
     <use xlink:href="#DejaVuSans-69" x="1152.095703"/>
     <use xlink:href="#DejaVuSans-6e" x="1179.878906"/>
     <use xlink:href="#DejaVuSans-20" x="1243.257812"/>
     <use xlink:href="#DejaVuSans-43" x="1275.044922"/>
     <use xlink:href="#DejaVuSans-7a" x="1344.869141"/>
     <use xlink:href="#DejaVuSans-65" x="1397.359375"/>
     <use xlink:href="#DejaVuSans-63" x="1458.882812"/>
     <use xlink:href="#DejaVuSans-68" x="1513.863281"/>
     <use xlink:href="#DejaVuSans-69" x="1577.242188"/>
     <use xlink:href="#DejaVuSans-61" x="1605.025391"/>
     <use xlink:href="#DejaVuSans-29" x="1666.304688"/>
     <use xlink:href="#DejaVuSans-20" x="1705.318359"/>
     <use xlink:href="#DejaVuSans-70" x="1737.105469"/>
     <use xlink:href="#DejaVuSans-72" x="1800.582031"/>
     <use xlink:href="#DejaVuSans-6f" x="1839.445312"/>
     <use xlink:href="#DejaVuSans-6a" x="1900.626953"/>
     <use xlink:href="#DejaVuSans-65" x="1928.410156"/>
     <use xlink:href="#DejaVuSans-63" x="1989.933594"/>
     <use xlink:href="#DejaVuSans-74" x="2044.914062"/>
     <use xlink:href="#DejaVuSans-69" x="2084.123047"/>
     <use xlink:href="#DejaVuSans-6f" x="2111.90625"/>
     <use xlink:href="#DejaVuSans-6e" x="2173.087891"/>
     <use xlink:href="#DejaVuSans-73" x="2236.466797"/>
     <use xlink:href="#DejaVuSans-20" x="2288.566406"/>
     <use xlink:href="#DejaVuSans-28" x="2320.353516"/>
     <use xlink:href="#DejaVuSans-32" x="2359.367188"/>
     <use xlink:href="#DejaVuSans-34" x="2422.990234"/>
     <use xlink:href="#DejaVuSans-20" x="2486.613281"/>
     <use xlink:href="#DejaVuSans-43" x="2518.400391"/>
     <use xlink:href="#DejaVuSans-4d" x="2588.224609"/>
     <use xlink:href="#DejaVuSans-49" x="2674.503906"/>
     <use xlink:href="#DejaVuSans-50" x="2703.996094"/>
     <use xlink:href="#DejaVuSans-36" x="2764.298828"/>
     <use xlink:href="#DejaVuSans-20" x="2827.921875"/>
     <use xlink:href="#DejaVuSans-6d" x="2859.708984"/>
     <use xlink:href="#DejaVuSans-6f" x="2957.121094"/>
     <use xlink:href="#DejaVuSans-64" x="3018.302734"/>
     <use xlink:href="#DejaVuSans-65" x="3081.779297"/>
     <use xlink:href="#DejaVuSans-6c" x="3143.302734"/>
     <use xlink:href="#DejaVuSans-73" x="3171.085938"/>
     <use xlink:href="#DejaVuSans-29" x="3223.185547"/>
    </g>
   </g>
   <g id="legend_1">
    <g id="PathCollection_2">
     <g>
      <use xlink:href="#m58a16b3c47" x="95.72" y="48.362813" style="stroke: #000000"/>
     </g>
    </g>
    <g id="text_23">
     <!-- measurements -->
     <g transform="translate(120.92 52.037813) scale(0.14 -0.14)">
      <use xlink:href="#DejaVuSans-6d"/>
      <use xlink:href="#DejaVuSans-65" x="97.412109"/>
      <use xlink:href="#DejaVuSans-61" x="158.935547"/>
      <use xlink:href="#DejaVuSans-73" x="220.214844"/>
      <use xlink:href="#DejaVuSans-75" x="272.314453"/>
      <use xlink:href="#DejaVuSans-72" x="335.693359"/>
      <use xlink:href="#DejaVuSans-65" x="374.556641"/>
      <use xlink:href="#DejaVuSans-6d" x="436.080078"/>
      <use xlink:href="#DejaVuSans-65" x="533.492188"/>
      <use xlink:href="#DejaVuSans-6e" x="595.015625"/>
      <use xlink:href="#DejaVuSans-74" x="658.394531"/>
      <use xlink:href="#DejaVuSans-73" x="697.603516"/>
     </g>
    </g>
    <g id="line2d_29">
     <path d="M 81.72 67.687188 
L 95.72 67.687188 
L 109.72 67.687188 
" style="fill: none; stroke: #777777; stroke-width: 1.8; stroke-linecap: square"/>
    </g>
    <g id="text_24">
     <!-- hindcast -->
     <g transform="translate(120.92 72.587188) scale(0.14 -0.14)">
      <use xlink:href="#DejaVuSans-68"/>
      <use xlink:href="#DejaVuSans-69" x="63.378906"/>
      <use xlink:href="#DejaVuSans-6e" x="91.162109"/>
      <use xlink:href="#DejaVuSans-64" x="154.541016"/>
      <use xlink:href="#DejaVuSans-63" x="218.017578"/>
      <use xlink:href="#DejaVuSans-61" x="272.998047"/>
      <use xlink:href="#DejaVuSans-73" x="334.277344"/>
      <use xlink:href="#DejaVuSans-74" x="386.376953"/>
     </g>
    </g>
    <g id="line2d_30">
     <path d="M 81.72 88.236563 
L 95.72 88.236563 
L 109.72 88.236563 
" style="fill: none; stroke: #3db5af; stroke-width: 1.8; stroke-linecap: square"/>
    </g>
    <g id="text_25">
     <!-- 3° = no decline till 2050 -->
     <g transform="translate(120.92 93.136563) scale(0.14 -0.14)">
      <defs>
       <path id="DejaVuSans-3d" d="M 678 2906 
L 4684 2906 
L 4684 2381 
L 678 2381 
L 678 2906 
z
M 678 1631 
L 4684 1631 
L 4684 1100 
L 678 1100 
L 678 1631 
z
" transform="scale(0.015625)"/>
      </defs>
      <use xlink:href="#DejaVuSans-33"/>
      <use xlink:href="#DejaVuSans-b0" x="63.623047"/>
      <use xlink:href="#DejaVuSans-20" x="113.623047"/>
      <use xlink:href="#DejaVuSans-3d" x="145.410156"/>
      <use xlink:href="#DejaVuSans-20" x="229.199219"/>
      <use xlink:href="#DejaVuSans-6e" x="260.986328"/>
      <use xlink:href="#DejaVuSans-6f" x="324.365234"/>
      <use xlink:href="#DejaVuSans-20" x="385.546875"/>
      <use xlink:href="#DejaVuSans-64" x="417.333984"/>
      <use xlink:href="#DejaVuSans-65" x="480.810547"/>
      <use xlink:href="#DejaVuSans-63" x="542.333984"/>
      <use xlink:href="#DejaVuSans-6c" x="597.314453"/>
      <use xlink:href="#DejaVuSans-69" x="625.097656"/>
      <use xlink:href="#DejaVuSans-6e" x="652.880859"/>
      <use xlink:href="#DejaVuSans-65" x="716.259766"/>
      <use xlink:href="#DejaVuSans-20" x="777.783203"/>
      <use xlink:href="#DejaVuSans-74" x="809.570312"/>
      <use xlink:href="#DejaVuSans-69" x="848.779297"/>
      <use xlink:href="#DejaVuSans-6c" x="876.5625"/>
      <use xlink:href="#DejaVuSans-6c" x="904.345703"/>
      <use xlink:href="#DejaVuSans-20" x="932.128906"/>
      <use xlink:href="#DejaVuSans-32" x="963.916016"/>
      <use xlink:href="#DejaVuSans-30" x="1027.539062"/>
      <use xlink:href="#DejaVuSans-35" x="1091.162109"/>
      <use xlink:href="#DejaVuSans-30" x="1154.785156"/>
     </g>
    </g>
   </g>
  </g>
 </g>
 <defs>
  <clipPath id="p81b509c6ad">
   <rect x="69.12" y="28.8" width="768.96" height="460.8"/>
  </clipPath>
 </defs>
</svg>
